<svg xmlns="http://www.w3.org/2000/svg" width="143.516" height="144.745" viewBox="0 0 143.516 144.745">
  <g id="Grupo_1217622" data-name="Grupo 1217622" transform="translate(-623.484 -3673)">
    <rect id="Rectángulo_420490" data-name="Rectángulo 420490" width="88" height="144" transform="translate(679 3673)" fill="#56678d"/>
    <g id="empoderando" transform="translate(616.984 3678.233)">
      <g id="Grupo_1217613" data-name="Grupo 1217613" transform="translate(7.5 12.62)">
        <g id="Grupo_1217606" data-name="Grupo 1217606" transform="translate(29.263)">
          <path id="Trazado_1086058" data-name="Trazado 1086058" d="M119.484,81.49v19.444a11.749,11.749,0,0,0,2.45,7.18l4.27,5.53-3.215,77.484h35.125a2.267,2.267,0,0,0,2.267-2.267V81.49Z" transform="translate(-119.484 -65.512)" fill="#d78878"/>
          <g id="Grupo_1217604" data-name="Grupo 1217604">
            <path id="Trazado_1086059" data-name="Trazado 1086059" d="M124.6,53.3h0a5.112,5.112,0,0,1-5.112-5.112V36.7a5.112,5.112,0,0,1,5.112-5.112h0a5.112,5.112,0,0,1,5.112,5.112V48.187A5.112,5.112,0,0,1,124.6,53.3Z" transform="translate(-119.483 -28.647)" fill="#d78878"/>
            <path id="Trazado_1086060" data-name="Trazado 1086060" d="M163.721,45h0a5.112,5.112,0,0,1-5.112-5.112V25.456a5.112,5.112,0,0,1,5.112-5.112h0a5.112,5.112,0,0,1,5.112,5.112V39.884A5.112,5.112,0,0,1,163.721,45Z" transform="translate(-148.385 -20.344)" fill="#d78878"/>
            <path id="Trazado_1086061" data-name="Trazado 1086061" d="M202.846,45h0a5.112,5.112,0,0,1-5.112-5.112V25.456a5.112,5.112,0,0,1,5.112-5.112h0a5.112,5.112,0,0,1,5.112,5.112V39.884A5.112,5.112,0,0,1,202.846,45Z" transform="translate(-177.286 -20.344)" fill="#d78878"/>
            <path id="Trazado_1086062" data-name="Trazado 1086062" d="M241.971,45h0a5.112,5.112,0,0,1-5.112-5.112V25.456a5.112,5.112,0,0,1,5.112-5.112h0a5.112,5.112,0,0,1,5.112,5.112V39.884A5.112,5.112,0,0,1,241.971,45Z" transform="translate(-206.187 -20.344)" fill="#d78878"/>
          </g>
          <g id="Grupo_1217605" data-name="Grupo 1217605" transform="translate(1.969)">
            <path id="Trazado_1086063" data-name="Trazado 1086063" d="M130.162,31.585h0a5.085,5.085,0,0,0-3.143,1.086,5.1,5.1,0,0,1,1.969,4.026V48.188a5.1,5.1,0,0,1-1.969,4.026,5.084,5.084,0,0,0,3.143,1.086h0a5.112,5.112,0,0,0,5.112-5.112V36.7A5.111,5.111,0,0,0,130.162,31.585Z" transform="translate(-127.019 -28.648)" fill="#ca6e59"/>
            <path id="Trazado_1086064" data-name="Trazado 1086064" d="M174.4,25.456a5.112,5.112,0,0,0-5.112-5.112h0a5.085,5.085,0,0,0-3.143,1.086,5.1,5.1,0,0,1,1.969,4.026V39.884a5.1,5.1,0,0,1-1.969,4.026,5.107,5.107,0,0,0,8.255-4.026Z" transform="translate(-155.921 -20.344)" fill="#ca6e59"/>
            <path id="Trazado_1086065" data-name="Trazado 1086065" d="M208.413,20.345a5.086,5.086,0,0,0-3.143,1.086,5.1,5.1,0,0,1,1.969,4.026V39.885a5.1,5.1,0,0,1-1.969,4.026A5.084,5.084,0,0,0,208.413,45h0a5.112,5.112,0,0,0,5.112-5.112V25.457A5.112,5.112,0,0,0,208.413,20.345Z" transform="translate(-184.822 -20.345)" fill="#ca6e59"/>
            <path id="Trazado_1086066" data-name="Trazado 1086066" d="M247.539,20.345a5.085,5.085,0,0,0-3.143,1.086,5.1,5.1,0,0,1,1.969,4.026V39.885a5.1,5.1,0,0,1-1.969,4.026A5.084,5.084,0,0,0,247.539,45h0a5.112,5.112,0,0,0,5.112-5.112V25.457A5.112,5.112,0,0,0,247.539,20.345Z" transform="translate(-213.724 -20.345)" fill="#ca6e59"/>
          </g>
          <path id="Trazado_1086067" data-name="Trazado 1086067" d="M226.443,98.213l-8.261,12.079v8.2H201.548V106.218A12.221,12.221,0,0,1,205,97.711l10.1-10.42H202.579a4.845,4.845,0,0,1-4.845-4.845h0a4.845,4.845,0,0,1,4.845-4.845h18.6a5.706,5.706,0,0,1,5.665,5.028L227.967,92A9.1,9.1,0,0,1,226.443,98.213Z" transform="translate(-177.286 -62.639)" fill="#d78878"/>
          <path id="Trazado_1086068" data-name="Trazado 1086068" d="M180.072,92l-1.12-9.367a5.706,5.706,0,0,0-5.666-5.028h-7.853A5.706,5.706,0,0,1,171.1,82.63L172.219,92a9.1,9.1,0,0,1-1.524,6.217l-6.724,9.831a8.8,8.8,0,0,0-1.537,4.97V185.99a2.267,2.267,0,0,1-2.267,2.267h7.853a2.267,2.267,0,0,0,2.267-2.267v-75.7l8.261-12.079A9.1,9.1,0,0,0,180.072,92Z" transform="translate(-129.39 -62.64)" fill="#ca6e59"/>
        </g>
        <g id="Grupo_1217609" data-name="Grupo 1217609" transform="translate(0 55.197)">
          <path id="Trazado_1086069" data-name="Trazado 1086069" d="M7.5,292.719v19.444a11.75,11.75,0,0,0,2.45,7.18l4.27,5.53-1.352,18.679a3.366,3.366,0,0,0,3.357,3.609H48.4V292.719Z" transform="translate(-7.5 -276.741)" fill="#ffcebf"/>
          <g id="Grupo_1217607" data-name="Grupo 1217607">
            <path id="Trazado_1086070" data-name="Trazado 1086070" d="M12.612,264.528h0A5.112,5.112,0,0,1,7.5,259.416V247.925a5.112,5.112,0,0,1,5.112-5.112h0a5.112,5.112,0,0,1,5.112,5.112v11.491A5.112,5.112,0,0,1,12.612,264.528Z" transform="translate(-7.5 -239.876)" fill="#ffcebf"/>
            <path id="Trazado_1086071" data-name="Trazado 1086071" d="M51.737,256.225h0a5.112,5.112,0,0,1-5.112-5.112V236.685a5.112,5.112,0,0,1,5.112-5.112h0a5.112,5.112,0,0,1,5.112,5.112v14.428A5.112,5.112,0,0,1,51.737,256.225Z" transform="translate(-36.401 -231.573)" fill="#ffcebf"/>
            <path id="Trazado_1086072" data-name="Trazado 1086072" d="M90.862,256.225h0a5.112,5.112,0,0,1-5.112-5.112V236.685a5.112,5.112,0,0,1,5.112-5.112h0a5.112,5.112,0,0,1,5.112,5.112v14.428A5.112,5.112,0,0,1,90.862,256.225Z" transform="translate(-65.302 -231.573)" fill="#ffcebf"/>
            <path id="Trazado_1086073" data-name="Trazado 1086073" d="M129.987,256.225h0a5.112,5.112,0,0,1-5.112-5.112V236.685a5.112,5.112,0,0,1,5.112-5.112h0a5.112,5.112,0,0,1,5.112,5.112v14.428A5.112,5.112,0,0,1,129.987,256.225Z" transform="translate(-94.203 -231.573)" fill="#ffcebf"/>
          </g>
          <g id="Grupo_1217608" data-name="Grupo 1217608" transform="translate(1.969)">
            <path id="Trazado_1086074" data-name="Trazado 1086074" d="M18.179,242.814h0a5.085,5.085,0,0,0-3.143,1.086,5.1,5.1,0,0,1,1.969,4.026v11.491a5.1,5.1,0,0,1-1.969,4.026,5.084,5.084,0,0,0,3.143,1.086h0a5.112,5.112,0,0,0,5.112-5.112V247.926A5.112,5.112,0,0,0,18.179,242.814Z" transform="translate(-15.036 -239.877)" fill="#ffb09e"/>
            <path id="Trazado_1086075" data-name="Trazado 1086075" d="M62.416,236.685a5.112,5.112,0,0,0-5.112-5.112h0a5.084,5.084,0,0,0-3.143,1.086,5.1,5.1,0,0,1,1.969,4.026v14.428a5.1,5.1,0,0,1-1.969,4.026,5.107,5.107,0,0,0,8.255-4.026Z" transform="translate(-43.937 -231.573)" fill="#ffb09e"/>
            <path id="Trazado_1086076" data-name="Trazado 1086076" d="M96.429,231.573a5.085,5.085,0,0,0-3.143,1.086,5.1,5.1,0,0,1,1.969,4.026v14.428a5.1,5.1,0,0,1-1.969,4.026,5.084,5.084,0,0,0,3.143,1.086h0a5.112,5.112,0,0,0,5.112-5.112V236.685A5.112,5.112,0,0,0,96.429,231.573Z" transform="translate(-72.838 -231.573)" fill="#ffb09e"/>
            <path id="Trazado_1086077" data-name="Trazado 1086077" d="M135.555,231.573a5.084,5.084,0,0,0-3.143,1.086,5.1,5.1,0,0,1,1.969,4.026v14.428a5.1,5.1,0,0,1-1.969,4.026,5.084,5.084,0,0,0,3.143,1.086h0a5.112,5.112,0,0,0,5.112-5.112V236.685A5.112,5.112,0,0,0,135.555,231.573Z" transform="translate(-101.74 -231.573)" fill="#ffb09e"/>
          </g>
          <path id="Trazado_1086078" data-name="Trazado 1086078" d="M114.46,309.442,106.2,321.521v8.2H89.565V317.447a12.22,12.22,0,0,1,3.448-8.508l10.1-10.42H90.6a4.845,4.845,0,0,1-4.845-4.845h0A4.845,4.845,0,0,1,90.6,288.83h18.6a5.705,5.705,0,0,1,5.665,5.028l1.12,9.366A9.1,9.1,0,0,1,114.46,309.442Z" transform="translate(-65.303 -273.868)" fill="#ffcebf"/>
          <path id="Trazado_1086079" data-name="Trazado 1086079" d="M82.846,303.226l-1.121-9.368a5.7,5.7,0,0,0-5.665-5.028H68.207a5.7,5.7,0,0,1,5.665,5.028l1.121,9.368a9.1,9.1,0,0,1-1.526,6.217L66.32,319.894a6.372,6.372,0,0,0-1.112,3.6v20.8H73.06V321.52l8.262-12.078A9.1,9.1,0,0,0,82.846,303.226Z" transform="translate(-32.164 -273.868)" fill="#ffb09e"/>
        </g>
        <g id="Grupo_1217612" data-name="Grupo 1217612" transform="translate(79.127 28.931)">
          <path id="Trazado_1086080" data-name="Trazado 1086080" d="M310.3,192.2v19.444a11.749,11.749,0,0,0,2.45,7.18l4.27,5.53L314.045,269.6a3.366,3.366,0,0,0,3.358,3.587h31.53a2.267,2.267,0,0,0,2.267-2.267V192.2Z" transform="translate(-310.305 -176.224)" fill="#eb9c8d"/>
          <g id="Grupo_1217610" data-name="Grupo 1217610">
            <path id="Trazado_1086081" data-name="Trazado 1086081" d="M315.416,164.011h0A5.112,5.112,0,0,1,310.3,158.9V147.408a5.112,5.112,0,0,1,5.112-5.112h0a5.112,5.112,0,0,1,5.112,5.112V158.9A5.112,5.112,0,0,1,315.416,164.011Z" transform="translate(-310.304 -139.359)" fill="#eb9c8d"/>
            <path id="Trazado_1086082" data-name="Trazado 1086082" d="M354.541,155.708h0a5.112,5.112,0,0,1-5.112-5.112V136.168a5.112,5.112,0,0,1,5.112-5.112h0a5.112,5.112,0,0,1,5.112,5.112V150.6A5.112,5.112,0,0,1,354.541,155.708Z" transform="translate(-339.205 -131.056)" fill="#eb9c8d"/>
            <path id="Trazado_1086083" data-name="Trazado 1086083" d="M393.667,155.708h0a5.112,5.112,0,0,1-5.112-5.112V136.168a5.112,5.112,0,0,1,5.112-5.112h0a5.112,5.112,0,0,1,5.112,5.112V150.6A5.112,5.112,0,0,1,393.667,155.708Z" transform="translate(-368.107 -131.056)" fill="#eb9c8d"/>
            <path id="Trazado_1086084" data-name="Trazado 1086084" d="M432.792,155.708h0a5.112,5.112,0,0,1-5.112-5.112V136.168a5.112,5.112,0,0,1,5.112-5.112h0a5.112,5.112,0,0,1,5.112,5.112V150.6A5.112,5.112,0,0,1,432.792,155.708Z" transform="translate(-397.008 -131.056)" fill="#eb9c8d"/>
          </g>
          <g id="Grupo_1217611" data-name="Grupo 1217611" transform="translate(1.97 0)">
            <path id="Trazado_1086085" data-name="Trazado 1086085" d="M320.984,142.3h0a5.083,5.083,0,0,0-3.143,1.086,5.1,5.1,0,0,1,1.969,4.026V158.9a5.1,5.1,0,0,1-1.969,4.026,5.084,5.084,0,0,0,3.143,1.086h0A5.112,5.112,0,0,0,326.1,158.9V147.409A5.112,5.112,0,0,0,320.984,142.3Z" transform="translate(-317.841 -139.36)" fill="#d78878"/>
            <path id="Trazado_1086086" data-name="Trazado 1086086" d="M365.221,136.168a5.112,5.112,0,0,0-5.112-5.112h0a5.085,5.085,0,0,0-3.143,1.086,5.1,5.1,0,0,1,1.969,4.026V150.6a5.1,5.1,0,0,1-1.969,4.026,5.107,5.107,0,0,0,8.255-4.026Z" transform="translate(-346.742 -131.056)" fill="#d78878"/>
            <path id="Trazado_1086087" data-name="Trazado 1086087" d="M399.234,131.057a5.085,5.085,0,0,0-3.143,1.086,5.1,5.1,0,0,1,1.969,4.026V150.6a5.1,5.1,0,0,1-1.969,4.026,5.084,5.084,0,0,0,3.143,1.086h0a5.112,5.112,0,0,0,5.112-5.112V136.169A5.112,5.112,0,0,0,399.234,131.057Z" transform="translate(-375.643 -131.057)" fill="#d78878"/>
            <path id="Trazado_1086088" data-name="Trazado 1086088" d="M438.36,131.057a5.084,5.084,0,0,0-3.143,1.086,5.1,5.1,0,0,1,1.969,4.026V150.6a5.1,5.1,0,0,1-1.969,4.026,5.084,5.084,0,0,0,3.143,1.086h0a5.112,5.112,0,0,0,5.112-5.112V136.169A5.112,5.112,0,0,0,438.36,131.057Z" transform="translate(-404.545 -131.057)" fill="#d78878"/>
          </g>
          <path id="Trazado_1086089" data-name="Trazado 1086089" d="M417.264,208.925,409,221v8.2H392.369V216.93a12.221,12.221,0,0,1,3.448-8.508l10.1-10.42H393.4a4.845,4.845,0,0,1-4.845-4.845h0a4.845,4.845,0,0,1,4.845-4.845H412a5.705,5.705,0,0,1,5.665,5.028l1.12,9.367A9.1,9.1,0,0,1,417.264,208.925Z" transform="translate(-368.107 -173.351)" fill="#eb9c8d"/>
          <path id="Trazado_1086090" data-name="Trazado 1086090" d="M447.985,202.709l-1.12-9.367a5.706,5.706,0,0,0-5.665-5.028h-7.853a5.706,5.706,0,0,1,5.665,5.028l1.12,9.367a9.1,9.1,0,0,1-1.524,6.217l-6.626,9.687a9.369,9.369,0,0,0-1.636,5.289v44.145a2.267,2.267,0,0,1-2.267,2.267h7.853a2.267,2.267,0,0,0,2.267-2.267V221l8.261-12.079A9.1,9.1,0,0,0,447.985,202.709Z" transform="translate(-397.303 -173.352)" fill="#d78878"/>
        </g>
      </g>
      <g id="Grupo_1217621" data-name="Grupo 1217621" transform="translate(7.5 9.887)">
        <g id="Grupo_1217615" data-name="Grupo 1217615" transform="translate(0 57.929)">
          <g id="Grupo_1217614" data-name="Grupo 1217614">
            <path id="Trazado_1086091" data-name="Trazado 1086091" d="M12.612,264.528h0A5.112,5.112,0,0,1,7.5,259.416V247.925a5.112,5.112,0,0,1,5.112-5.112h0a5.112,5.112,0,0,1,5.112,5.112v11.491A5.112,5.112,0,0,1,12.612,264.528Z" transform="translate(-7.5 -239.875)" fill="none" stroke="#000" stroke-linecap="round" stroke-linejoin="round" stroke-miterlimit="10" stroke-width="2"/>
            <path id="Trazado_1086092" data-name="Trazado 1086092" d="M51.737,256.225h0a5.112,5.112,0,0,1-5.112-5.112V236.685a5.112,5.112,0,0,1,5.112-5.112h0a5.112,5.112,0,0,1,5.112,5.112v14.428A5.112,5.112,0,0,1,51.737,256.225Z" transform="translate(-36.401 -231.572)" fill="none" stroke="#000" stroke-linecap="round" stroke-linejoin="round" stroke-miterlimit="10" stroke-width="2"/>
            <path id="Trazado_1086093" data-name="Trazado 1086093" d="M95.975,246.533v-9.849a5.113,5.113,0,1,0-10.225,0v14.427c0,.037,0,.073,0,.11" transform="translate(-65.302 -231.57)" fill="none" stroke="#000" stroke-linecap="round" stroke-linejoin="round" stroke-miterlimit="10" stroke-width="2"/>
            <path id="Trazado_1086094" data-name="Trazado 1086094" d="M124.88,246.533v-9.849a5.111,5.111,0,1,1,10.223,0v9.849" transform="translate(-94.207 -231.57)" fill="none" stroke="#000" stroke-linecap="round" stroke-linejoin="round" stroke-miterlimit="10" stroke-width="2"/>
          </g>
          <path id="Trazado_1086095" data-name="Trazado 1086095" d="M7.5,292.719v19.444a11.75,11.75,0,0,0,2.45,7.18l4.27,5.53-1.352,18.679a3.366,3.366,0,0,0,3.357,3.609H48.4V324.394" transform="translate(-7.5 -276.74)" fill="none" stroke="#000" stroke-linecap="round" stroke-linejoin="round" stroke-miterlimit="10" stroke-width="2"/>
          <path id="Trazado_1086096" data-name="Trazado 1086096" d="M89.565,317.447a12.221,12.221,0,0,1,3.448-8.508l10.1-10.42H90.6a4.845,4.845,0,0,1-4.845-4.845h0A4.845,4.845,0,0,1,90.6,288.83h18.6a5.705,5.705,0,0,1,5.665,5.028l1.12,9.366a9.1,9.1,0,0,1-1.524,6.217L106.2,321.521v8.2" transform="translate(-65.303 -273.867)" fill="none" stroke="#000" stroke-linecap="round" stroke-linejoin="round" stroke-miterlimit="10" stroke-width="2"/>
        </g>
        <g id="Grupo_1217617" data-name="Grupo 1217617" transform="translate(79.127 31.663)">
          <g id="Grupo_1217616" data-name="Grupo 1217616">
            <path id="Trazado_1086097" data-name="Trazado 1086097" d="M315.416,164.011h0A5.112,5.112,0,0,1,310.3,158.9V147.408a5.112,5.112,0,0,1,5.112-5.112h0a5.112,5.112,0,0,1,5.112,5.112V158.9A5.112,5.112,0,0,1,315.416,164.011Z" transform="translate(-310.304 -139.359)" fill="none" stroke="#000" stroke-linecap="round" stroke-linejoin="round" stroke-miterlimit="10" stroke-width="2"/>
            <path id="Trazado_1086098" data-name="Trazado 1086098" d="M354.541,155.708h0a5.112,5.112,0,0,1-5.112-5.112V136.168a5.112,5.112,0,0,1,5.112-5.112h0a5.112,5.112,0,0,1,5.112,5.112V150.6A5.112,5.112,0,0,1,354.541,155.708Z" transform="translate(-339.205 -131.056)" fill="none" stroke="#000" stroke-linecap="round" stroke-linejoin="round" stroke-miterlimit="10" stroke-width="2"/>
            <path id="Trazado_1086099" data-name="Trazado 1086099" d="M398.783,146.02v-9.849a5.111,5.111,0,1,0-10.223,0V150.6a.461.461,0,0,0,0,.06" transform="translate(-368.111 -131.059)" fill="none" stroke="#000" stroke-linecap="round" stroke-linejoin="round" stroke-miterlimit="10" stroke-width="2"/>
            <path id="Trazado_1086100" data-name="Trazado 1086100" d="M427.68,146.02v-9.849a5.113,5.113,0,0,1,10.225,0v9.849" transform="translate(-397.008 -131.059)" fill="none" stroke="#000" stroke-linecap="round" stroke-linejoin="round" stroke-miterlimit="10" stroke-width="2"/>
          </g>
          <line id="Línea_673" data-name="Línea 673" y1="31.23" transform="translate(40.896 47.653)" fill="none" stroke="#000" stroke-linecap="round" stroke-linejoin="round" stroke-miterlimit="10" stroke-width="2"/>
          <path id="Trazado_1086101" data-name="Trazado 1086101" d="M310.3,192.2v19.444a11.749,11.749,0,0,0,2.45,7.18l4.27,5.53L314.045,269.6a3.366,3.366,0,0,0,3.358,3.587h31.53a2.267,2.267,0,0,0,2.267-2.267v-6.636" transform="translate(-310.305 -176.224)" fill="none" stroke="#000" stroke-linecap="round" stroke-linejoin="round" stroke-miterlimit="10" stroke-width="2"/>
          <path id="Trazado_1086102" data-name="Trazado 1086102" d="M392.369,216.93a12.221,12.221,0,0,1,3.448-8.508l10.1-10.42H393.4a4.845,4.845,0,0,1-4.845-4.845h0a4.845,4.845,0,0,1,4.845-4.845H412a5.705,5.705,0,0,1,5.665,5.028l1.12,9.367a9.1,9.1,0,0,1-1.524,6.217L409,221v8.2" transform="translate(-368.107 -173.351)" fill="none" stroke="#000" stroke-linecap="round" stroke-linejoin="round" stroke-miterlimit="10" stroke-width="2"/>
        </g>
        <g id="Grupo_1217619" data-name="Grupo 1217619" transform="translate(29.263 2.732)">
          <g id="Grupo_1217618" data-name="Grupo 1217618">
            <path id="Trazado_1086103" data-name="Trazado 1086103" d="M124.6,53.3h0a5.112,5.112,0,0,1-5.112-5.112V36.7a5.112,5.112,0,0,1,5.112-5.112h0a5.112,5.112,0,0,1,5.112,5.112V48.187A5.112,5.112,0,0,1,124.6,53.3Z" transform="translate(-119.483 -28.646)" fill="none" stroke="#000" stroke-linecap="round" stroke-linejoin="round" stroke-miterlimit="10" stroke-width="2"/>
            <path id="Trazado_1086104" data-name="Trazado 1086104" d="M163.721,45h0a5.112,5.112,0,0,1-5.112-5.112V25.456a5.112,5.112,0,0,1,5.112-5.112h0a5.112,5.112,0,0,1,5.112,5.112V39.884A5.112,5.112,0,0,1,163.721,45Z" transform="translate(-148.385 -20.343)" fill="none" stroke="#000" stroke-linecap="round" stroke-linejoin="round" stroke-miterlimit="10" stroke-width="2"/>
            <path id="Trazado_1086105" data-name="Trazado 1086105" d="M207.955,35.3V25.454a5.113,5.113,0,1,0-10.225,0V39.881c0,.037,0,.073,0,.11" transform="translate(-177.283 -20.34)" fill="none" stroke="#000" stroke-linecap="round" stroke-linejoin="round" stroke-miterlimit="10" stroke-width="2"/>
            <path id="Trazado_1086106" data-name="Trazado 1086106" d="M236.86,35.3V25.454a5.111,5.111,0,1,1,10.223,0V35.3" transform="translate(-206.188 -20.34)" fill="none" stroke="#000" stroke-linecap="round" stroke-linejoin="round" stroke-miterlimit="10" stroke-width="2"/>
          </g>
          <path id="Trazado_1086107" data-name="Trazado 1086107" d="M170.281,237.868v66.507a2.267,2.267,0,0,1-2.266,2.268H132.89" transform="translate(-129.387 -181.025)" fill="none" stroke="#000" stroke-linecap="round" stroke-linejoin="round" stroke-miterlimit="10" stroke-width="2"/>
          <path id="Trazado_1086108" data-name="Trazado 1086108" d="M201.548,106.218A12.221,12.221,0,0,1,205,97.711l10.1-10.42H202.579a4.845,4.845,0,0,1-4.845-4.845h0a4.845,4.845,0,0,1,4.845-4.845h18.6a5.705,5.705,0,0,1,5.665,5.028L227.967,92a9.1,9.1,0,0,1-1.524,6.217l-8.261,12.079" transform="translate(-177.286 -62.638)" fill="none" stroke="#000" stroke-linecap="round" stroke-linejoin="round" stroke-miterlimit="10" stroke-width="2"/>
        </g>
        <g id="Grupo_1217620" data-name="Grupo 1217620" transform="translate(92.318 5.414)">
          <line id="Línea_674" data-name="Línea 674" y2="9.765" transform="translate(4.883)" fill="none" stroke="#000" stroke-linecap="round" stroke-linejoin="round" stroke-miterlimit="10" stroke-width="2"/>
          <line id="Línea_675" data-name="Línea 675" x1="9.765" transform="translate(0 4.883)" fill="none" stroke="#000" stroke-linecap="round" stroke-linejoin="round" stroke-miterlimit="10" stroke-width="2"/>
        </g>
        <line id="Línea_676" data-name="Línea 676" transform="translate(109.799 0)" fill="none" stroke="#000" stroke-linecap="round" stroke-linejoin="round" stroke-miterlimit="10" stroke-width="2"/>
        <path id="Trazado_1086109" data-name="Trazado 1086109" d="M119.48,81.49v19.444a11.749,11.749,0,0,0,2.451,7.181l4.27,5.529-.293,7.066" transform="translate(-90.218 -62.779)" fill="none" stroke="#000" stroke-linecap="round" stroke-linejoin="round" stroke-miterlimit="10" stroke-width="2"/>
      </g>
    </g>
  </g>
</svg>
