<svg xmlns="http://www.w3.org/2000/svg" xmlns:xlink="http://www.w3.org/1999/xlink" width="110" height="110" viewBox="0 0 110 110">
  <defs>
    <filter id="Trazado_982547" x="0" y="0" width="110" height="110" filterUnits="userSpaceOnUse">
      <feOffset dy="3" input="SourceAlpha"/>
      <feGaussianBlur stdDeviation="3" result="blur"/>
      <feFlood flood-opacity="0.161"/>
      <feComposite operator="in" in2="blur"/>
      <feComposite in="SourceGraphic"/>
    </filter>
  </defs>
  <g id="Grupo_1217623" data-name="Grupo 1217623" transform="translate(-377 -3925.28)">
    <g id="Grupo_1210976" data-name="Grupo 1210976" transform="translate(0 -2148)">
      <g id="Grupo_1200150" data-name="Grupo 1200150" transform="translate(386 6079.28)">
        <g id="Grupo_1185951" data-name="Grupo 1185951" transform="translate(0 0)">
          <g id="Grupo_1184083" data-name="Grupo 1184083" transform="translate(0 0)">
            <g id="Grupo_1183743" data-name="Grupo 1183743" transform="translate(0 0)">
              <g id="Grupo_1181545" data-name="Grupo 1181545">
                <g id="Grupo_1177562" data-name="Grupo 1177562">
                  <g id="Grupo_1173147" data-name="Grupo 1173147" transform="translate(0 0)">
                    <g id="Grupo_1163801" data-name="Grupo 1163801" transform="translate(0 0)">
                      <g id="Grupo_1163014" data-name="Grupo 1163014" transform="translate(0 0)">
                        <g id="Grupo_1157015" data-name="Grupo 1157015" transform="translate(0 0)">
                          <g id="Grupo_1155792" data-name="Grupo 1155792" transform="translate(0 0)">
                            <g id="Grupo_1154703" data-name="Grupo 1154703" transform="translate(0 0)">
                              <g id="Grupo_1150789" data-name="Grupo 1150789">
                                <g id="Grupo_1154212" data-name="Grupo 1154212">
                                  <g id="Grupo_1152583" data-name="Grupo 1152583">
                                    <g id="Grupo_1146973" data-name="Grupo 1146973">
                                      <g id="Grupo_1146954" data-name="Grupo 1146954">
                                        <g transform="matrix(1, 0, 0, 1, -9, -6)" filter="url(#Trazado_982547)">
                                          <g id="Trazado_982547-2" data-name="Trazado 982547" transform="translate(9 6)" fill="#f2d944">
                                            <path d="M 46.00000762939453 90.49988555908203 C 39.99188613891602 90.49988555908203 34.16427612304688 89.32352447509766 28.67906188964844 87.00347137451172 C 23.38020706176758 84.76226043701172 18.62104797363281 81.55342864990234 14.53375434875488 77.46615600585938 C 10.44647407531738 73.37887573242188 7.237647533416748 68.61971282958984 4.996420860290527 63.32085800170898 C 2.676367521286011 57.83565902709961 1.500007629394531 52.00806045532227 1.500007629394531 45.99993896484375 C 1.500007629394531 39.99181747436523 2.676367521286011 34.16421890258789 4.996420860290527 28.67901802062988 C 7.237647533416748 23.38017845153809 10.44647407531738 18.62101936340332 14.53375434875488 14.53373908996582 C 18.62104797363281 10.44645881652832 23.38020706176758 7.237632274627686 28.67906188964844 4.996418952941895 C 34.16427612304688 2.676365613937378 39.99188613891602 1.500005602836609 46.00000762939453 1.500005602836609 C 52.00812911987305 1.500005602836609 57.83573913574219 2.676365613937378 63.32095336914062 4.996418952941895 C 68.61980438232422 7.237632274627686 73.37896728515625 10.44645881652832 77.46626281738281 14.53373908996582 C 81.55354309082031 18.62101936340332 84.76236724853516 23.38017845153809 87.00359344482422 28.67901802062988 C 89.32364654541016 34.16421890258789 90.50000762939453 39.99181747436523 90.50000762939453 45.99993896484375 C 90.50000762939453 52.00806045532227 89.32364654541016 57.83565902709961 87.00359344482422 63.32085800170898 C 84.76236724853516 68.61971282958984 81.55354309082031 73.37887573242188 77.46626281738281 77.46615600585938 C 73.37896728515625 81.55342864990234 68.61980438232422 84.76226043701172 63.32095336914062 87.00347137451172 C 57.83573913574219 89.32352447509766 52.00812911987305 90.49988555908203 46.00000762939453 90.49988555908203 Z" stroke="none"/>
                                            <path d="M 46.00000762939453 2.999992370605469 C 40.19372177124023 2.999992370605469 34.56270599365234 4.136497497558594 29.26339340209961 6.377906799316406 C 24.14333343505859 8.543510437011719 19.54441833496094 11.64437866210938 15.59440612792969 15.59439849853516 C 11.6444091796875 19.54439544677734 8.543525695800781 24.14329528808594 6.377922058105469 29.26335144042969 C 4.136505126953125 34.56266784667969 3.000007629394531 40.19366836547852 3.000007629394531 45.99993896484375 C 3.000007629394531 51.80620956420898 4.136505126953125 57.43722534179688 6.377922058105469 62.73654174804688 C 8.543525695800781 67.85658264160156 11.6444091796875 72.45548248291016 15.59440612792969 76.40549468994141 C 19.54441833496094 80.35549926757812 24.14333343505859 83.45636749267578 29.26337814331055 85.62196350097656 C 34.56270599365234 87.86338043212891 40.19372177124023 88.9998779296875 46.00000762939453 88.9998779296875 C 51.80629348754883 88.9998779296875 57.43730926513672 87.86338043212891 62.73662185668945 85.62196350097656 C 67.85668182373047 83.45636749267578 72.45558166503906 80.35549926757812 76.40559387207031 76.40549468994141 C 80.35560607910156 72.45548248291016 83.45648193359375 67.85658264160156 85.62207794189453 62.73654174804688 C 87.86351013183594 57.43722534179688 89.00000762939453 51.80620956420898 89.00000762939453 45.99993896484375 C 89.00000762939453 40.19366836547852 87.86351013183594 34.56266784667969 85.62207794189453 29.26335144042969 C 83.45648193359375 24.14329528808594 80.35560607910156 19.54439544677734 76.40559387207031 15.59439849853516 C 72.45558166503906 11.64437866210938 67.85668182373047 8.543510437011719 62.73662185668945 6.377906799316406 C 57.43729400634766 4.136497497558594 51.80629348754883 2.999992370605469 46.00000762939453 2.999992370605469 M 46.00000762939453 -7.62939453125e-06 C 71.40509033203125 -7.62939453125e-06 92.00000762939453 20.59487915039062 92.00000762939453 45.99993896484375 C 92.00000762939453 71.40501403808594 71.40509033203125 91.99988555908203 46.00000762939453 91.99988555908203 C 20.59490966796875 91.99988555908203 7.62939453125e-06 71.40501403808594 7.62939453125e-06 45.99993896484375 C 7.62939453125e-06 20.59487915039062 20.59490966796875 -7.62939453125e-06 46.00000762939453 -7.62939453125e-06 Z" stroke="none" fill="#ba9c5a"/>
                                          </g>
                                        </g>
                                      </g>
                                    </g>
                                  </g>
                                </g>
                              </g>
                            </g>
                          </g>
                        </g>
                      </g>
                    </g>
                  </g>
                </g>
              </g>
            </g>
          </g>
        </g>
      </g>
    </g>
    <g id="_6._Signature" data-name="6. Signature" transform="translate(404.823 3949.149)">
      <rect id="Rectángulo_420491" data-name="Rectángulo 420491" width="51.131" height="72.25" rx="16" transform="translate(1.112 1.112)" fill="#f6f6f6"/>
      <path id="Trazado_1086110" data-name="Trazado 1086110" d="M56.679,466.318H10.318A2.318,2.318,0,0,1,8,464v3.477a2.318,2.318,0,0,0,2.318,2.318h46.36A2.318,2.318,0,0,0,59,467.477V464A2.318,2.318,0,0,1,56.679,466.318Z" transform="translate(-6.841 -396.777)" fill="#dcdcdc"/>
      <path id="Trazado_1086111" data-name="Trazado 1086111" d="M49.838,74.177H3.477A3.477,3.477,0,0,1,0,70.7V3.477A3.477,3.477,0,0,1,3.477,0h46.36a3.477,3.477,0,0,1,3.477,3.477V18.544a1.159,1.159,0,1,1-2.318,0V3.477a1.159,1.159,0,0,0-1.159-1.159H3.477A1.159,1.159,0,0,0,2.318,3.477V70.7a1.159,1.159,0,0,0,1.159,1.159h46.36A1.159,1.159,0,0,0,51,70.7V61.428a1.159,1.159,0,1,1,2.318,0V70.7A3.477,3.477,0,0,1,49.838,74.177Z" transform="translate(0 0)"/>
      <path id="Trazado_1086112" data-name="Trazado 1086112" d="M353.159,200.452A1.159,1.159,0,0,1,352,199.293V169.159a1.159,1.159,0,1,1,2.318,0v30.134A1.159,1.159,0,0,1,353.159,200.452Z" transform="translate(-301.003 -143.661)"/>
      <path id="Trazado_1086113" data-name="Trazado 1086113" d="M86.247,194.318H49.159a1.159,1.159,0,1,1,0-2.318H86.247a1.159,1.159,0,1,1,0,2.318Z" transform="translate(-41.046 -164.184)"/>
      <path id="Trazado_1086114" data-name="Trazado 1086114" d="M86.247,234.318H49.159a1.159,1.159,0,0,1,0-2.318H86.247a1.159,1.159,0,0,1,0,2.318Z" transform="translate(-41.046 -198.389)"/>
      <path id="Trazado_1086115" data-name="Trazado 1086115" d="M86.247,274.318H49.159a1.159,1.159,0,1,1,0-2.318H86.247a1.159,1.159,0,1,1,0,2.318Z" transform="translate(-41.046 -232.594)"/>
      <path id="Trazado_1086116" data-name="Trazado 1086116" d="M86.247,314.318H49.159a1.159,1.159,0,1,1,0-2.318H86.247a1.159,1.159,0,1,1,0,2.318Z" transform="translate(-41.046 -266.799)"/>
      <path id="Trazado_1086117" data-name="Trazado 1086117" d="M86.247,354.318H49.159a1.159,1.159,0,1,1,0-2.318H86.247a1.159,1.159,0,1,1,0,2.318Z" transform="translate(-41.046 -301.003)"/>
      <path id="Trazado_1086118" data-name="Trazado 1086118" d="M464,256h5.8v19.7H464Z" transform="translate(-396.777 -218.912)" fill="#a8edfd"/>
      <path id="Trazado_1086119" data-name="Trazado 1086119" d="M464,368h5.8v3.477H464Z" transform="translate(-396.777 -314.685)" fill="#8bd4de"/>
      <path id="Trazado_1086120" data-name="Trazado 1086120" d="M462.954,270.021h-5.8A1.159,1.159,0,0,1,456,268.862v-19.7A1.159,1.159,0,0,1,457.159,248h5.8a1.159,1.159,0,0,1,1.159,1.159v19.7A1.159,1.159,0,0,1,462.954,270.021Zm-4.636-2.318H461.8V250.318h-3.477Z" transform="translate(-389.936 -212.071)"/>
      <path id="Trazado_1086121" data-name="Trazado 1086121" d="M214.24,244.013c-6.4,13.715-6.225,13.372-6.24,13.372a4.913,4.913,0,0,0,5.579-1.844l2.687-3.839a11.184,11.184,0,0,1,9.119-4.748,3.477,3.477,0,0,1,0,6.954h-4.636a5.8,5.8,0,0,0-5.8,5.8h11.111a3.957,3.957,0,0,1,2.8,1.158,3.958,3.958,0,0,0,2.8,1.16h7.858a3.975,3.975,0,0,0,1.77-.417l3.8-1.9V244.636h-1.357a7.916,7.916,0,0,1-5.6-2.318,7.915,7.915,0,0,0-5.6-2.318h-12a6.954,6.954,0,0,0-6.3,4.014Z" transform="translate(-177.866 -205.23)" fill="#e0c3aa"/>
      <path id="Trazado_1086122" data-name="Trazado 1086122" d="M200.783,251.644a1.159,1.159,0,0,1-.684-1.594l6.24-13.372A8.144,8.144,0,0,1,213.691,232h12a9.014,9.014,0,0,1,6.417,2.657,6.706,6.706,0,0,0,4.781,1.979h1.353a1.159,1.159,0,0,1,1.159,1.159v6.954a1.159,1.159,0,1,1-2.318,0v-5.8h-.2a9.014,9.014,0,0,1-6.417-2.657,6.706,6.706,0,0,0-4.781-1.979h-12a5.817,5.817,0,0,0-5.252,3.344l-5.581,11.97a3.776,3.776,0,0,0,2.924-1.594l2.689-3.841a12.3,12.3,0,0,1,10.067-5.243,4.636,4.636,0,0,1,4.636,4.636,1.159,1.159,0,0,1-2.318,0,2.318,2.318,0,0,0-2.318-2.318,9.972,9.972,0,0,0-8.167,4.252l-2.69,3.841A6.109,6.109,0,0,1,200.783,251.644Z" transform="translate(-171.015 -198.388)"/>
      <path id="Trazado_1086123" data-name="Trazado 1086123" d="M0,0H6.954V34.77H0Z" transform="matrix(0.857, 0.516, -0.516, 0.857, 48.73, 27.31)" fill="#6fc3e2"/>
      <path id="Trazado_1086124" data-name="Trazado 1086124" d="M211.137,215.906l-5.959-3.586a1.159,1.159,0,0,1-.4-1.594l17.928-29.788a1.159,1.159,0,0,1,1.594-.4l5.959,3.586a1.159,1.159,0,0,1,.4,1.594L212.726,215.51A1.159,1.159,0,0,1,211.137,215.906Zm-3.767-4.974,3.965,2.39,16.733-27.806-3.972-2.39Z" transform="translate(-174.972 -154.243)"/>
      <path id="Trazado_1086125" data-name="Trazado 1086125" d="M209.046,394.01l-.606,7.752L215,397.6Z" transform="translate(-178.242 -336.927)" fill="#a6806f"/>
      <path id="Trazado_1086126" data-name="Trazado 1086126" d="M200.439,394.834l.607-7.751a1.159,1.159,0,0,1,1.753-.9l5.959,3.586a1.159,1.159,0,0,1,.023,1.972l-6.566,4.165a1.159,1.159,0,0,1-1.776-1.069Zm2.771-5.7-.28,3.571,3.024-1.911Z" transform="translate(-171.397 -330.09)"/>
      <path id="Trazado_1086127" data-name="Trazado 1086127" d="M269.908,312a3.477,3.477,0,0,1-3.477,3.477H261.8a5.8,5.8,0,0,0-5.8,5.8h11.111a3.957,3.957,0,0,1,2.8,1.158,3.958,3.958,0,0,0,2.8,1.16h7.858a3.975,3.975,0,0,0,1.77-.417l3.8-1.9v-8.113" transform="translate(-218.912 -266.799)" fill="#e0c3aa"/>
      <path id="Trazado_1086128" data-name="Trazado 1086128" d="M280.564,354.318h-7.858a3.957,3.957,0,0,1-2.8-1.158,3.958,3.958,0,0,0-2.8-1.16h-9.952A5.775,5.775,0,0,0,256,355.477h11.111a3.958,3.958,0,0,1,2.8,1.158,3.958,3.958,0,0,0,2.8,1.16h7.858a3.976,3.976,0,0,0,1.77-.417l3.8-1.9V352l-3.8,1.9A3.975,3.975,0,0,1,280.564,354.318Z" transform="translate(-218.912 -301.003)" fill="#d0a37f"/>
      <path id="Trazado_1086129" data-name="Trazado 1086129" d="M273.723,317.908h-7.858a5.083,5.083,0,0,1-3.622-1.5,2.774,2.774,0,0,0-1.973-.82H249.159A1.159,1.159,0,0,1,248,314.431a6.961,6.961,0,0,1,6.954-6.954h4.636a2.318,2.318,0,0,0,2.318-2.318,1.159,1.159,0,1,1,2.318,0,4.636,4.636,0,0,1-4.636,4.636h-4.636a4.645,4.645,0,0,0-4.491,3.477h9.805a5.082,5.082,0,0,1,3.622,1.5,2.774,2.774,0,0,0,1.975.82h7.858a2.824,2.824,0,0,0,1.252-.29l3.16-1.585v-7.4a1.159,1.159,0,0,1,2.318,0v8.113a1.159,1.159,0,0,1-.64,1.037l-3.8,1.9A5.132,5.132,0,0,1,273.723,317.908Z" transform="translate(-212.071 -259.958)"/>
      <path id="Trazado_1086130" data-name="Trazado 1086130" d="M342.337,163.538a3.477,3.477,0,0,0-4.772,1.187l-1.2,1.986,5.959,3.586,1.2-1.986A3.477,3.477,0,0,0,342.337,163.538Z" transform="translate(-287.638 -139.419)" fill="#5f79a5"/>
      <path id="Trazado_1086131" data-name="Trazado 1086131" d="M334.887,164.445l-5.959-3.586a1.159,1.159,0,0,1-.4-1.594l1.2-1.986a4.636,4.636,0,1,1,7.945,4.781l-1.2,1.986A1.159,1.159,0,0,1,334.887,164.445Zm-3.767-4.974,3.973,2.39.6-.992a2.322,2.322,0,1,0-3.978-2.4Z" transform="translate(-280.793 -132.572)"/>
      <path id="Trazado_1086132" data-name="Trazado 1086132" d="M113.168,444.625a1.159,1.159,0,0,1-.926-1.854l.961-1.281a3.752,3.752,0,0,1,6.007,0,3.767,3.767,0,0,1,5.021.817h15.594a1.159,1.159,0,0,1,0,2.318H123.6a1.159,1.159,0,0,1-1.037-.64,1.43,1.43,0,0,0-2.561,0,1.159,1.159,0,0,1-2.075,0l-.442-.885a1.431,1.431,0,0,0-2.432-.213l-.961,1.281A1.159,1.159,0,0,1,113.168,444.625Z" transform="translate(-95.782 -376.243)"/>
      <path id="Trazado_1086133" data-name="Trazado 1086133" d="M56,56H93.088v9.272H56Z" transform="translate(-47.887 -47.887)" fill="#ead590"/>
      <path id="Trazado_1086134" data-name="Trazado 1086134" d="M56,96H93.088v3.477H56Z" transform="translate(-47.887 -82.092)" fill="#f1cb66"/>
      <path id="Trazado_1086135" data-name="Trazado 1086135" d="M86.247,59.59H49.159A1.159,1.159,0,0,1,48,58.431V49.159A1.159,1.159,0,0,1,49.159,48H86.247a1.159,1.159,0,0,1,1.159,1.159v9.272A1.159,1.159,0,0,1,86.247,59.59ZM50.318,57.272h34.77V50.318H50.318Z" transform="translate(-41.046 -41.046)"/>
      <path id="Trazado_1086136" data-name="Trazado 1086136" d="M65.385,154.318H49.159a1.159,1.159,0,1,1,0-2.318H65.385a1.159,1.159,0,1,1,0,2.318Z" transform="translate(-41.046 -129.979)"/>
    </g>
  </g>
</svg>
