<svg xmlns="http://www.w3.org/2000/svg" xmlns:xlink="http://www.w3.org/1999/xlink" width="103" height="103" viewBox="0 0 103 103">
  <defs>
    <filter id="Trazado_978624" x="0" y="0" width="103" height="103" filterUnits="userSpaceOnUse">
      <feOffset dy="3" input="SourceAlpha"/>
      <feGaussianBlur stdDeviation="3" result="blur"/>
      <feFlood flood-opacity="0.161"/>
      <feComposite operator="in" in2="blur"/>
      <feComposite in="SourceGraphic"/>
    </filter>
  </defs>
  <g id="Grupo_1217095" data-name="Grupo 1217095" transform="translate(-164.789 -1242)">
    <g id="Grupo_1209736" data-name="Grupo 1209736" transform="translate(-0.711 184)">
      <g id="Grupo_1178144" data-name="Grupo 1178144" transform="translate(-19.5 -2004)">
        <g id="Grupo_1177896" data-name="Grupo 1177896" transform="translate(14 196)">
          <g id="Grupo_1176881" data-name="Grupo 1176881">
            <g id="Grupo_1175148" data-name="Grupo 1175148" transform="translate(0 1580)">
              <g id="Grupo_1173798" data-name="Grupo 1173798" transform="translate(-3 -3520)">
                <g id="Grupo_1171925" data-name="Grupo 1171925" transform="translate(-22 -2246)">
                  <g id="Grupo_1164524" data-name="Grupo 1164524" transform="translate(205 7058)">
                    <g id="Grupo_1144123" data-name="Grupo 1144123">
                      <g transform="matrix(1, 0, 0, 1, -9, -6)" filter="url(#Trazado_978624)">
                        <g id="Trazado_978624-2" data-name="Trazado 978624" transform="translate(9 6)" fill="#edeef2">
                          <path d="M 42.5 83.5 C 36.96437835693359 83.5 31.59512901306152 82.41617584228516 26.54141235351562 80.27863311767578 C 21.65934181213379 78.21369171142578 17.27447128295898 75.25723266601562 13.50862312316895 71.49137878417969 C 9.742764472961426 67.72553253173828 6.786305904388428 63.34066009521484 4.721364498138428 58.45858764648438 C 2.583823442459106 53.40486907958984 1.5 48.03562164306641 1.5 42.5 C 1.5 36.96437835693359 2.583823442459106 31.59512901306152 4.721364498138428 26.54141235351562 C 6.786305904388428 21.65934181213379 9.742764472961426 17.27447128295898 13.50862312316895 13.50862312316895 C 17.27447128295898 9.742764472961426 21.65934181213379 6.786305904388428 26.54141235351562 4.721364498138428 C 31.59512901306152 2.583823442459106 36.96437835693359 1.5 42.5 1.5 C 48.03562164306641 1.5 53.40486907958984 2.583823442459106 58.45858764648438 4.721364498138428 C 63.34066009521484 6.786305904388428 67.72553253173828 9.742764472961426 71.49137878417969 13.50862312316895 C 75.25723266601562 17.27447128295898 78.21369171142578 21.65934181213379 80.27863311767578 26.54141235351562 C 82.41617584228516 31.59512901306152 83.5 36.96437835693359 83.5 42.5 C 83.5 48.03562164306641 82.41617584228516 53.40486907958984 80.27863311767578 58.45858764648438 C 78.21369171142578 63.34066009521484 75.25723266601562 67.72553253173828 71.49137878417969 71.49137878417969 C 67.72553253173828 75.25723266601562 63.34066009521484 78.21369171142578 58.45858764648438 80.27863311767578 C 53.40486907958984 82.41617584228516 48.03562164306641 83.5 42.5 83.5 Z" stroke="none"/>
                          <path d="M 42.5 3 C 37.16621398925781 3 31.99356079101562 4.043960571289062 27.125732421875 6.102882385253906 C 22.42246627807617 8.092185974121094 18.19785308837891 10.94070434570312 14.56928253173828 14.56928253173828 C 10.94070434570312 18.19785308837891 8.092185974121094 22.42246627807617 6.102882385253906 27.125732421875 C 4.043960571289062 31.99356079101562 3 37.16621398925781 3 42.5 C 3 47.83378601074219 4.043960571289062 53.00643920898438 6.102882385253906 57.87425231933594 C 8.092185974121094 62.57753372192383 10.94070434570312 66.80213165283203 14.56928253173828 70.43071746826172 C 18.19786834716797 74.05929565429688 22.42246627807617 76.90781402587891 27.125732421875 78.89711761474609 C 31.99356079101562 80.95603942871094 37.16621398925781 82 42.5 82 C 47.83378601074219 82 53.00642395019531 80.95603942871094 57.87425231933594 78.89711761474609 C 62.57753372192383 76.90781402587891 66.80213165283203 74.05929565429688 70.43071746826172 70.43071746826172 C 74.05929565429688 66.80213165283203 76.90781402587891 62.57753372192383 78.89711761474609 57.87425231933594 C 80.95603942871094 53.00642395019531 82 47.83378601074219 82 42.5 C 82 37.16621398925781 80.95603942871094 31.99356079101562 78.89711761474609 27.125732421875 C 76.90781402587891 22.42246627807617 74.05929565429688 18.19786834716797 70.43071746826172 14.56928253173828 C 66.80213165283203 10.94070434570312 62.57753372192383 8.092185974121094 57.87425231933594 6.102882385253906 C 53.00643920898438 4.043960571289062 47.83378601074219 3 42.5 3 M 42.5 0 C 65.97209167480469 0 85 19.02789306640625 85 42.5 C 85 65.97209167480469 65.97209167480469 85 42.5 85 C 19.02789306640625 85 0 65.97209167480469 0 42.5 C 0 19.02789306640625 19.02789306640625 0 42.5 0 Z" stroke="none" fill="#9ec6e0"/>
                        </g>
                      </g>
                    </g>
                  </g>
                </g>
              </g>
            </g>
          </g>
        </g>
      </g>
    </g>
    <g id="Capa_46" transform="translate(167.789 1228.789)">
      <g id="Grupo_1217094" data-name="Grupo 1217094" transform="translate(6 32.272)">
        <g id="Grupo_1217072" data-name="Grupo 1217072" transform="translate(0.788 0.792)">
          <g id="Grupo_1217049" data-name="Grupo 1217049" transform="translate(0 54.438)">
            <path id="Trazado_1085456" data-name="Trazado 1085456" d="M24.494,389.388a7.956,7.956,0,1,1,1.7-8.736A7.964,7.964,0,0,1,24.494,389.388Z" transform="translate(-10.904 -375.798)" fill="#db9b33"/>
          </g>
          <g id="Grupo_1217050" data-name="Grupo 1217050" transform="translate(4.224 58.662)">
            <path id="Trazado_1085457" data-name="Trazado 1085457" d="M46.544,411.438a7.964,7.964,0,0,1-8.736,1.7A7.964,7.964,0,0,1,48.246,402.7,7.964,7.964,0,0,1,46.544,411.438Z" transform="translate(-37.179 -402.073)" fill="#f7b538"/>
          </g>
          <g id="Grupo_1217051" data-name="Grupo 1217051" transform="translate(7.437 34.25)">
            <path id="Trazado_1085458" data-name="Trazado 1085458" d="M0,0H28.6V11.942H0Z" transform="translate(0 20.219) rotate(-45)" fill="#664326"/>
          </g>
          <g id="Grupo_1217052" data-name="Grupo 1217052" transform="translate(11.658 38.472)">
            <path id="Trazado_1085459" data-name="Trazado 1085459" d="M0,0H28.6V5.971H0Z" transform="translate(0 20.219) rotate(-45)" fill="#855a31"/>
          </g>
          <g id="Grupo_1217053" data-name="Grupo 1217053" transform="translate(20.844 4.476)">
            <path id="Trazado_1085460" data-name="Trazado 1085460" d="M0,0H39.814V23.882H0Z" transform="translate(16.885 0) rotate(45)" fill="#664326"/>
          </g>
          <g id="Grupo_1217054" data-name="Grupo 1217054" transform="translate(19.688 37.535)">
            <path id="Trazado_1085461" data-name="Trazado 1085461" d="M146.171,282.25l-1.221,1.221a1.127,1.127,0,0,1-1.593,0l-9.663-9.663a1.127,1.127,0,0,1,0-1.593l1.221-1.221a1.127,1.127,0,0,1,1.593,0l9.663,9.663A1.127,1.127,0,0,1,146.171,282.25Z" transform="translate(-133.364 -270.664)" fill="#db9b33"/>
          </g>
          <g id="Grupo_1217055" data-name="Grupo 1217055" transform="translate(24.85 42.697)">
            <path id="Trazado_1085462" data-name="Trazado 1085462" d="M173.113,309.192l-1.221,1.221a1.127,1.127,0,0,1-1.593,0l-4.832-4.832,2.815-2.815,4.832,4.832a1.127,1.127,0,0,1,0,1.593Z" transform="translate(-165.467 -302.767)" fill="#f7b538"/>
          </g>
          <g id="Grupo_1217056" data-name="Grupo 1217056" transform="translate(26.685 30.031)">
            <path id="Trazado_1085463" data-name="Trazado 1085463" d="M190.528,235.247l-2.09,2.09a1.025,1.025,0,0,1-1.45,0l-9.807-9.807a1.025,1.025,0,0,1,0-1.45l2.09-2.09Z" transform="translate(-176.881 -223.99)" fill="#db9b33"/>
          </g>
          <g id="Grupo_1217057" data-name="Grupo 1217057" transform="translate(31.887 35.659)">
            <path id="Trazado_1085464" data-name="Trazado 1085464" d="M217.685,264.621l-2.09,2.09a1.025,1.025,0,0,1-1.45,0l-4.9-4.9,2.815-2.815Z" transform="translate(-209.241 -258.991)" fill="#f7b538"/>
          </g>
          <g id="Grupo_1217058" data-name="Grupo 1217058" transform="translate(34.919 18.55)">
            <path id="Trazado_1085465" data-name="Trazado 1085465" d="M0,0H11.941V23.882H0Z" transform="translate(16.885 0) rotate(45)" fill="#855a31"/>
          </g>
          <g id="Grupo_1217059" data-name="Grupo 1217059" transform="translate(22.864 6.935)">
            <path id="Trazado_1085466" data-name="Trazado 1085466" d="M173.4,83.726l-16.886,16.886a2,2,0,0,1-1.922.514,1.971,1.971,0,0,1-.894-.515,2,2,0,0,1,0-2.815L170.582,80.91a2,2,0,0,1,2.815,0,2,2,0,0,1,0,2.816Z" transform="translate(-153.116 -80.33)" fill="#db9b33"/>
          </g>
          <g id="Grupo_1217060" data-name="Grupo 1217060" transform="translate(24.271 8.342)">
            <path id="Trazado_1085467" data-name="Trazado 1085467" d="M180.745,91.073l-16.886,16.886a2,2,0,0,1-1.922.514,2,2,0,0,1,.514-1.922l16.886-16.886a2,2,0,0,1,1.922-.514,1.962,1.962,0,0,1,.066.515,1.984,1.984,0,0,1-.58,1.407Z" transform="translate(-161.87 -89.084)" fill="#f7b538"/>
          </g>
          <g id="Grupo_1217061" data-name="Grupo 1217061" transform="translate(42.567 26.637)">
            <path id="Trazado_1085468" data-name="Trazado 1085468" d="M295.948,206.275l-16.886,16.886a2,2,0,0,1-1.922.514,1.965,1.965,0,0,1-.892-.514,2,2,0,0,1,0-2.815l16.886-16.886a2,2,0,0,1,2.815,0,2,2,0,0,1,0,2.815Z" transform="translate(-275.667 -202.88)" fill="#db9b33"/>
          </g>
          <g id="Grupo_1217062" data-name="Grupo 1217062" transform="translate(43.972 28.042)">
            <path id="Trazado_1085469" data-name="Trazado 1085469" d="M303.284,213.61,286.4,230.5a1.15,1.15,0,1,1-1.41-1.41L301.874,212.2a1.993,1.993,0,0,1,1.923-.513,2.005,2.005,0,0,1-.514,1.922Z" transform="translate(-284.408 -211.62)" fill="#f7b538"/>
          </g>
          <g id="Grupo_1217063" data-name="Grupo 1217063" transform="translate(46.208 29.808)">
            <path id="Trazado_1085470" data-name="Trazado 1085470" d="M0,0H3.981V23.842H0Z" transform="translate(16.856 0) rotate(45)" fill="#664326"/>
          </g>
          <g id="Grupo_1217064" data-name="Grupo 1217064" transform="translate(16.634)">
            <path id="Trazado_1085471" data-name="Trazado 1085471" d="M135.4,41.75,118.918,58.228a1.786,1.786,0,0,1-2.523,0l-.387-.387a5.647,5.647,0,0,1,0-7.962l11.039-11.039a5.646,5.646,0,0,1,7.961,0l.387.387a1.786,1.786,0,0,1,0,2.523Z" transform="translate(-114.366 -37.198)" fill="#664326"/>
          </g>
          <g id="Grupo_1217065" data-name="Grupo 1217065" transform="translate(18.92 2.286)">
            <path id="Trazado_1085472" data-name="Trazado 1085472" d="M147.328,53.683,130.85,70.161a1.781,1.781,0,0,1-1.655.478,5.652,5.652,0,0,1,1.032-6.542l11.039-11.039a5.651,5.651,0,0,1,6.54-1.031,1.781,1.781,0,0,1-.478,1.655Z" transform="translate(-128.584 -51.417)" fill="#855a31"/>
          </g>
          <g id="Grupo_1217066" data-name="Grupo 1217066" transform="translate(48.62 31.986)">
            <path id="Trazado_1085473" data-name="Trazado 1085473" d="M333.414,245.206l-11.039,11.039a5.633,5.633,0,0,1-7.962,0l-.71-.71a1.329,1.329,0,0,1,0-1.88l17.121-17.121a1.329,1.329,0,0,1,1.879,0l.71.71a5.632,5.632,0,0,1,0,7.961Z" transform="translate(-313.314 -236.146)" fill="#664326"/>
          </g>
          <g id="Grupo_1217067" data-name="Grupo 1217067" transform="translate(51.015 34.381)">
            <path id="Trazado_1085474" data-name="Trazado 1085474" d="M345.918,257.71l-11.039,11.039a5.653,5.653,0,0,1-6.644.98,1.323,1.323,0,0,1,.368-1.173l17.121-17.121a1.321,1.321,0,0,1,1.172-.367A5.653,5.653,0,0,1,345.918,257.71Z" transform="translate(-328.214 -251.046)" fill="#855a31"/>
          </g>
          <g id="Grupo_1217068" data-name="Grupo 1217068" transform="translate(35.588 58.539)">
            <path id="Trazado_1085475" data-name="Trazado 1085475" d="M271.417,409.185H232.258a9.415,9.415,0,0,1,9.288-7.88h20.583A9.415,9.415,0,0,1,271.417,409.185Z" transform="translate(-232.258 -401.305)" fill="#664326"/>
          </g>
          <g id="Grupo_1217069" data-name="Grupo 1217069" transform="translate(50.057 58.539)">
            <path id="Trazado_1085476" data-name="Trazado 1085476" d="M346.946,409.185h-24.69a9.415,9.415,0,0,1,9.288-7.88h6.114a9.415,9.415,0,0,1,9.288,7.88Z" transform="translate(-322.256 -401.305)" fill="#855a31"/>
          </g>
          <g id="Grupo_1217070" data-name="Grupo 1217070" transform="translate(31.524 66.419)">
            <path id="Trazado_1085477" data-name="Trazado 1085477" d="M254.269,452.246v.081a1.935,1.935,0,0,1-1.929,1.929H208.911a1.935,1.935,0,0,1-1.929-1.929v-.081a1.935,1.935,0,0,1,1.929-1.93H252.34A1.935,1.935,0,0,1,254.269,452.246Z" transform="translate(-206.982 -450.316)" fill="#db9b33"/>
          </g>
          <g id="Grupo_1217071" data-name="Grupo 1217071" transform="translate(50.057 66.419)">
            <path id="Trazado_1085478" data-name="Trazado 1085478" d="M351.009,452.246v.081a1.935,1.935,0,0,1-1.929,1.929h-24.9a1.935,1.935,0,0,1-1.929-1.929v-.081a1.935,1.935,0,0,1,1.929-1.93h24.9A1.935,1.935,0,0,1,351.009,452.246Z" transform="translate(-322.255 -450.316)" fill="#f7b538"/>
          </g>
        </g>
        <g id="Grupo_1217093" data-name="Grupo 1217093" transform="translate(0)">
          <g id="Grupo_1217073" data-name="Grupo 1217073" transform="translate(16.225 41.295)">
            <path id="Trazado_1085479" data-name="Trazado 1085479" d="M107.7,295.1a.788.788,0,0,1-.557-1.345l4.4-4.4a.788.788,0,0,1,1.114,1.115l-4.4,4.4A.785.785,0,0,1,107.7,295.1Z" transform="translate(-106.917 -289.122)"/>
          </g>
          <g id="Grupo_1217074" data-name="Grupo 1217074" transform="translate(7.119 49.738)">
            <path id="Trazado_1085480" data-name="Trazado 1085480" d="M59.838,356.724l-9.558-9.558,4.983-4.983a.788.788,0,0,1,1.114,1.115l-3.868,3.868,7.328,7.328,12.627-12.627a.788.788,0,0,1,1.114,1.115Z" transform="translate(-50.28 -341.638)"/>
          </g>
          <g id="Grupo_1217075" data-name="Grupo 1217075" transform="translate(0 54.458)">
            <path id="Trazado_1085481" data-name="Trazado 1085481" d="M14.749,388.475A8.747,8.747,0,0,1,14.206,371l.1,1.573a7.174,7.174,0,1,0,7.6,7.612l1.573.1a8.74,8.74,0,0,1-8.731,8.194Z" transform="translate(-6 -370.997)"/>
          </g>
          <g id="Grupo_1217076" data-name="Grupo 1217076" transform="translate(19.689 37.539)">
            <path id="Trazado_1085482" data-name="Trazado 1085482" d="M140.043,280.475a1.9,1.9,0,0,1-1.354-.561l-9.662-9.662a1.917,1.917,0,0,1,0-2.709l1.221-1.221a1.915,1.915,0,0,1,2.708,0l9.662,9.662a1.917,1.917,0,0,1,0,2.709l-1.221,1.221A1.9,1.9,0,0,1,140.043,280.475ZM131.6,267.337a.337.337,0,0,0-.24.1l-1.221,1.221a.339.339,0,0,0,0,.48L139.8,278.8a.339.339,0,0,0,.48,0l1.221-1.221a.339.339,0,0,0,0-.48l-9.662-9.662A.337.337,0,0,0,131.6,267.337Z" transform="translate(-128.466 -265.761)"/>
          </g>
          <g id="Grupo_1217077" data-name="Grupo 1217077" transform="translate(26.686 30.051)">
            <path id="Trazado_1085483" data-name="Trazado 1085483" d="M183.6,234.394a1.8,1.8,0,0,1-1.282-.531l-9.806-9.807a1.815,1.815,0,0,1,0-2.564l2.305-2.305,1.114,1.114-2.305,2.305a.237.237,0,0,0,0,.335l9.807,9.807a.237.237,0,0,0,.335,0l2.305-2.305,1.114,1.114-2.305,2.305A1.8,1.8,0,0,1,183.6,234.394Z" transform="translate(-171.985 -219.187)"/>
          </g>
          <g id="Grupo_1217078" data-name="Grupo 1217078" transform="translate(23.667 34.485)">
            <path id="Trazado_1085484" data-name="Trazado 1085484" d="M0,0H5.972V1.576H0Z" transform="translate(0 4.223) rotate(-45)"/>
          </g>
          <g id="Grupo_1217079" data-name="Grupo 1217079" transform="translate(32.11 42.93)">
            <path id="Trazado_1085485" data-name="Trazado 1085485" d="M0,0H5.972V1.576H0Z" transform="translate(0 4.223) rotate(-45)"/>
          </g>
          <g id="Grupo_1217080" data-name="Grupo 1217080" transform="translate(43.362 10.116)">
            <path id="Trazado_1085486" data-name="Trazado 1085486" d="M286.982,107.258a.786.786,0,0,1-.557-.231L275.937,96.539a.788.788,0,1,1,1.114-1.114l10.488,10.488a.788.788,0,0,1-.557,1.345Z" transform="translate(-275.706 -95.194)"/>
          </g>
          <g id="Grupo_1217081" data-name="Grupo 1217081" transform="translate(58.204 24.958)">
            <path id="Trazado_1085487" data-name="Trazado 1085487" d="M370.856,191.132a.786.786,0,0,1-.557-.231l-2.046-2.046a.788.788,0,0,1,1.115-1.114l2.046,2.046a.788.788,0,0,1-.557,1.345Z" transform="translate(-368.022 -187.51)"/>
          </g>
          <g id="Grupo_1217082" data-name="Grupo 1217082" transform="translate(22.863 6.938)">
            <path id="Trazado_1085488" data-name="Trazado 1085488" d="M150.985,97.866a2.778,2.778,0,0,1-1.965-4.743l16.886-16.886a2.779,2.779,0,1,1,3.93,3.93L152.95,97.053A2.77,2.77,0,0,1,150.985,97.866ZM167.871,77a1.2,1.2,0,0,0-.851.35L150.135,94.238a1.2,1.2,0,0,0,1.7,1.7l16.886-16.886a1.2,1.2,0,0,0-.85-2.051Z" transform="translate(-148.208 -75.426)"/>
          </g>
          <g id="Grupo_1217083" data-name="Grupo 1217083" transform="translate(42.566 26.64)">
            <path id="Trazado_1085489" data-name="Trazado 1085489" d="M273.534,220.409a2.778,2.778,0,0,1-1.965-4.743l16.886-16.886a2.779,2.779,0,1,1,3.93,3.93L275.5,219.6A2.77,2.77,0,0,1,273.534,220.409Zm16.886-20.866a1.2,1.2,0,0,0-.85.352l-16.886,16.886a1.2,1.2,0,0,0,1.7,1.7L291.271,201.6a1.2,1.2,0,0,0-.85-2.053Z" transform="translate(-270.757 -197.968)"/>
          </g>
          <g id="Grupo_1217084" data-name="Grupo 1217084" transform="translate(37.956 4.72)">
            <path id="Trazado_1085490" data-name="Trazado 1085490" d="M0,0H1.576V3.984H0Z" transform="translate(0 1.114) rotate(-45)"/>
          </g>
          <g id="Grupo_1217085" data-name="Grupo 1217085" transform="translate(20.855 21.82)">
            <path id="Trazado_1085491" data-name="Trazado 1085491" d="M0,0H1.576V3.977H0Z" transform="translate(0 1.114) rotate(-45)"/>
          </g>
          <g id="Grupo_1217086" data-name="Grupo 1217086" transform="translate(63.285 30.055)">
            <path id="Trazado_1085492" data-name="Trazado 1085492" d="M0,0H1.576V3.984H0Z" transform="translate(0 1.114) rotate(-45)"/>
          </g>
          <g id="Grupo_1217087" data-name="Grupo 1217087" transform="translate(46.187 47.16)">
            <path id="Trazado_1085493" data-name="Trazado 1085493" d="M0,0H1.576V3.977H0Z" transform="translate(0 1.114) rotate(-45)"/>
          </g>
          <g id="Grupo_1217088" data-name="Grupo 1217088" transform="translate(16.631)">
            <path id="Trazado_1085494" data-name="Trazado 1085494" d="M113.524,55.4a2.555,2.555,0,0,1-1.818-.753l-.388-.388a6.425,6.425,0,0,1,0-9.076l11.039-11.039a6.425,6.425,0,0,1,9.076,0l.388.388a2.574,2.574,0,0,1,0,3.637L115.342,54.651a2.554,2.554,0,0,1-1.818.753Zm13.371-21.557a4.826,4.826,0,0,0-3.423,1.416L112.432,46.3a4.858,4.858,0,0,0,0,6.847l.388.387h0a1,1,0,0,0,1.408,0l16.478-16.478a1,1,0,0,0,0-1.408l-.388-.388a4.828,4.828,0,0,0-3.423-1.415Z" transform="translate(-109.441 -32.272)"/>
          </g>
          <g id="Grupo_1217089" data-name="Grupo 1217089" transform="translate(48.621 31.991)">
            <path id="Trazado_1085495" data-name="Trazado 1085495" d="M314.286,254.566a6.372,6.372,0,0,1-4.538-1.873l-.709-.709h0a2.119,2.119,0,0,1,0-2.994L326.16,231.87a2.119,2.119,0,0,1,2.994,0l.709.709a6.425,6.425,0,0,1,0,9.076l-11.039,11.039A6.372,6.372,0,0,1,314.286,254.566Zm-4.133-3.7.709.709a4.858,4.858,0,0,0,6.847,0l11.039-11.039a4.858,4.858,0,0,0,0-6.847l-.709-.709a.554.554,0,0,0-.765,0l-17.121,17.121a.542.542,0,0,0,0,.765Z" transform="translate(-308.419 -231.251)"/>
          </g>
          <g id="Grupo_1217090" data-name="Grupo 1217090" transform="translate(31.524 66.424)">
            <path id="Trazado_1085496" data-name="Trazado 1085496" d="M248.222,450.939H204.794a2.721,2.721,0,0,1-2.718-2.717v-.081a2.721,2.721,0,0,1,2.718-2.717h29.611a.788.788,0,1,1,0,1.576H204.794a1.143,1.143,0,0,0-1.142,1.141v.081a1.143,1.143,0,0,0,1.142,1.141h43.428a1.142,1.142,0,0,0,1.141-1.141v-.081A1.142,1.142,0,0,0,248.222,447h-7.659a.788.788,0,1,1,0-1.576h7.659a2.72,2.72,0,0,1,2.717,2.717v.081A2.72,2.72,0,0,1,248.222,450.939Z" transform="translate(-202.076 -445.424)"/>
          </g>
          <g id="Grupo_1217091" data-name="Grupo 1217091" transform="translate(35.599 58.543)">
            <path id="Trazado_1085497" data-name="Trazado 1085497" d="M266.58,405.2a8.586,8.586,0,0,0-8.51-7.219H237.487a8.626,8.626,0,0,0-8.51,7.219l-1.556-.254a10.2,10.2,0,0,1,10.066-8.541H258.07a10.156,10.156,0,0,1,10.066,8.54Z" transform="translate(-227.421 -396.403)"/>
          </g>
          <g id="Grupo_1217092" data-name="Grupo 1217092" transform="translate(26.7 27.237)">
            <path id="Trazado_1085498" data-name="Trazado 1085498" d="M0,0H1.576V23.882H0Z" transform="translate(0 1.114) rotate(-45)"/>
          </g>
        </g>
      </g>
    </g>
  </g>
</svg>
