<svg xmlns="http://www.w3.org/2000/svg" width="165" height="158.06" viewBox="0 0 165 158.06">
  <g id="Grupo_1217722" data-name="Grupo 1217722" transform="translate(-778.293 -3614.799)">
    <rect id="Rectángulo_420493" data-name="Rectángulo 420493" width="109" height="158" transform="translate(834.293 3614.799)" fill="#1172b3"/>
    <g id="democracia_1_" data-name="democracia (1)" transform="translate(778.293 3623.733)">
      <g id="Grupo_1217720" data-name="Grupo 1217720" transform="translate(2.184 2.184)">
        <g id="Grupo_1217707" data-name="Grupo 1217707" transform="translate(51.6)">
          <path id="Trazado_1086295" data-name="Trazado 1086295" d="M235.36,104.612h11.971v14.921H235.36Z" transform="translate(-220.593 -76.327)" fill="#ae6c6c"/>
          <path id="Trazado_1086296" data-name="Trazado 1086296" d="M227.582,136.929v9.184H209.014l-2.184-.583-2.184.583H186.66v-8.6a5.985,5.985,0,0,1,5.184-5.933l.317-.7,8.683-1.174,3.8,3.054.246,1.071,1.912.662,1.852-.6.359-1.16,3.8-3.027L222.4,131A5.985,5.985,0,0,1,227.582,136.929Z" transform="translate(-186.077 -94.108)" fill="#6a7682"/>
          <path id="Trazado_1086297" data-name="Trazado 1086297" d="M190.744,133.731V148.97H184.66v-9.183a5.985,5.985,0,0,1,5.184-5.933Z" transform="translate(-184.66 -96.965)" fill="#5d6875"/>
          <path id="Trazado_1086298" data-name="Trazado 1086298" d="M239.645,37.14v6.922a7.983,7.983,0,0,1-2.758,6.035l-3.105,2.688a8.381,8.381,0,0,1-10.971,0L219.706,50.1a7.982,7.982,0,0,1-2.758-6.035V37.14C224.525,27.679,232.091,27.65,239.645,37.14Z" transform="translate(-207.544 -23.47)" fill="#b98080"/>
          <path id="Trazado_1086299" data-name="Trazado 1086299" d="M239.658,15.982l-1.215,5.247a8.765,8.765,0,0,0-4.817-1.433,9.667,9.667,0,0,0-5.194,1.7,2.333,2.333,0,0,1-2.678.008,9.773,9.773,0,0,0-4.4-1.66s-.636-.647-.9-.651A7.155,7.155,0,0,0,216.1,20.46l-.708-4.848a3.354,3.354,0,0,1,.6-3.132A9.711,9.711,0,0,1,221.182,8.9a12.368,12.368,0,0,0,1.534-.882,18.12,18.12,0,0,1,4.4-.516c6.573,0,10.141,3.077,11.778,5.1a3.954,3.954,0,0,1,.76,3.38Z" transform="translate(-206.342 -7.5)" fill="#6a7682"/>
          <path id="Trazado_1086300" data-name="Trazado 1086300" d="M218.353,15.653l1,5.455c-.262-.029-.524-.047-.789-.05a8.749,8.749,0,0,0-4.817,1.436l-1.215-5.237a3.966,3.966,0,0,1,.772-3.4,13.722,13.722,0,0,1,7.413-4.582,15.318,15.318,0,0,0-1.587,2.059,6.108,6.108,0,0,0-.772,4.314Z" transform="translate(-204.338 -8.762)" fill="#5d6875"/>
        </g>
        <g id="Grupo_1217708" data-name="Grupo 1217708" transform="translate(0.292 16.766)">
          <path id="Trazado_1086301" data-name="Trazado 1086301" d="M8.931,83.129a9.747,9.747,0,0,0,7.337,1.128,1.888,1.888,0,0,1,.709.146c4.251-.982,8.5-3.324,12.752-2.873a8.361,8.361,0,0,1,3.788,1.033V67.8a.884.884,0,0,0-.43-.754,9.811,9.811,0,0,0-3.075-1.587c-.091-.019-.282-.335-.282-.335C25.488,64.669,21.238,67,17,67.985a1.92,1.92,0,0,1-.555.417,9.56,9.56,0,0,1-6.692-.653.873.873,0,0,0-1.255.784V82.376a.883.883,0,0,0,.429.754Z" transform="translate(-8.502 -65.062)" fill="#c1e9af"/>
        </g>
        <g id="Grupo_1217709" data-name="Grupo 1217709" transform="translate(119.452 16.906)">
          <path id="Trazado_1086302" data-name="Trazado 1086302" d="M442.492,83.763c-7.03,4.26-14.059-2.637-21.089-1.89a4.225,4.225,0,0,0-3.5.159l-.291-13.894a.884.884,0,0,1,.43-.754,19.694,19.694,0,0,1,3.15-1.78h0c6.754-.718,13.716,5.478,20.471,2.2a.873.873,0,0,1,1.255.784V83.009A.884.884,0,0,1,442.492,83.763Z" transform="translate(-417.616 -65.545)" fill="#c1e9af"/>
        </g>
        <g id="Grupo_1217710" data-name="Grupo 1217710" transform="translate(18.787 54.754)">
          <path id="Trazado_1086303" data-name="Trazado 1086303" d="M180.553,294.259l-.147-85.365L77.58,208.27l.678,85.989h9.967l.773.291h22.077l.887-.291,26.743-.012,1.119.3H161.9l.661-.291Z" transform="translate(-75.955 -204.547)" fill="#7e8b96"/>
          <path id="Trazado_1086304" data-name="Trazado 1086304" d="M72,195.489v89.355h9.865l-.12-67.327a4.491,4.491,0,0,1,4.491-4.491h30.271l2,5.825,12,.9,2.184-6.722h34.22l4.667,5.759,7.571-5.917V195.489H72Z" transform="translate(-72 -195.489)" fill="#6a7682"/>
        </g>
        <path id="Trazado_1086305" data-name="Trazado 1086305" d="M167.791,179.462H61.737l-1.6.328-11.176-.037A1.456,1.456,0,0,0,47.5,181.21v7.3a1.456,1.456,0,0,0,1.456,1.456l10.6-.05,2.183.341H167.791a1.456,1.456,0,0,0,1.456-1.456v-7.88A1.456,1.456,0,0,0,167.791,179.462Z" transform="translate(-35.849 -129.376)" fill="#909ba6"/>
        <g id="Grupo_1217713" data-name="Grupo 1217713" transform="translate(0 66.964)">
          <path id="Trazado_1086306" data-name="Trazado 1086306" d="M48.694,267.7a5.648,5.648,0,0,0-5.483,3.728l-.577,1.539a45.432,45.432,0,0,0-1.711,6.541V246.886a4.131,4.131,0,0,0-3.893-4.124s-.128.322-.207.322a3.934,3.934,0,0,0-4.01,3.739c-.006.085-.151.063-.151.063v-5.333a4.121,4.121,0,0,0-3.872-4.113s-.239.184-.323.184a3.73,3.73,0,0,0-3.76,4l-.021,4.757-.264.033a4.123,4.123,0,0,0-3.877-4.116l-.246.284a3.643,3.643,0,0,0-3.832,3.832v6.2l-.291.039a3.9,3.9,0,0,0-3.428-3.87l-.486.169A3.421,3.421,0,0,0,8.74,252.65l.225,29.6a16.071,16.071,0,0,0,2.538,8.259c1.928,3.4,2.212,7.3,2.212,10.463v.874h24.32l.334-.874v-.36a10.272,10.272,0,0,1,5.26-8.966,10.272,10.272,0,0,0,5.26-8.966v-3.7a10.268,10.268,0,0,1,.793-3.958l1.59-3.809a2.725,2.725,0,0,0-1.994-3.724,2.042,2.042,0,0,1-.584.211Z" transform="translate(-8.379 -237.431)" fill="#ffdfd4"/>
          <path id="Trazado_1086307" data-name="Trazado 1086307" d="M13.634,316.627a23.381,23.381,0,0,1,2.913,11.23v.66l-.818.807-2.959-.032-.347-.776a19.445,19.445,0,0,0-.571-4.777,19.858,19.858,0,0,0-2.018-4.957A17.865,17.865,0,0,1,7.5,309.96V280.207a3.9,3.9,0,0,1,3.9-3.9,3.591,3.591,0,0,1,.472.029v33.62a13.56,13.56,0,0,0,1.765,6.667Z" transform="translate(-7.5 -264.98)" fill="#feccbc"/>
          <path id="Trazado_1086308" data-name="Trazado 1086308" d="M51.154,466.018H26.779l.907-9.264,2.525-1.2H51.154Z" transform="translate(-21.164 -392.017)" fill="#f2fbff"/>
          <path id="Trazado_1086309" data-name="Trazado 1086309" d="M24.4,455.554h4.125v10.464H24.4Z" transform="translate(-19.476 -392.017)" fill="#dfeef4"/>
          <path id="Trazado_1086310" data-name="Trazado 1086310" d="M15.079,488.677V487.09a1.456,1.456,0,0,1,1.456-1.456l4.554-.2.828-.381H44.7a1.456,1.456,0,0,1,1.456,1.456v2.752a1.456,1.456,0,0,1-1.456,1.456H21.918l-.712-.368-4.671-.214a1.456,1.456,0,0,1-1.456-1.456Z" transform="translate(-12.872 -412.923)" fill="#ade194"/>
          <path id="Trazado_1086311" data-name="Trazado 1086311" d="M20.5,485.05v5.665H14.536a1.457,1.457,0,0,1-1.456-1.456v-2.752a1.457,1.457,0,0,1,1.456-1.456Z" transform="translate(-11.455 -412.922)" fill="#97da7b"/>
          <g id="Grupo_1217711" data-name="Grupo 1217711" transform="translate(7.797)">
            <path id="Trazado_1086312" data-name="Trazado 1086312" d="M38.639,254.119v19.407a3.494,3.494,0,0,1-3.5,3.5.873.873,0,0,1-.874-.874V258.234a4.127,4.127,0,0,1,4.121-4.124c.084,0,.166,0,.248.009Z" transform="translate(-34.27 -249.246)" fill="#feccbc"/>
            <path id="Trazado_1086313" data-name="Trazado 1086313" d="M66.949,237.419V261.69a3.494,3.494,0,0,1-3.5,3.5.873.873,0,0,1-.874-.874v-22.78A4.122,4.122,0,0,1,66.7,237.41C66.786,237.41,66.867,237.413,66.949,237.419Z" transform="translate(-54.334 -237.41)" fill="#feccbc"/>
            <path id="Trazado_1086314" data-name="Trazado 1086314" d="M95.239,255.7v18.947a3.494,3.494,0,0,1-3.5,3.5.874.874,0,0,1-.874-.874V259.82A4.127,4.127,0,0,1,95,255.69C95.082,255.69,95.16,255.693,95.239,255.7Z" transform="translate(-74.385 -250.366)" fill="#feccbc"/>
          </g>
          <g id="Grupo_1217712" data-name="Grupo 1217712" transform="translate(32.546 30.012)">
            <path id="Trazado_1086315" data-name="Trazado 1086315" d="M127.593,340.5l-.781,1.7-2.208,5.315a12.986,12.986,0,0,0-1,5v2.534a4.373,4.373,0,0,1-3.293,4.235.871.871,0,0,1-1.076-.85v-5.919a17.381,17.381,0,0,1,1.331-6.676l.6-1.453a6.391,6.391,0,0,1,5.9-3.938,2.743,2.743,0,0,1,.518.05Z" transform="translate(-119.24 -340.45)" fill="#feccbc"/>
          </g>
        </g>
        <g id="Grupo_1217716" data-name="Grupo 1217716" transform="translate(50.826 66.964)">
          <path id="Trazado_1086316" data-name="Trazado 1086316" d="M223.195,267.7a5.648,5.648,0,0,0-5.483,3.728l-.577,1.539a45.433,45.433,0,0,0-1.711,6.541V246.886a4.131,4.131,0,0,0-3.893-4.124s-.162.2-.242.2a3.923,3.923,0,0,0-3.906,3.887c0,.075-.22.038-.22.038v-5.333a4.121,4.121,0,0,0-3.872-4.113s-.239.184-.323.184a3.73,3.73,0,0,0-3.76,4l-.021,4.757-.264.033a4.123,4.123,0,0,0-3.877-4.116l-.246.284a3.644,3.644,0,0,0-3.832,3.832v6.2l-.291.039a3.9,3.9,0,0,0-3.428-3.87l-.486.169a3.421,3.421,0,0,0-3.521,3.692l.225,29.6A16.071,16.071,0,0,0,186,290.505c1.928,3.4,2.212,7.3,2.212,10.463v.874h24.32l.334-.874v-.36a10.272,10.272,0,0,1,5.26-8.966,10.272,10.272,0,0,0,5.26-8.966v-3.7a10.269,10.269,0,0,1,.793-3.958l1.59-3.809a2.725,2.725,0,0,0-1.994-3.724A2.046,2.046,0,0,1,223.195,267.7Z" transform="translate(-182.879 -237.431)" fill="#c59191"/>
          <path id="Trazado_1086317" data-name="Trazado 1086317" d="M188.134,316.627a23.38,23.38,0,0,1,2.913,11.23v.66l-.531.861-3.306-.073-.288-.789a19.444,19.444,0,0,0-.571-4.777,19.858,19.858,0,0,0-2.018-4.957A17.865,17.865,0,0,1,182,309.96V280.207a3.9,3.9,0,0,1,3.9-3.9,3.607,3.607,0,0,1,.472.029v33.62A13.56,13.56,0,0,0,188.134,316.627Z" transform="translate(-182 -264.98)" fill="#b98080"/>
          <path id="Trazado_1086318" data-name="Trazado 1086318" d="M225.654,466.018H201.279l.907-9.264,2.525-1.2h20.943Z" transform="translate(-195.664 -392.017)" fill="#f2fbff"/>
          <path id="Trazado_1086319" data-name="Trazado 1086319" d="M198.9,455.554h4.125v10.464H198.9Z" transform="translate(-193.976 -392.017)" fill="#dfeef4"/>
          <path id="Trazado_1086320" data-name="Trazado 1086320" d="M189.579,488.677V487.09a1.456,1.456,0,0,1,1.456-1.456l4.554-.2.828-.381H219.2a1.456,1.456,0,0,1,1.456,1.456v2.752a1.456,1.456,0,0,1-1.456,1.456H196.418l-.712-.368-4.671-.214A1.457,1.457,0,0,1,189.579,488.677Z" transform="translate(-187.372 -412.923)" fill="#94d8e6"/>
          <path id="Trazado_1086321" data-name="Trazado 1086321" d="M195,485.05v5.665h-5.965a1.457,1.457,0,0,1-1.456-1.456v-2.752a1.457,1.457,0,0,1,1.456-1.456Z" transform="translate(-185.955 -412.922)" fill="#75c5d8"/>
          <g id="Grupo_1217714" data-name="Grupo 1217714" transform="translate(7.797)">
            <path id="Trazado_1086322" data-name="Trazado 1086322" d="M213.139,254.119v19.407a3.494,3.494,0,0,1-3.5,3.5.873.873,0,0,1-.874-.874V258.234a4.127,4.127,0,0,1,4.121-4.124c.084,0,.166,0,.248.009Z" transform="translate(-208.77 -249.246)" fill="#b98080"/>
            <path id="Trazado_1086323" data-name="Trazado 1086323" d="M241.449,237.419V261.69a3.494,3.494,0,0,1-3.5,3.5.873.873,0,0,1-.874-.874v-22.78a4.122,4.122,0,0,1,4.121-4.121C241.286,237.41,241.367,237.413,241.449,237.419Z" transform="translate(-228.834 -237.41)" fill="#b98080"/>
            <path id="Trazado_1086324" data-name="Trazado 1086324" d="M269.739,255.7v18.947a3.494,3.494,0,0,1-3.5,3.5.874.874,0,0,1-.874-.874V259.82a4.127,4.127,0,0,1,4.13-4.13C269.582,255.69,269.66,255.693,269.739,255.7Z" transform="translate(-248.885 -250.366)" fill="#b98080"/>
          </g>
          <g id="Grupo_1217715" data-name="Grupo 1217715" transform="translate(32.546 30.012)">
            <path id="Trazado_1086325" data-name="Trazado 1086325" d="M302.093,340.5l-.781,1.7-2.208,5.315a12.986,12.986,0,0,0-1,5v2.534a4.373,4.373,0,0,1-3.293,4.235.871.871,0,0,1-1.076-.85v-5.919a17.381,17.381,0,0,1,1.331-6.676l.6-1.453a6.391,6.391,0,0,1,5.9-3.938,2.743,2.743,0,0,1,.518.05Z" transform="translate(-293.74 -340.45)" fill="#b98080"/>
          </g>
        </g>
        <g id="Grupo_1217719" data-name="Grupo 1217719" transform="translate(101.651 66.964)">
          <path id="Trazado_1086326" data-name="Trazado 1086326" d="M397.694,267.7a5.648,5.648,0,0,0-5.483,3.728l-.577,1.539a45.43,45.43,0,0,0-1.711,6.541V246.886a4.131,4.131,0,0,0-3.893-4.124s-.179.3-.259.3a3.825,3.825,0,0,0-3.729,3.713l-.38.112v-5.333a4.121,4.121,0,0,0-3.872-4.113s-.239.184-.323.184a3.73,3.73,0,0,0-3.761,4l-.021,4.757-.264.033a4.123,4.123,0,0,0-3.877-4.116l-.246.284a3.644,3.644,0,0,0-3.832,3.832v6.2l-.291.039a3.9,3.9,0,0,0-3.428-3.87l-.486.169a3.421,3.421,0,0,0-3.521,3.692l.225,29.6a16.071,16.071,0,0,0,2.538,8.259c1.928,3.4,2.212,7.3,2.212,10.463v.874h24.32l.334-.874v-.36a10.272,10.272,0,0,1,5.26-8.966,10.272,10.272,0,0,0,5.26-8.966v-3.7a10.269,10.269,0,0,1,.793-3.958l1.59-3.809a2.725,2.725,0,0,0-1.994-3.724A2.04,2.04,0,0,1,397.694,267.7Z" transform="translate(-357.378 -237.431)" fill="#ffdfd4"/>
          <path id="Trazado_1086327" data-name="Trazado 1086327" d="M362.634,316.627a23.381,23.381,0,0,1,2.913,11.23v.66l-.526.873-2.669-.08-.93-.793a19.445,19.445,0,0,0-.571-4.777,19.859,19.859,0,0,0-2.018-4.957,17.865,17.865,0,0,1-2.333-8.822V280.207a3.9,3.9,0,0,1,3.9-3.9,3.591,3.591,0,0,1,.472.029v33.62A13.56,13.56,0,0,0,362.634,316.627Z" transform="translate(-356.5 -264.98)" fill="#feccbc"/>
          <path id="Trazado_1086328" data-name="Trazado 1086328" d="M400.154,466.018H375.779l.907-9.264,2.525-1.2h20.943Z" transform="translate(-370.164 -392.017)" fill="#f2fbff"/>
          <path id="Trazado_1086329" data-name="Trazado 1086329" d="M373.4,455.554h4.125v10.464H373.4Z" transform="translate(-368.476 -392.017)" fill="#dfeef4"/>
          <path id="Trazado_1086330" data-name="Trazado 1086330" d="M364.079,488.677V487.09a1.456,1.456,0,0,1,1.456-1.456l4.554-.2.828-.381H393.7a1.456,1.456,0,0,1,1.456,1.456v2.752a1.456,1.456,0,0,1-1.456,1.456H370.918l-.712-.368-4.671-.214A1.456,1.456,0,0,1,364.079,488.677Z" transform="translate(-361.872 -412.923)" fill="#ffd15b"/>
          <path id="Trazado_1086331" data-name="Trazado 1086331" d="M369.5,485.05v5.665h-5.965a1.457,1.457,0,0,1-1.456-1.456v-2.752a1.457,1.457,0,0,1,1.456-1.456Z" transform="translate(-360.455 -412.922)" fill="#ffc344"/>
          <g id="Grupo_1217717" data-name="Grupo 1217717" transform="translate(7.797)">
            <path id="Trazado_1086332" data-name="Trazado 1086332" d="M387.639,254.119v19.407a3.494,3.494,0,0,1-3.5,3.5.873.873,0,0,1-.874-.874V258.234a4.127,4.127,0,0,1,4.121-4.124c.084,0,.166,0,.248.009Z" transform="translate(-383.27 -249.246)" fill="#feccbc"/>
            <path id="Trazado_1086333" data-name="Trazado 1086333" d="M415.949,237.419V261.69a3.494,3.494,0,0,1-3.5,3.5.873.873,0,0,1-.874-.874v-22.78a4.122,4.122,0,0,1,4.121-4.121C415.786,237.41,415.867,237.413,415.949,237.419Z" transform="translate(-403.334 -237.41)" fill="#feccbc"/>
            <path id="Trazado_1086334" data-name="Trazado 1086334" d="M444.239,255.7v18.947a3.494,3.494,0,0,1-3.5,3.5.875.875,0,0,1-.874-.874V259.82a4.127,4.127,0,0,1,4.13-4.13C444.082,255.69,444.16,255.693,444.239,255.7Z" transform="translate(-423.385 -250.366)" fill="#feccbc"/>
          </g>
          <g id="Grupo_1217718" data-name="Grupo 1217718" transform="translate(32.546 30.012)">
            <path id="Trazado_1086335" data-name="Trazado 1086335" d="M476.593,340.5l-.781,1.7-2.208,5.315a12.986,12.986,0,0,0-1,5v2.534a4.373,4.373,0,0,1-3.293,4.235.871.871,0,0,1-1.076-.85v-5.919a17.38,17.38,0,0,1,1.331-6.676l.6-1.453a6.391,6.391,0,0,1,5.9-3.938,2.743,2.743,0,0,1,.518.05Z" transform="translate(-468.24 -340.45)" fill="#feccbc"/>
          </g>
        </g>
        <path id="Trazado_1086336" data-name="Trazado 1086336" d="M61.028,179.46v10.794H47.956A1.457,1.457,0,0,1,46.5,188.8v-7.882a1.457,1.457,0,0,1,1.456-1.456Z" transform="translate(-35.14 -129.375)" fill="#7e8b96"/>
        <path id="Trazado_1086337" data-name="Trazado 1086337" d="M16.292,73.6l-.026,16.419a10.6,10.6,0,0,1-8.336-.984.882.882,0,0,1-.431-.754V73.855a.872.872,0,0,1,1.255-.783,10.968,10.968,0,0,0,7.538.526Z" transform="translate(-7.499 -53.91)" fill="#ade194"/>
      </g>
      <g id="Grupo_1217721" data-name="Grupo 1217721" transform="translate(0 0)">
        <path id="Trazado_1086338" data-name="Trazado 1086338" d="M217.066,259.924a8.551,8.551,0,0,0-5.652,2.125v-20.5a6.316,6.316,0,0,0-8.3-6,6.305,6.305,0,0,0-12.478-.441,6.309,6.309,0,0,0-8.343,5.971v.4a6.092,6.092,0,0,0-7.8,5.839v29.752a20.115,20.115,0,0,0,2.617,9.9,16.908,16.908,0,0,1,2.3,8.659v6.407H178.31a2.184,2.184,0,0,0-2.184,2.184v5.665a2.184,2.184,0,0,0,4.369,0v-3.48h27.292v3.48a2.184,2.184,0,0,0,4.369,0v-5.665a2.184,2.184,0,0,0-2.184-2.185H208.86v-6.766a8.215,8.215,0,0,1,4.142-7.06,12.467,12.467,0,0,0,6.379-10.873v-3.7a8.05,8.05,0,0,1,.624-3.116l1.59-3.809a4.908,4.908,0,0,0-4.529-6.8Zm-33.275,42.117v-4.222h20.7v4.222Zm33.772-37-1.59,3.809a12.394,12.394,0,0,0-.962,4.8v3.7a8.094,8.094,0,0,1-4.142,7.059,12.468,12.468,0,0,0-6.24,9.048H183.687a21.41,21.41,0,0,0-2.768-8.629,15.736,15.736,0,0,1-2.049-7.744V247.325a1.714,1.714,0,0,1,3.428,0v11.686a2.184,2.184,0,1,0,4.369,0V241.085a1.939,1.939,0,1,1,3.877,0v17.926a2.184,2.184,0,1,0,4.369,0V236.219a1.936,1.936,0,0,1,3.871,0v22.792a2.184,2.184,0,1,0,4.369,0V241.552a1.946,1.946,0,0,1,3.892,0v35.158a2.184,2.184,0,1,0,4.369,0v-2.533a15.148,15.148,0,0,1,1.164-5.839l.6-1.451a4.2,4.2,0,0,1,3.885-2.593.539.539,0,0,1,.5.746Z" transform="translate(-123.675 -162.949)"/>
        <path id="Trazado_1086339" data-name="Trazado 1086339" d="M133.3,39.1a26.064,26.064,0,0,0,8.2,1.791,11.61,11.61,0,0,0,6.663-2.049,2.185,2.185,0,0,0,.966-1.813V20.621a2.185,2.185,0,0,0-3.4-1.813c-3.421,2.3-6.947,1.114-11.03-.257-4.523-1.519-9.65-3.241-14.858.257a2.185,2.185,0,0,0-.966,1.813V50.086h-9.852V41.215a5.114,5.114,0,0,0-1.625-3.732l-6.911-6.428a2.185,2.185,0,0,0-2.976,3.2l6.911,6.428a.731.731,0,0,1,.232.533v8.871H97.5V46.753a8.2,8.2,0,0,0-7.077-8.1l-7.69-1.039V32.094c0-.017,0-.034,0-.051l1.826-1.58a10.159,10.159,0,0,0,3.513-7.687V16.164l1.159-5.005A6.1,6.1,0,0,0,88.04,5.913C86.255,3.705,82.13,0,74.563,0S62.855,3.7,61.056,5.9a6.179,6.179,0,0,0-1.208,5.268l1.156,5v6.608a10.161,10.161,0,0,0,3.512,7.686l1.876,1.624s0,0,0,.008v5.523L58.7,38.655a8.2,8.2,0,0,0-7.077,8.1v3.334H44.478V41.215a.732.732,0,0,1,.232-.533l6.911-6.428a2.185,2.185,0,0,0-2.976-3.2l-6.911,6.428a5.114,5.114,0,0,0-1.625,3.732v8.871H30.258V20.621a2.185,2.185,0,0,0-.966-1.813,11.91,11.91,0,0,0-8.278-1.955,2.184,2.184,0,1,0,.479,4.342,7.64,7.64,0,0,1,4.4.676V33.616c-4.021-1.151-7.922.16-11.455,1.347-3.7,1.243-6.943,2.332-10.064.815V24.025a14.373,14.373,0,0,0,7.48-.115,2.184,2.184,0,1,0-1.055-4.24c-3.166.788-5.308.538-7.391-.862A2.185,2.185,0,0,0,0,20.621V37.034a2.185,2.185,0,0,0,.966,1.813A11.609,11.609,0,0,0,7.629,40.9a26.076,26.076,0,0,0,8.2-1.791c3.7-1.243,6.943-2.332,10.064-.815v11.8H13.544a2.184,2.184,0,0,0-2.184,2.184v9.336a2.184,2.184,0,0,0,2.184,2.184h5.243v4.283a6.314,6.314,0,0,0-2.646,4.091A6.309,6.309,0,0,0,7.8,78.136v.4A6.092,6.092,0,0,0,0,84.377v29.752a20.115,20.115,0,0,0,2.617,9.9,16.908,16.908,0,0,1,2.3,8.659v6.407H3.809a2.184,2.184,0,0,0-2.184,2.184v5.665a2.184,2.184,0,0,0,4.369,0v-3.48H33.286v3.48a2.184,2.184,0,0,0,4.369,0v-5.665a2.184,2.184,0,0,0-2.184-2.184H34.359v-6.766a8.094,8.094,0,0,1,4.142-7.06,12.467,12.467,0,0,0,6.379-10.873v-3.7a8.05,8.05,0,0,1,.624-3.116l1.59-3.809a4.908,4.908,0,0,0-4.529-6.8A8.551,8.551,0,0,0,36.914,99.1V92.13a2.184,2.184,0,1,0-4.369,0v21.631a2.184,2.184,0,1,0,4.369,0v-2.533a15.149,15.149,0,0,1,1.164-5.839l.6-1.451a4.2,4.2,0,0,1,3.885-2.593.539.539,0,0,1,.5.746l-1.59,3.809a12.394,12.394,0,0,0-.962,4.8v3.7a8.094,8.094,0,0,1-4.142,7.059,12.468,12.468,0,0,0-6.24,9.048H9.186a21.41,21.41,0,0,0-2.768-8.629,15.735,15.735,0,0,1-2.05-7.744V84.377a1.714,1.714,0,0,1,3.428,0V96.062a2.184,2.184,0,1,0,4.369,0V78.136a1.939,1.939,0,1,1,3.877,0V96.062a2.184,2.184,0,1,0,4.369,0V73.27a1.936,1.936,0,1,1,3.871,0V96.062a2.184,2.184,0,1,0,4.369,0V78.6a1.946,1.946,0,1,1,3.892,0v3.333a2.184,2.184,0,1,0,4.369,0V78.6a6.316,6.316,0,0,0-8.3-6,6.313,6.313,0,0,0-5.463-5.583V63.791H125.971v3.5a6.286,6.286,0,0,0-8.18,4.877,6.309,6.309,0,0,0-8.343,5.971v.4a6.092,6.092,0,0,0-7.8,5.839v17.495a2.184,2.184,0,1,0,4.369,0V84.376a1.714,1.714,0,0,1,3.428,0V96.062a2.184,2.184,0,1,0,4.369,0V78.136a1.939,1.939,0,1,1,3.877,0V96.062a2.184,2.184,0,1,0,4.369,0V73.27a1.936,1.936,0,0,1,3.871,0V96.062a2.184,2.184,0,1,0,4.369,0V78.6a1.946,1.946,0,1,1,3.892,0V113.76a2.184,2.184,0,0,0,4.369,0v-2.533a15.148,15.148,0,0,1,1.164-5.839l.6-1.451a4.2,4.2,0,0,1,3.885-2.593.539.539,0,0,1,.5.746l-1.59,3.809a12.394,12.394,0,0,0-.962,4.8v3.7a8.094,8.094,0,0,1-4.142,7.059,12.468,12.468,0,0,0-6.24,9.048H110.836a21.41,21.41,0,0,0-2.768-8.629,15.736,15.736,0,0,1-2.049-7.744v-2.063a2.184,2.184,0,0,0-4.369,0v2.063a20.115,20.115,0,0,0,2.617,9.9,16.908,16.908,0,0,1,2.3,8.659v6.407H105.46a2.184,2.184,0,0,0-2.184,2.184v5.665a2.184,2.184,0,0,0,4.369,0v-3.48h27.292v3.48a2.184,2.184,0,0,0,4.369,0v-5.665a2.184,2.184,0,0,0-2.184-2.184h-1.112v-6.766a8.1,8.1,0,0,1,4.142-7.06,12.467,12.467,0,0,0,6.379-10.873v-3.7a8.049,8.049,0,0,1,.624-3.116l1.59-3.809a4.908,4.908,0,0,0-4.529-6.8,8.551,8.551,0,0,0-5.652,2.125V78.6a6.31,6.31,0,0,0-8.224-6.017V63.791h5.243a2.184,2.184,0,0,0,2.184-2.184V52.27a2.184,2.184,0,0,0-2.184-2.184H123.238v-11.8c3.122-1.517,6.365-.427,10.064.815ZM29.99,139.093H9.29V134.87h20.7v4.222Zm80.951,0V134.87h20.7v4.222Zm-36.4-97.576-3.782-3.039V35.019a10.665,10.665,0,0,0,7.6-.02v3.474ZM64.441,8.666c1.6-1.96,4.654-4.3,10.123-4.3S83.06,6.7,84.642,8.66a1.782,1.782,0,0,1,.331,1.514h0L84.365,12.8a11,11,0,0,0-3.3-.5A12.478,12.478,0,0,0,74.6,14.407a.155.155,0,0,1-.158-.011,11.812,11.812,0,0,0-6.407-2.1,12.453,12.453,0,0,0-3.326.5l-.6-2.614a1.778,1.778,0,0,1,.336-1.52Zm.933,8.548a6.588,6.588,0,0,1,2.618-.549,7.449,7.449,0,0,1,3.958,1.318,4.528,4.528,0,0,0,2.586.81,4.475,4.475,0,0,0,2.613-.837,7.539,7.539,0,0,1,3.972-1.291,6.6,6.6,0,0,1,2.581.548v5.562a5.793,5.793,0,0,1-2,4.383l-3.1,2.688a6.229,6.229,0,0,1-8.111,0l-3.105-2.688a5.794,5.794,0,0,1-2-4.383ZM55.994,46.752a3.815,3.815,0,0,1,3.293-3.768l8.653-1.169,4.439,3.567v4.7H55.995V46.752Zm77.4,12.67H15.728V54.455H79.941a2.184,2.184,0,1,0,0-4.369H76.748v-4.74l4.434-3.532,8.657,1.17a3.815,3.815,0,0,1,3.293,3.768v3.334h-3a2.184,2.184,0,1,0,0,4.369H133.4Zm-10.16-37.545c3.122-1.517,6.365-.427,10.064.815,3.533,1.187,7.434,2.5,11.455,1.347v11.74c-3.123,1.517-6.364.427-10.064-.815a26.064,26.064,0,0,0-8.2-1.791,11.769,11.769,0,0,0-3.26.445Z" transform="translate(0 0)"/>
      </g>
    </g>
  </g>
</svg>
