<svg xmlns="http://www.w3.org/2000/svg" xmlns:xlink="http://www.w3.org/1999/xlink" width="113" height="113" viewBox="0 0 113 113">
  <defs>
    <filter id="Trazado_982547" x="0" y="0" width="113" height="113" filterUnits="userSpaceOnUse">
      <feOffset dy="3" input="SourceAlpha"/>
      <feGaussianBlur stdDeviation="3" result="blur"/>
      <feFlood flood-opacity="0.161"/>
      <feComposite operator="in" in2="blur"/>
      <feComposite in="SourceGraphic"/>
    </filter>
  </defs>
  <g id="Grupo_1217726" data-name="Grupo 1217726" transform="translate(-272.234 -4712.968)">
    <g id="Grupo_1209935" data-name="Grupo 1209935" transform="translate(281.234 4718.968)">
      <g id="Grupo_1208705" data-name="Grupo 1208705">
        <g id="Grupo_1148633" data-name="Grupo 1148633">
          <g id="Grupo_1148525" data-name="Grupo 1148525">
            <g transform="matrix(1, 0, 0, 1, -9, -6)" filter="url(#Trazado_982547)">
              <g id="Trazado_982547-2" data-name="Trazado 982547" transform="translate(9 6)" fill="#e6d567">
                <path d="M 47.5 93.5 C 41.28937149047852 93.5 35.26533508300781 92.28397369384766 29.59518623352051 89.88570404052734 C 24.11771965026855 87.56893157958984 19.19813346862793 84.25196075439453 14.97309303283691 80.02691650390625 C 10.74804019927979 75.80186462402344 7.431066513061523 70.88229370117188 5.114293098449707 65.40481567382812 C 2.716026782989502 59.73468017578125 1.5 53.71062850952148 1.5 47.5 C 1.5 41.28937149047852 2.716026782989502 35.26533508300781 5.114293098449707 29.59518623352051 C 7.431066513061523 24.11771965026855 10.74804019927979 19.19813346862793 14.97309303283691 14.97309303283691 C 19.19813346862793 10.74804019927979 24.11771965026855 7.431066513061523 29.59518623352051 5.114293098449707 C 35.26533508300781 2.716026782989502 41.28937149047852 1.5 47.5 1.5 C 53.71062850952148 1.5 59.73468017578125 2.716026782989502 65.40481567382812 5.114293098449707 C 70.88229370117188 7.431066513061523 75.80186462402344 10.74804019927979 80.02691650390625 14.97309303283691 C 84.25196075439453 19.19813346862793 87.56893157958984 24.11771965026855 89.88570404052734 29.59518623352051 C 92.28397369384766 35.26533508300781 93.5 41.28937149047852 93.5 47.5 C 93.5 53.71062850952148 92.28397369384766 59.73468017578125 89.88570404052734 65.40481567382812 C 87.56893157958984 70.88229370117188 84.25196075439453 75.80186462402344 80.02691650390625 80.02691650390625 C 75.80186462402344 84.25196075439453 70.88229370117188 87.56893157958984 65.40481567382812 89.88570404052734 C 59.73468017578125 92.28397369384766 53.71062850952148 93.5 47.5 93.5 Z" stroke="none"/>
                <path d="M 47.5 3 C 41.49121475219727 3 35.66376876831055 4.176155090332031 30.17950439453125 6.495796203613281 C 24.88084411621094 8.736953735351562 20.12152099609375 11.94598388671875 16.03375244140625 16.03375244140625 C 11.94598388671875 20.12152099609375 8.736953735351562 24.88084411621094 6.495796203613281 30.17950439453125 C 4.176155090332031 35.66376876831055 3 41.49121475219727 3 47.5 C 3 53.50878524780273 4.176155090332031 59.33623123168945 6.495796203613281 64.82049560546875 C 8.736953735351562 70.11915588378906 11.94598388671875 74.87847900390625 16.03375244140625 78.96624755859375 C 20.12152099609375 83.05401611328125 24.88084411621094 86.26304626464844 30.17950439453125 88.50419616699219 C 35.66376876831055 90.82384490966797 41.49121475219727 92 47.5 92 C 53.50878524780273 92 59.33623123168945 90.82384490966797 64.82049560546875 88.50419616699219 C 70.11915588378906 86.26304626464844 74.87847900390625 83.05401611328125 78.96624755859375 78.96624755859375 C 83.05401611328125 74.87847900390625 86.26304626464844 70.11915588378906 88.50419616699219 64.82049560546875 C 90.82384490966797 59.33623123168945 92 53.50878524780273 92 47.5 C 92 41.49121475219727 90.82384490966797 35.66376876831055 88.50419616699219 30.17950439453125 C 86.26304626464844 24.88084411621094 83.05401611328125 20.12152099609375 78.96624755859375 16.03375244140625 C 74.87847900390625 11.94598388671875 70.11915588378906 8.736953735351562 64.82049560546875 6.495796203613281 C 59.33623123168945 4.176155090332031 53.50878524780273 3 47.5 3 M 47.5 0 C 73.7335205078125 0 95 21.2664794921875 95 47.5 C 95 73.7335205078125 73.7335205078125 95 47.5 95 C 21.2664794921875 95 0 73.7335205078125 0 47.5 C 0 21.2664794921875 21.2664794921875 0 47.5 0 Z" stroke="none" fill="#ba9c5a"/>
              </g>
            </g>
          </g>
        </g>
      </g>
    </g>
    <g id="gestion" transform="translate(286.287 4724.021)">
      <g id="Color" transform="translate(2.912 2.912)">
        <path id="Trazado_1086340" data-name="Trazado 1086340" d="M30.239,16.12a12.611,12.611,0,0,1-.282,2.767v.028c-.48.226-.96.508-1.44.791L28.8,22.36A13.725,13.725,0,0,1,26.229,26a14.259,14.259,0,0,0-10.11-4.236,5.648,5.648,0,1,0-5.648-5.648,5.665,5.665,0,0,0,5.648,5.648A14.259,14.259,0,0,0,6.01,26,14.127,14.127,0,1,1,30.239,16.12Z" transform="translate(-2 -2)" fill="#ffc943"/>
        <path id="Trazado_1086341" data-name="Trazado 1086341" d="M23.639,13.236a14.4,14.4,0,0,1-3.925,2.8A13.983,13.983,0,0,1,16.3,17.218a14.835,14.835,0,0,1-2.767.254A14.26,14.26,0,0,1,3.42,13.236a14.182,14.182,0,0,1,20.22,0Z" transform="translate(0.59 10.768)" fill="#f2f2f2"/>
        <circle id="Elipse_11960" data-name="Elipse 11960" cx="5.648" cy="5.648" r="5.648" transform="translate(8.472 8.472)" fill="#f2f2f2"/>
        <path id="Trazado_1086342" data-name="Trazado 1086342" d="M48.239,16.12A14.106,14.106,0,0,1,44.229,26a14.259,14.259,0,0,0-10.11-4.236,5.648,5.648,0,1,0-5.648-5.648,5.665,5.665,0,0,0,5.648,5.648A14.259,14.259,0,0,0,24.01,26a14.4,14.4,0,0,0,3.925,2.8l-1.666.169a22.213,22.213,0,0,0-5-5.027l.169-1.581.282-2.655c-.48-.282-.96-.565-1.44-.791v-.028A12.611,12.611,0,0,1,20,16.12a14.12,14.12,0,1,1,28.239,0Z" transform="translate(30.831 -2)" fill="#43b3ff"/>
        <path id="Trazado_1086343" data-name="Trazado 1086343" d="M41.639,13.236a14.26,14.26,0,0,1-10.11,4.236,14.835,14.835,0,0,1-2.767-.254,13.983,13.983,0,0,1-3.417-1.186,14.4,14.4,0,0,1-3.925-2.8,14.182,14.182,0,0,1,20.22,0Z" transform="translate(33.421 10.768)" fill="#f2f2f2"/>
        <circle id="Elipse_11961" data-name="Elipse 11961" cx="5.648" cy="5.648" r="5.648" transform="translate(59.303 8.472)" fill="#f2f2f2"/>
        <path id="Trazado_1086344" data-name="Trazado 1086344" d="M30.239,34.12A14.106,14.106,0,0,1,26.229,44a14.259,14.259,0,0,0-10.11-4.236,5.648,5.648,0,1,0-5.648-5.648,5.665,5.665,0,0,0,5.648,5.648A14.259,14.259,0,0,0,6.01,44,14.139,14.139,0,0,1,16.12,20a12.964,12.964,0,0,1,2.767.282c.254.48.537.96.819,1.44l2.626-.282,1.638-.169a17.374,17.374,0,0,0,1.3,1.638,22.154,22.154,0,0,0,3.7,3.389l-.169,1.61-.282,2.626c.48.282.96.565,1.44.819a12.977,12.977,0,0,1,.282,2.768Z" transform="translate(-2 30.831)" fill="#43b3ff"/>
        <path id="Trazado_1086345" data-name="Trazado 1086345" d="M23.639,31.236a14.182,14.182,0,0,1-20.22,0,14.182,14.182,0,0,1,20.22,0Z" transform="translate(0.59 43.599)" fill="#f2f2f2"/>
        <circle id="Elipse_11962" data-name="Elipse 11962" cx="5.648" cy="5.648" r="5.648" transform="translate(8.472 59.303)" fill="#f2f2f2"/>
        <path id="Trazado_1086346" data-name="Trazado 1086346" d="M48.239,34.12A14.106,14.106,0,0,1,44.229,44a14.259,14.259,0,0,0-10.11-4.236,5.648,5.648,0,1,0-5.648-5.648,5.665,5.665,0,0,0,5.648,5.648A14.259,14.259,0,0,0,24.01,44,14.106,14.106,0,0,1,20,34.12a12.977,12.977,0,0,1,.282-2.768c.48-.254.96-.537,1.44-.819l-.282-2.626-.169-1.638a20.846,20.846,0,0,0,3.7-3.36c.48-.537.9-1.073,1.327-1.638l1.61.169,2.626.282c.282-.48.565-.96.819-1.44A12.964,12.964,0,0,1,34.12,20a14.125,14.125,0,0,1,14.12,14.12Z" transform="translate(30.831 30.831)" fill="#ffc943"/>
        <path id="Trazado_1086347" data-name="Trazado 1086347" d="M41.639,31.236a14.182,14.182,0,0,1-20.22,0,14.182,14.182,0,0,1,20.22,0Z" transform="translate(33.421 43.599)" fill="#f2f2f2"/>
        <circle id="Elipse_11963" data-name="Elipse 11963" cx="5.648" cy="5.648" r="5.648" transform="translate(59.303 59.303)" fill="#f2f2f2"/>
        <path id="Trazado_1086348" data-name="Trazado 1086348" d="M53.244,35.481l3.332,2.655a27.2,27.2,0,0,1-2,5.365,13.038,13.038,0,0,0-3.445,1.158l-1.61-.169c-.423.565-.847,1.1-1.327,1.638a19.638,19.638,0,0,0-16.266-8.556A8.472,8.472,0,1,0,23.451,29.1a8.461,8.461,0,0,0,8.472,8.472,19.638,19.638,0,0,0-16.266,8.556,17.373,17.373,0,0,1-1.3-1.638l-1.638.169A13.039,13.039,0,0,0,9.275,43.5a27.2,27.2,0,0,1-2-5.365L10.6,35.453a22.105,22.105,0,0,1,0-7.088L7.27,25.71a26.948,26.948,0,0,1,2-5.337,13.983,13.983,0,0,0,3.417-1.186l1.638.169a22.217,22.217,0,0,1,5.027-5l-.169-1.61A13.037,13.037,0,0,0,20.345,9.3V9.275A27.208,27.208,0,0,1,25.71,7.27L28.393,10.6a22.105,22.105,0,0,1,7.088,0L38.136,7.27A27.208,27.208,0,0,1,43.5,9.275V9.3c.48.226.96.508,1.44.791l-.282,2.655L44.49,14.33a22.213,22.213,0,0,1,5,5.027l1.666-.169a13.983,13.983,0,0,0,3.417,1.186,26.949,26.949,0,0,1,2,5.337l-3.332,2.683a22.1,22.1,0,0,1,0,7.088Z" transform="translate(7.612 7.612)" fill="#f45151" fill-rule="evenodd"/>
        <g id="Grupo_1217723" data-name="Grupo 1217723" transform="translate(23.269 28.239)">
          <path id="Trazado_1086349" data-name="Trazado 1086349" d="M39.072,29.917l.169,1.638A13.037,13.037,0,0,0,38.084,35a27.187,27.187,0,0,1-5.365,2.005l-2.683-3.332a22.105,22.105,0,0,1-7.088,0l-2.655,3.332A27.186,27.186,0,0,1,14.928,35a13.037,13.037,0,0,0-1.158-3.445l.169-1.61a22.154,22.154,0,0,1-3.7-3.389,19.739,19.739,0,0,1,32.532,0,20.845,20.845,0,0,1-3.7,3.36Z" transform="translate(-10.24 -1.056)" fill="#f2f2f2" fill-rule="evenodd"/>
          <circle id="Elipse_11964" data-name="Elipse 11964" cx="8.472" cy="8.472" r="8.472" transform="translate(7.794)" fill="#f2f2f2"/>
        </g>
      </g>
      <g id="Outline" transform="translate(1.5 1.5)">
        <g id="Grupo_1217725" data-name="Grupo 1217725">
          <g id="Grupo_1217724" data-name="Grupo 1217724">
            <path id="Trazado_1086350" data-name="Trazado 1086350" d="M13.859,32.252a1.528,1.528,0,0,0,.294.03,1.412,1.412,0,0,0,.291-2.794,12.942,12.942,0,0,1-5.36-2.559,12.894,12.894,0,0,1,13.988-1.288,1.413,1.413,0,0,0,1.362-2.476A15.246,15.246,0,0,0,21.928,22.1a7.062,7.062,0,1,0-9.763.024,15.634,15.634,0,0,0-5.039,2.8,12.659,12.659,0,0,1,9.906-20.6A12.768,12.768,0,0,1,29.486,14.467a1.412,1.412,0,0,0,2.766-.574A15.538,15.538,0,1,0,5.923,27.914a15.867,15.867,0,0,0,7.935,4.338ZM12.8,17.032a4.236,4.236,0,1,1,4.236,4.236A4.241,4.241,0,0,1,12.8,17.032Z" transform="translate(-1.5 -1.5)" fill-rule="evenodd"/>
            <path id="Trazado_1086351" data-name="Trazado 1086351" d="M20.725,15.562a1.41,1.41,0,0,0,1.668-1.095,12.714,12.714,0,0,1,25.164,2.565,12.621,12.621,0,0,1-2.8,7.895,15.634,15.634,0,0,0-5.04-2.8,7.058,7.058,0,1,0-9.764-.024,15.283,15.283,0,0,0-2.505,1.066,1.413,1.413,0,1,0,1.362,2.476A12.836,12.836,0,0,1,42.8,26.928a12.921,12.921,0,0,1-5.361,2.561,1.412,1.412,0,0,0,.29,2.794,1.531,1.531,0,0,0,.3-.03A15.891,15.891,0,0,0,45.969,27.9,15.543,15.543,0,1,0,19.63,13.893a1.408,1.408,0,0,0,1.095,1.668Zm9.889,1.47a4.236,4.236,0,1,1,4.236,4.236,4.241,4.241,0,0,1-4.236-4.236Z" transform="translate(31.513 -1.5)" fill-rule="evenodd"/>
            <path id="Trazado_1086352" data-name="Trazado 1086352" d="M31.115,36.32a1.4,1.4,0,0,0-1.66,1.111,12.418,12.418,0,0,1-2.49,5.338A15.636,15.636,0,0,0,21.9,39.944a7.06,7.06,0,1,0-9.734,0,15.633,15.633,0,0,0-5.039,2.8,12.619,12.619,0,0,1-2.8-7.894A12.776,12.776,0,0,1,14.467,22.4a1.411,1.411,0,1,0-.574-2.763A15.538,15.538,0,1,0,28.147,45.726a15.192,15.192,0,0,0,4.08-7.749,1.412,1.412,0,0,0-1.111-1.657ZM12.8,34.853a4.236,4.236,0,1,1,4.236,4.236A4.241,4.241,0,0,1,12.8,34.853ZM9.129,44.737a12.708,12.708,0,0,1,7.9-2.824,12.708,12.708,0,0,1,7.9,2.824,12.47,12.47,0,0,1-15.8,0Z" transform="translate(-1.5 31.51)" fill-rule="evenodd"/>
            <path id="Trazado_1086353" data-name="Trazado 1086353" d="M37.968,19.632a1.411,1.411,0,0,0-.574,2.763A12.776,12.776,0,0,1,47.538,34.852a12.621,12.621,0,0,1-2.8,7.895,15.634,15.634,0,0,0-5.04-2.8,7.06,7.06,0,1,0-9.734,0A15.635,15.635,0,0,0,24.9,42.769a12.417,12.417,0,0,1-2.49-5.338,1.411,1.411,0,0,0-2.769.546,15.174,15.174,0,0,0,4.084,7.758,15.594,15.594,0,0,0,22.227-.011,15.561,15.561,0,0,0-7.981-26.091Zm-7.374,15.22a4.236,4.236,0,1,1,4.236,4.236A4.241,4.241,0,0,1,30.594,34.852Zm-3.667,9.884a12.468,12.468,0,0,1,15.8,0,12.469,12.469,0,0,1-15.8,0Z" transform="translate(31.532 31.511)" fill-rule="evenodd"/>
            <path id="Trazado_1086354" data-name="Trazado 1086354" d="M47.258,54.518l-.367-3.461a23.508,23.508,0,0,0,4.181-4.164l3.444.367a1.431,1.431,0,0,0,1.36-.678,27.362,27.362,0,0,0,2.981-7.176,1.417,1.417,0,0,0-.488-1.459l-2.705-2.157a23.4,23.4,0,0,0,.008-5.891l2.7-2.176a1.416,1.416,0,0,0,.483-1.456,27.363,27.363,0,0,0-2.981-7.176,1.416,1.416,0,0,0-1.36-.678l-3.461.367A23.508,23.508,0,0,0,46.891,14.6l.367-3.444A1.411,1.411,0,0,0,46.58,9.8,27.362,27.362,0,0,0,39.4,6.815a1.415,1.415,0,0,0-1.459.488l-2.157,2.705A23.406,23.406,0,0,0,29.9,10L27.722,7.3a1.408,1.408,0,0,0-1.455-.483A27.29,27.29,0,0,0,19.092,9.8a1.411,1.411,0,0,0-.678,1.36l.365,3.461A23.547,23.547,0,0,0,14.6,18.781l-3.443-.367A1.4,1.4,0,0,0,9.8,19.09a27.188,27.188,0,0,0-2.98,7.181A1.408,1.408,0,0,0,7.3,27.727L10,29.883A23.459,23.459,0,0,0,10,35.774L7.3,37.95A1.41,1.41,0,0,0,6.815,39.4,27.188,27.188,0,0,0,9.8,46.584a1.409,1.409,0,0,0,1.36.676l3.46-.367a23.516,23.516,0,0,0,4.166,4.181l-.367,3.444a1.411,1.411,0,0,0,.678,1.36,27.288,27.288,0,0,0,7.176,2.981,1.418,1.418,0,0,0,1.467-.5l.9-1.158a1.412,1.412,0,1,0-2.226-1.737l-.323.414A24.4,24.4,0,0,1,21.319,53.9l.353-3.32A1.406,1.406,0,0,0,21.1,49.3a22.014,22.014,0,0,1-2.684-2.337,18.242,18.242,0,0,1,28.825,0,19.472,19.472,0,0,1-2.657,2.294,1.4,1.4,0,0,0-.59,1.3l.356,3.351a24.653,24.653,0,0,1-4.8,1.986l-.347-.425a1.412,1.412,0,0,0-2.179,1.8l.932,1.131a1.419,1.419,0,0,0,1.445.469,27.363,27.363,0,0,0,7.176-2.981,1.411,1.411,0,0,0,.678-1.36ZM25.775,30.013a7.06,7.06,0,1,1,7.06,7.06A7.067,7.067,0,0,1,25.775,30.013Zm12.918,7.916a9.884,9.884,0,1,0-11.716,0,20.992,20.992,0,0,0-10.414,6.825c-.041-.057-.1-.106-.138-.164a1.412,1.412,0,0,0-1.3-.59l-3.349.356a24.363,24.363,0,0,1-1.981-4.787l2.609-2.1a1.412,1.412,0,0,0,.506-1.338,20.614,20.614,0,0,1,0-6.632,1.41,1.41,0,0,0-.516-1.321L9.793,26.1a24.172,24.172,0,0,1,1.98-4.782l3.319.353a1.373,1.373,0,0,0,1.288-.568,20.747,20.747,0,0,1,4.7-4.68,1.408,1.408,0,0,0,.59-1.3l-.353-3.351A24.5,24.5,0,0,1,26.1,9.793L28.2,12.4a1.4,1.4,0,0,0,1.339.507,20.58,20.58,0,0,1,6.634,0A1.405,1.405,0,0,0,37.5,12.4l2.074-2.6a24.394,24.394,0,0,1,4.782,1.98L44,15.094a1.41,1.41,0,0,0,.568,1.285,20.674,20.674,0,0,1,4.68,4.7,1.419,1.419,0,0,0,1.3.59l3.351-.356a24.584,24.584,0,0,1,1.98,4.787l-2.609,2.1a1.416,1.416,0,0,0-.507,1.34,20.572,20.572,0,0,1,0,6.632,1.407,1.407,0,0,0,.516,1.318l2.6,2.074a24.393,24.393,0,0,1-1.98,4.782L50.578,44a1.431,1.431,0,0,0-1.285.568c-.054.073-.119.13-.173.2a21,21,0,0,0-10.427-6.841Z" transform="translate(8.112 8.11)" fill-rule="evenodd"/>
          </g>
          <circle id="Elipse_11965" data-name="Elipse 11965" cx="1.412" cy="1.412" r="1.412" transform="translate(39.535 61.107)"/>
        </g>
      </g>
    </g>
  </g>
</svg>
