<svg xmlns="http://www.w3.org/2000/svg" xmlns:xlink="http://www.w3.org/1999/xlink" width="113" height="113" viewBox="0 0 113 113">
  <defs>
    <filter id="Trazado_982547" x="0" y="0" width="113" height="113" filterUnits="userSpaceOnUse">
      <feOffset dy="3" input="SourceAlpha"/>
      <feGaussianBlur stdDeviation="3" result="blur"/>
      <feFlood flood-opacity="0.161"/>
      <feComposite operator="in" in2="blur"/>
      <feComposite in="SourceGraphic"/>
    </filter>
    <clipPath id="clip-path">
      <path id="path1884" d="M0-682.665H75.378v75.378H0Z" transform="translate(0 682.665)"/>
    </clipPath>
  </defs>
  <g id="Grupo_1217727" data-name="Grupo 1217727" transform="translate(-587.234 -4712.968)">
    <g id="Grupo_1209935" data-name="Grupo 1209935" transform="translate(596.234 4718.968)">
      <g id="Grupo_1208705" data-name="Grupo 1208705">
        <g id="Grupo_1148633" data-name="Grupo 1148633">
          <g id="Grupo_1148525" data-name="Grupo 1148525">
            <g transform="matrix(1, 0, 0, 1, -9, -6)" filter="url(#Trazado_982547)">
              <g id="Trazado_982547-2" data-name="Trazado 982547" transform="translate(9 6)" fill="#e6d567">
                <path d="M 47.5 93.5 C 41.28937149047852 93.5 35.26533508300781 92.28397369384766 29.59518623352051 89.88570404052734 C 24.11771965026855 87.56893157958984 19.19813346862793 84.25196075439453 14.97309303283691 80.02691650390625 C 10.74804019927979 75.80186462402344 7.431066513061523 70.88229370117188 5.114293098449707 65.40481567382812 C 2.716026782989502 59.73468017578125 1.5 53.71062850952148 1.5 47.5 C 1.5 41.28937149047852 2.716026782989502 35.26533508300781 5.114293098449707 29.59518623352051 C 7.431066513061523 24.11771965026855 10.74804019927979 19.19813346862793 14.97309303283691 14.97309303283691 C 19.19813346862793 10.74804019927979 24.11771965026855 7.431066513061523 29.59518623352051 5.114293098449707 C 35.26533508300781 2.716026782989502 41.28937149047852 1.5 47.5 1.5 C 53.71062850952148 1.5 59.73468017578125 2.716026782989502 65.40481567382812 5.114293098449707 C 70.88229370117188 7.431066513061523 75.80186462402344 10.74804019927979 80.02691650390625 14.97309303283691 C 84.25196075439453 19.19813346862793 87.56893157958984 24.11771965026855 89.88570404052734 29.59518623352051 C 92.28397369384766 35.26533508300781 93.5 41.28937149047852 93.5 47.5 C 93.5 53.71062850952148 92.28397369384766 59.73468017578125 89.88570404052734 65.40481567382812 C 87.56893157958984 70.88229370117188 84.25196075439453 75.80186462402344 80.02691650390625 80.02691650390625 C 75.80186462402344 84.25196075439453 70.88229370117188 87.56893157958984 65.40481567382812 89.88570404052734 C 59.73468017578125 92.28397369384766 53.71062850952148 93.5 47.5 93.5 Z" stroke="none"/>
                <path d="M 47.5 3 C 41.49121475219727 3 35.66376876831055 4.176155090332031 30.17950439453125 6.495796203613281 C 24.88084411621094 8.736953735351562 20.12152099609375 11.94598388671875 16.03375244140625 16.03375244140625 C 11.94598388671875 20.12152099609375 8.736953735351562 24.88084411621094 6.495796203613281 30.17950439453125 C 4.176155090332031 35.66376876831055 3 41.49121475219727 3 47.5 C 3 53.50878524780273 4.176155090332031 59.33623123168945 6.495796203613281 64.82049560546875 C 8.736953735351562 70.11915588378906 11.94598388671875 74.87847900390625 16.03375244140625 78.96624755859375 C 20.12152099609375 83.05401611328125 24.88084411621094 86.26304626464844 30.17950439453125 88.50419616699219 C 35.66376876831055 90.82384490966797 41.49121475219727 92 47.5 92 C 53.50878524780273 92 59.33623123168945 90.82384490966797 64.82049560546875 88.50419616699219 C 70.11915588378906 86.26304626464844 74.87847900390625 83.05401611328125 78.96624755859375 78.96624755859375 C 83.05401611328125 74.87847900390625 86.26304626464844 70.11915588378906 88.50419616699219 64.82049560546875 C 90.82384490966797 59.33623123168945 92 53.50878524780273 92 47.5 C 92 41.49121475219727 90.82384490966797 35.66376876831055 88.50419616699219 30.17950439453125 C 86.26304626464844 24.88084411621094 83.05401611328125 20.12152099609375 78.96624755859375 16.03375244140625 C 74.87847900390625 11.94598388671875 70.11915588378906 8.736953735351562 64.82049560546875 6.495796203613281 C 59.33623123168945 4.176155090332031 53.50878524780273 3 47.5 3 M 47.5 0 C 73.7335205078125 0 95 21.2664794921875 95 47.5 C 95 73.7335205078125 73.7335205078125 95 47.5 95 C 21.2664794921875 95 0 73.7335205078125 0 47.5 C 0 21.2664794921875 21.2664794921875 0 47.5 0 Z" stroke="none" fill="#ba9c5a"/>
              </g>
            </g>
          </g>
        </g>
      </g>
    </g>
    <g id="g1878" transform="translate(606.045 5411.443)">
      <g id="g1880" transform="translate(0 -682.665)">
        <g id="g1882" clip-path="url(#clip-path)">
          <g id="g1888" transform="translate(4.564 4.268)">
            <path id="path1890" d="M-533.748-266.873a33.125,33.125,0,0,1-33.125,33.125A33.125,33.125,0,0,1-600-266.873,33.125,33.125,0,0,1-566.873-300a33.125,33.125,0,0,1,33.125,33.125" transform="translate(599.999 299.998)" fill="#29b6f6"/>
          </g>
          <g id="g1892" transform="translate(35.481 4.268)">
            <path id="path1894" d="M-17.792,0C-18.534,0-19.27.027-20,.075a33.125,33.125,0,0,1,30.917,33.05A33.125,33.125,0,0,1-20,66.175c.73.048,1.466.075,2.208.075A33.125,33.125,0,0,0,15.334,33.125,33.125,33.125,0,0,0-17.792,0" transform="translate(20)" fill="#03a9f4"/>
          </g>
          <g id="g1896" transform="translate(30.296 48.083)">
            <path id="path1898" d="M-173.1-93.433c-1.983,3.295-1.865,3.184-2.111,3.295-2.462,1.1-2.578,1.063-2.665,1.474-.3,1.43-.562,3.885-1.617,5.169a33.1,33.1,0,0,1-7.7.9q-.627,0-1.247-.022a1.216,1.216,0,0,0,.072-.451l-1.244-7.818c-.137-.867-2.591-.945-2.955-1.609-1.8-3.279-1.69-3.031-1.706-3.209-.339-3.591-.4-3.544-.208-3.807,1.521-2.124,1.475-2.005,1.49-2.244.132-2.332.047-2.581.448-2.8a3.867,3.867,0,0,1,3.033-.286s6.6.755,7.663,2.332c1.512,2.238,1.3,2.763,1.879,2.671,3.6-.58,3.463-.62,3.741-.421,2.981,2.133,3.056,2.079,3.071,2.494.155,4.308.187,4.115.056,4.334" transform="translate(194.59 105.03)" fill="#6de470"/>
          </g>
          <g id="g1900" transform="translate(32.476 48.085)">
            <path id="path1902" d="M-49.488-20.278c1.512,2.238,1.3,2.763,1.879,2.671,3.6-.58,3.463-.62,3.741-.421l.174.124a20.88,20.88,0,0,0-1.377-2.374c-1.064-1.577-7.663-2.332-7.663-2.332a3.9,3.9,0,0,0-2.9.216c2.016.326,5.406,1.024,6.143,2.116" transform="translate(55.631 22.795)" fill="#4dcc68"/>
          </g>
          <g id="g1904" transform="translate(36.442 52.744)">
            <path id="path1906" d="M-123.131-20.964c-.015-.415-.09-.361-3.071-2.494-.278-.2-.137-.159-3.741.421-.026,0-.05.007-.074.008,2.388,1.7,2.455,1.68,2.469,2.065.155,4.308.187,4.115.056,4.334-1.983,3.295-1.865,3.184-2.111,3.295-2.462,1.1-2.578,1.063-2.665,1.474-.3,1.43-.562,3.885-1.616,5.169a32.824,32.824,0,0,1-4.494.745c-.01.042-.022.087-.036.134q.621.022,1.247.022a33.091,33.091,0,0,0,7.7-.9c1.054-1.284,1.318-3.739,1.616-5.169.087-.411.2-.37,2.665-1.474.246-.11.128,0,2.111-3.295.131-.219.1-.026-.056-4.334" transform="translate(138.414 23.566)" fill="#4dcc68"/>
          </g>
          <g id="g1908" transform="translate(9.754 4.304)">
            <path id="path1910" d="M-264.6-117.862c-.543,1.147-4.408,1.525-4.794,4.53-.129,1.017.216,3.635-.68,4.507-1.675,1.631-1.472,3.012-2.332,4.236-.459.652-1.812.5-2.319,1.257-.265.4-.6,1.709-1.372,1.926a22.478,22.478,0,0,1-4.09-.156c-1.846.077-1.811,1.455-1.506,2.161.5,1.159,4.68,6.283,3.542,8.486-.885,1.712-2.7,1.35-4.629-.356-.861-.76-4.409-.71-5.587-3-.624-1.215-1.256-3.317-2.116-4.957s-4.537-3.794-4.891-4.246a15.2,15.2,0,0,1-2.064-4.783,26.648,26.648,0,0,1,.828-4.6l1.045-2.975c.137-.39-.545-1.865-.914-2.8a33.084,33.084,0,0,1,25.42-13.855,2.022,2.022,0,0,1-.456,1.31c-6.706,5.36-6.727,6.282-6.7,8.006.052,2.927.866,3.9,2.662,4.249,1.268.244,2.825.732,4.155-1.171,3.389-4.852,4.2-4.479,4.973-4.48,2.438,0,2.366,5.566,1.821,6.715" transform="translate(297.442 132.492)" fill="#6de470"/>
          </g>
          <g id="g1912" transform="translate(24.565 4.304)">
            <path id="path1914" d="M-53.973-10.556c-6.706,5.36-6.727,6.282-6.7,8.006.052,2.927.866,3.9,2.662,4.249,1.028.2,2.246.556,3.379-.33-1.078-.535-1.584-1.63-1.624-3.919-.031-1.724-.01-2.646,6.7-8.006a2.022,2.022,0,0,0,.456-1.31,33.2,33.2,0,0,0-4.49.517,1.526,1.526,0,0,1-.383.793" transform="translate(60.672 11.867)" fill="#4dcc68"/>
          </g>
          <g id="g1916" transform="translate(26.986 12.213)">
            <path id="path1918" d="M-111.1-.048c-.558,0-1.141-.194-2.715,1.553a9.184,9.184,0,0,1,.119,5.161c-.543,1.147-4.408,1.525-4.793,4.53-.13,1.017.216,3.635-.68,4.506-1.675,1.631-1.472,3.012-2.332,4.236-.459.652-1.812.5-2.319,1.257-.227.342-.508,1.354-1.07,1.771l.024,0a22.466,22.466,0,0,0,4.09.156c.771-.216,1.107-1.527,1.372-1.926.506-.76,1.859-.605,2.319-1.257.86-1.223.657-2.6,2.332-4.236.9-.872.551-3.489.68-4.506.386-3,4.25-3.383,4.793-4.53s.617-6.718-1.821-6.715" transform="translate(124.888 0.054)" fill="#4dcc68"/>
          </g>
          <g id="g1920" transform="translate(20.929 35.232)">
            <path id="path1922" d="M-41.206-1.779c-1.23.027-3.45-.221-3.45-.221C-46.5-1.923-46.467-.545-46.162.161c.49,1.137,4.52,6.09,3.6,8.356,1.831,1.508,3.518,1.763,4.362.129,1.138-2.2-3.043-7.327-3.542-8.486a1.451,1.451,0,0,1,.54-1.941" transform="translate(46.32 2)" fill="#4dcc68"/>
          </g>
          <g id="g1924" transform="translate(51.072 7.35)">
            <path id="path1926" d="M-110.1-87.949a21.1,21.1,0,0,1-2,3.158,13.49,13.49,0,0,1-6.135,4.347c-1.088.359-2.622-1.011-2.735-2.222a19.583,19.583,0,0,0-.9-4.3,17.118,17.118,0,0,1,.008-4.536c.4-1.1-1.868-3.27-1.9-4.439a8.909,8.909,0,0,1,.585-2.927A33.229,33.229,0,0,1-110.1-87.949" transform="translate(123.764 98.865)" fill="#f3f3f3"/>
          </g>
          <g id="g1928" transform="translate(51.12 7.35)">
            <path id="path1930" d="M-91.513-116.063c.088-.109.174-.218.258-.332a21.108,21.108,0,0,0,2-3.158,33.232,33.232,0,0,0-13.079-10.917,11.067,11.067,0,0,0-.538,2.137,33.278,33.278,0,0,1,11.359,12.269" transform="translate(102.872 130.469)" fill="#e4e4e4"/>
          </g>
          <g id="g1932" transform="translate(9.76 24.065)">
            <path id="path1934" d="M-123.432-16.559a20.837,20.837,0,0,0-8.3-2.053c-2.778.06-7.016,4.466-7.016,4.466a15.151,15.151,0,0,0,2.063,4.783c.354.452,4.032,2.6,4.891,4.245s1.492,3.743,2.116,4.958c1.178,2.3,4.726,2.245,5.587,3,1.933,1.706,3.745,2.069,4.63.356,1.138-2.2-3.043-7.327-3.543-8.486-.3-.707-.34-2.085,1.506-2.161,0,0,1.574-7.094-1.929-9.112" transform="translate(138.753 18.615)" fill="#d67b42"/>
          </g>
          <g id="g1936" transform="translate(15.376 24.065)">
            <path id="path1938" d="M-81.595-107.381c-.3-.707-.34-2.085,1.506-2.161,0,0,1.574-7.094-1.929-9.112a20.839,20.839,0,0,0-8.3-2.054,4.162,4.162,0,0,0-1.4.319,20.088,20.088,0,0,1,5.288,1.735c3.5,2.018,1.793,8.5,1.793,8.5-.148.641-1.12,2.247-.815,2.953.49,1.137,3.968,5.916,3.043,8.182,1.831,1.507,3.518,1.762,4.362.128,1.138-2.2-3.043-7.327-3.543-8.486" transform="translate(91.722 120.709)" fill="#be652b"/>
          </g>
          <g id="g1940" transform="translate(11.876 44.944)">
            <path id="path1942" d="M-502.713-140.7h-7.5a13.494,13.494,0,0,0-3.995-3.363c-2.755-1.61-4.774-.991-6.777-2.13-1.435-.817-7.143-7.14-10.265-10.66a3.893,3.893,0,0,0-4.811-.816,3.894,3.894,0,0,0-1.288,5.64c2.4,3.413,5.515,8.315,4.849,9.859-1.057,2.449-6.474,4.349-9.239,4.871s-10.668.631-11.538-.072l-6.074-4.909a3.539,3.539,0,0,0-5.005.564h0a3.538,3.538,0,0,0,.315,4.727c2.23,2.166,5.378,5.191,5.992,5.617.971.674,9.32,2.5,12.814,2.5s26.854.037,26.854.037h15.665Z" transform="translate(565.111 158.162)" fill="#ebad88"/>
          </g>
          <g id="g1944" transform="translate(13.206 60.04)">
            <path id="path1946" d="M-.13-6.334,5.943-1.425c.566.457,4.1.571,7.269.452a7.362,7.362,0,0,1-2.852-.452L4.286-6.334A3.539,3.539,0,0,0-.147-6.346l.016.012" transform="translate(0.147 7.12)" fill="#e8916f"/>
          </g>
          <g id="g1948" transform="translate(40.619 44.944)">
            <path id="path1950" d="M-5.683-10.555C-2.561-7.034,3.147-.711,4.582.106c2,1.14,4.022.52,6.777,2.13a15.533,15.533,0,0,1,3.116,2.37,3.421,3.421,0,0,0,2.416.994h2.88a13.491,13.491,0,0,0-3.995-3.363C13.021.625,11,1.245,9,.106,7.564-.711,1.856-7.034-1.266-10.555a3.893,3.893,0,0,0-4.811-.816c-.108.06-.211.126-.311.194a3.9,3.9,0,0,1,.705.622" transform="translate(6.388 11.865)" fill="#e8916f"/>
          </g>
          <path id="path1952" d="M632.665-105.6h4.417v-11.866h-4.417Z" transform="translate(-562.808 179.872)" fill="#e8916f"/>
          <g id="g1954" transform="translate(1.104 1.104)">
            <path id="path1956" d="M-90.976-22.873a.146.146,0,0,0,.235,0,7.085,7.085,0,0,1,5.587-2.839c3.377,0,5.7,3.086,5.7,6.681,0,4.148-3.155,9.055-11.341,13.325a.151.151,0,0,1-.138,0c-8.186-4.27-11.341-9.177-11.341-13.325,0-3.594,2.328-6.681,5.7-6.681a7.085,7.085,0,0,1,5.587,2.839" transform="translate(102.268 25.712)" fill="#f75632"/>
          </g>
          <g id="g1958" transform="translate(10.306 1.104)">
            <path id="path1960" d="M-63.753,0A6.719,6.719,0,0,0-66.11.42a6.655,6.655,0,0,1,3.645,6.261c0,3.766-2.6,8.156-9.2,12.127q1.007.606,2.139,1.2a.151.151,0,0,0,.138,0c8.186-4.27,11.341-9.176,11.341-13.325,0-3.594-2.328-6.681-5.7-6.681" transform="translate(71.666)" fill="#e33629"/>
          </g>
          <g id="g1962" transform="translate(30.296 48.083)">
            <path id="path1964" d="M-44.291-140.413l-.522-3.283c-.137-.867-2.591-.945-2.955-1.609-1.8-3.279-1.69-3.031-1.706-3.209-.339-3.591-.4-3.544-.208-3.807,1.521-2.124,1.475-2.005,1.49-2.244.132-2.332.047-2.581.448-2.8a3.867,3.867,0,0,1,3.033-.286s1.582.181,3.321.551" transform="translate(49.788 157.842)" fill="none" stroke="#000" stroke-linecap="round" stroke-linejoin="round" stroke-miterlimit="10" stroke-width="1.5"/>
          </g>
          <g id="g1966" transform="translate(10.769 56.701)">
            <path id="path1968" d="M0,0A33.286,33.286,0,0,0,3.089,3.7" fill="none" stroke="#000" stroke-linecap="round" stroke-linejoin="round" stroke-miterlimit="10" stroke-width="1.5"/>
          </g>
          <g id="g1970" transform="translate(4.564 19.576)">
            <path id="path1972" d="M-41.846,0A32.977,32.977,0,0,0-47.04,17.817a32.985,32.985,0,0,0,3.738,15.3" transform="translate(47.04)" fill="none" stroke="#000" stroke-linecap="round" stroke-linejoin="round" stroke-miterlimit="10" stroke-width="1.5"/>
          </g>
          <g id="g1974" transform="translate(23.908 4.268)">
            <path id="path1976" d="M0-24.137a32.978,32.978,0,0,1,13.782-3,33.257,33.257,0,0,1,6.416.621" transform="translate(0 27.133)" fill="none" stroke="#000" stroke-linecap="round" stroke-linejoin="round" stroke-miterlimit="10" stroke-width="1.5"/>
          </g>
          <g id="g1978" transform="translate(48.667 6.131)">
            <path id="path1980" d="M-113.6-426.238a33,33,0,0,0,8.047-21.643A33.14,33.14,0,0,0-127.7-479.144" transform="translate(127.698 479.144)" fill="none" stroke="#000" stroke-linecap="round" stroke-linejoin="round" stroke-miterlimit="10" stroke-width="1.5"/>
          </g>
          <g id="g1982" transform="translate(9.754 4.356)">
            <path id="path1984" d="M-212.537,0a1.979,1.979,0,0,1-.453,1.258c-6.706,5.36-6.727,6.282-6.7,8.006.052,2.927.866,3.9,2.662,4.249,1.268.244,2.825.732,4.155-1.171,3.389-4.852,4.2-4.478,4.973-4.48,2.438,0,2.366,5.566,1.821,6.715s-4.408,1.525-4.793,4.53c-.13,1.017.216,3.635-.68,4.506-1.675,1.631-1.472,3.012-2.332,4.236-.459.652-1.812.5-2.319,1.257-.265.4-.6,1.709-1.372,1.926a22.467,22.467,0,0,1-4.09-.156c-1.846.077-1.811,1.454-1.506,2.161.5,1.159,4.68,6.283,3.542,8.486-.885,1.712-2.7,1.35-4.629-.356-.861-.76-4.409-.71-5.587-3-.624-1.215-1.256-3.317-2.116-4.957s-4.537-3.794-4.891-4.246a15.187,15.187,0,0,1-2.064-4.783,26.633,26.633,0,0,1,.827-4.6l1.045-2.975" transform="translate(238.918)" fill="none" stroke="#000" stroke-linecap="round" stroke-linejoin="round" stroke-miterlimit="10" stroke-width="1.5"/>
          </g>
          <g id="g1986" transform="translate(51.072 7.384)">
            <path id="path1988" d="M-109.9-88.076a21.256,21.256,0,0,1-1.976,3.108,13.49,13.49,0,0,1-6.135,4.347c-1.088.359-2.622-1.011-2.735-2.222a19.592,19.592,0,0,0-.9-4.3,17.116,17.116,0,0,1,.008-4.536c.4-1.1-1.868-3.27-1.9-4.439a8.84,8.84,0,0,1,.573-2.893" transform="translate(123.538 99.008)" fill="none" stroke="#000" stroke-linecap="round" stroke-linejoin="round" stroke-miterlimit="10" stroke-width="1.5"/>
          </g>
          <g id="g1990" transform="translate(9.806 24.065)">
            <path id="path1992" d="M-138.722-89.4c.152-.741,1.355-7.142-1.944-9.042a20.837,20.837,0,0,0-8.3-2.053c-2.609.057-6.5,3.945-6.97,4.419" transform="translate(155.941 100.501)" fill="none" stroke="#000" stroke-linecap="round" stroke-linejoin="round" stroke-miterlimit="10" stroke-width="1.5"/>
          </g>
          <g id="g1994" transform="translate(11.876 44.944)">
            <path id="path1996" d="M-434.7-236.3h8.443v-11.866h-7.5a13.492,13.492,0,0,0-3.995-3.363c-2.755-1.61-4.774-.991-6.777-2.13-1.435-.816-7.143-7.14-10.265-10.66a3.893,3.893,0,0,0-4.811-.816,3.894,3.894,0,0,0-1.288,5.639c2.4,3.413,5.515,8.315,4.849,9.859-1.057,2.449-6.474,4.349-9.239,4.871s-10.668.631-11.538-.073l-6.074-4.909a3.539,3.539,0,0,0-5.005.564h0a3.538,3.538,0,0,0,.315,4.727c2.231,2.166,5.378,5.191,5.992,5.617.971.674,9.32,2.5,12.814,2.5s26.853.037,26.853.037h2.693" transform="translate(488.651 265.626)" fill="none" stroke="#000" stroke-linecap="round" stroke-linejoin="round" stroke-miterlimit="10" stroke-width="1.5"/>
          </g>
          <g id="g1998" transform="translate(1.104 1.104)">
            <path id="path2000" d="M-90.976-22.873a.146.146,0,0,0,.235,0,7.085,7.085,0,0,1,5.587-2.839c3.377,0,5.7,3.086,5.7,6.681,0,4.148-3.155,9.055-11.341,13.325a.151.151,0,0,1-.138,0c-8.186-4.27-11.341-9.177-11.341-13.325,0-3.594,2.328-6.681,5.7-6.681A7.085,7.085,0,0,1-90.976-22.873Z" transform="translate(102.268 25.712)" fill="none" stroke="#000" stroke-linecap="round" stroke-linejoin="round" stroke-miterlimit="10" stroke-width="1.5"/>
          </g>
        </g>
      </g>
    </g>
  </g>
</svg>
