<svg xmlns="http://www.w3.org/2000/svg" xmlns:xlink="http://www.w3.org/1999/xlink" width="113" height="113" viewBox="0 0 113 113">
  <defs>
    <filter id="Trazado_982547" x="0" y="0" width="113" height="113" filterUnits="userSpaceOnUse">
      <feOffset dy="3" input="SourceAlpha"/>
      <feGaussianBlur stdDeviation="3" result="blur"/>
      <feFlood flood-opacity="0.161"/>
      <feComposite operator="in" in2="blur"/>
      <feComposite in="SourceGraphic"/>
    </filter>
  </defs>
  <g id="Grupo_1217730" data-name="Grupo 1217730" transform="translate(-902.234 -4712.968)">
    <g id="Grupo_1209935" data-name="Grupo 1209935" transform="translate(911.234 4718.968)">
      <g id="Grupo_1208705" data-name="Grupo 1208705">
        <g id="Grupo_1148633" data-name="Grupo 1148633">
          <g id="Grupo_1148525" data-name="Grupo 1148525">
            <g transform="matrix(1, 0, 0, 1, -9, -6)" filter="url(#Trazado_982547)">
              <g id="Trazado_982547-2" data-name="Trazado 982547" transform="translate(9 6)" fill="#e6d567">
                <path d="M 47.5 93.5 C 41.28937149047852 93.5 35.26533508300781 92.28397369384766 29.59518623352051 89.88570404052734 C 24.11771965026855 87.56893157958984 19.19813346862793 84.25196075439453 14.97309303283691 80.02691650390625 C 10.74804019927979 75.80186462402344 7.431066513061523 70.88229370117188 5.114293098449707 65.40481567382812 C 2.716026782989502 59.73468017578125 1.5 53.71062850952148 1.5 47.5 C 1.5 41.28937149047852 2.716026782989502 35.26533508300781 5.114293098449707 29.59518623352051 C 7.431066513061523 24.11771965026855 10.74804019927979 19.19813346862793 14.97309303283691 14.97309303283691 C 19.19813346862793 10.74804019927979 24.11771965026855 7.431066513061523 29.59518623352051 5.114293098449707 C 35.26533508300781 2.716026782989502 41.28937149047852 1.5 47.5 1.5 C 53.71062850952148 1.5 59.73468017578125 2.716026782989502 65.40481567382812 5.114293098449707 C 70.88229370117188 7.431066513061523 75.80186462402344 10.74804019927979 80.02691650390625 14.97309303283691 C 84.25196075439453 19.19813346862793 87.56893157958984 24.11771965026855 89.88570404052734 29.59518623352051 C 92.28397369384766 35.26533508300781 93.5 41.28937149047852 93.5 47.5 C 93.5 53.71062850952148 92.28397369384766 59.73468017578125 89.88570404052734 65.40481567382812 C 87.56893157958984 70.88229370117188 84.25196075439453 75.80186462402344 80.02691650390625 80.02691650390625 C 75.80186462402344 84.25196075439453 70.88229370117188 87.56893157958984 65.40481567382812 89.88570404052734 C 59.73468017578125 92.28397369384766 53.71062850952148 93.5 47.5 93.5 Z" stroke="none"/>
                <path d="M 47.5 3 C 41.49121475219727 3 35.66376876831055 4.176155090332031 30.17950439453125 6.495796203613281 C 24.88084411621094 8.736953735351562 20.12152099609375 11.94598388671875 16.03375244140625 16.03375244140625 C 11.94598388671875 20.12152099609375 8.736953735351562 24.88084411621094 6.495796203613281 30.17950439453125 C 4.176155090332031 35.66376876831055 3 41.49121475219727 3 47.5 C 3 53.50878524780273 4.176155090332031 59.33623123168945 6.495796203613281 64.82049560546875 C 8.736953735351562 70.11915588378906 11.94598388671875 74.87847900390625 16.03375244140625 78.96624755859375 C 20.12152099609375 83.05401611328125 24.88084411621094 86.26304626464844 30.17950439453125 88.50419616699219 C 35.66376876831055 90.82384490966797 41.49121475219727 92 47.5 92 C 53.50878524780273 92 59.33623123168945 90.82384490966797 64.82049560546875 88.50419616699219 C 70.11915588378906 86.26304626464844 74.87847900390625 83.05401611328125 78.96624755859375 78.96624755859375 C 83.05401611328125 74.87847900390625 86.26304626464844 70.11915588378906 88.50419616699219 64.82049560546875 C 90.82384490966797 59.33623123168945 92 53.50878524780273 92 47.5 C 92 41.49121475219727 90.82384490966797 35.66376876831055 88.50419616699219 30.17950439453125 C 86.26304626464844 24.88084411621094 83.05401611328125 20.12152099609375 78.96624755859375 16.03375244140625 C 74.87847900390625 11.94598388671875 70.11915588378906 8.736953735351562 64.82049560546875 6.495796203613281 C 59.33623123168945 4.176155090332031 53.50878524780273 3 47.5 3 M 47.5 0 C 73.7335205078125 0 95 21.2664794921875 95 47.5 C 95 73.7335205078125 73.7335205078125 95 47.5 95 C 21.2664794921875 95 0 73.7335205078125 0 47.5 C 0 21.2664794921875 21.2664794921875 0 47.5 0 Z" stroke="none" fill="#ba9c5a"/>
              </g>
            </g>
          </g>
        </g>
      </g>
    </g>
    <g id="macroeconomica" transform="translate(911.234 4644.989)">
      <g id="Grupo_1217728" data-name="Grupo 1217728" transform="translate(1.484 92.557)">
        <path id="Trazado_1086355" data-name="Trazado 1086355" d="M35.492,155.121A27.491,27.491,0,1,0,8,127.631a27.542,27.542,0,0,0,27.492,27.491Z" transform="translate(-8 -100.14)" fill="#0593fc" fill-rule="evenodd"/>
        <path id="Trazado_1086356" data-name="Trazado 1086356" d="M35.492,100.14c.659,0,1.317.026,1.965.072a27.489,27.489,0,0,0,0,54.838c-.648.046-1.306.072-1.965.072a27.492,27.492,0,1,1,0-54.983Z" transform="translate(-8 -100.14)" fill="#0584e3" fill-rule="evenodd"/>
        <path id="Trazado_1086357" data-name="Trazado 1086357" d="M32.465,279.209A27.582,27.582,0,0,1,20.03,265.746a44.636,44.636,0,0,1,5.019-8.45c2.659-3.446,4.034,4,10.231,4.4,12.441,1.1,8.45,8.316.8,13.213A8.914,8.914,0,0,0,32.465,279.209Z" transform="translate(-17.798 -227.397)" fill="#70da40" fill-rule="evenodd"/>
        <path id="Trazado_1086358" data-name="Trazado 1086358" d="M177,220.417c-1.414-4.145-3-5.253-3.562-9.823-1.291-10.5-1.874.347-8.969-4.017-3.629-2.236-7.52-6.515-3.722-8.587.913-.5,3.436-.542,3.4-3.644-.05-5.309,9.873-5.841,19.777-5.141A27.517,27.517,0,0,1,177,220.417Z" transform="translate(-131.138 -172.479)" fill="#70da40" fill-rule="evenodd"/>
        <path id="Trazado_1086359" data-name="Trazado 1086359" d="M37.089,100.14a27.79,27.79,0,0,1,6.192.7c-4.282,5.55-.113,9.22-7.2,12.278-9.01,3.895-14.953,9.893-19.3,10.572a15.3,15.3,0,0,1-6.826-.536A27.5,27.5,0,0,1,37.089,100.14Z" transform="translate(-9.596 -100.14)" fill="#70da40" fill-rule="evenodd"/>
        <path id="Trazado_1086360" data-name="Trazado 1086360" d="M272.381,181.346a15.628,15.628,0,0,0,3.854-1.6.919.919,0,0,1,.909-.026l2.241,1.143a.935.935,0,0,0,1.1-.174l2.277-2.277a.939.939,0,0,0,.174-1.1l-1.143-2.247a.943.943,0,0,1,.026-.909,15.158,15.158,0,0,0,1.6-3.85.939.939,0,0,1,.627-.664l2.39-.776a.936.936,0,0,0,.659-.9v-3.216a.936.936,0,0,0-.659-.9l-2.39-.781a.924.924,0,0,1-.627-.659,15.278,15.278,0,0,0-1.6-3.854.943.943,0,0,1-.026-.909l1.143-2.241a.935.935,0,0,0-.174-1.1l-2.277-2.277a.939.939,0,0,0-1.1-.174l-2.241,1.143a.943.943,0,0,1-.909-.026,15.212,15.212,0,0,0-3.854-1.6.931.931,0,0,1-.659-.627l-.781-2.39a.935.935,0,0,0-.9-.659h-3.221a.941.941,0,0,0-.9.659l-.776,2.39a.929.929,0,0,1-.664.627,15.254,15.254,0,0,0-3.85,1.6.943.943,0,0,1-.909.026l-2.247-1.143a.935.935,0,0,0-1.1.174L254.1,154.3a.937.937,0,0,0-.178,1.1l1.143,2.241a.914.914,0,0,1-.026.909,15.626,15.626,0,0,0-1.6,3.854.913.913,0,0,1-.623.659l-2.394.781a.931.931,0,0,0-.653.9v3.216a.934.934,0,0,0,.653.9l2.394.776a.917.917,0,0,1,.623.664,15.6,15.6,0,0,0,1.6,3.85.919.919,0,0,1,.026.909l-1.143,2.247a.939.939,0,0,0,.178,1.1l2.271,2.277a.939.939,0,0,0,1.1.174l2.247-1.143a.915.915,0,0,1,.909.026,15.571,15.571,0,0,0,3.85,1.6.92.92,0,0,1,.664.623l.776,2.394a.936.936,0,0,0,.9.653h3.221a.932.932,0,0,0,.9-.653l.781-2.394A.91.91,0,0,1,272.381,181.346Z" transform="translate(-204.91 -138.867)" fill="#2f5274" fill-rule="evenodd"/>
        <path id="Trazado_1086361" data-name="Trazado 1086361" d="M304.256,191.73a10.5,10.5,0,1,1-10.5,10.5A10.492,10.492,0,0,1,304.256,191.73Z" transform="translate(-240.738 -174.736)" fill="#ffd400" fill-rule="evenodd"/>
        <path id="Trazado_1086362" data-name="Trazado 1086362" d="M13.78,123.838a27.5,27.5,0,0,1,25.255-23.626c-.648-.046-1.3-.072-1.956-.072A27.5,27.5,0,0,0,9.95,123.153,16.579,16.579,0,0,0,13.78,123.838Z" transform="translate(-9.588 -100.14)" fill="#65c43a" fill-rule="evenodd"/>
        <path id="Trazado_1086363" data-name="Trazado 1086363" d="M33.465,298.284A27.548,27.548,0,0,1,22.444,282.01a51.921,51.921,0,0,0-2.414,4.605,27.578,27.578,0,0,0,12.435,13.461,15.075,15.075,0,0,1,1-1.792Z" transform="translate(-17.798 -248.265)" fill="#65c43a" fill-rule="evenodd"/>
        <path id="Trazado_1086364" data-name="Trazado 1086364" d="M295.987,202.226a10.5,10.5,0,0,1,9.383-10.441c-.362-.035-.735-.056-1.113-.056a10.5,10.5,0,0,0,0,20.993,9.975,9.975,0,0,0,1.113-.061A10.5,10.5,0,0,1,295.987,202.226Z" transform="translate(-240.738 -174.736)" fill="#e6bf00" fill-rule="evenodd"/>
      </g>
      <g id="Grupo_1217729" data-name="Grupo 1217729" transform="translate(0 90.83)">
        <path id="Trazado_1086365" data-name="Trazado 1086365" d="M95,120.247a28.991,28.991,0,0,1-38.087,27.505l.987,2.306a1.483,1.483,0,1,1-2.726,1.169l-2.4-5.613a1.484,1.484,0,0,1,.779-1.948l5.613-2.4a1.484,1.484,0,1,1,1.169,2.728l-2.327,1A26,26,0,1,0,54.781,96.8,1.483,1.483,0,1,1,53.5,94.125a28.7,28.7,0,0,1,12.539-2.844A29,29,0,0,1,95,120.247ZM49.127,142.078c-.032.03-.063.059-.1.087a29.278,29.278,0,0,1-19.614,7.5,29.232,29.232,0,0,1-13.578-3.327c-.03-.013-.061-.022-.091-.037a1.51,1.51,0,0,1-.191-.111,29.61,29.61,0,0,1-13.111-14.2,1.489,1.489,0,0,1-.1-.23,29.44,29.44,0,0,1-1.967-16.22,1.414,1.414,0,0,1,.026-.15A29.416,29.416,0,0,1,35.942,91.563a1.3,1.3,0,0,1,.169.037,29.286,29.286,0,0,1,8.079,3.2,29.621,29.621,0,0,1,9.732,9.17,2.435,2.435,0,0,1,1.638.2l2.041,1.039a17.485,17.485,0,0,1,3.761-1.56l.707-2.163a2.442,2.442,0,0,1,2.325-1.69h3.271a2.445,2.445,0,0,1,2.327,1.692l.707,2.162a17.439,17.439,0,0,1,3.761,1.56l2.032-1.035a2.43,2.43,0,0,1,2.833.443l2.319,2.325a2.439,2.439,0,0,1,.449,2.846l-1.034,2.022a17.17,17.17,0,0,1,1.562,3.765l2.163.7a2.437,2.437,0,0,1,1.688,2.327v3.271a2.44,2.44,0,0,1-1.688,2.33l-2.165.7a17.157,17.157,0,0,1-1.562,3.763l1.035,2.026a2.437,2.437,0,0,1-.451,2.843l-2.308,2.314a2.454,2.454,0,0,1-2.848.445L74.46,135.28a17.308,17.308,0,0,1-3.761,1.557l-.709,2.169a2.442,2.442,0,0,1-2.325,1.69H64.394A2.445,2.445,0,0,1,62.067,139l-.709-2.165a17.231,17.231,0,0,1-3.761-1.557l-2.034,1.032a2.426,2.426,0,0,1-1.642.208,29.55,29.55,0,0,1-4.795,5.557Zm2.442-7.374-1.152-1.156a2.439,2.439,0,0,1-.449-2.846L51,128.678a17.126,17.126,0,0,1-1.562-3.763l-2.165-.7a2.444,2.444,0,0,1-1.688-2.33V118.61a2.441,2.441,0,0,1,1.688-2.327l2.165-.7A17.1,17.1,0,0,1,51,111.817l-.642-1.258c-8.684-.195-11.949,1.137-13.152,2.314a2.139,2.139,0,0,0-.694,1.646,4.7,4.7,0,0,1-3.752,4.848c-.171.056-.4.134-.477.171-.8.434-.807.809-.811.97-.033,1.282,2.013,3.561,4.659,5.184,2.6,1.6,3.793.731,4.949-.106a2.7,2.7,0,0,1,2.726-.69c1.256.547,1.651,2.039,2.136,5.967a15.322,15.322,0,0,0,1.833,5.683c.278.562.573,1.161.876,1.846A26.478,26.478,0,0,0,51.569,134.7ZM54.56,107a1.479,1.479,0,0,1-.121.121l-1.659,1.662.991,1.941a2.421,2.421,0,0,1-.059,2.336,14.187,14.187,0,0,0-1.479,3.557,2.434,2.434,0,0,1-1.6,1.7l-2.076.674v2.522l2.067.672a2.4,2.4,0,0,1,1.616,1.718,14.093,14.093,0,0,0,1.468,3.527,2.418,2.418,0,0,1,.074,2.34l-1,1.952,1.659,1.663c.041.037.082.076.119.117l1.943-.985a2.4,2.4,0,0,1,2.349.067,14.261,14.261,0,0,0,3.542,1.464,2.412,2.412,0,0,1,1.705,1.618l.675,2.067h2.514l.675-2.069a2.413,2.413,0,0,1,1.705-1.618,14.23,14.23,0,0,0,3.542-1.464,2.406,2.406,0,0,1,2.351-.067l1.943.985,1.776-1.779-.991-1.941a2.423,2.423,0,0,1,.065-2.345,14.144,14.144,0,0,0,1.473-3.548,2.385,2.385,0,0,1,1.616-1.705l2.063-.67v-2.522l-2.073-.672a2.432,2.432,0,0,1-1.611-1.714,14.212,14.212,0,0,0-1.468-3.533,2.423,2.423,0,0,1-.069-2.349l.991-1.943L77.5,106.995l-1.946.991a2.433,2.433,0,0,1-2.34-.067,14.485,14.485,0,0,0-3.553-1.473,2.408,2.408,0,0,1-1.7-1.611l-.675-2.069H64.771l-.675,2.067a2.416,2.416,0,0,1-1.711,1.614,14.451,14.451,0,0,0-3.544,1.471,2.439,2.439,0,0,1-2.338.065ZM3.574,114.608a13.635,13.635,0,0,0,4.987.169c1.932-.3,4.566-2.032,7.615-4.034a75.49,75.49,0,0,1,11.634-6.6c3.438-1.486,3.644-2.8,4.019-5.18a14.664,14.664,0,0,1,1.444-4.876,26.088,26.088,0,0,0-3.854-.289A26.5,26.5,0,0,0,3.574,114.608Zm12.22,28.3a9.224,9.224,0,0,1,3.516-3.6c4.3-2.767,6.977-6.01,6.513-7.9-.347-1.412-2.785-2.421-6.691-2.768-3.674-.241-5.945-2.559-7.448-4.1a9.429,9.429,0,0,0-1.375-1.254,2.158,2.158,0,0,0-.284.31,42.688,42.688,0,0,0-4.641,7.689,26.631,26.631,0,0,0,10.409,11.621Zm30.545-2.356c-.4-1.039-.818-1.878-1.223-2.694A18.175,18.175,0,0,1,43,131.225c-.186-1.512-.345-2.447-.471-3.026-1.379.972-3.969,2.471-7.949.02-2.848-1.748-6.147-4.837-6.071-7.787a4,4,0,0,1,2.356-3.5,5.693,5.693,0,0,1,.969-.384c1.167-.384,1.727-.629,1.714-2a5.134,5.134,0,0,1,1.586-3.8c2.306-2.254,7.164-3.293,14.823-3.167a2.418,2.418,0,0,1,.46-.636l1.152-1.154A26.639,26.639,0,0,0,36.328,94.726a11.033,11.033,0,0,0-1.57,4.694c-.41,2.609-.835,5.308-5.772,7.444a72.051,72.051,0,0,0-11.181,6.359c-3.475,2.282-6.221,4.086-8.787,4.485a15.915,15.915,0,0,1-2.468.191,17.154,17.154,0,0,1-3.446-.362,26.631,26.631,0,0,0-.137,2.707,26.356,26.356,0,0,0,1.017,7.272,42.19,42.19,0,0,1,3.7-5.728,3.321,3.321,0,0,1,2.438-1.494c1.471-.089,2.548,1.013,3.687,2.176,1.4,1.429,2.985,3.049,5.535,3.21l.037,0c5.49.484,8.63,2.173,9.327,5.017.813,3.308-2.119,7.472-7.843,11.138-.035.022-.072.045-.111.065a6.094,6.094,0,0,0-2.327,2.4,26.283,26.283,0,0,0,11,2.4A26.556,26.556,0,0,0,46.338,140.553Zm7.541-20.306a12.15,12.15,0,1,1,12.15,12.15A12.164,12.164,0,0,1,53.879,120.247Zm2.967,0a9.183,9.183,0,1,0,9.183-9.183,9.193,9.193,0,0,0-9.183,9.183Zm8.641,1.442a1.438,1.438,0,0,0,.338.041h.243a.61.61,0,1,1,0,1.221h-.484a.621.621,0,0,1-.494-.254,1.484,1.484,0,0,0-2.381,1.772,3.625,3.625,0,0,0,1.837,1.293v.546a1.483,1.483,0,0,0,2.965,0v-.7a3.572,3.572,0,0,0-.941-6.8,1.439,1.439,0,0,0-.338-.041H65.99a.61.61,0,1,1,0-1.221h.484a.621.621,0,0,1,.494.254,1.484,1.484,0,1,0,2.381-1.772,3.625,3.625,0,0,0-1.837-1.293v-.546a1.483,1.483,0,1,0-2.965,0v.7a3.572,3.572,0,0,0,.941,6.8Z" transform="translate(0 -90.83)"/>
      </g>
    </g>
  </g>
</svg>
