<svg xmlns="http://www.w3.org/2000/svg" xmlns:xlink="http://www.w3.org/1999/xlink" width="113" height="113" viewBox="0 0 113 113">
  <defs>
    <filter id="Trazado_982547" x="0" y="0" width="113" height="113" filterUnits="userSpaceOnUse">
      <feOffset dy="3" input="SourceAlpha"/>
      <feGaussianBlur stdDeviation="3" result="blur"/>
      <feFlood flood-opacity="0.161"/>
      <feComposite operator="in" in2="blur"/>
      <feComposite in="SourceGraphic"/>
    </filter>
  </defs>
  <g id="Grupo_1217771" data-name="Grupo 1217771" transform="translate(-1217.234 -4712.968)">
    <g id="Grupo_1209935" data-name="Grupo 1209935" transform="translate(1226.234 4718.968)">
      <g id="Grupo_1208705" data-name="Grupo 1208705">
        <g id="Grupo_1148633" data-name="Grupo 1148633">
          <g id="Grupo_1148525" data-name="Grupo 1148525">
            <g transform="matrix(1, 0, 0, 1, -9, -6)" filter="url(#Trazado_982547)">
              <g id="Trazado_982547-2" data-name="Trazado 982547" transform="translate(9 6)" fill="#e6d567">
                <path d="M 47.5 93.5 C 41.28937149047852 93.5 35.26533508300781 92.28397369384766 29.59518623352051 89.88570404052734 C 24.11771965026855 87.56893157958984 19.19813346862793 84.25196075439453 14.97309303283691 80.02691650390625 C 10.74804019927979 75.80186462402344 7.431066513061523 70.88229370117188 5.114293098449707 65.40481567382812 C 2.716026782989502 59.73468017578125 1.5 53.71062850952148 1.5 47.5 C 1.5 41.28937149047852 2.716026782989502 35.26533508300781 5.114293098449707 29.59518623352051 C 7.431066513061523 24.11771965026855 10.74804019927979 19.19813346862793 14.97309303283691 14.97309303283691 C 19.19813346862793 10.74804019927979 24.11771965026855 7.431066513061523 29.59518623352051 5.114293098449707 C 35.26533508300781 2.716026782989502 41.28937149047852 1.5 47.5 1.5 C 53.71062850952148 1.5 59.73468017578125 2.716026782989502 65.40481567382812 5.114293098449707 C 70.88229370117188 7.431066513061523 75.80186462402344 10.74804019927979 80.02691650390625 14.97309303283691 C 84.25196075439453 19.19813346862793 87.56893157958984 24.11771965026855 89.88570404052734 29.59518623352051 C 92.28397369384766 35.26533508300781 93.5 41.28937149047852 93.5 47.5 C 93.5 53.71062850952148 92.28397369384766 59.73468017578125 89.88570404052734 65.40481567382812 C 87.56893157958984 70.88229370117188 84.25196075439453 75.80186462402344 80.02691650390625 80.02691650390625 C 75.80186462402344 84.25196075439453 70.88229370117188 87.56893157958984 65.40481567382812 89.88570404052734 C 59.73468017578125 92.28397369384766 53.71062850952148 93.5 47.5 93.5 Z" stroke="none"/>
                <path d="M 47.5 3 C 41.49121475219727 3 35.66376876831055 4.176155090332031 30.17950439453125 6.495796203613281 C 24.88084411621094 8.736953735351562 20.12152099609375 11.94598388671875 16.03375244140625 16.03375244140625 C 11.94598388671875 20.12152099609375 8.736953735351562 24.88084411621094 6.495796203613281 30.17950439453125 C 4.176155090332031 35.66376876831055 3 41.49121475219727 3 47.5 C 3 53.50878524780273 4.176155090332031 59.33623123168945 6.495796203613281 64.82049560546875 C 8.736953735351562 70.11915588378906 11.94598388671875 74.87847900390625 16.03375244140625 78.96624755859375 C 20.12152099609375 83.05401611328125 24.88084411621094 86.26304626464844 30.17950439453125 88.50419616699219 C 35.66376876831055 90.82384490966797 41.49121475219727 92 47.5 92 C 53.50878524780273 92 59.33623123168945 90.82384490966797 64.82049560546875 88.50419616699219 C 70.11915588378906 86.26304626464844 74.87847900390625 83.05401611328125 78.96624755859375 78.96624755859375 C 83.05401611328125 74.87847900390625 86.26304626464844 70.11915588378906 88.50419616699219 64.82049560546875 C 90.82384490966797 59.33623123168945 92 53.50878524780273 92 47.5 C 92 41.49121475219727 90.82384490966797 35.66376876831055 88.50419616699219 30.17950439453125 C 86.26304626464844 24.88084411621094 83.05401611328125 20.12152099609375 78.96624755859375 16.03375244140625 C 74.87847900390625 11.94598388671875 70.11915588378906 8.736953735351562 64.82049560546875 6.495796203613281 C 59.33623123168945 4.176155090332031 53.50878524780273 3 47.5 3 M 47.5 0 C 73.7335205078125 0 95 21.2664794921875 95 47.5 C 95 73.7335205078125 73.7335205078125 95 47.5 95 C 21.2664794921875 95 0 73.7335205078125 0 47.5 C 0 21.2664794921875 21.2664794921875 0 47.5 0 Z" stroke="none" fill="#ba9c5a"/>
              </g>
            </g>
          </g>
        </g>
      </g>
    </g>
    <g id="infraestructura_1_" data-name="infraestructura (1)" transform="translate(1225.676 4730.97)">
      <g id="Grupo_1217769" data-name="Grupo 1217769" transform="translate(9.286 14.364)">
        <g id="Grupo_1217756" data-name="Grupo 1217756" transform="translate(7.24 5.849)">
          <g id="Grupo_1217733" data-name="Grupo 1217733" transform="translate(24.345)">
            <g id="Grupo_1217731" data-name="Grupo 1217731">
              <path id="Trazado_1086366" data-name="Trazado 1086366" d="M211.512,65.205h12.651V58.083a.809.809,0,0,0-.808-.808H212.32a.809.809,0,0,0-.808.808Z" transform="translate(-211.512 -57.275)" fill="#9facba" fill-rule="evenodd"/>
            </g>
            <g id="Grupo_1217732" data-name="Grupo 1217732" transform="translate(10.227)">
              <path id="Trazado_1086367" data-name="Trazado 1086367" d="M275.628,65.205h1.615V58.083a.809.809,0,0,0-.808-.808H274.82a.809.809,0,0,1,.808.808Z" transform="translate(-274.82 -57.275)" fill="#8d9ca8" fill-rule="evenodd"/>
            </g>
          </g>
          <g id="Grupo_1217734" data-name="Grupo 1217734" transform="translate(19.913 4.837)">
            <path id="Trazado_1086368" data-name="Trazado 1086368" d="M185.209,87.214h19.253a1.133,1.133,0,0,1,1.131,1.131v32.043H184.078V88.345A1.133,1.133,0,0,1,185.209,87.214Z" transform="translate(-184.078 -87.214)" fill="#8192a5" fill-rule="evenodd"/>
          </g>
          <g id="Grupo_1217737" data-name="Grupo 1217737" transform="translate(8.397 10.973)">
            <g id="Grupo_1217735" data-name="Grupo 1217735" transform="translate(0 0)">
              <path id="Trazado_1086369" data-name="Trazado 1086369" d="M113.928,125.267l10.384,4.532v22.435h2.921v9.58H112.8V126.007a.808.808,0,0,1,1.131-.74Z" transform="translate(-112.797 -125.196)" fill="#8192a5" fill-rule="evenodd"/>
            </g>
            <g id="Grupo_1217736" data-name="Grupo 1217736" transform="translate(0.145)">
              <path id="Trazado_1086370" data-name="Trazado 1086370" d="M114.679,125.267l10.384,4.532v22.435h-1.615V129.8l-9.755-4.257a.821.821,0,0,1,.221-.21.786.786,0,0,1,.765-.065Z" transform="translate(-113.693 -125.196)" fill="#65788e" fill-rule="evenodd"/>
            </g>
          </g>
          <g id="Grupo_1217740" data-name="Grupo 1217740" transform="translate(25.009 9.932)">
            <g id="Grupo_1217738" data-name="Grupo 1217738">
              <path id="Trazado_1086371" data-name="Trazado 1086371" d="M216.431,118.758h9.707a.809.809,0,0,1,.808.808v9.707a.809.809,0,0,1-.808.808h-9.707a.809.809,0,0,1-.808-.808v-9.707A.809.809,0,0,1,216.431,118.758Z" transform="translate(-215.623 -118.758)" fill="#d8ecfe" fill-rule="evenodd"/>
            </g>
            <g id="Grupo_1217739" data-name="Grupo 1217739" transform="translate(8.899)">
              <path id="Trazado_1086372" data-name="Trazado 1086372" d="M270.709,118.758h1.615a.809.809,0,0,1,.808.808v9.707a.809.809,0,0,1-.808.808h-1.615a.809.809,0,0,0,.808-.808v-9.707A.809.809,0,0,0,270.709,118.758Z" transform="translate(-270.709 -118.758)" fill="#c4e2ff" fill-rule="evenodd"/>
            </g>
          </g>
          <g id="Grupo_1217743" data-name="Grupo 1217743" transform="translate(48.446 0)">
            <g id="Grupo_1217741" data-name="Grupo 1217741">
              <path id="Trazado_1086373" data-name="Trazado 1086373" d="M360.7,57.276h5.874V78.984H360.7Z" transform="translate(-360.704 -57.276)" fill="#9facba" fill-rule="evenodd"/>
            </g>
            <g id="Grupo_1217742" data-name="Grupo 1217742" transform="translate(4.258)">
              <path id="Trazado_1086374" data-name="Trazado 1086374" d="M387.063,57.276h1.615V78.984h-1.615Z" transform="translate(-387.063 -57.276)" fill="#8d9ca8" fill-rule="evenodd"/>
            </g>
          </g>
          <g id="Grupo_1217746" data-name="Grupo 1217746" transform="translate(48.446 6.776)">
            <g id="Grupo_1217744" data-name="Grupo 1217744">
              <path id="Trazado_1086375" data-name="Trazado 1086375" d="M360.7,99.219h5.874v4.073H360.7Z" transform="translate(-360.704 -99.219)" fill="#eceff1" fill-rule="evenodd"/>
            </g>
            <g id="Grupo_1217745" data-name="Grupo 1217745" transform="translate(4.258)">
              <path id="Trazado_1086376" data-name="Trazado 1086376" d="M387.063,99.219h1.615v4.073h-1.615Z" transform="translate(-387.063 -99.219)" fill="#d1d1d6" fill-rule="evenodd"/>
            </g>
          </g>
          <g id="Grupo_1217749" data-name="Grupo 1217749" transform="translate(41.427 17.625)">
            <g id="Grupo_1217747" data-name="Grupo 1217747">
              <path id="Trazado_1086377" data-name="Trazado 1086377" d="M336.036,166.376H317.254v20.385h19.912V167.507A1.133,1.133,0,0,0,336.036,166.376Z" transform="translate(-317.254 -166.376)" fill="#8192a5" fill-rule="evenodd"/>
            </g>
            <g id="Grupo_1217748" data-name="Grupo 1217748">
              <path id="Trazado_1086378" data-name="Trazado 1086378" d="M317.254,166.376h1.616v20.385h-1.616Z" transform="translate(-317.254 -166.376)" fill="#65788e" fill-rule="evenodd"/>
            </g>
          </g>
          <g id="Grupo_1217752" data-name="Grupo 1217752" transform="translate(0 17.625)">
            <g id="Grupo_1217750" data-name="Grupo 1217750">
              <path id="Trazado_1086379" data-name="Trazado 1086379" d="M61.948,166.376h7.267v20.385h-8.4V167.507A1.133,1.133,0,0,1,61.948,166.376Z" transform="translate(-60.817 -166.376)" fill="#8192a5" fill-rule="evenodd"/>
            </g>
            <g id="Grupo_1217751" data-name="Grupo 1217751" transform="translate(6.782)">
              <path id="Trazado_1086380" data-name="Trazado 1086380" d="M102.8,166.376h1.615v20.385H102.8Z" transform="translate(-102.797 -166.376)" fill="#65788e" fill-rule="evenodd"/>
            </g>
          </g>
          <g id="Grupo_1217755" data-name="Grupo 1217755" transform="translate(45.387 24.762)">
            <g id="Grupo_1217753" data-name="Grupo 1217753" transform="translate(0 0)">
              <path id="Trazado_1086381" data-name="Trazado 1086381" d="M352.952,210.552H342.575a.809.809,0,0,0-.808.808v4.5a.809.809,0,0,0,.808.808h10.377a.809.809,0,0,0,.808-.808v-4.5A.809.809,0,0,0,352.952,210.552Z" transform="translate(-341.767 -210.552)" fill="#d8ecfe" fill-rule="evenodd"/>
            </g>
            <g id="Grupo_1217754" data-name="Grupo 1217754" transform="translate(9.569 0)">
              <path id="Trazado_1086382" data-name="Trazado 1086382" d="M402.617,210.552H401a.809.809,0,0,1,.808.808v4.5a.809.809,0,0,1-.808.808h1.615a.809.809,0,0,0,.808-.808v-4.5A.809.809,0,0,0,402.617,210.552Z" transform="translate(-401.002 -210.552)" fill="#c4e2ff" fill-rule="evenodd"/>
            </g>
          </g>
        </g>
        <g id="Grupo_1217762" data-name="Grupo 1217762" transform="translate(3.216 41.211)">
          <g id="Grupo_1217757" data-name="Grupo 1217757" transform="translate(0 0)">
            <path id="Trazado_1086383" data-name="Trazado 1086383" d="M105.294,276.171v4.7l-5.749,2.213a29.619,29.619,0,0,1-3.594,8.67l2.5,5.634-6.64,6.64-5.632-2.5a29.6,29.6,0,0,1-8.673,3.6L75.3,310.865h-9.39l-2.213-5.749a29.609,29.609,0,0,1-8.67-3.594l-5.634,2.5-6.64-6.64,2.5-5.632a29.615,29.615,0,0,1-3.6-8.673l-5.748-2.212v-4.7Z" transform="translate(-35.906 -276.171)" fill="#ffe177" fill-rule="evenodd"/>
          </g>
          <g id="Grupo_1217758" data-name="Grupo 1217758" transform="translate(12.488 0)">
            <path id="Trazado_1086384" data-name="Trazado 1086384" d="M170.107,276.171v4.7l-5.749,2.213a29.619,29.619,0,0,1-3.594,8.67l2.5,5.634-6.64,6.64-2.237-.994,5.646-5.647-2.5-5.634a29.608,29.608,0,0,0,3.594-8.67l5.749-2.213v-4.7Zm-19.114,25.351a31.075,31.075,0,0,1-8.673,3.6l-2.212,5.748h-3.231l2.212-5.748a40.557,40.557,0,0,0,10.075-4.407Zm-31.159,0-5.634,2.5-.994-.994,5.225-2.32Q119.123,301.135,119.835,301.521Z" transform="translate(-113.207 -276.171)" fill="#ffd064" fill-rule="evenodd"/>
          </g>
          <g id="Grupo_1217761" data-name="Grupo 1217761" transform="translate(20.508)">
            <g id="Grupo_1217759" data-name="Grupo 1217759" transform="translate(0 0)">
              <path id="Trazado_1086385" data-name="Trazado 1086385" d="M162.851,276.171h28.373a14.186,14.186,0,0,1-28.373,0Z" transform="translate(-162.851 -276.171)" fill="#eceff1" fill-rule="evenodd"/>
            </g>
            <g id="Grupo_1217760" data-name="Grupo 1217760" transform="translate(0)">
              <path id="Trazado_1086386" data-name="Trazado 1086386" d="M162.851,276.171h1.615a14.187,14.187,0,0,0,13.379,14.163c-.267.015-.537.023-.808.023A14.187,14.187,0,0,1,162.851,276.171Z" transform="translate(-162.851 -276.171)" fill="#d1d1d6" fill-rule="evenodd"/>
            </g>
          </g>
        </g>
        <g id="Grupo_1217765" data-name="Grupo 1217765" transform="translate(68.376 0)">
          <g id="Grupo_1217763" data-name="Grupo 1217763">
            <path id="Trazado_1086387" data-name="Trazado 1086387" d="M447.9,27.273a.525.525,0,0,0,.413-.85l-4.057-5.152a.525.525,0,0,0-.825,0l-4.057,5.153a.525.525,0,0,0,.413.85h1.685v8.979a.809.809,0,0,0,.808.808H445.4a.809.809,0,0,0,.808-.808V27.273Z" transform="translate(-439.257 -21.07)" fill="#6cf5c2" fill-rule="evenodd"/>
          </g>
          <g id="Grupo_1217764" data-name="Grupo 1217764" transform="translate(0.527)">
            <path id="Trazado_1086388" data-name="Trazado 1086388" d="M450.63,27.273a.525.525,0,0,0,.413-.85l-4.057-5.152a.526.526,0,0,0-.826,0l-.395.5,3.662,4.651a.525.525,0,0,1-.413.85h1.615Zm-8.113,0h0Zm4.006,9.787a.809.809,0,0,0,.808-.808V27.273h1.615v8.979a.809.809,0,0,1-.808.808h-1.615Z" transform="translate(-442.516 -21.07)" fill="#00e499" fill-rule="evenodd"/>
          </g>
        </g>
        <g id="Grupo_1217768" data-name="Grupo 1217768" transform="translate(0 0)">
          <g id="Grupo_1217766" data-name="Grupo 1217766">
            <path id="Trazado_1086389" data-name="Trazado 1086389" d="M24.639,27.273a.525.525,0,0,0,.413-.85L21,21.271a.525.525,0,0,0-.826,0l-4.057,5.152a.525.525,0,0,0,.413.85h1.685v8.979a.809.809,0,0,0,.808.808h3.129a.809.809,0,0,0,.808-.808V27.273Z" transform="translate(-15.999 -21.07)" fill="#6cf5c2" fill-rule="evenodd"/>
          </g>
          <g id="Grupo_1217767" data-name="Grupo 1217767" transform="translate(0.527)">
            <path id="Trazado_1086390" data-name="Trazado 1086390" d="M27.373,27.273a.525.525,0,0,0,.413-.85l-4.057-5.152a.525.525,0,0,0-.826,0l-.395.5,3.662,4.651a.525.525,0,0,1-.413.85h1.615Zm-8.113,0h0Zm4.005,9.787a.809.809,0,0,0,.808-.808V27.273h1.615v8.979a.809.809,0,0,1-.808.808H23.265Z" transform="translate(-19.26 -21.07)" fill="#00e499" fill-rule="evenodd"/>
          </g>
        </g>
      </g>
      <g id="Grupo_1217770" data-name="Grupo 1217770" transform="translate(7.993 13.072)">
        <path id="Trazado_1086391" data-name="Trazado 1086391" d="M11.394,19.275l2.479-3.146,2.471,3.146h-.1a1.292,1.292,0,0,0-1.293,1.292v8.494H12.793V20.567A1.295,1.295,0,0,0,11.5,19.275h-.106Zm4.851,12.371a1.3,1.3,0,0,0,1.293-1.292V21.86h.388a1.819,1.819,0,0,0,1.43-2.942L15.3,13.765a1.821,1.821,0,0,0-2.859,0l-4.06,5.153a1.818,1.818,0,0,0,1.43,2.942h.4v8.494A1.292,1.292,0,0,0,11.5,31.647ZM84.619,19.275a1.292,1.292,0,0,0-1.293,1.292v8.494H81.167V20.567a1.295,1.295,0,0,0-1.293-1.292h-.106l2.479-3.146,2.479,3.146h-.106Zm3.11-.357-4.053-5.153a1.821,1.821,0,0,0-2.859,0l-4.053,5.153a1.813,1.813,0,0,0,1.43,2.942h.388v8.494a1.292,1.292,0,0,0,1.293,1.292h4.745a1.292,1.292,0,0,0,1.293-1.292V21.86h.4a1.813,1.813,0,0,0,1.422-2.942ZM80.6,59.383l-4.92,1.895a1.3,1.3,0,0,0-.791.906,28.393,28.393,0,0,1-3.437,8.292,1.274,1.274,0,0,0-.084,1.2L73.51,76.5l-5.384,5.384-4.821-2.14a1.29,1.29,0,0,0-1.2.081,28.423,28.423,0,0,1-8.3,3.438,1.306,1.306,0,0,0-.912.793L51,88.977H43.391L41.5,84.056a1.31,1.31,0,0,0-.9-.793,28.158,28.158,0,0,1-8.3-3.438,1.294,1.294,0,0,0-1.2-.081l-4.829,2.142L20.883,76.5l2.144-4.822a1.274,1.274,0,0,0-.084-1.2,28.357,28.357,0,0,1-3.437-8.294,1.3,1.3,0,0,0-.791-.906L13.8,59.384V56.867H31.772a15.479,15.479,0,0,0,30.849,0H80.6v2.515ZM17.819,39.131h5.817V54.283H17.819Zm17.329-2.5V54.283H26.221V32.737ZM56.659,26.343v27.94H37.733V26.343ZM42.167,21.506h10.06v2.252H42.166ZM60.028,56.867H34.365a12.9,12.9,0,0,0,25.663,0ZM76.574,39.131V54.283H59.245V39.131ZM66.263,32.356h3.293v4.191H66.263Zm3.293-10.85V25.7H66.263v-4.19Zm-3.293,6.775h3.293v1.489H66.263Zm15.626,26h-2.73V37.839a1.292,1.292,0,0,0-1.293-1.292H72.141V21.506h.35a1.292,1.292,0,1,0,0-2.585H63.328a1.292,1.292,0,1,0,0,2.585h.357v15.04H59.245V25.05a1.292,1.292,0,0,0-1.293-1.292h-3.14V20.214a1.292,1.292,0,0,0-1.293-1.292H40.874a1.292,1.292,0,0,0-1.293,1.292v3.544h-3.14a1.292,1.292,0,0,0-1.293,1.292v8.764l-9.7-4.236a1.3,1.3,0,0,0-1.232.1,1.283,1.283,0,0,0-.578,1.081v5.783h-7.11a1.292,1.292,0,0,0-1.293,1.292V54.283H12.5a1.293,1.293,0,0,0-1.293,1.292v4.7a1.286,1.286,0,0,0,.829,1.2l5.117,1.973a30.9,30.9,0,0,0,3.232,7.8l-2.228,5.018a1.31,1.31,0,0,0,.266,1.439l6.646,6.639a1.29,1.29,0,0,0,1.437.268l5.019-2.229a31.013,31.013,0,0,0,7.794,3.231L41.3,90.735a1.285,1.285,0,0,0,1.2.827h9.391a1.3,1.3,0,0,0,1.209-.827l1.969-5.121a30.789,30.789,0,0,0,7.794-3.233l5.019,2.229a1.29,1.29,0,0,0,1.437-.268L75.966,77.7a1.31,1.31,0,0,0,.266-1.439L74,71.244a30.924,30.924,0,0,0,3.232-7.795l5.117-1.973a1.286,1.286,0,0,0,.829-1.2v-4.7A1.292,1.292,0,0,0,81.889,54.283ZM54.15,46.467a1.293,1.293,0,0,0-1.293-1.292H41.535a1.292,1.292,0,1,0,0,2.585H52.858A1.292,1.292,0,0,0,54.15,46.467ZM42.828,31.438v8.738h8.737V31.438ZM41.535,42.761H52.857a1.292,1.292,0,0,0,1.293-1.292V30.146a1.292,1.292,0,0,0-1.293-1.292H41.535a1.292,1.292,0,0,0-1.293,1.292V41.469A1.292,1.292,0,0,0,41.535,42.761Zm21.671,3.507v3.527h9.406V46.268ZM61.914,52.38H73.905A1.292,1.292,0,0,0,75.2,51.087V44.976a1.292,1.292,0,0,0-1.293-1.292H61.914a1.292,1.292,0,0,0-1.293,1.292v6.111A1.292,1.292,0,0,0,61.914,52.38Z" transform="translate(-7.993 -13.072)" fill="#242222" fill-rule="evenodd"/>
      </g>
    </g>
  </g>
</svg>
