<svg xmlns="http://www.w3.org/2000/svg" xmlns:xlink="http://www.w3.org/1999/xlink" width="93.934" height="93.934" viewBox="0 0 93.934 93.934">
  <defs>
    <filter id="Trazado_982547" x="0" y="0" width="93.934" height="93.934" filterUnits="userSpaceOnUse">
      <feOffset dy="3" input="SourceAlpha"/>
      <feGaussianBlur stdDeviation="3" result="blur"/>
      <feFlood flood-opacity="0.161"/>
      <feComposite operator="in" in2="blur"/>
      <feComposite in="SourceGraphic"/>
    </filter>
    <clipPath id="clip-path">
      <path id="path9291" d="M0-682.665H62.659v62.659H0Z" transform="translate(0 682.665)"/>
    </clipPath>
  </defs>
  <g id="Grupo_1218126" data-name="Grupo 1218126" transform="translate(-191.066 -7237.035)">
    <g id="Grupo_1215981" data-name="Grupo 1215981" transform="translate(-0.229 3515.035)">
      <g id="Grupo_1214594" data-name="Grupo 1214594" transform="translate(0 -1406)">
        <g id="Grupo_1214432" data-name="Grupo 1214432" transform="translate(-0.771 -2738.674)">
          <g id="Grupo_1183196" data-name="Grupo 1183196" transform="translate(1 1016.674)">
            <g id="Grupo_1179610" data-name="Grupo 1179610" transform="translate(8 4723.467)">
              <g id="Grupo_1175227" data-name="Grupo 1175227" transform="translate(-5.967 140.533)">
                <g id="Grupo_1167337" data-name="Grupo 1167337" transform="translate(198.033 1992)">
                  <g id="Grupo_1166720" data-name="Grupo 1166720">
                    <g id="Grupo_1164305" data-name="Grupo 1164305">
                      <g id="Grupo_1163948" data-name="Grupo 1163948">
                        <g id="Grupo_1158168" data-name="Grupo 1158168">
                          <g id="Grupo_1152576" data-name="Grupo 1152576">
                            <g id="Grupo_1148633" data-name="Grupo 1148633">
                              <g id="Grupo_1148525" data-name="Grupo 1148525">
                                <g transform="matrix(1, 0, 0, 1, -9, -6)" filter="url(#Trazado_982547)">
                                  <g id="Trazado_982547-2" data-name="Trazado 982547" transform="translate(9 6)" fill="#f7f4ed">
                                    <path d="M 37.966796875 74.43359375 C 33.04315185546875 74.43359375 28.26757431030273 73.46962738037109 23.77274131774902 71.56847381591797 C 19.43047523498535 69.73184967041016 15.53040790557861 67.10224914550781 12.18087482452393 63.75271987915039 C 8.831341743469238 60.4031867980957 6.201741218566895 56.50312042236328 4.365118980407715 52.16086196899414 C 2.463963508605957 47.66601943969727 1.499996900558472 42.89044189453125 1.499996900558472 37.966796875 C 1.499996900558472 33.04315185546875 2.463963508605957 28.26757431030273 4.365118980407715 23.77274131774902 C 6.201741218566895 19.43047523498535 8.831341743469238 15.53040790557861 12.18087482452393 12.18087482452393 C 15.53040790557861 8.831341743469238 19.43047523498535 6.201741218566895 23.77274131774902 4.365118980407715 C 28.26757431030273 2.463963508605957 33.04315185546875 1.499996900558472 37.966796875 1.499996900558472 C 42.89044189453125 1.499996900558472 47.66601943969727 2.463963508605957 52.16086196899414 4.365118980407715 C 56.50312042236328 6.201741218566895 60.4031867980957 8.831341743469238 63.75271987915039 12.18087482452393 C 67.10224914550781 15.53040790557861 69.73184967041016 19.43047523498535 71.56847381591797 23.77274131774902 C 73.46962738037109 28.26757431030273 74.43359375 33.04315185546875 74.43359375 37.966796875 C 74.43359375 42.89044189453125 73.46962738037109 47.66601943969727 71.56847381591797 52.16086196899414 C 69.73184967041016 56.50313186645508 67.10224914550781 60.4031867980957 63.75271987915039 63.75271987915039 C 60.4031867980957 67.10224914550781 56.50313186645508 69.73184967041016 52.16086196899414 71.56847381591797 C 47.66601943969727 73.46962738037109 42.89044189453125 74.43359375 37.966796875 74.43359375 Z" stroke="none"/>
                                    <path d="M 37.966796875 3 C 33.2449836730957 3 28.66600799560547 3.924095153808594 24.35705947875977 5.746635437011719 C 20.19359588623047 7.507637023925781 16.45379638671875 10.02928161621094 13.24153518676758 13.24153518676758 C 10.02927398681641 16.45379638671875 7.507621765136719 20.19359588623047 5.746635437011719 24.35705947875977 C 3.924095153808594 28.66600799560547 3 33.2449836730957 3 37.966796875 C 3 42.6886100769043 3.924095153808594 47.26758575439453 5.746635437011719 51.57653427124023 C 7.507621765136719 55.73999786376953 10.02927398681641 59.47979736328125 13.24153518676758 62.69205856323242 C 16.45379638671875 65.90431976318359 20.19359588623047 68.42597198486328 24.35705947875977 70.18695831298828 C 28.66600799560547 72.00949859619141 33.2449836730957 72.93359375 37.966796875 72.93359375 C 42.6886100769043 72.93359375 47.26758575439453 72.00949859619141 51.57653427124023 70.18695831298828 C 55.73999786376953 68.42597198486328 59.47979736328125 65.90431976318359 62.69205856323242 62.69205856323242 C 65.90431976318359 59.47979736328125 68.42597198486328 55.73999786376953 70.18695831298828 51.57653427124023 C 72.00949859619141 47.26758575439453 72.93359375 42.6886100769043 72.93359375 37.966796875 C 72.93359375 33.2449836730957 72.00949859619141 28.66600799560547 70.18695831298828 24.35705947875977 C 68.42597198486328 20.19359588623047 65.90431976318359 16.45379638671875 62.69205856323242 13.24153518676758 C 59.47979736328125 10.02928161621094 55.73999786376953 7.507637023925781 51.57653427124023 5.746635437011719 C 47.26758575439453 3.924095153808594 42.6886100769043 3 37.966796875 3 M 37.966796875 0 C 58.93528366088867 0 75.93359375 16.99832153320312 75.93359375 37.966796875 C 75.93359375 58.93528366088867 58.93528366088867 75.93359375 37.966796875 75.93359375 C 16.99831008911133 75.93359375 0 58.93528366088867 0 37.966796875 C 0 16.99832153320312 16.99831008911133 0 37.966796875 0 Z" stroke="none" fill="#847625"/>
                                  </g>
                                </g>
                              </g>
                            </g>
                          </g>
                        </g>
                      </g>
                    </g>
                  </g>
                </g>
              </g>
            </g>
          </g>
        </g>
      </g>
    </g>
    <g id="g9287" transform="translate(206.006 7257.402)">
      <g id="g9289" clip-path="url(#clip-path)">
        <g id="g9295" transform="translate(44.99 1.313)">
          <path id="path9297" d="M-125.188-13.623V20.328a3.351,3.351,0,0,1-.843,2.222L-130.6,27.7l-.918,1.037-.918-1.037L-137,22.55a3.356,3.356,0,0,1-.842-2.222V-13.623A1.376,1.376,0,0,1-136.463-15h9.9a1.377,1.377,0,0,1,1.377,1.377" transform="translate(137.84 15)" fill="#ff50b5"/>
        </g>
        <g id="g9299" transform="translate(51.316 1.313)">
          <path id="path9301" d="M-62.594-13.623V20.328a3.351,3.351,0,0,1-.843,2.222L-68,27.7l-.918,1.037V-15h4.949a1.377,1.377,0,0,1,1.377,1.377" transform="translate(68.92 15)" fill="#ff72c3"/>
        </g>
        <g id="g9303" transform="translate(43.171 44.872)">
          <path id="path9305" d="M-161.192-80.6a8.145,8.145,0,0,1-8.145,8.145,8.145,8.145,0,0,1-8.145-8.145,8.145,8.145,0,0,1,8.145-8.145,8.145,8.145,0,0,1,8.145,8.145" transform="translate(177.482 88.741)" fill="#fcb54c"/>
        </g>
        <g id="g9307" transform="translate(46.75 48.451)">
          <path id="path9309" d="M-45.179-90.359a4.571,4.571,0,0,1-4.566-4.566,4.571,4.571,0,0,1,4.566-4.566,4.571,4.571,0,0,1,4.566,4.566,4.571,4.571,0,0,1-4.566,4.566" transform="translate(49.745 99.49)" fill="#ffe9c9"/>
        </g>
        <g id="g9311" transform="translate(3.198 42.142)">
          <path id="path9313" d="M-374-155.9a3.448,3.448,0,0,1-3.449,3.449h-30.9a3.436,3.436,0,0,1-2.439-1.012,3.43,3.43,0,0,1-1.01-2.437,15.722,15.722,0,0,1,5.588-12.036,15.744,15.744,0,0,1,4.2-2.551,15.709,15.709,0,0,1,5.965-1.168h6.287a15.742,15.742,0,0,1,5.965,1.168,15.706,15.706,0,0,1,4.2,2.553q.506.424.973.894A15.705,15.705,0,0,1-374-155.9" transform="translate(411.794 171.65)" fill="#bee299"/>
        </g>
        <g id="g9315" transform="translate(3.198 42.142)">
          <path id="path9317" d="M-216.71,0a15.711,15.711,0,0,0-5.965,1.168,15.745,15.745,0,0,0-4.2,2.552,15.721,15.721,0,0,0-5.588,12.036,3.43,3.43,0,0,0,1.01,2.437,3.436,3.436,0,0,0,2.439,1.012h-6.146a3.436,3.436,0,0,1-2.439-1.012,3.43,3.43,0,0,1-1.01-2.437,15.721,15.721,0,0,1,5.588-12.036,15.743,15.743,0,0,1,4.2-2.552A15.711,15.711,0,0,1-222.856,0Z" transform="translate(238.611)" fill="#aedb81"/>
        </g>
        <g id="g9319" transform="translate(10.302 42.162)">
          <path id="path9321" d="M-203.609-10.092h0a15.6,15.6,0,0,0-3.251-.859,15.337,15.337,0,0,0-1.6-.16v3.575l-3.5,3.776,0,0a.583.583,0,0,1-1.006-.014l-3.348-3.767v-3.575a15.647,15.647,0,0,0-1.913.211,15.673,15.673,0,0,0-2.948.813h0a5.8,5.8,0,0,0-3,5.591.7.7,0,0,0,1.177.465l2.865-2.069a.937.937,0,0,1,.819-.024l6.128,2.668a1.178,1.178,0,0,0,1.441.009l6.3-2.677a.935.935,0,0,1,.817.024l2.867,2.069A.7.7,0,0,0-200.6-4.5a5.8,5.8,0,0,0-3.01-5.6" transform="translate(224.186 11.112)" fill="#8ecb51"/>
        </g>
        <g id="g9323" transform="translate(18.165 37.267)">
          <path id="path9325" d="M0-.224V8.223l3.349,3.768a.584.584,0,0,0,1.006.014s0,0,0-.005l3.5-3.777V-.224C7.205-.255.619-.253,0-.224" transform="translate(0 0.247)" fill="#e3a76f"/>
        </g>
        <g id="g9327" transform="translate(28.777 22.995)">
          <path id="path9329" d="M-87.927-43.963A4.443,4.443,0,0,1-92.37-39.52a4.443,4.443,0,0,1-4.443-4.443,4.443,4.443,0,0,1,4.443-4.443,4.443,4.443,0,0,1,4.443,4.443" transform="translate(96.813 48.407)" fill="#f2bb88"/>
        </g>
        <g id="g9331" transform="translate(10.311 6.129)">
          <path id="path9333" d="M-195.492,0h-15.943a3.814,3.814,0,0,0-3.814,3.814v20.66c0,6.38,8.865,11.552,11.785,11.552h0c2.92,0,11.785-5.172,11.785-11.552V3.814A3.814,3.814,0,0,0-195.492,0" transform="translate(215.249)" fill="#f2bb88"/>
        </g>
        <g id="g9335" transform="translate(10.312 6.129)">
          <path id="path9337" d="M-147.016-347.48a8.116,8.116,0,0,1-3.073.908c-2.92,0-11.785-5.172-11.785-11.551v-20.66a3.813,3.813,0,0,1,3.812-3.814h6.146a3.813,3.813,0,0,0-3.812,3.814v20.66c0,4.785,4.985,8.891,8.712,10.643" transform="translate(161.874 382.598)" fill="#e3a76f"/>
        </g>
        <g id="g9339" transform="translate(6.98 1.506)">
          <path id="path9341" d="M-234.369,0h-10.75a6.492,6.492,0,0,0-6.328,4.573A4.488,4.488,0,0,0-252.7,4.4h-1.121a4.11,4.11,0,0,0-4.233,3.976v4.72a3.094,3.094,0,0,0,3.186,2.993h2.168a4.132,4.132,0,0,0,4.221-3.7c3.488,3.545,9.547,5.8,16.712,5.723h1.955a2.209,2.209,0,0,0,1.991-2.375V6.15A6.358,6.358,0,0,0-234.369,0" transform="translate(258.055)" fill="#d19a75"/>
        </g>
        <g id="g9343" transform="translate(6.98 6.998)">
          <path id="path9345" d="M-299.142-71.136v3.054a2.209,2.209,0,0,1-1.99,2.376h-1.956c-7.165.079-13.225-2.179-16.712-5.725a4.13,4.13,0,0,1-4.22,3.7h-2.169a3.093,3.093,0,0,1-3.185-2.992v-4.72a3.846,3.846,0,0,1,1.317-2.88v2.311a3.093,3.093,0,0,0,3.186,2.992h2.169a4.13,4.13,0,0,0,4.22-3.7c3.487,3.546,9.548,5.8,16.712,5.723h1.956a1.715,1.715,0,0,0,.673-.139" transform="translate(329.374 78.325)" fill="#c9885b"/>
        </g>
        <g id="g9347" transform="translate(46.75 48.451)">
          <path id="path9349" d="M-61.674-87.25a4.549,4.549,0,0,1-1.667.314A4.572,4.572,0,0,1-67.907-91.5a4.572,4.572,0,0,1,4.566-4.566,4.544,4.544,0,0,1,1.667.315,4.575,4.575,0,0,0-2.9,4.252,4.575,4.575,0,0,0,2.9,4.252" transform="translate(67.907 96.068)" fill="#fecf8a"/>
        </g>
        <g id="g9351" transform="translate(6.53 22.994)">
          <path id="path9353" d="M-87.927-43.963A4.443,4.443,0,0,1-92.37-39.52a4.443,4.443,0,0,1-4.443-4.443,4.443,4.443,0,0,1,4.443-4.443,4.443,4.443,0,0,1,4.443,4.443" transform="translate(96.813 48.407)" fill="#e3a76f"/>
        </g>
        <g id="g9363" transform="translate(10.309 6.027)">
          <path id="path9365" d="M-195.539,0h-15.947A3.814,3.814,0,0,0-215.3,3.814V24.48c0,6.381,8.868,11.554,11.788,11.554h0c2.92,0,11.788-5.173,11.788-11.555V3.814A3.814,3.814,0,0,0-195.539,0Z" transform="translate(215.301 0)" fill="none" stroke="#000" stroke-linecap="round" stroke-linejoin="round" stroke-miterlimit="10" stroke-width="1.5" stroke-dasharray="390 30"/>
        </g>
        <g id="g9367" transform="translate(19.746 31.031)">
          <path id="path9369" d="M-46.526,0a2.351,2.351,0,0,1-2.351,2.351A2.351,2.351,0,0,1-51.228,0" transform="translate(51.228)" fill="none" stroke="#000" stroke-linecap="round" stroke-linejoin="round" stroke-miterlimit="10" stroke-width="1.5"/>
        </g>
        <g id="g9371" transform="translate(26.741 24.86)">
          <path id="path9373" d="M0-13.819a1.4,1.4,0,0,0,1.4,1.4,1.4,1.4,0,0,0,1.4-1.4,1.4,1.4,0,0,0-1.4-1.4,1.4,1.4,0,0,0-1.4,1.4" transform="translate(0 15.216)"/>
        </g>
        <g id="g9375" transform="translate(14.659 24.86)">
          <path id="path9377" d="M-27.639-13.819a1.4,1.4,0,0,1-1.4,1.4,1.4,1.4,0,0,1-1.4-1.4,1.4,1.4,0,0,1,1.4-1.4,1.4,1.4,0,0,1,1.4,1.4" transform="translate(30.432 15.216)"/>
        </g>
        <g id="g9379" transform="translate(26.256 22.897)">
          <path id="path9381" d="M0-1.816s2.959-.617,4.594.411" transform="translate(0 1.999)" fill="none" stroke="#000" stroke-linecap="round" stroke-linejoin="round" stroke-miterlimit="10" stroke-width="1.5"/>
        </g>
        <g id="g9383" transform="translate(13.344 22.897)">
          <path id="path9385" d="M-45.455-1.816s-2.959-.617-4.594.411" transform="translate(50.049 1.999)" fill="none" stroke="#000" stroke-linecap="round" stroke-linejoin="round" stroke-miterlimit="10" stroke-width="1.5"/>
        </g>
        <g id="g9387" transform="translate(6.977 1.403)">
          <path id="path9389" d="M-234.425,0h-10.753a6.493,6.493,0,0,0-6.33,4.574,4.486,4.486,0,0,0-1.254-.177h-1.122a4.111,4.111,0,0,0-4.233,3.977v4.721a3.1,3.1,0,0,0,3.187,2.994h2.168a4.133,4.133,0,0,0,4.222-3.7c3.488,3.545,9.55,5.805,16.716,5.725h1.956a2.209,2.209,0,0,0,1.991-2.376V6.152A6.359,6.359,0,0,0-234.425,0Z" transform="translate(258.117)" fill="none" stroke="#000" stroke-linecap="round" stroke-linejoin="round" stroke-miterlimit="10" stroke-width="1.5"/>
        </g>
        <g id="g9391" transform="translate(3.194 42.048)">
          <path id="path9393" d="M0-155.933a3.435,3.435,0,0,0,1.01,2.439,3.435,3.435,0,0,0,2.439,1.01H34.357a3.449,3.449,0,0,0,3.449-3.449,15.709,15.709,0,0,0-4.616-11.143q-.468-.468-.974-.895a15.715,15.715,0,0,0-4.2-2.553,15.729,15.729,0,0,0-5.966-1.168H15.759a15.706,15.706,0,0,0-5.966,1.168,15.746,15.746,0,0,0-4.2,2.552A15.725,15.725,0,0,0,0-155.933Z" transform="translate(0 171.692)" fill="none" stroke="#000" stroke-linecap="round" stroke-linejoin="round" stroke-miterlimit="10" stroke-width="1.5" stroke-dasharray="390 30"/>
        </g>
        <g id="g9395" transform="translate(10.3 42.068)">
          <path id="path9397" d="M-203.656-10.1h0a15.6,15.6,0,0,0-3.251-.86,15.375,15.375,0,0,0-1.6-.16V-7.54l-3.5,3.777,0,0a.583.583,0,0,1-1.007-.014l-3.348-3.768v-3.576a15.632,15.632,0,0,0-1.913.211,15.668,15.668,0,0,0-2.949.813h0a5.8,5.8,0,0,0-3,5.592.7.7,0,0,0,1.177.465l2.866-2.07a.937.937,0,0,1,.819-.024l6.129,2.669a1.178,1.178,0,0,0,1.441.009l6.3-2.678a.934.934,0,0,1,.817.024l2.867,2.07a.7.7,0,0,0,1.177-.465A5.8,5.8,0,0,0-203.656-10.1Z" transform="translate(224.238 11.116)" fill="none" stroke="#000" stroke-linecap="round" stroke-linejoin="round" stroke-miterlimit="10" stroke-width="1.5"/>
        </g>
        <g id="g9399" transform="translate(22.097 49.725)">
          <path id="path9401" d="M0,0V11.377" fill="none" stroke="#000" stroke-linecap="round" stroke-linejoin="round" stroke-miterlimit="10" stroke-width="1.5" stroke-dasharray="400 30"/>
        </g>
        <g id="g9403" transform="translate(28.284 56.955)">
          <path id="path9405" d="M0,0H7.506" fill="none" stroke="#000" stroke-linecap="round" stroke-linejoin="round" stroke-miterlimit="10" stroke-width="1.5" stroke-dasharray="400 30"/>
        </g>
        <g id="g9407" transform="translate(8.404 56.955)">
          <path id="path9409" d="M0,0H7.506" fill="none" stroke="#000" stroke-linecap="round" stroke-linejoin="round" stroke-miterlimit="10" stroke-width="1.5" stroke-dasharray="400 30"/>
        </g>
        <g id="g9411" transform="translate(44.994 1.224)">
          <path id="path9413" d="M-116.849-371.558l-5.483,6.191-5.483-6.191a3.353,3.353,0,0,1-.843-2.223v-33.951a1.377,1.377,0,0,1,1.377-1.377h9.9a1.377,1.377,0,0,1,1.377,1.377v33.951A3.353,3.353,0,0,1-116.849-371.558Z" transform="translate(128.658 409.108)" fill="none" stroke="#000" stroke-linecap="round" stroke-linejoin="round" stroke-miterlimit="10" stroke-width="1.5"/>
        </g>
        <g id="g9415" transform="translate(51.32 1.224)">
          <path id="path9417" d="M0,0V43.742" fill="none" stroke="#000" stroke-linecap="round" stroke-linejoin="round" stroke-miterlimit="10" stroke-width="1.5" stroke-dasharray="170 30"/>
        </g>
        <g id="g9419" transform="translate(43.175 44.966)">
          <path id="path9421" d="M-161.191-80.6a8.145,8.145,0,0,1-8.145,8.145,8.145,8.145,0,0,1-8.145-8.145,8.145,8.145,0,0,1,8.145-8.145A8.145,8.145,0,0,1-161.191-80.6Z" transform="translate(177.481 88.741)" fill="none" stroke="#000" stroke-linecap="round" stroke-linejoin="round" stroke-miterlimit="10" stroke-width="1.5"/>
        </g>
        <g id="g9423" transform="translate(46.754 48.545)">
          <path id="path9425" d="M-45.179-90.359a4.571,4.571,0,0,1-4.566-4.566,4.571,4.571,0,0,1,4.566-4.566,4.571,4.571,0,0,1,4.566,4.566A4.571,4.571,0,0,1-45.179-90.359Z" transform="translate(49.745 99.49)" fill="none" stroke="#000" stroke-linecap="round" stroke-linejoin="round" stroke-miterlimit="10" stroke-width="1.5"/>
        </g>
      </g>
    </g>
  </g>
</svg>
