<svg xmlns="http://www.w3.org/2000/svg" xmlns:xlink="http://www.w3.org/1999/xlink" width="93.934" height="93.934" viewBox="0 0 93.934 93.934">
  <defs>
    <filter id="Trazado_982547" x="0" y="0" width="93.934" height="93.934" filterUnits="userSpaceOnUse">
      <feOffset dy="3" input="SourceAlpha"/>
      <feGaussianBlur stdDeviation="3" result="blur"/>
      <feFlood flood-opacity="0.161"/>
      <feComposite operator="in" in2="blur"/>
      <feComposite in="SourceGraphic"/>
    </filter>
  </defs>
  <g id="Grupo_1217802" data-name="Grupo 1217802" transform="translate(-611.066 -7237.035)">
    <g id="Grupo_1216284" data-name="Grupo 1216284" transform="translate(0 6194.186)">
      <g id="Grupo_1215982" data-name="Grupo 1215982" transform="translate(-0.229 -2679.151)">
        <g id="Grupo_1214640" data-name="Grupo 1214640" transform="translate(0 -1406)">
          <g id="Grupo_1214433" data-name="Grupo 1214433" transform="translate(-0.771 -2738.674)">
            <g id="Grupo_1183190" data-name="Grupo 1183190" transform="translate(1 1016.674)">
              <g id="Grupo_1179611" data-name="Grupo 1179611" transform="translate(428 4723.467)">
                <g id="Grupo_1175227" data-name="Grupo 1175227" transform="translate(-5.967 140.533)">
                  <g id="Grupo_1167337" data-name="Grupo 1167337" transform="translate(198.033 1992)">
                    <g id="Grupo_1166720" data-name="Grupo 1166720">
                      <g id="Grupo_1164305" data-name="Grupo 1164305">
                        <g id="Grupo_1163948" data-name="Grupo 1163948">
                          <g id="Grupo_1158168" data-name="Grupo 1158168">
                            <g id="Grupo_1152576" data-name="Grupo 1152576">
                              <g id="Grupo_1148633" data-name="Grupo 1148633">
                                <g id="Grupo_1148525" data-name="Grupo 1148525">
                                  <g transform="matrix(1, 0, 0, 1, -9, -6)" filter="url(#Trazado_982547)">
                                    <g id="Trazado_982547-2" data-name="Trazado 982547" transform="translate(9 6)" fill="#f7f4ed">
                                      <path d="M 37.966796875 74.43359375 C 33.04315185546875 74.43359375 28.26757431030273 73.46962738037109 23.77274131774902 71.56847381591797 C 19.43047523498535 69.73184967041016 15.53040790557861 67.10224914550781 12.18087482452393 63.75271987915039 C 8.831341743469238 60.4031867980957 6.201741218566895 56.50312042236328 4.365118980407715 52.16086196899414 C 2.463963508605957 47.66601943969727 1.499996900558472 42.89044189453125 1.499996900558472 37.966796875 C 1.499996900558472 33.04315185546875 2.463963508605957 28.26757431030273 4.365118980407715 23.77274131774902 C 6.201741218566895 19.43047523498535 8.831341743469238 15.53040790557861 12.18087482452393 12.18087482452393 C 15.53040790557861 8.831341743469238 19.43047523498535 6.201741218566895 23.77274131774902 4.365118980407715 C 28.26757431030273 2.463963508605957 33.04315185546875 1.499996900558472 37.966796875 1.499996900558472 C 42.89044189453125 1.499996900558472 47.66601943969727 2.463963508605957 52.16086196899414 4.365118980407715 C 56.50312042236328 6.201741218566895 60.4031867980957 8.831341743469238 63.75271987915039 12.18087482452393 C 67.10224914550781 15.53040790557861 69.73184967041016 19.43047523498535 71.56847381591797 23.77274131774902 C 73.46962738037109 28.26757431030273 74.43359375 33.04315185546875 74.43359375 37.966796875 C 74.43359375 42.89044189453125 73.46962738037109 47.66601943969727 71.56847381591797 52.16086196899414 C 69.73184967041016 56.50313186645508 67.10224914550781 60.4031867980957 63.75271987915039 63.75271987915039 C 60.4031867980957 67.10224914550781 56.50313186645508 69.73184967041016 52.16086196899414 71.56847381591797 C 47.66601943969727 73.46962738037109 42.89044189453125 74.43359375 37.966796875 74.43359375 Z" stroke="none"/>
                                      <path d="M 37.966796875 3 C 33.2449836730957 3 28.66600799560547 3.924095153808594 24.35705947875977 5.746635437011719 C 20.19359588623047 7.507637023925781 16.45379638671875 10.02928161621094 13.24153518676758 13.24153518676758 C 10.02927398681641 16.45379638671875 7.507621765136719 20.19359588623047 5.746635437011719 24.35705947875977 C 3.924095153808594 28.66600799560547 3 33.2449836730957 3 37.966796875 C 3 42.6886100769043 3.924095153808594 47.26758575439453 5.746635437011719 51.57653427124023 C 7.507621765136719 55.73999786376953 10.02927398681641 59.47979736328125 13.24153518676758 62.69205856323242 C 16.45379638671875 65.90431976318359 20.19359588623047 68.42597198486328 24.35705947875977 70.18695831298828 C 28.66600799560547 72.00949859619141 33.2449836730957 72.93359375 37.966796875 72.93359375 C 42.6886100769043 72.93359375 47.26758575439453 72.00949859619141 51.57653427124023 70.18695831298828 C 55.73999786376953 68.42597198486328 59.47979736328125 65.90431976318359 62.69205856323242 62.69205856323242 C 65.90431976318359 59.47979736328125 68.42597198486328 55.73999786376953 70.18695831298828 51.57653427124023 C 72.00949859619141 47.26758575439453 72.93359375 42.6886100769043 72.93359375 37.966796875 C 72.93359375 33.2449836730957 72.00949859619141 28.66600799560547 70.18695831298828 24.35705947875977 C 68.42597198486328 20.19359588623047 65.90431976318359 16.45379638671875 62.69205856323242 13.24153518676758 C 59.47979736328125 10.02928161621094 55.73999786376953 7.507637023925781 51.57653427124023 5.746635437011719 C 47.26758575439453 3.924095153808594 42.6886100769043 3 37.966796875 3 M 37.966796875 0 C 58.93528366088867 0 75.93359375 16.99832153320312 75.93359375 37.966796875 C 75.93359375 58.93528366088867 58.93528366088867 75.93359375 37.966796875 75.93359375 C 16.99831008911133 75.93359375 0 58.93528366088867 0 37.966796875 C 0 16.99832153320312 16.99831008911133 0 37.966796875 0 Z" stroke="none" fill="#847625"/>
                                    </g>
                                  </g>
                                </g>
                              </g>
                            </g>
                          </g>
                        </g>
                      </g>
                    </g>
                  </g>
                </g>
              </g>
            </g>
          </g>
        </g>
      </g>
    </g>
    <g id="cuenta-bancaria" transform="translate(618.533 7259.959)">
      <g id="Grupo_1217772" data-name="Grupo 1217772" transform="translate(14.148 7.481)">
        <path id="Trazado_1086392" data-name="Trazado 1086392" d="M44.894,91.454l14.657-6.56a.482.482,0,0,1,.394,0l2.156.965V64.909H20.784V112a2.3,2.3,0,0,0,2.305,2.305H44.609v-1.707a.483.483,0,0,1,.482-.482H61.929V94.968H45.091a.483.483,0,0,1-.482-.482V91.893a.482.482,0,0,1,.285-.44Z" transform="translate(-20.784 -64.909)" fill="#f9f3f1"/>
      </g>
      <g id="Grupo_1217775" data-name="Grupo 1217775" transform="translate(51.054 7.481)">
        <g id="Grupo_1217773" data-name="Grupo 1217773" transform="translate(0 30.059)">
          <path id="Trazado_1086393" data-name="Trazado 1086393" d="M341,325.715h4.239v17.144H341Z" transform="translate(-341 -325.715)" fill="#f3eae6"/>
        </g>
        <g id="Grupo_1217774" data-name="Grupo 1217774">
          <path id="Trazado_1086394" data-name="Trazado 1086394" d="M341,64.909V85.726l1.861-.833a.482.482,0,0,1,.394,0l2.156.965V64.909Z" transform="translate(-341 -64.909)" fill="#f3eae6"/>
        </g>
      </g>
      <g id="Grupo_1217776" data-name="Grupo 1217776" transform="translate(14.148 0.864)">
        <path id="Trazado_1086395" data-name="Trazado 1086395" d="M59.8,7.5H23.089a2.305,2.305,0,0,0-2.305,2.305v4.427H62.1V9.805A2.305,2.305,0,0,0,59.8,7.5Z" transform="translate(-20.784 -7.5)" fill="#0ed2b3"/>
      </g>
      <g id="Grupo_1217777" data-name="Grupo 1217777" transform="translate(48.749 0.864)">
        <path id="Trazado_1086396" data-name="Trazado 1086396" d="M325.411,7.5H321a2.305,2.305,0,0,1,2.305,2.305v4.427h4.411V9.805A2.305,2.305,0,0,0,325.411,7.5Z" transform="translate(-321 -7.5)" fill="#0ab69f"/>
      </g>
      <g id="Grupo_1217778" data-name="Grupo 1217778" transform="translate(14.148 0.864)">
        <path id="Trazado_1086397" data-name="Trazado 1086397" d="M23.089,7.5a2.305,2.305,0,0,0-2.305,2.305v4.427h7.689V7.5Z" transform="translate(-20.784 -7.5)" fill="#0ed2b3"/>
      </g>
      <g id="Grupo_1217794" data-name="Grupo 1217794" transform="translate(37.858 27.308)">
        <g id="Grupo_1217787" data-name="Grupo 1217787" transform="translate(1.904 10.28)">
          <g id="Grupo_1217779" data-name="Grupo 1217779">
            <path id="Trazado_1086398" data-name="Trazado 1086398" d="M243.024,326.139H246.6v17.046h-3.576Z" transform="translate(-243.024 -326.139)" fill="#b9acac"/>
          </g>
          <g id="Grupo_1217780" data-name="Grupo 1217780" transform="translate(7.708)">
            <path id="Trazado_1086399" data-name="Trazado 1086399" d="M309.9,326.139h3.576v17.046H309.9Z" transform="translate(-309.903 -326.139)" fill="#b9acac"/>
          </g>
          <g id="Grupo_1217781" data-name="Grupo 1217781" transform="translate(15.416)">
            <path id="Trazado_1086400" data-name="Trazado 1086400" d="M376.782,326.139h3.576v17.046h-3.576Z" transform="translate(-376.782 -326.139)" fill="#b9acac"/>
          </g>
          <g id="Grupo_1217782" data-name="Grupo 1217782" transform="translate(23.124)">
            <path id="Trazado_1086401" data-name="Trazado 1086401" d="M443.661,326.139h3.576v17.046h-3.576Z" transform="translate(-443.661 -326.139)" fill="#b9acac"/>
          </g>
          <g id="Grupo_1217783" data-name="Grupo 1217783" transform="translate(25.011)">
            <path id="Trazado_1086402" data-name="Trazado 1086402" d="M460.031,326.139h1.69v17.046h-1.69Z" transform="translate(-460.031 -326.139)" fill="#9e9797"/>
          </g>
          <g id="Grupo_1217784" data-name="Grupo 1217784" transform="translate(17.303)">
            <path id="Trazado_1086403" data-name="Trazado 1086403" d="M393.152,326.139h1.69v17.046h-1.69Z" transform="translate(-393.152 -326.139)" fill="#9e9797"/>
          </g>
          <g id="Grupo_1217785" data-name="Grupo 1217785" transform="translate(9.595)">
            <path id="Trazado_1086404" data-name="Trazado 1086404" d="M326.273,326.139h1.69v17.046h-1.69Z" transform="translate(-326.273 -326.139)" fill="#9e9797"/>
          </g>
          <g id="Grupo_1217786" data-name="Grupo 1217786" transform="translate(1.887)">
            <path id="Trazado_1086405" data-name="Trazado 1086405" d="M259.395,326.139h1.69v17.046h-1.69Z" transform="translate(-259.395 -326.139)" fill="#9e9797"/>
          </g>
        </g>
        <g id="Grupo_1217788" data-name="Grupo 1217788">
          <path id="Trazado_1086406" data-name="Trazado 1086406" d="M226.5,244.1v2.592a.6.6,0,0,0,.6.6h29.315a.6.6,0,0,0,.6-.6V244.1a.6.6,0,0,0-.353-.545L242,236.993a.6.6,0,0,0-.488,0l-14.657,6.56A.6.6,0,0,0,226.5,244.1Z" transform="translate(-226.5 -236.941)" fill="#e1d3ce"/>
        </g>
        <g id="Grupo_1217789" data-name="Grupo 1217789" transform="translate(12.161 0)">
          <path id="Trazado_1086407" data-name="Trazado 1086407" d="M350.007,243.553l-14.657-6.56a.6.6,0,0,0-.488,0l-2.85,1.276,14.4,6.444a.6.6,0,0,1,.353.545v2.03h3a.6.6,0,0,0,.6-.6V244.1A.6.6,0,0,0,350.007,243.553Z" transform="translate(-332.012 -236.941)" fill="#cdbfba"/>
        </g>
        <g id="Grupo_1217790" data-name="Grupo 1217790" transform="translate(0 27.26)">
          <path id="Trazado_1086408" data-name="Trazado 1086408" d="M226.5,474.066v2.382a.6.6,0,0,0,.6.6h29.315a.6.6,0,0,0,.6-.6v-2.382a.6.6,0,0,0-.6-.6H227.1A.6.6,0,0,0,226.5,474.066Z" transform="translate(-226.5 -473.469)" fill="#e1d3ce"/>
        </g>
        <g id="Grupo_1217791" data-name="Grupo 1217791" transform="translate(26.314 27.26)">
          <path id="Trazado_1086409" data-name="Trazado 1086409" d="M458.417,473.469h-3.6a.6.6,0,0,1,.6.6v2.382a.6.6,0,0,1-.6.6h3.6a.6.6,0,0,0,.6-.6v-2.382A.6.6,0,0,0,458.417,473.469Z" transform="translate(-454.819 -473.469)" fill="#cdbfba"/>
        </g>
        <g id="Grupo_1217792" data-name="Grupo 1217792" transform="translate(13.315 3.58)">
          <circle id="Elipse_11966" data-name="Elipse 11966" cx="1.939" cy="1.939" r="1.939" fill="#b9acac"/>
        </g>
        <g id="Grupo_1217793" data-name="Grupo 1217793" transform="translate(14.524 3.58)">
          <path id="Trazado_1086410" data-name="Trazado 1086410" d="M353.247,268a1.932,1.932,0,0,0-.731.144,1.938,1.938,0,0,1,0,3.591,1.939,1.939,0,1,0,.731-3.735Z" transform="translate(-352.516 -268.001)" fill="#9e9797"/>
        </g>
      </g>
      <g id="Grupo_1217800" data-name="Grupo 1217800" transform="translate(19.676 11.588)">
        <g id="Grupo_1217795" data-name="Grupo 1217795">
          <circle id="Elipse_11967" data-name="Elipse 11967" cx="8.245" cy="8.245" r="8.245" fill="#dff6fd"/>
        </g>
        <g id="Grupo_1217796" data-name="Grupo 1217796" transform="translate(7.045)">
          <path id="Trazado_1086411" data-name="Trazado 1086411" d="M131.073,100.547a8.319,8.319,0,0,0-1.2.088,8.244,8.244,0,0,1,0,16.314,8.245,8.245,0,1,0,1.2-16.4Z" transform="translate(-129.873 -100.547)" fill="#c8effe"/>
        </g>
        <g id="Grupo_1217797" data-name="Grupo 1217797" transform="translate(3.345 11.835)">
          <path id="Trazado_1086412" data-name="Trazado 1086412" d="M102.669,207.886a8.206,8.206,0,0,0,4.9-1.614,5.468,5.468,0,0,0-9.8,0A8.206,8.206,0,0,0,102.669,207.886Z" transform="translate(-97.77 -203.232)" fill="#01d0fb"/>
        </g>
        <g id="Grupo_1217798" data-name="Grupo 1217798" transform="translate(4.319 4.319)">
          <circle id="Elipse_11968" data-name="Elipse 11968" cx="3.926" cy="3.926" r="3.926" fill="#01d0fb"/>
        </g>
        <g id="Grupo_1217799" data-name="Grupo 1217799" transform="translate(6.907 4.319)">
          <path id="Trazado_1086413" data-name="Trazado 1086413" d="M130.011,138.018a3.916,3.916,0,0,0-1.338.234,3.927,3.927,0,0,1,0,7.384,3.926,3.926,0,1,0,1.338-7.618Z" transform="translate(-128.673 -138.018)" fill="#01c0fa"/>
        </g>
      </g>
      <g id="Grupo_1217801" data-name="Grupo 1217801" transform="translate(13.284 0)">
        <path id="Trazado_1086414" data-name="Trazado 1086414" d="M67.77,38.519a1.463,1.463,0,0,0,1.462-1.462V34.465a1.463,1.463,0,0,0-.865-1.334L56.33,27.744V3.169A3.173,3.173,0,0,0,53.16,0H16.453a3.173,3.173,0,0,0-3.169,3.169v51.4a3.173,3.173,0,0,0,3.169,3.169H37.007a1.463,1.463,0,0,0,1.448,1.273H67.77a1.463,1.463,0,0,0,1.462-1.462V55.166A1.463,1.463,0,0,0,67.77,53.7h-.443V38.519ZM59.619,53.7V38.519h2.4V53.7ZM40.626,38.519h1.848V53.7H40.626Zm3.577,0h2.4V53.7H44.2ZM50.182,53.7H48.335V38.519h1.848Zm1.729-15.185h2.4V53.7h-2.4ZM57.89,53.7H56.042V38.519H57.89ZM67.5,36.79H38.722V34.639L53.112,28.2,67.5,34.638ZM22.7,1.729H53.16A1.442,1.442,0,0,1,54.6,3.169V6.732H22.7ZM15.013,3.169a1.442,1.442,0,0,1,1.441-1.441h4.52v5h-5.96Zm21.98,52v.842H16.453a1.442,1.442,0,0,1-1.441-1.441V8.461H54.6V26.97l-.892-.4a1.464,1.464,0,0,0-1.194,0l-14.657,6.56a1.463,1.463,0,0,0-.865,1.334v2.592a1.463,1.463,0,0,0,1.462,1.462H38.9V53.7h-.443A1.463,1.463,0,0,0,36.993,55.166ZM67.5,57.28H38.722V55.433H67.5ZM65.6,53.7H63.75V38.519H65.6Z" transform="translate(-13.284 0)"/>
        <path id="Trazado_1086415" data-name="Trazado 1086415" d="M334.532,263.3a2.8,2.8,0,1,0,2.8-2.8A2.807,2.807,0,0,0,334.532,263.3Zm3.879,0a1.075,1.075,0,1,1-1.075-1.075A1.076,1.076,0,0,1,338.411,263.3Z" transform="translate(-297.507 -230.478)"/>
        <path id="Trazado_1086416" data-name="Trazado 1086416" d="M70.355,93.047a9.109,9.109,0,1,0,9.109,9.109A9.119,9.119,0,0,0,70.355,93.047Zm0,16.489a7.333,7.333,0,0,1-3.732-1.017,4.565,4.565,0,0,1,2.486-1.738,4.778,4.778,0,0,0,2.492,0,4.565,4.565,0,0,1,2.486,1.738A7.333,7.333,0,0,1,70.355,109.536Zm-3.062-7.38a3.062,3.062,0,1,1,3.062,3.062A3.065,3.065,0,0,1,67.293,102.156Zm8.172,5.318a6.293,6.293,0,0,0-1.929-1.74,4.79,4.79,0,1,0-6.361,0,6.291,6.291,0,0,0-1.929,1.74,7.38,7.38,0,1,1,10.219,0Z" transform="translate(-55.718 -82.323)"/>
        <path id="Trazado_1086417" data-name="Trazado 1086417" d="M66.491,299.323H63.955a.981.981,0,0,1-.98-.98.864.864,0,1,0-1.729,0,2.712,2.712,0,0,0,2.709,2.709h.4v.826a.864.864,0,0,0,1.729,0v-.826h.4a2.712,2.712,0,0,0,2.709-2.709V297.8a2.712,2.712,0,0,0-2.709-2.709H63.955a.981.981,0,0,1-.98-.98v-.538a.981.981,0,0,1,.98-.98h2.536a.981.981,0,0,1,.98.98.864.864,0,0,0,1.729,0,2.712,2.712,0,0,0-2.709-2.709h-.4v-.826a.864.864,0,0,0-1.729,0v.826h-.4a2.712,2.712,0,0,0-2.709,2.709v.538a2.712,2.712,0,0,0,2.709,2.709h2.536a.981.981,0,0,1,.98.98v.538A.981.981,0,0,1,66.491,299.323Z" transform="translate(-55.718 -255.85)"/>
        <path id="Trazado_1086418" data-name="Trazado 1086418" d="M149.784,295.312h-5.419a.864.864,0,1,0,0,1.729h5.419a.864.864,0,1,0,0-1.729Z" transform="translate(-128.492 -261.277)"/>
        <path id="Trazado_1086419" data-name="Trazado 1086419" d="M149.784,327.164h-5.419a.864.864,0,1,0,0,1.729h5.419a.864.864,0,1,0,0-1.729Z" transform="translate(-128.492 -289.458)"/>
        <path id="Trazado_1086420" data-name="Trazado 1086420" d="M149.784,359.017h-5.419a.864.864,0,0,0,0,1.729h5.419a.864.864,0,0,0,0-1.729Z" transform="translate(-128.492 -317.639)"/>
        <path id="Trazado_1086421" data-name="Trazado 1086421" d="M149.784,390.868h-5.419a.864.864,0,1,0,0,1.729h5.419a.864.864,0,1,0,0-1.729Z" transform="translate(-128.492 -345.819)"/>
        <path id="Trazado_1086422" data-name="Trazado 1086422" d="M77.01,430.3H62.11a.864.864,0,1,0,0,1.729h14.9a.864.864,0,1,0,0-1.729Z" transform="translate(-55.718 -380.707)"/>
        <path id="Trazado_1086423" data-name="Trazado 1086423" d="M235.864,116.857H246.1a.864.864,0,0,0,0-1.729H235.864a.864.864,0,1,0,0,1.729Z" transform="translate(-209.447 -101.859)"/>
        <path id="Trazado_1086424" data-name="Trazado 1086424" d="M235.864,154.814h2.343a.864.864,0,1,0,0-1.729h-2.343a.864.864,0,0,0,0,1.729Z" transform="translate(-209.447 -135.442)"/>
        <path id="Trazado_1086425" data-name="Trazado 1086425" d="M285.792,153.085h-5.065a.864.864,0,0,0,0,1.729h5.065a.864.864,0,1,0,0-1.729Z" transform="translate(-249.138 -135.442)"/>
        <path id="Trazado_1086426" data-name="Trazado 1086426" d="M235.864,192.77H246.1a.864.864,0,0,0,0-1.729H235.864a.864.864,0,1,0,0,1.729Z" transform="translate(-209.447 -169.023)"/>
      </g>
    </g>
  </g>
</svg>
