<svg xmlns="http://www.w3.org/2000/svg" xmlns:xlink="http://www.w3.org/1999/xlink" width="103" height="103" viewBox="0 0 103 103">
  <defs>
    <filter id="Trazado_978624" x="0" y="0" width="103" height="103" filterUnits="userSpaceOnUse">
      <feOffset dy="3" input="SourceAlpha"/>
      <feGaussianBlur stdDeviation="3" result="blur"/>
      <feFlood flood-opacity="0.161"/>
      <feComposite operator="in" in2="blur"/>
      <feComposite in="SourceGraphic"/>
    </filter>
  </defs>
  <g id="Grupo_1217841" data-name="Grupo 1217841" transform="translate(-190.539 -8721.186)">
    <g id="Grupo_1216304" data-name="Grupo 1216304" transform="translate(25.039 7949.186)">
      <g id="Grupo_1177896" data-name="Grupo 1177896" transform="translate(-5.5 -2094)">
        <g id="Grupo_1176881" data-name="Grupo 1176881">
          <g id="Grupo_1175148" data-name="Grupo 1175148" transform="translate(0 1580)">
            <g id="Grupo_1173798" data-name="Grupo 1173798" transform="translate(-3 -3520)">
              <g id="Grupo_1171925" data-name="Grupo 1171925" transform="translate(-22 -2246)">
                <g id="Grupo_1164524" data-name="Grupo 1164524" transform="translate(205 7058)">
                  <g id="Grupo_1144123" data-name="Grupo 1144123">
                    <g transform="matrix(1, 0, 0, 1, -9, -6)" filter="url(#Trazado_978624)">
                      <g id="Trazado_978624-2" data-name="Trazado 978624" transform="translate(9 6)" fill="#edeef2">
                        <path d="M 42.5 83.5 C 36.96437835693359 83.5 31.59512901306152 82.41617584228516 26.54141235351562 80.27863311767578 C 21.65934181213379 78.21369171142578 17.27447128295898 75.25723266601562 13.50862312316895 71.49137878417969 C 9.742764472961426 67.72553253173828 6.786305904388428 63.34066009521484 4.721364498138428 58.45858764648438 C 2.583823442459106 53.40486907958984 1.5 48.03562164306641 1.5 42.5 C 1.5 36.96437835693359 2.583823442459106 31.59512901306152 4.721364498138428 26.54141235351562 C 6.786305904388428 21.65934181213379 9.742764472961426 17.27447128295898 13.50862312316895 13.50862312316895 C 17.27447128295898 9.742764472961426 21.65934181213379 6.786305904388428 26.54141235351562 4.721364498138428 C 31.59512901306152 2.583823442459106 36.96437835693359 1.5 42.5 1.5 C 48.03562164306641 1.5 53.40486907958984 2.583823442459106 58.45858764648438 4.721364498138428 C 63.34066009521484 6.786305904388428 67.72553253173828 9.742764472961426 71.49137878417969 13.50862312316895 C 75.25723266601562 17.27447128295898 78.21369171142578 21.65934181213379 80.27863311767578 26.54141235351562 C 82.41617584228516 31.59512901306152 83.5 36.96437835693359 83.5 42.5 C 83.5 48.03562164306641 82.41617584228516 53.40486907958984 80.27863311767578 58.45858764648438 C 78.21369171142578 63.34066009521484 75.25723266601562 67.72553253173828 71.49137878417969 71.49137878417969 C 67.72553253173828 75.25723266601562 63.34066009521484 78.21369171142578 58.45858764648438 80.27863311767578 C 53.40486907958984 82.41617584228516 48.03562164306641 83.5 42.5 83.5 Z" stroke="none"/>
                        <path d="M 42.5 3 C 37.16621398925781 3 31.99356079101562 4.043960571289062 27.125732421875 6.102882385253906 C 22.42246627807617 8.092185974121094 18.19785308837891 10.94070434570312 14.56928253173828 14.56928253173828 C 10.94070434570312 18.19785308837891 8.092185974121094 22.42246627807617 6.102882385253906 27.125732421875 C 4.043960571289062 31.99356079101562 3 37.16621398925781 3 42.5 C 3 47.83378601074219 4.043960571289062 53.00643920898438 6.102882385253906 57.87425231933594 C 8.092185974121094 62.57753372192383 10.94070434570312 66.80213165283203 14.56928253173828 70.43071746826172 C 18.19786834716797 74.05929565429688 22.42246627807617 76.90781402587891 27.125732421875 78.89711761474609 C 31.99356079101562 80.95603942871094 37.16621398925781 82 42.5 82 C 47.83378601074219 82 53.00642395019531 80.95603942871094 57.87425231933594 78.89711761474609 C 62.57753372192383 76.90781402587891 66.80213165283203 74.05929565429688 70.43071746826172 70.43071746826172 C 74.05929565429688 66.80213165283203 76.90781402587891 62.57753372192383 78.89711761474609 57.87425231933594 C 80.95603942871094 53.00642395019531 82 47.83378601074219 82 42.5 C 82 37.16621398925781 80.95603942871094 31.99356079101562 78.89711761474609 27.125732421875 C 76.90781402587891 22.42246627807617 74.05929565429688 18.19786834716797 70.43071746826172 14.56928253173828 C 66.80213165283203 10.94070434570312 62.57753372192383 8.092185974121094 57.87425231933594 6.102882385253906 C 53.00643920898438 4.043960571289062 47.83378601074219 3 42.5 3 M 42.5 0 C 65.97209167480469 0 85 19.02789306640625 85 42.5 C 85 65.97209167480469 65.97209167480469 85 42.5 85 C 19.02789306640625 85 0 65.97209167480469 0 42.5 C 0 19.02789306640625 19.02789306640625 0 42.5 0 Z" stroke="none" fill="#56678d"/>
                      </g>
                    </g>
                  </g>
                </g>
              </g>
            </g>
          </g>
        </g>
      </g>
    </g>
    <g id="institucion" transform="translate(202.529 8733.165)">
      <path id="Trazado_1086493" data-name="Trazado 1086493" d="M423.76,406.445v6.945h-4.63L414.5,399.5Z" transform="translate(-350.527 -337.842)" fill="#ffc266"/>
      <path id="Trazado_1086494" data-name="Trazado 1086494" d="M37.5,343.02v6.945h62.815V324.5Z" transform="translate(-31.712 -274.418)" fill="#ffd966"/>
      <path id="Trazado_1086495" data-name="Trazado 1086495" d="M414.5,202.5h9.26v9.26H414.5Z" transform="translate(-350.527 -171.247)" fill="#ffc266"/>
      <path id="Trazado_1086496" data-name="Trazado 1086496" d="M37.5,202.5h62.815v9.26H37.5Z" transform="translate(-31.712 -171.247)" fill="#ffd966"/>
      <path id="Trazado_1086497" data-name="Trazado 1086497" d="M324.5,262.5l18.52,28.089h4.63V262.5Z" transform="translate(-274.418 -221.987)" fill="#ffab5c"/>
      <path id="Trazado_1086498" data-name="Trazado 1086498" d="M37.5,262.5v28.089h62.815v-4.63L98,283.644v-9.569h2.315V262.5Z" transform="translate(-31.712 -221.987)" fill="#ffc266"/>
      <path id="Trazado_1086499" data-name="Trazado 1086499" d="M67.5,324.815V336.7h4.63V324.815a2.315,2.315,0,0,0-4.63,0Z" transform="translate(-57.082 -272.726)" fill="#ad6549"/>
      <path id="Trazado_1086500" data-name="Trazado 1086500" d="M419.13,324.815V336.7H414.5V324.815a2.315,2.315,0,0,1,4.63,0Z" transform="translate(-350.527 -272.726)" fill="#ad6549"/>
      <path id="Trazado_1086501" data-name="Trazado 1086501" d="M157.5,277.5h30.4v32.719H157.5Z" transform="translate(-133.192 -234.671)" fill="#ffd966"/>
      <path id="Trazado_1086502" data-name="Trazado 1086502" d="M314.13,7.5H309.5l2.315,9.26h2.315a2.316,2.316,0,0,1,2.315,2.315V9.815A2.316,2.316,0,0,0,314.13,7.5Z" transform="translate(-261.733 -6.342)" fill="#ff5474"/>
      <path id="Trazado_1086503" data-name="Trazado 1086503" d="M264.257,7.5H256v9.26h10.572V9.815A2.316,2.316,0,0,0,264.257,7.5Z" transform="translate(-216.49 -6.342)" fill="#ff7a94"/>
      <path id="Trazado_1086504" data-name="Trazado 1086504" d="M314.13,67.5h-2.315L309.5,72.13h4.63a2.315,2.315,0,1,0,0-4.63Z" transform="translate(-261.733 -57.082)" fill="#f23a5d"/>
      <path id="Trazado_1086505" data-name="Trazado 1086505" d="M299.13,69.815V67.5H294.5v4.63h2.315A2.315,2.315,0,0,0,299.13,69.815Z" transform="translate(-249.048 -57.082)" fill="#ff5474"/>
      <path id="Trazado_1086506" data-name="Trazado 1086506" d="M239.13,337.5l-4.63,11.575,9.26-4.63V337.5Z" transform="translate(-198.308 -285.411)" fill="#fff5d6"/>
      <path id="Trazado_1086507" data-name="Trazado 1086507" d="M224.754,337.5v11.575l-7.254-4.63V337.5Z" transform="translate(-183.932 -285.411)" fill="#fff"/>
      <path id="Trazado_1086508" data-name="Trazado 1086508" d="M229.384,382.5v16.514H217.5l7.254-16.514Z" transform="translate(-183.932 -323.466)" fill="#ad6549"/>
      <path id="Trazado_1086509" data-name="Trazado 1086509" d="M217.5,382.5h7.254v16.514H217.5Z" transform="translate(-183.932 -323.466)" fill="#c7785a"/>
      <path id="Trazado_1086510" data-name="Trazado 1086510" d="M449.13,187.5H444.5v4.63h4.63a2.315,2.315,0,1,0,0-4.63Z" transform="translate(-375.897 -158.562)" fill="#ffd966"/>
      <path id="Trazado_1086511" data-name="Trazado 1086511" d="M142.5,292.5h6.945v30.4H142.5Z" transform="translate(-120.507 -247.356)" fill="#ffe8a3"/>
      <path id="Trazado_1086512" data-name="Trazado 1086512" d="M127.5,292.5h4.63v30.4H127.5Z" transform="translate(-107.822 -247.356)" fill="#fff5d6"/>
      <path id="Trazado_1086513" data-name="Trazado 1086513" d="M157.5,262.5v6.945h4.63a4.63,4.63,0,0,0,4.63-4.63V262.5Z" transform="translate(-133.192 -221.987)" fill="#fff5d6"/>
      <path id="Trazado_1086514" data-name="Trazado 1086514" d="M111.39,264.815V262.5H97.5v2.315a4.63,4.63,0,0,0,4.63,4.63h4.63A4.63,4.63,0,0,0,111.39,264.815Z" transform="translate(-82.452 -221.987)" fill="#fff"/>
      <path id="Trazado_1086515" data-name="Trazado 1086515" d="M339.5,292.5h6.945v30.4H339.5Z" transform="translate(-287.103 -247.356)" fill="#ffe8a3"/>
      <path id="Trazado_1086516" data-name="Trazado 1086516" d="M324.5,292.5h4.63v30.4H324.5Z" transform="translate(-274.418 -247.356)" fill="#fff5d6"/>
      <path id="Trazado_1086517" data-name="Trazado 1086517" d="M354.5,262.5v6.945h4.63a4.63,4.63,0,0,0,4.63-4.63V262.5Z" transform="translate(-299.788 -221.987)" fill="#fff5d6"/>
      <path id="Trazado_1086518" data-name="Trazado 1086518" d="M308.39,264.815V262.5H294.5v2.315a4.63,4.63,0,0,0,4.63,4.63h4.63A4.63,4.63,0,0,0,308.39,264.815Z" transform="translate(-249.048 -221.987)" fill="#fff"/>
      <path id="Trazado_1086519" data-name="Trazado 1086519" d="M449.13,247.5H444.5v4.63h4.63a2.315,2.315,0,1,0,0-4.63Z" transform="translate(-375.897 -209.302)" fill="#ffd966"/>
      <g id="Grupo_1217840" data-name="Grupo 1217840" transform="translate(3.473 28.938)">
        <path id="Trazado_1086520" data-name="Trazado 1086520" d="M89.945,249.815A2.316,2.316,0,0,0,87.63,247.5H24.815a2.315,2.315,0,0,0,0,4.63H87.63A2.316,2.316,0,0,0,89.945,249.815Z" transform="translate(-22.5 -238.24)" fill="#ffe8a3"/>
        <path id="Trazado_1086521" data-name="Trazado 1086521" d="M87.63,187.5H24.815a2.315,2.315,0,0,0,0,4.63H87.63a2.315,2.315,0,1,0,0-4.63Z" transform="translate(-22.5 -187.5)" fill="#ffe8a3"/>
        <path id="Trazado_1086522" data-name="Trazado 1086522" d="M449.13,474.5H444.5l4.63,4.63h4.63A4.63,4.63,0,0,0,449.13,474.5Z" transform="translate(-379.37 -430.205)" fill="#ffe8a3"/>
      </g>
      <path id="Trazado_1086523" data-name="Trazado 1086523" d="M74.945,474.5H12.13a4.63,4.63,0,0,0-4.63,4.63H79.575A4.63,4.63,0,0,0,74.945,474.5Z" transform="translate(-6.342 -401.267)" fill="#fff5d6"/>
      <path id="Trazado_1086524" data-name="Trazado 1086524" d="M146.425,124.075l-24.462,6.945L97.5,124.075,121.962,112.5Z" transform="translate(-82.452 -95.137)" fill="#ffe8a3"/>
      <path id="Trazado_1086525" data-name="Trazado 1086525" d="M97.5,187.5h48.925v9.26H97.5Z" transform="translate(-82.452 -158.562)" fill="#fff5d6"/>
      <path id="Trazado_1086526" data-name="Trazado 1086526" d="M74.39,72.192v-28.4a3.472,3.472,0,0,0,0-6.547V34.527a3.472,3.472,0,0,0-1.158-6.746h-9L40.668,16.63V11.575h3.627v3.473a1.157,1.157,0,0,0,1.158,1.158H52.4a3.477,3.477,0,0,0,3.473-3.473V3.473A3.477,3.477,0,0,0,52.4,0H39.51a1.158,1.158,0,0,0-1.158,1.158V16.63L14.788,27.781h-9A3.472,3.472,0,0,0,4.63,34.527V37.24a3.472,3.472,0,0,0,0,6.547V56.719a1.158,1.158,0,0,0,2.315,0V43.986h7.062A5.8,5.8,0,0,0,18.52,48.5V67.445H6.945v-6.1a1.158,1.158,0,1,0-2.315,0V72.192A5.8,5.8,0,0,0,0,77.863a1.158,1.158,0,0,0,1.158,1.158H77.863a1.157,1.157,0,0,0,1.158-1.158A5.8,5.8,0,0,0,74.39,72.192Zm-24.308-12a1.157,1.157,0,0,0-1.158,1.158V72.075H46.61V52.089a1.157,1.157,0,0,0-1.158-1.158H33.568a1.158,1.158,0,0,0-1.158,1.158V72.075H30.1V48.5a5.8,5.8,0,0,0,4.514-4.514h9.8A5.8,5.8,0,0,0,48.925,48.5v8.219a1.158,1.158,0,1,0,2.315,0v-8.1h6.945V72.075H51.24V61.349A1.157,1.157,0,0,0,50.082,60.191Zm-5.788-2.315H34.726v-4.63h9.569Zm-9.569,2.315h9.569V72.075H34.726ZM27.781,48.616V72.075H20.835V48.616ZM72.075,67.445H60.5V48.5a5.8,5.8,0,0,0,4.514-4.514h7.062ZM59.343,46.3h-9.26a3.478,3.478,0,0,1-3.273-2.315H62.616A3.478,3.478,0,0,1,59.343,46.3ZM60.5,69.76H72.075v2.315H60.5ZM13.89,34.726v2.315H6.945V34.726Zm2.315-4.63h46.61v6.945H16.205Zm48.925,4.63h6.945v2.315H65.13Zm9.26-3.473a1.159,1.159,0,0,1-1.158,1.158h-8.1V30.1h8.1A1.159,1.159,0,0,1,74.39,31.253ZM52.4,13.89H46.61V11.575H52.4a1.158,1.158,0,0,1,0,2.315Zm0-11.575a1.159,1.159,0,0,1,1.158,1.158V9.459a3.454,3.454,0,0,0-1.158-.2H40.668V2.315ZM39.51,18.643l19.31,9.137H20.2ZM5.788,30.1h8.1v2.315h-8.1a1.158,1.158,0,0,1,0-2.315Zm0,9.26H73.233a1.158,1.158,0,0,1,0,2.315H5.788a1.158,1.158,0,0,1,0-2.315ZM16.4,43.986H32.212A3.478,3.478,0,0,1,28.938,46.3h-9.26A3.478,3.478,0,0,1,16.4,43.986ZM18.52,69.76v2.315H6.945V69.76ZM2.513,76.705A3.479,3.479,0,0,1,5.788,74.39H73.233a3.479,3.479,0,0,1,3.274,2.315Z"/>
      <path id="Trazado_1086527" data-name="Trazado 1086527" d="M65.788,331.514a1.158,1.158,0,0,0,1.158-1.158V318.473a3.473,3.473,0,0,0-6.945,0v11.884a1.158,1.158,0,0,0,1.158,1.158Zm-3.473-13.042a1.158,1.158,0,1,1,2.315,0V329.2H62.315Z" transform="translate(-50.74 -266.384)"/>
      <path id="Trazado_1086528" data-name="Trazado 1086528" d="M407,318.473v11.884a1.157,1.157,0,0,0,1.158,1.158h4.63a1.157,1.157,0,0,0,1.158-1.158V318.473a3.473,3.473,0,0,0-6.945,0Zm4.63,0V329.2h-2.315V318.473a1.158,1.158,0,0,1,2.315,0Z" transform="translate(-344.185 -266.384)"/>
    </g>
  </g>
</svg>
