<svg xmlns="http://www.w3.org/2000/svg" xmlns:xlink="http://www.w3.org/1999/xlink" width="113" height="113" viewBox="0 0 113 113">
  <defs>
    <filter id="Trazado_982547" x="0" y="0" width="113" height="113" filterUnits="userSpaceOnUse">
      <feOffset dy="3" input="SourceAlpha"/>
      <feGaussianBlur stdDeviation="3" result="blur"/>
      <feFlood flood-opacity="0.161"/>
      <feComposite operator="in" in2="blur"/>
      <feComposite in="SourceGraphic"/>
    </filter>
  </defs>
  <g id="Grupo_1217874" data-name="Grupo 1217874" transform="translate(-587.234 -9696.844)">
    <g id="Grupo_1216306" data-name="Grupo 1216306" transform="translate(596.234 9702.844)">
      <g id="Grupo_1208705" data-name="Grupo 1208705">
        <g id="Grupo_1148633" data-name="Grupo 1148633">
          <g id="Grupo_1148525" data-name="Grupo 1148525">
            <g transform="matrix(1, 0, 0, 1, -9, -6)" filter="url(#Trazado_982547)">
              <g id="Trazado_982547-2" data-name="Trazado 982547" transform="translate(9 6)" fill="#e6d567">
                <path d="M 47.5 93.5 C 41.28937149047852 93.5 35.26533508300781 92.28397369384766 29.59518623352051 89.88570404052734 C 24.11771965026855 87.56893157958984 19.19813346862793 84.25196075439453 14.97309303283691 80.02691650390625 C 10.74804019927979 75.80186462402344 7.431066513061523 70.88229370117188 5.114293098449707 65.40481567382812 C 2.716026782989502 59.73468017578125 1.5 53.71062850952148 1.5 47.5 C 1.5 41.28937149047852 2.716026782989502 35.26533508300781 5.114293098449707 29.59518623352051 C 7.431066513061523 24.11771965026855 10.74804019927979 19.19813346862793 14.97309303283691 14.97309303283691 C 19.19813346862793 10.74804019927979 24.11771965026855 7.431066513061523 29.59518623352051 5.114293098449707 C 35.26533508300781 2.716026782989502 41.28937149047852 1.5 47.5 1.5 C 53.71062850952148 1.5 59.73468017578125 2.716026782989502 65.40481567382812 5.114293098449707 C 70.88229370117188 7.431066513061523 75.80186462402344 10.74804019927979 80.02691650390625 14.97309303283691 C 84.25196075439453 19.19813346862793 87.56893157958984 24.11771965026855 89.88570404052734 29.59518623352051 C 92.28397369384766 35.26533508300781 93.5 41.28937149047852 93.5 47.5 C 93.5 53.71062850952148 92.28397369384766 59.73468017578125 89.88570404052734 65.40481567382812 C 87.56893157958984 70.88229370117188 84.25196075439453 75.80186462402344 80.02691650390625 80.02691650390625 C 75.80186462402344 84.25196075439453 70.88229370117188 87.56893157958984 65.40481567382812 89.88570404052734 C 59.73468017578125 92.28397369384766 53.71062850952148 93.5 47.5 93.5 Z" stroke="none"/>
                <path d="M 47.5 3 C 41.49121475219727 3 35.66376876831055 4.176155090332031 30.17950439453125 6.495796203613281 C 24.88084411621094 8.736953735351562 20.12152099609375 11.94598388671875 16.03375244140625 16.03375244140625 C 11.94598388671875 20.12152099609375 8.736953735351562 24.88084411621094 6.495796203613281 30.17950439453125 C 4.176155090332031 35.66376876831055 3 41.49121475219727 3 47.5 C 3 53.50878524780273 4.176155090332031 59.33623123168945 6.495796203613281 64.82049560546875 C 8.736953735351562 70.11915588378906 11.94598388671875 74.87847900390625 16.03375244140625 78.96624755859375 C 20.12152099609375 83.05401611328125 24.88084411621094 86.26304626464844 30.17950439453125 88.50419616699219 C 35.66376876831055 90.82384490966797 41.49121475219727 92 47.5 92 C 53.50878524780273 92 59.33623123168945 90.82384490966797 64.82049560546875 88.50419616699219 C 70.11915588378906 86.26304626464844 74.87847900390625 83.05401611328125 78.96624755859375 78.96624755859375 C 83.05401611328125 74.87847900390625 86.26304626464844 70.11915588378906 88.50419616699219 64.82049560546875 C 90.82384490966797 59.33623123168945 92 53.50878524780273 92 47.5 C 92 41.49121475219727 90.82384490966797 35.66376876831055 88.50419616699219 30.17950439453125 C 86.26304626464844 24.88084411621094 83.05401611328125 20.12152099609375 78.96624755859375 16.03375244140625 C 74.87847900390625 11.94598388671875 70.11915588378906 8.736953735351562 64.82049560546875 6.495796203613281 C 59.33623123168945 4.176155090332031 53.50878524780273 3 47.5 3 M 47.5 0 C 73.7335205078125 0 95 21.2664794921875 95 47.5 C 95 73.7335205078125 73.7335205078125 95 47.5 95 C 21.2664794921875 95 0 73.7335205078125 0 47.5 C 0 21.2664794921875 21.2664794921875 0 47.5 0 Z" stroke="none" fill="#ba9c5a"/>
              </g>
            </g>
          </g>
        </g>
      </g>
    </g>
    <g id="dialogo" transform="translate(604.431 9719.236)">
      <g id="Grupo_1217872" data-name="Grupo 1217872" transform="translate(1.151 1.152)">
        <path id="Trazado_1086549" data-name="Trazado 1086549" d="M340.182,228.115a4.778,4.778,0,0,1-1.473-1.084,5.43,5.43,0,0,1-1.029-2.4l.381-5.777v-3.311a10.126,10.126,0,0,0-7.49-9.775h-1.84l-4.555,2.393-1.737,3.751v12.732l-3.987,4.905v3.724l2.646,3.3h16.122l1.649-.882C342.273,234.067,341.945,229.024,340.182,228.115Z" transform="translate(-270.71 -175.329)" fill="#c464b0"/>
        <path id="Trazado_1086550" data-name="Trazado 1086550" d="M181.685,7.5H152.912c-.914.175-1.714.333-1.714.333L148.78,9.867l-.711,1.612v15.75l1.261,2.457,2.252,1.177,1.71.417h3.559a4.374,4.374,0,0,1,.9.095h6.02l1.926.844,1.5,2.1.759.219.8-1.243a4.372,4.372,0,0,1,3.681-2.013h9.257a5.669,5.669,0,0,0,5.669-5.669V13.169a5.67,5.67,0,0,0-5.67-5.669Z" transform="translate(-126.487 -7.5)" fill="#00c2fb"/>
        <path id="Trazado_1086551" data-name="Trazado 1086551" d="M298.1,226.2a4.777,4.777,0,0,0,1.473-1.084,5.428,5.428,0,0,0,1.028-2.4l-.381-5.788v-3.043a10.136,10.136,0,0,1,7.5-10.035,10.128,10.128,0,0,0-12.756,10.035v3.043l.381,5.788a5.428,5.428,0,0,1-1.028,2.4,4.779,4.779,0,0,1-1.473,1.084c-1.78.918-2.3,6.051,1.187,7.625l1.172.835h5.258l-1.172-.835c-3.483-1.574-2.967-6.707-1.187-7.625Z" transform="translate(-247.853 -173.409)" fill="#b551a1"/>
        <path id="Trazado_1086552" data-name="Trazado 1086552" d="M180.5,282h-.751l-.563.435h-1.075v4.324l.35,1.1H180.5a2.93,2.93,0,0,0,0-5.86Z" transform="translate(-151.92 -239.854)" fill="#ffa68e"/>
        <path id="Trazado_1086553" data-name="Trazado 1086553" d="M53.811,282.557H52.97a2.929,2.929,0,0,0,.693,5.774H55.7l.541-.666v-4.55H54.553Z" transform="translate(-44.095 -240.327)" fill="#ffa68e"/>
        <path id="Trazado_1086554" data-name="Trazado 1086554" d="M73.633,403.537V403.4a6.914,6.914,0,0,0-4.038-6.263l-5.238-2.028L62.85,395.1l-.747-.216-3.293,3.691H52.385s-2.774-2.22-4.827-3.8l-1.184.322h-1.63l-1.431.559-1.605,1.115-1.151,2.67v12.18l1.151-.921,1.151.921h8.76l2.937-1.586,2.937,1.586h8.761l1.512-.921.791.921h3.6a1.475,1.475,0,0,0,1.475-1.475l.351-.725V404.1Z" transform="translate(-35.481 -335.32)" fill="#c9f0fe"/>
        <g id="Grupo_1217867" data-name="Grupo 1217867" transform="translate(0 60.34)">
          <path id="Trazado_1086555" data-name="Trazado 1086555" d="M13.029,405.645a6.9,6.9,0,0,1,2.3-5.13L11.534,402A6.914,6.914,0,0,0,7.5,408.26V415a1.475,1.475,0,0,0,1.475,1.475h3.6l.457-.365Z" transform="translate(-7.496 -400.515)" fill="#9be8fd"/>
        </g>
        <path id="Trazado_1086556" data-name="Trazado 1086556" d="M136.288,364.842l-.68-1.086-.423-.164a.747.747,0,0,1-.477-.694l0-2.454-2.022-.527h-2.315v9.148h4.465l3.293-3.691Z" transform="translate(-111.504 -305.81)" fill="#ffb1a0"/>
        <path id="Trazado_1086557" data-name="Trazado 1086557" d="M93.158,359.916H90.221l-1.2.516v2.46a.687.687,0,0,1-.318.6l-.6.235-.661,1.188-1.284.349c2.052,1.576,4.827,3.8,4.827,3.8h2.172v-9.148Z" transform="translate(-74.082 -305.809)" fill="#ffa68e"/>
        <path id="Trazado_1086558" data-name="Trazado 1086558" d="M117.485,413.964l-.948-1.126-.349-.165h-3.279l-.6.242-.878,1.151v.592l1.226,2.986.632.222h2.687l.467-.222,1.226-2.986Z" transform="translate(-95.473 -350.465)" fill="#ff7ab9"/>
        <path id="Trazado_1086559" data-name="Trazado 1086559" d="M112.616,454.182h5.873l-1.044-9.126H113.66Z" transform="translate(-96.477 -377.877)" fill="#ff5ca8"/>
        <path id="Trazado_1086560" data-name="Trazado 1086560" d="M124.782,265.166h-1.5l-2.906,2.67h-3.97v7.412l.738,2.047,1.043,1.766,2.371,1.881h.964a7.374,7.374,0,0,0,4.709-6.866v-5.339Z" transform="translate(-99.687 -225.606)" fill="#ffcebe"/>
        <g id="Grupo_1217868" data-name="Grupo 1217868" transform="translate(11.606 42.23)">
          <path id="Trazado_1086561" data-name="Trazado 1086561" d="M88.568,288.8v-5.28l.877-.959H83.969l-.877.959v5.28a7.54,7.54,0,0,0,10.231,6.866A7.314,7.314,0,0,1,88.568,288.8Z" transform="translate(-83.092 -282.557)" fill="#ffb1a0"/>
        </g>
        <path id="Trazado_1086562" data-name="Trazado 1086562" d="M67.829,386.629l4.794,4.912a.973.973,0,0,0,1.381.012l1.466-1.45a1.874,1.874,0,0,0-.045-2.707l-2.836-2.626Z" transform="translate(-58.566 -326.847)" fill="#9be8fd"/>
        <path id="Trazado_1086563" data-name="Trazado 1086563" d="M144.291,391.679a.973.973,0,0,0,1.381-.012l4.782-4.9-4.772-1.848-2.812,2.6a1.874,1.874,0,0,0-.045,2.707Z" transform="translate(-121.577 -326.973)" fill="#9be8fd"/>
        <path id="Trazado_1086564" data-name="Trazado 1086564" d="M316.411,403.14l-3.7-1.431-2.982,1.183H291.488L290,401.718l-.688.267-1.408,1.112-.839,1.945v10.325l2.3,2.123h24l1.152-1.087,1.151,1.087h3.3a1.475,1.475,0,0,0,1.475-1.475V409.4A6.914,6.914,0,0,0,316.411,403.14Z" transform="translate(-244.145 -341.186)" fill="#ffe02f"/>
        <g id="Grupo_1217869" data-name="Grupo 1217869" transform="translate(38.152 60.799)">
          <path id="Trazado_1086565" data-name="Trazado 1086565" d="M261.021,408.338a6.867,6.867,0,0,1,1.989-4.831l-2.98,1.155a6.914,6.914,0,0,0-4.038,6.263v6.611a1.475,1.475,0,0,0,1.475,1.475h3.3l.257-.191Z" transform="translate(-255.993 -403.507)" fill="#fbc700"/>
        </g>
        <path id="Trazado_1086566" data-name="Trazado 1086566" d="M392.1,392l-1.088.257-1.407,1.791L386,395.629l-.595.806,1.785,3.547a1.938,1.938,0,0,0,2.579.871,11.877,11.877,0,0,0,6.186-7.367Z" transform="translate(-327.384 -332.963)" fill="#fbc700"/>
        <path id="Trazado_1086567" data-name="Trazado 1086567" d="M313.419,394.788l-2.668-2.729h-.724l-3.846,1.491a11.52,11.52,0,0,0,6.239,7.375,1.927,1.927,0,0,0,2.525-.9l1.789-3.556-.814-1.4Z" transform="translate(-260.324 -333.017)" fill="#fbc700"/>
        <path id="Trazado_1086568" data-name="Trazado 1086568" d="M302.053,290.545a2.93,2.93,0,0,0,0,5.86h2.208l.8-1.057v-4.231l-.823-.572Z" transform="translate(-254.349 -247.089)" fill="#ffa68e"/>
        <path id="Trazado_1086569" data-name="Trazado 1086569" d="M424.329,290.545H422.18l-1.067.483v4.4l1.035.98h2.18a2.93,2.93,0,0,0,0-5.86Z" transform="translate(-357.61 -247.089)" fill="#ffa68e"/>
        <g id="Grupo_1217870" data-name="Grupo 1217870" transform="translate(15.437 0)">
          <path id="Trazado_1086570" data-name="Trazado 1086570" d="M114.663,25.61V13.169A5.669,5.669,0,0,1,120.332,7.5H113.71a5.669,5.669,0,0,0-5.669,5.669V25.61a5.669,5.669,0,0,0,5.669,5.669h6.622A5.669,5.669,0,0,1,114.663,25.61Z" transform="translate(-108.041 -7.5)" fill="#00abf2"/>
          <path id="Trazado_1086571" data-name="Trazado 1086571" d="M215.566,164.4a4.372,4.372,0,0,0-3.681-2.013h-6.622a4.372,4.372,0,0,1,3.681,2.013l2.129,3.323a2.35,2.35,0,0,0,3.956,0l1.333-2.08Z" transform="translate(-190.336 -138.603)" fill="#00abf2"/>
        </g>
        <path id="Trazado_1086572" data-name="Trazado 1086572" d="M382.834,364.359a.747.747,0,0,1-.477-.694l0-2.5-1.561-.5h-2.93v8.444l.452.835a8.407,8.407,0,0,0,7.4-4.47Z" transform="translate(-321 -306.445)" fill="#ffb1a0"/>
        <path id="Trazado_1086573" data-name="Trazado 1086573" d="M338.756,360.666H335.1l-.48.511v2.482c0,.571-.51.709-.727.793h0l-2.665,1.033a8.43,8.43,0,0,0,7.525,4.458v-9.278Z" transform="translate(-281.527 -306.444)" fill="#ffa68e"/>
        <path id="Trazado_1086574" data-name="Trazado 1086574" d="M109.069,206.906a1.374,1.374,0,0,1-1.484-1.081c-.228-1.166-.805-2.324-3.061-2.324h-3.438c-.688.162-1.362.332-1.362.332l-1.606.787-1.42,2.226v7.677l.793,1.574.723.4.6.1h3.758a5.2,5.2,0,0,0,4.587-2.752.139.139,0,0,1,.261.066A2.693,2.693,0,0,0,110.1,216.6a1.412,1.412,0,0,0,1.407-1.407v-5.955a2.332,2.332,0,0,0-2.441-2.329Z" transform="translate(-83.002 -173.41)" fill="#c464b0"/>
        <g id="Grupo_1217871" data-name="Grupo 1217871" transform="translate(8.497 30.093)">
          <path id="Trazado_1086575" data-name="Trazado 1086575" d="M68.313,214.41V208.7a5.2,5.2,0,0,1,5.2-5.2H68.037a5.2,5.2,0,0,0-5.2,5.2v5.707a2.19,2.19,0,0,0,2.19,2.19H70.5A2.19,2.19,0,0,1,68.313,214.41Z" transform="translate(-62.837 -203.503)" fill="#b551a1"/>
        </g>
        <path id="Trazado_1086576" data-name="Trazado 1086576" d="M372.362,271.613c-.226,0-.251-.006-1.518-.114a4.261,4.261,0,0,1-3.707-3.224.123.123,0,0,0-.24,0,4.306,4.306,0,0,1-2.143,2.755l-.136.986v6.41l1.164,3.454,2.687,1.806h1.093a7.113,7.113,0,0,0,1.582-.81,7.365,7.365,0,0,0,3.183-5.4h0c.02-.217.031-.435.031-.656v-5.2Z" transform="translate(-309.789 -228.157)" fill="#ffcebe"/>
        <path id="Trazado_1086577" data-name="Trazado 1086577" d="M340.71,298.607a7.2,7.2,0,0,1-3.183-5.417h0c-.016-.194-.026-.389-.026-.585v-5.858a4.047,4.047,0,0,1-1.6.477c.1-.008-1.3.107-1.554.107h-1.92v5.275c0,.2.01.391.026.585h0a7.2,7.2,0,0,0,3.183,5.417,7.553,7.553,0,0,0,6.677.8A7.314,7.314,0,0,1,340.71,298.607Z" transform="translate(-282.535 -243.874)" fill="#ffb1a0"/>
      </g>
      <g id="Grupo_1217873" data-name="Grupo 1217873" transform="translate(0 0)">
        <path id="Trazado_1086578" data-name="Trazado 1086578" d="M189.884,41.382H163.4a1.151,1.151,0,0,0,0,2.3h26.484a1.151,1.151,0,1,0,0-2.3Z" transform="translate(-137.338 -35.029)"/>
        <path id="Trazado_1086579" data-name="Trazado 1086579" d="M189.884,75.632H163.4a1.151,1.151,0,0,0,0,2.3h26.484a1.151,1.151,0,1,0,0-2.3Z" transform="translate(-137.338 -64.02)"/>
        <path id="Trazado_1086580" data-name="Trazado 1086580" d="M189.884,109.882H163.4a1.151,1.151,0,0,0,0,2.3h26.484a1.151,1.151,0,1,0,0-2.3Z" transform="translate(-137.338 -93.012)"/>
        <path id="Trazado_1086581" data-name="Trazado 1086581" d="M73.856,227.95l-.022-.009-2.223-.861c2.27-2.638,1.738-7.124-.46-8.258a3.648,3.648,0,0,1-1.126-.809,3.083,3.083,0,0,1-.477-.848,4.08,4.08,0,0,0,.106-7.39v-2.5a11.276,11.276,0,1,0-22.549.259v2.225a4.08,4.08,0,0,0,.1,7.419,3.059,3.059,0,0,1-.472.836,3.644,3.644,0,0,1-1.126.809c-2.188,1.129-2.888,5.655-.607,8.314l-2.076.8-.021.009a7.853,7.853,0,0,0-3.561,3.123,7.875,7.875,0,0,0-3.639-3.256l-.023-.009-10.009-3.876h0l-.164-.063v-1.582a8.509,8.509,0,0,0,3.313-6.071h.917A4.081,4.081,0,0,0,30.81,208.2v-5.311a3.483,3.483,0,0,0-3.68-3.477h0a.236.236,0,0,1-.266-.154C26.442,197.1,25.032,196,22.673,196H14.848A6.359,6.359,0,0,0,8.5,202.353v5.707a3.339,3.339,0,0,0,.058.617,4.08,4.08,0,0,0,2.165,7.539h.917a8.617,8.617,0,0,0,3.306,6.065v1.556l-.188.073h0l-9.985,3.9-.019.008A8.032,8.032,0,0,0,0,235.145v6.744a2.63,2.63,0,0,0,2.627,2.627h35.2a2.611,2.611,0,0,0,1.475-.455,2.612,2.612,0,0,0,1.475.455H55.693a1.151,1.151,0,0,0,0-2.3H46.378v-7.842a1.151,1.151,0,0,0-2.3,0v7.842h-3.3a.324.324,0,0,1-.324-.324v-6.611a5.762,5.762,0,0,1,3.314-5.194l2.53-.981a12.661,12.661,0,0,0,6.462,6.909A3.061,3.061,0,0,0,56.8,234.59l1.449-2.881c.071,0,.141,0,.212,0h.015l1.451,2.884a3.1,3.1,0,0,0,4.112,1.389,12.99,12.99,0,0,0,6.381-6.9l2.568.995a5.762,5.762,0,0,1,3.314,5.194v6.611a.324.324,0,0,1-.324.324h-3.3v-7.842a1.151,1.151,0,1,0-2.3,0v7.842H61.067a1.151,1.151,0,1,0,0,2.3H75.981a2.63,2.63,0,0,0,2.627-2.627v-6.611a8.031,8.031,0,0,0-4.751-7.328ZM28.849,211.33a2.6,2.6,0,0,0,1.4-.9,1.779,1.779,0,0,1-.518,3.48h-.887Zm-17.242,2.583H10.72a1.778,1.778,0,0,1-.986-3.258,3.357,3.357,0,0,0,1.872.738v2.52Zm.231-4.815A1.042,1.042,0,0,1,10.8,208.06v-5.707a4.053,4.053,0,0,1,4.049-4.048h7.825c1.539,0,1.771.577,1.931,1.393a2.529,2.529,0,0,0,2.7,2.008,1.183,1.183,0,0,1,1.2,1.181v5.955a.263.263,0,0,1-.256.256,1.541,1.541,0,0,1-1.534-1.534,1.29,1.29,0,0,0-2.427-.609,4.045,4.045,0,0,1-3.572,2.143H11.838Zm2.072,6.432V211.4h6.81a6.363,6.363,0,0,0,4.339-1.713A3.863,3.863,0,0,0,26.545,211v4.532a6.319,6.319,0,0,1-12.636,0Zm9.55,9.571-1.8,1.663a3,3,0,0,0-.842,1.352H19.634a3,3,0,0,0-.842-1.352l-1.8-1.667a1.861,1.861,0,0,0,.254-.953v-.614a9.4,9.4,0,0,0,3.088.515,8.562,8.562,0,0,0,2.87-.5v.606A1.9,1.9,0,0,0,23.459,225.1Zm-7.2,17.113H8.53v-7.974a1.151,1.151,0,1,0-2.3,0v7.974h-3.6a.324.324,0,0,1-.324-.324v-6.744a5.761,5.761,0,0,1,3.316-5.195l4.5-1.759,4.261,4.367a2.117,2.117,0,0,0,2.228.518l.544,1.326Zm.982-12.716-1.338,1.324-3.454-3.54,2.468-.964,2.307,2.136A.722.722,0,0,1,17.245,229.5Zm1.336,12.716.78-6.823h1.731l.78,6.823Zm2.767-9.126H19.107l-.64-1.559.4-.394a3.286,3.286,0,0,0,.537-.716h1.651a3.2,3.2,0,0,0,.537.716l.4.395Zm1.878-4.634,2.284-2.114,2.475.959-3.438,3.524-1.323-1.309A.722.722,0,0,1,23.227,228.454Zm14.925,13.436a.324.324,0,0,1-.324.324h-3.6v-7.974a1.151,1.151,0,1,0-2.3,0v7.974H24.191L23.3,234.4l.544-1.326a2.117,2.117,0,0,0,2.229-.518l4.251-4.356,4.516,1.749a5.762,5.762,0,0,1,3.314,5.194v6.744Zm31.5-28.443a1.781,1.781,0,0,1-1.779,1.779h-1v-3.557h1A1.783,1.783,0,0,1,69.649,213.447Zm-20.241-5.911a8.974,8.974,0,1,1,17.944-.259v2.089H63.726c-.155,0-.129,0-1.422-.11a3.13,3.13,0,0,1-2.685-2.348,1.272,1.272,0,0,0-1.239-.976h0a1.272,1.272,0,0,0-1.239.976,3.13,3.13,0,0,1-2.74,2.357c-.255.021-1.27.1-1.442.1h-3.55v-1.83Zm15.162,4.133v4.052a6.191,6.191,0,0,1-12.381.071v-4.123h.77c2.256,0,4.05-.415,5.422-2.167a5.357,5.357,0,0,0,3.728,2.049c1.3.111,1.34.118,1.616.118h.845Zm-17.493,1.779a1.781,1.781,0,0,1,1.779-1.779h1.031v3.557H48.855a1.781,1.781,0,0,1-1.779-1.779Zm-.413,7.423a5.1,5.1,0,0,0,2.863-3.342h.543a8.271,8.271,0,0,0,3.026,4.855V224l-5.7,2.209c-2.159-1.377-1.587-4.9-.735-5.337Zm8.08,12.685a.778.778,0,0,1-1.01.369,10.363,10.363,0,0,1-5.288-5.653l1.921-.745a9.387,9.387,0,0,0,5.472,3.852Zm3.751-4.145h-.024a7.432,7.432,0,0,1-5.881-2.746c1.494-.579,2.808-.871,2.808-2.389v-.625a8.742,8.742,0,0,0,5.958.012v.621a1.887,1.887,0,0,0,1.213,1.765l1.561.6a7.192,7.192,0,0,1-5.635,2.757Zm4.538,4.505a.789.789,0,0,1-1.047-.353L60.9,231.4a9.585,9.585,0,0,0,5.456-3.886l1.846.715.077.03A10.687,10.687,0,0,1,63.033,233.916Zm6.188-7.761L63.659,224V222.36a8.467,8.467,0,0,0,3.017-4.831h.558A5.1,5.1,0,0,0,70.1,220.87C70.913,221.291,71.344,224.738,69.221,226.154Z" transform="translate(0 -165.909)"/>
        <path id="Trazado_1086582" data-name="Trazado 1086582" d="M107.367,26.082h9.257a3.207,3.207,0,0,1,2.712,1.483l2.129,3.323a3.5,3.5,0,0,0,5.9,0l2.129-3.323a3.207,3.207,0,0,1,2.712-1.483h9.257a6.829,6.829,0,0,0,6.821-6.821V15.45a1.151,1.151,0,0,0-2.3,0v3.811a4.523,4.523,0,0,1-4.518,4.518H132.2a5.5,5.5,0,0,0-4.651,2.544l-2.129,3.323a1.2,1.2,0,0,1-2.017,0l-2.129-3.323a5.5,5.5,0,0,0-4.651-2.544h-9.257a4.523,4.523,0,0,1-4.518-4.518V6.821A4.523,4.523,0,0,1,107.367,2.3h34.092a4.523,4.523,0,0,1,4.518,4.518v3.256a1.151,1.151,0,0,0,2.3,0V6.821A6.828,6.828,0,0,0,141.459,0H107.367a6.829,6.829,0,0,0-6.821,6.821V19.261a6.829,6.829,0,0,0,6.821,6.821Z" transform="translate(-85.109 0)"/>
      </g>
    </g>
  </g>
</svg>
