<svg xmlns="http://www.w3.org/2000/svg" xmlns:xlink="http://www.w3.org/1999/xlink" width="113" height="113" viewBox="0 0 113 113">
  <defs>
    <filter id="Trazado_982547" x="0" y="0" width="113" height="113" filterUnits="userSpaceOnUse">
      <feOffset dy="3" input="SourceAlpha"/>
      <feGaussianBlur stdDeviation="3" result="blur"/>
      <feFlood flood-opacity="0.161"/>
      <feComposite operator="in" in2="blur"/>
      <feComposite in="SourceGraphic"/>
    </filter>
  </defs>
  <g id="Grupo_1217906" data-name="Grupo 1217906" transform="translate(-902.234 -9696.844)">
    <g id="Grupo_1216307" data-name="Grupo 1216307" transform="translate(911.234 9702.844)">
      <g id="Grupo_1208705" data-name="Grupo 1208705">
        <g id="Grupo_1148633" data-name="Grupo 1148633">
          <g id="Grupo_1148525" data-name="Grupo 1148525">
            <g transform="matrix(1, 0, 0, 1, -9, -6)" filter="url(#Trazado_982547)">
              <g id="Trazado_982547-2" data-name="Trazado 982547" transform="translate(9 6)" fill="#e6d567">
                <path d="M 47.5 93.5 C 41.28937149047852 93.5 35.26533508300781 92.28397369384766 29.59518623352051 89.88570404052734 C 24.11771965026855 87.56893157958984 19.19813346862793 84.25196075439453 14.97309303283691 80.02691650390625 C 10.74804019927979 75.80186462402344 7.431066513061523 70.88229370117188 5.114293098449707 65.40481567382812 C 2.716026782989502 59.73468017578125 1.5 53.71062850952148 1.5 47.5 C 1.5 41.28937149047852 2.716026782989502 35.26533508300781 5.114293098449707 29.59518623352051 C 7.431066513061523 24.11771965026855 10.74804019927979 19.19813346862793 14.97309303283691 14.97309303283691 C 19.19813346862793 10.74804019927979 24.11771965026855 7.431066513061523 29.59518623352051 5.114293098449707 C 35.26533508300781 2.716026782989502 41.28937149047852 1.5 47.5 1.5 C 53.71062850952148 1.5 59.73468017578125 2.716026782989502 65.40481567382812 5.114293098449707 C 70.88229370117188 7.431066513061523 75.80186462402344 10.74804019927979 80.02691650390625 14.97309303283691 C 84.25196075439453 19.19813346862793 87.56893157958984 24.11771965026855 89.88570404052734 29.59518623352051 C 92.28397369384766 35.26533508300781 93.5 41.28937149047852 93.5 47.5 C 93.5 53.71062850952148 92.28397369384766 59.73468017578125 89.88570404052734 65.40481567382812 C 87.56893157958984 70.88229370117188 84.25196075439453 75.80186462402344 80.02691650390625 80.02691650390625 C 75.80186462402344 84.25196075439453 70.88229370117188 87.56893157958984 65.40481567382812 89.88570404052734 C 59.73468017578125 92.28397369384766 53.71062850952148 93.5 47.5 93.5 Z" stroke="none"/>
                <path d="M 47.5 3 C 41.49121475219727 3 35.66376876831055 4.176155090332031 30.17950439453125 6.495796203613281 C 24.88084411621094 8.736953735351562 20.12152099609375 11.94598388671875 16.03375244140625 16.03375244140625 C 11.94598388671875 20.12152099609375 8.736953735351562 24.88084411621094 6.495796203613281 30.17950439453125 C 4.176155090332031 35.66376876831055 3 41.49121475219727 3 47.5 C 3 53.50878524780273 4.176155090332031 59.33623123168945 6.495796203613281 64.82049560546875 C 8.736953735351562 70.11915588378906 11.94598388671875 74.87847900390625 16.03375244140625 78.96624755859375 C 20.12152099609375 83.05401611328125 24.88084411621094 86.26304626464844 30.17950439453125 88.50419616699219 C 35.66376876831055 90.82384490966797 41.49121475219727 92 47.5 92 C 53.50878524780273 92 59.33623123168945 90.82384490966797 64.82049560546875 88.50419616699219 C 70.11915588378906 86.26304626464844 74.87847900390625 83.05401611328125 78.96624755859375 78.96624755859375 C 83.05401611328125 74.87847900390625 86.26304626464844 70.11915588378906 88.50419616699219 64.82049560546875 C 90.82384490966797 59.33623123168945 92 53.50878524780273 92 47.5 C 92 41.49121475219727 90.82384490966797 35.66376876831055 88.50419616699219 30.17950439453125 C 86.26304626464844 24.88084411621094 83.05401611328125 20.12152099609375 78.96624755859375 16.03375244140625 C 74.87847900390625 11.94598388671875 70.11915588378906 8.736953735351562 64.82049560546875 6.495796203613281 C 59.33623123168945 4.176155090332031 53.50878524780273 3 47.5 3 M 47.5 0 C 73.7335205078125 0 95 21.2664794921875 95 47.5 C 95 73.7335205078125 73.7335205078125 95 47.5 95 C 21.2664794921875 95 0 73.7335205078125 0 47.5 C 0 21.2664794921875 21.2664794921875 0 47.5 0 Z" stroke="none" fill="#ba9c5a"/>
              </g>
            </g>
          </g>
        </g>
      </g>
    </g>
    <g id="objetivo_3_" data-name="objetivo (3)" transform="translate(900.458 9710.303)">
      <g id="Grupo_1217900" data-name="Grupo 1217900" transform="translate(15.008 1.173)">
        <g id="Grupo_1217889" data-name="Grupo 1217889" transform="translate(30.926)">
          <path id="Trazado_1086583" data-name="Trazado 1086583" d="M261.385,54.926H219.216l-.156.156V88.443a19.095,19.095,0,0,1,9.975,26.245h31.75a.757.757,0,0,0,.757-.757V55.082Z" transform="translate(-219.06 -47.508)" fill="#c8effe"/>
          <path id="Trazado_1086584" data-name="Trazado 1086584" d="M223.743,91.149V55.082l.156-.156h-4.683l-.156.156V88.443A19.067,19.067,0,0,1,223.743,91.149Z" transform="translate(-219.06 -47.508)" fill="#99e6fc"/>
          <g id="Grupo_1217875" data-name="Grupo 1217875">
            <path id="Trazado_1086585" data-name="Trazado 1086585" d="M261.541,15.074H219.06V9.064A1.564,1.564,0,0,1,220.624,7.5h39.353a1.564,1.564,0,0,1,1.564,1.564Z" transform="translate(-219.06 -7.5)" fill="#7ca1b1"/>
          </g>
          <g id="Grupo_1217876" data-name="Grupo 1217876">
            <path id="Trazado_1086586" data-name="Trazado 1086586" d="M220.624,7.5a1.564,1.564,0,0,0-1.564,1.564v6.01h9.385V7.5Z" transform="translate(-219.06 -7.5)" fill="#678d98"/>
          </g>
          <g id="Grupo_1217877" data-name="Grupo 1217877">
            <path id="Trazado_1086587" data-name="Trazado 1086587" d="M225.307,7.5h-4.683a1.564,1.564,0,0,0-1.564,1.564v6.01h4.683V9.064A1.564,1.564,0,0,1,225.307,7.5Z" transform="translate(-219.06 -7.5)" fill="#537983"/>
          </g>
          <g id="Grupo_1217880" data-name="Grupo 1217880" transform="translate(7.08 12.72)">
            <g id="Grupo_1217878" data-name="Grupo 1217878">
              <path id="Trazado_1086588" data-name="Trazado 1086588" d="M269.786,94.752H264.8a.469.469,0,0,1-.469-.469V89.293a.469.469,0,0,1,.469-.469h4.989a.469.469,0,0,1,.469.469v4.989A.469.469,0,0,1,269.786,94.752Z" transform="translate(-264.328 -88.824)" fill="#01d0fb"/>
            </g>
            <g id="Grupo_1217879" data-name="Grupo 1217879">
              <path id="Trazado_1086589" data-name="Trazado 1086589" d="M266.952,94.282V89.293a.469.469,0,0,1,.469-.469H264.8a.469.469,0,0,0-.469.469v4.989a.469.469,0,0,0,.469.469h2.624A.469.469,0,0,1,266.952,94.282Z" transform="translate(-264.328 -88.824)" fill="#01c0fa"/>
            </g>
          </g>
          <g id="Grupo_1217883" data-name="Grupo 1217883" transform="translate(7.08 23.217)">
            <g id="Grupo_1217881" data-name="Grupo 1217881">
              <path id="Trazado_1086590" data-name="Trazado 1086590" d="M269.786,161.864H264.8a.469.469,0,0,1-.469-.469v-4.989a.469.469,0,0,1,.469-.469h4.989a.469.469,0,0,1,.469.469v4.989A.469.469,0,0,1,269.786,161.864Z" transform="translate(-264.328 -155.936)" fill="#01d0fb"/>
            </g>
            <g id="Grupo_1217882" data-name="Grupo 1217882">
              <path id="Trazado_1086591" data-name="Trazado 1086591" d="M266.952,161.394v-4.989a.469.469,0,0,1,.469-.469H264.8a.469.469,0,0,0-.469.469v4.989a.469.469,0,0,0,.469.469h2.624A.469.469,0,0,1,266.952,161.394Z" transform="translate(-264.328 -155.936)" fill="#01c0fa"/>
            </g>
          </g>
          <g id="Grupo_1217886" data-name="Grupo 1217886" transform="translate(7.08 33.714)">
            <g id="Grupo_1217884" data-name="Grupo 1217884">
              <path id="Trazado_1086592" data-name="Trazado 1086592" d="M269.786,228.976H264.8a.469.469,0,0,1-.469-.469v-4.989a.469.469,0,0,1,.469-.469h4.989a.469.469,0,0,1,.469.469v4.989A.469.469,0,0,1,269.786,228.976Z" transform="translate(-264.328 -223.048)" fill="#01d0fb"/>
            </g>
            <g id="Grupo_1217885" data-name="Grupo 1217885">
              <path id="Trazado_1086593" data-name="Trazado 1086593" d="M266.952,228.506v-4.989a.469.469,0,0,1,.469-.469H264.8a.469.469,0,0,0-.469.469v4.989a.469.469,0,0,0,.469.469h2.624A.469.469,0,0,1,266.952,228.506Z" transform="translate(-264.328 -223.048)" fill="#01c0fa"/>
            </g>
          </g>
          <g id="Grupo_1217888" data-name="Grupo 1217888" transform="translate(7.08 44.21)">
            <path id="Trazado_1086594" data-name="Trazado 1086594" d="M269.786,290.159H264.8a.469.469,0,0,0-.469.469v1.2a19.116,19.116,0,0,1,2.9,4.255h2.557a.469.469,0,0,0,.469-.469v-4.989A.469.469,0,0,0,269.786,290.159Z" transform="translate(-264.328 -290.159)" fill="#01d0fb"/>
            <g id="Grupo_1217887" data-name="Grupo 1217887">
              <path id="Trazado_1086595" data-name="Trazado 1086595" d="M266.952,295.551v-4.923a.469.469,0,0,1,.469-.469H264.8a.469.469,0,0,0-.469.469v1.2A19.147,19.147,0,0,1,266.952,295.551Z" transform="translate(-264.328 -290.159)" fill="#01c0fa"/>
            </g>
          </g>
        </g>
        <g id="Grupo_1217896" data-name="Grupo 1217896" transform="translate(4.743 39.57)">
          <path id="Trazado_1086596" data-name="Trazado 1086596" d="M70.745,260.489a19.154,19.154,0,0,0-4.02.426,10.1,10.1,0,0,1-13.867,12,19.085,19.085,0,1,0,17.887-12.423Z" transform="translate(-51.662 -260.489)" fill="#fd5426"/>
          <g id="Grupo_1217890" data-name="Grupo 1217890" transform="translate(0 12.423)">
            <path id="Trazado_1086597" data-name="Trazado 1086597" d="M55.623,346.575a19.072,19.072,0,0,1,.89-5.775,10.041,10.041,0,0,1-3.656-.885,19.093,19.093,0,0,0,17.887,25.742,19.273,19.273,0,0,0,1.981-.1A19.085,19.085,0,0,1,55.623,346.575Z" transform="translate(-51.661 -339.915)" fill="#ef4424"/>
          </g>
          <path id="Trazado_1086598" data-name="Trazado 1086598" d="M104.161,300.1a12.825,12.825,0,0,0-4.339.754,10.117,10.117,0,0,1-7.041,6.094,12.884,12.884,0,1,0,11.38-6.848Z" transform="translate(-85.078 -293.905)" fill="#fff"/>
          <path id="Trazado_1086599" data-name="Trazado 1086599" d="M95.3,312.988a12.907,12.907,0,0,1,10.875-12.729,12.871,12.871,0,0,0-6.351.6,10.117,10.117,0,0,1-7.041,6.094,12.884,12.884,0,0,0,13.392,18.768A12.906,12.906,0,0,1,95.3,312.988Z" transform="translate(-85.078 -293.905)" fill="#eef5f6"/>
          <g id="Grupo_1217891" data-name="Grupo 1217891" transform="translate(42.983 14.618)">
            <path id="Trazado_1086600" data-name="Trazado 1086600" d="M339.012,353.952h-9.244a.469.469,0,0,0-.388.2l-2.907,4.26,2.907,4.26a.469.469,0,0,0,.388.2h9.244a.469.469,0,0,0,.382-.742l-2.657-3.723,2.657-3.723a.469.469,0,0,0-.382-.742Z" transform="translate(-326.474 -353.952)" fill="#fff"/>
          </g>
          <g id="Grupo_1217892" data-name="Grupo 1217892" transform="translate(42.983 14.618)">
            <path id="Trazado_1086601" data-name="Trazado 1086601" d="M339.012,353.952h-9.244a.469.469,0,0,0-.388.2l-2.907,4.26,2.907,4.26a.469.469,0,0,0,.388.2h9.244a.469.469,0,0,0,.382-.742l-2.657-3.723,2.657-3.723a.469.469,0,0,0-.382-.742Z" transform="translate(-326.474 -353.952)" fill="#fff"/>
          </g>
          <g id="Grupo_1217893" data-name="Grupo 1217893" transform="translate(42.983 14.618)">
            <path id="Trazado_1086602" data-name="Trazado 1086602" d="M333.348,362.675l-2.907-4.26,2.907-4.26a.469.469,0,0,1,.388-.2h-3.966a.469.469,0,0,0-.388.2l-2.907,4.26,2.907,4.26a.469.469,0,0,0,.388.2h3.966A.469.469,0,0,1,333.348,362.675Z" transform="translate(-326.475 -353.951)" fill="#eef5f6"/>
          </g>
          <g id="Grupo_1217894" data-name="Grupo 1217894" transform="translate(12.391 12.391)">
            <circle id="Elipse_11979" data-name="Elipse 11979" cx="6.691" cy="6.691" r="6.691" fill="#fd5426"/>
          </g>
          <g id="Grupo_1217895" data-name="Grupo 1217895" transform="translate(12.391 12.391)">
            <path id="Trazado_1086603" data-name="Trazado 1086603" d="M134.814,346.405a6.7,6.7,0,0,1,4.727-6.4,6.691,6.691,0,1,0,0,12.793A6.7,6.7,0,0,1,134.814,346.405Z" transform="translate(-130.886 -339.714)" fill="#ef4424"/>
          </g>
        </g>
        <g id="Grupo_1217899" data-name="Grupo 1217899" transform="translate(0 32.69)">
          <g id="Grupo_1217897" data-name="Grupo 1217897">
            <circle id="Elipse_11980" data-name="Elipse 11980" cx="10.1" cy="10.1" r="10.1" fill="#fed402"/>
          </g>
          <g id="Grupo_1217898" data-name="Grupo 1217898" transform="translate(0)">
            <path id="Trazado_1086604" data-name="Trazado 1086604" d="M26.6,226.6a10.1,10.1,0,0,1,7.468-9.751,10.1,10.1,0,1,0,0,19.5A10.1,10.1,0,0,1,26.6,226.6Z" transform="translate(-21.335 -216.502)" fill="#fac600"/>
          </g>
        </g>
      </g>
      <g id="Grupo_1217904" data-name="Grupo 1217904" transform="translate(23.715 7.664)">
        <g id="Grupo_1217902" data-name="Grupo 1217902" transform="translate(0 0)">
          <g id="Grupo_1217901" data-name="Grupo 1217901">
            <path id="Trazado_1086605" data-name="Trazado 1086605" d="M80.426,49.161l-3.265,3.265a.548.548,0,0,0-.161.388V70.583a.548.548,0,0,0,.549.549H94.122a.549.549,0,0,0,.549-.549V49.549A.548.548,0,0,0,94.122,49H80.814a.548.548,0,0,0-.388.161Z" transform="translate(-77 -49)" fill="#fdf6ec"/>
          </g>
        </g>
        <g id="Grupo_1217903" data-name="Grupo 1217903" transform="translate(0)">
          <path id="Trazado_1086606" data-name="Trazado 1086606" d="M82.318,70.583V52.814a.549.549,0,0,1,.161-.388l3.265-3.265A.548.548,0,0,1,86.132,49H80.814a.549.549,0,0,0-.388.161l-3.265,3.265a.548.548,0,0,0-.161.388V70.583a.549.549,0,0,0,.549.549h5.318a.548.548,0,0,1-.549-.548Z" transform="translate(-77 -49)" fill="#fef1da"/>
        </g>
      </g>
      <g id="Grupo_1217905" data-name="Grupo 1217905" transform="translate(13.835)">
        <path id="Trazado_1086607" data-name="Trazado 1086607" d="M88.415,36.052a1.173,1.173,0,0,0,1.173-1.173V2.737A2.74,2.74,0,0,0,86.851,0H47.5a2.74,2.74,0,0,0-2.737,2.737V40.455a20.264,20.264,0,0,0-9.167-.624,11.271,11.271,0,1,0-16.08,13.913,20.253,20.253,0,0,0,37.1,15.782H87.658a1.932,1.932,0,0,0,1.93-1.93V40.353a1.173,1.173,0,0,0-2.346,0V67.18H57.707A20.113,20.113,0,0,0,59.055,61h3.06l2.557,3.747a1.641,1.641,0,0,0,1.357.717h9.244a1.642,1.642,0,0,0,1.337-2.6L75.276,61h.056a1.173,1.173,0,1,0,0-2.346h-.056l1.333-1.868a1.642,1.642,0,0,0-1.337-2.6H66.029a1.641,1.641,0,0,0-1.357.717l-2.557,3.748h-3.06a20.116,20.116,0,0,0-1.342-6.168h.76a1.644,1.644,0,0,0,1.642-1.642V45.853a1.644,1.644,0,0,0-1.642-1.642H53.483a1.636,1.636,0,0,0-1.179.5,20.316,20.316,0,0,0-5.2-3.374V9.92H87.242V34.879a1.173,1.173,0,0,0,1.173,1.173ZM66.4,63.117,64.955,61h7.439l1.512,2.118Zm0-6.582h7.505l-1.512,2.118H64.955ZM16.181,43.963a8.927,8.927,0,1,1,8.927,8.927A8.937,8.937,0,0,1,16.181,43.963ZM38.834,77.735A17.913,17.913,0,0,1,21.673,54.7a11.228,11.228,0,0,0,3.436.537c.147,0,.294-.005.44-.011A14.052,14.052,0,0,0,46.52,71.591a1.173,1.173,0,1,0-1.286-1.962A11.706,11.706,0,0,1,28.265,54.783a11.323,11.323,0,0,0,7.1-6.144A11.709,11.709,0,0,1,50.489,58.652H46.61a7.864,7.864,0,1,0,0,2.346h3.877a11.657,11.657,0,0,1-1.759,5.083,1.173,1.173,0,1,0,1.981,1.257A14,14,0,0,0,52.843,61H56.7a17.932,17.932,0,0,1-17.87,16.736Zm0-16.736h5.392a5.518,5.518,0,1,1,0-2.346H38.834a1.173,1.173,0,0,0,0,2.346ZM54.187,46.556h3.581v3.581h-1.15a20.349,20.349,0,0,0-2.432-3.51v-.071Zm2.517,12.1h-3.86A14.055,14.055,0,0,0,36.191,46.017a11.149,11.149,0,0,0,.036-3.909A17.9,17.9,0,0,1,56.7,58.652ZM54.146,7.574H47.107V2.737a.391.391,0,0,1,.391-.391h6.648V7.574Zm2.346,0V2.346H86.851a.391.391,0,0,1,.391.391V7.574Z" transform="translate(-13.835)"/>
        <path id="Trazado_1086608" data-name="Trazado 1086608" d="M340.494,87.114H322.217a1.173,1.173,0,1,0,0,2.346h18.277a1.173,1.173,0,1,0,0-2.346Z" transform="translate(-272.994 -73.489)"/>
        <path id="Trazado_1086609" data-name="Trazado 1086609" d="M322.217,115.778h10.825a1.173,1.173,0,1,0,0-2.346H322.217a1.173,1.173,0,1,0,0,2.346Z" transform="translate(-272.994 -95.69)"/>
        <path id="Trazado_1086610" data-name="Trazado 1086610" d="M340.494,154.226H322.217a1.173,1.173,0,1,0,0,2.346h18.277a1.173,1.173,0,1,0,0-2.346Z" transform="translate(-272.994 -130.104)"/>
        <path id="Trazado_1086611" data-name="Trazado 1086611" d="M322.217,182.89h10.825a1.173,1.173,0,1,0,0-2.346H322.217a1.173,1.173,0,1,0,0,2.346Z" transform="translate(-272.994 -152.305)"/>
        <path id="Trazado_1086612" data-name="Trazado 1086612" d="M340.494,221.337H322.217a1.173,1.173,0,1,0,0,2.346h18.277a1.173,1.173,0,1,0,0-2.346Z" transform="translate(-272.994 -186.718)"/>
        <path id="Trazado_1086613" data-name="Trazado 1086613" d="M322.217,250h10.825a1.173,1.173,0,1,0,0-2.346H322.217a1.173,1.173,0,1,0,0,2.346Z" transform="translate(-272.994 -208.921)"/>
        <path id="Trazado_1086614" data-name="Trazado 1086614" d="M265.1,82.966a1.644,1.644,0,0,0-1.642-1.642H258.47a1.644,1.644,0,0,0-1.642,1.642v4.989A1.644,1.644,0,0,0,258.47,89.6h4.989a1.644,1.644,0,0,0,1.642-1.642Zm-2.346,4.285h-3.581V83.67h3.581Z" transform="translate(-218.822 -68.604)"/>
        <path id="Trazado_1086615" data-name="Trazado 1086615" d="M265.1,150.078a1.644,1.644,0,0,0-1.642-1.642H258.47a1.644,1.644,0,0,0-1.642,1.642v4.989a1.644,1.644,0,0,0,1.642,1.642h4.989a1.644,1.644,0,0,0,1.642-1.642Zm-2.346,4.285h-3.581v-3.581h3.581Z" transform="translate(-218.822 -125.219)"/>
        <path id="Trazado_1086616" data-name="Trazado 1086616" d="M263.459,215.547H258.47a1.644,1.644,0,0,0-1.642,1.642v4.989a1.644,1.644,0,0,0,1.642,1.642h4.989a1.644,1.644,0,0,0,1.642-1.642v-4.989A1.644,1.644,0,0,0,263.459,215.547Zm-.7,5.928h-3.581v-3.581h3.581Z" transform="translate(-218.822 -181.834)"/>
        <path id="Trazado_1086617" data-name="Trazado 1086617" d="M341.667,289.622a1.173,1.173,0,0,0-1.173-1.173H322.217a1.173,1.173,0,1,0,0,2.346h18.277A1.173,1.173,0,0,0,341.667,289.622Z" transform="translate(-272.994 -243.333)"/>
        <path id="Trazado_1086618" data-name="Trazado 1086618" d="M322.217,314.768a1.173,1.173,0,0,0,0,2.346h10.825a1.173,1.173,0,1,0,0-2.346Z" transform="translate(-272.994 -265.536)"/>
        <path id="Trazado_1086619" data-name="Trazado 1086619" d="M64.31,248.634v-.847a3.136,3.136,0,0,0-.088-6.27H62.051a.791.791,0,0,1,0-1.582h3.825a1.173,1.173,0,1,0,0-2.346H64.31v-.843a1.173,1.173,0,1,0-2.346,0v.847a3.136,3.136,0,0,0,.088,6.27h2.171a.791.791,0,1,1,0,1.582H60.4a1.173,1.173,0,0,0,0,2.346h1.566v.843a1.173,1.173,0,0,0,2.346,0Z" transform="translate(-51.863 -198.727)"/>
        <path id="Trazado_1086620" data-name="Trazado 1086620" d="M71.222,65.978H87.795a1.724,1.724,0,0,0,1.722-1.722V56.281a1.173,1.173,0,1,0-2.346,0v7.351H71.846V46.746l2.9-2.9H87.17v6.96a1.173,1.173,0,1,0,2.346,0V43.222A1.724,1.724,0,0,0,87.795,41.5H74.487a1.711,1.711,0,0,0-1.217.5L70,45.269a1.71,1.71,0,0,0-.5,1.218V64.256a1.724,1.724,0,0,0,1.722,1.722Z" transform="translate(-60.794 -35.009)"/>
        <path id="Trazado_1086621" data-name="Trazado 1086621" d="M110.907,74.185h-7.4a1.173,1.173,0,1,0,0,2.346h7.4a1.173,1.173,0,1,0,0-2.346Z" transform="translate(-88.493 -62.582)"/>
        <path id="Trazado_1086622" data-name="Trazado 1086622" d="M110.907,99.448h-7.4a1.173,1.173,0,0,0,0,2.346h7.4a1.173,1.173,0,1,0,0-2.346Z" transform="translate(-88.493 -83.894)"/>
        <path id="Trazado_1086623" data-name="Trazado 1086623" d="M112.08,126.111a1.173,1.173,0,0,0-1.173-1.173h-7.4a1.173,1.173,0,1,0,0,2.346h7.4A1.173,1.173,0,0,0,112.08,126.111Z" transform="translate(-88.493 -105.397)"/>
        <path id="Trazado_1086624" data-name="Trazado 1086624" d="M103.508,150.315a1.173,1.173,0,0,0,0,2.346h3.317a1.173,1.173,0,1,0,0-2.346Z" transform="translate(-88.493 -126.804)"/>
      </g>
    </g>
  </g>
</svg>
