<svg xmlns="http://www.w3.org/2000/svg" xmlns:xlink="http://www.w3.org/1999/xlink" width="113" height="113" viewBox="0 0 113 113">
  <defs>
    <filter id="Trazado_982547" x="0" y="0" width="113" height="113" filterUnits="userSpaceOnUse">
      <feOffset dy="3" input="SourceAlpha"/>
      <feGaussianBlur stdDeviation="3" result="blur"/>
      <feFlood flood-opacity="0.161"/>
      <feComposite operator="in" in2="blur"/>
      <feComposite in="SourceGraphic"/>
    </filter>
  </defs>
  <g id="Grupo_1217927" data-name="Grupo 1217927" transform="translate(-1217.234 -9696.844)">
    <g id="Grupo_1216308" data-name="Grupo 1216308" transform="translate(1226.234 9702.844)">
      <g id="Grupo_1208705" data-name="Grupo 1208705">
        <g id="Grupo_1148633" data-name="Grupo 1148633">
          <g id="Grupo_1148525" data-name="Grupo 1148525">
            <g transform="matrix(1, 0, 0, 1, -9, -6)" filter="url(#Trazado_982547)">
              <g id="Trazado_982547-2" data-name="Trazado 982547" transform="translate(9 6)" fill="#e6d567">
                <path d="M 47.5 93.5 C 41.28937149047852 93.5 35.26533508300781 92.28397369384766 29.59518623352051 89.88570404052734 C 24.11771965026855 87.56893157958984 19.19813346862793 84.25196075439453 14.97309303283691 80.02691650390625 C 10.74804019927979 75.80186462402344 7.431066513061523 70.88229370117188 5.114293098449707 65.40481567382812 C 2.716026782989502 59.73468017578125 1.5 53.71062850952148 1.5 47.5 C 1.5 41.28937149047852 2.716026782989502 35.26533508300781 5.114293098449707 29.59518623352051 C 7.431066513061523 24.11771965026855 10.74804019927979 19.19813346862793 14.97309303283691 14.97309303283691 C 19.19813346862793 10.74804019927979 24.11771965026855 7.431066513061523 29.59518623352051 5.114293098449707 C 35.26533508300781 2.716026782989502 41.28937149047852 1.5 47.5 1.5 C 53.71062850952148 1.5 59.73468017578125 2.716026782989502 65.40481567382812 5.114293098449707 C 70.88229370117188 7.431066513061523 75.80186462402344 10.74804019927979 80.02691650390625 14.97309303283691 C 84.25196075439453 19.19813346862793 87.56893157958984 24.11771965026855 89.88570404052734 29.59518623352051 C 92.28397369384766 35.26533508300781 93.5 41.28937149047852 93.5 47.5 C 93.5 53.71062850952148 92.28397369384766 59.73468017578125 89.88570404052734 65.40481567382812 C 87.56893157958984 70.88229370117188 84.25196075439453 75.80186462402344 80.02691650390625 80.02691650390625 C 75.80186462402344 84.25196075439453 70.88229370117188 87.56893157958984 65.40481567382812 89.88570404052734 C 59.73468017578125 92.28397369384766 53.71062850952148 93.5 47.5 93.5 Z" stroke="none"/>
                <path d="M 47.5 3 C 41.49121475219727 3 35.66376876831055 4.176155090332031 30.17950439453125 6.495796203613281 C 24.88084411621094 8.736953735351562 20.12152099609375 11.94598388671875 16.03375244140625 16.03375244140625 C 11.94598388671875 20.12152099609375 8.736953735351562 24.88084411621094 6.495796203613281 30.17950439453125 C 4.176155090332031 35.66376876831055 3 41.49121475219727 3 47.5 C 3 53.50878524780273 4.176155090332031 59.33623123168945 6.495796203613281 64.82049560546875 C 8.736953735351562 70.11915588378906 11.94598388671875 74.87847900390625 16.03375244140625 78.96624755859375 C 20.12152099609375 83.05401611328125 24.88084411621094 86.26304626464844 30.17950439453125 88.50419616699219 C 35.66376876831055 90.82384490966797 41.49121475219727 92 47.5 92 C 53.50878524780273 92 59.33623123168945 90.82384490966797 64.82049560546875 88.50419616699219 C 70.11915588378906 86.26304626464844 74.87847900390625 83.05401611328125 78.96624755859375 78.96624755859375 C 83.05401611328125 74.87847900390625 86.26304626464844 70.11915588378906 88.50419616699219 64.82049560546875 C 90.82384490966797 59.33623123168945 92 53.50878524780273 92 47.5 C 92 41.49121475219727 90.82384490966797 35.66376876831055 88.50419616699219 30.17950439453125 C 86.26304626464844 24.88084411621094 83.05401611328125 20.12152099609375 78.96624755859375 16.03375244140625 C 74.87847900390625 11.94598388671875 70.11915588378906 8.736953735351562 64.82049560546875 6.495796203613281 C 59.33623123168945 4.176155090332031 53.50878524780273 3 47.5 3 M 47.5 0 C 73.7335205078125 0 95 21.2664794921875 95 47.5 C 95 73.7335205078125 73.7335205078125 95 47.5 95 C 21.2664794921875 95 0 73.7335205078125 0 47.5 C 0 21.2664794921875 21.2664794921875 0 47.5 0 Z" stroke="none" fill="#ba9c5a"/>
              </g>
            </g>
          </g>
        </g>
      </g>
    </g>
    <g id="seguridad-social" transform="translate(1232.145 9706.782)">
      <g id="Grupo_1217925" data-name="Grupo 1217925" transform="translate(1.218 12.894)">
        <g id="Grupo_1217908" data-name="Grupo 1217908" transform="translate(26.609)">
          <path id="Trazado_1086625" data-name="Trazado 1086625" d="M186.007,49.311l9.459-6.872a8.123,8.123,0,0,0,3.348-6.572V23.237a4.062,4.062,0,0,0-4.061-4.061h-19.4a4.062,4.062,0,0,0-4.061,4.061v12.63a8.123,8.123,0,0,0,3.348,6.572l9.459,6.872A1.625,1.625,0,0,0,186.007,49.311Z" transform="translate(-171.29 -19.176)" fill="#a2e62e"/>
          <path id="Trazado_1086626" data-name="Trazado 1086626" d="M239.745,19.176h-1.72V32.752a8.123,8.123,0,0,1-3.348,6.572l-9.667,7.023,4.08,2.964a1.625,1.625,0,0,0,1.91,0l9.459-6.872a8.123,8.123,0,0,0,3.348-6.572V23.237a4.062,4.062,0,0,0-4.061-4.061Z" transform="translate(-216.283 -19.176)" fill="#97d729"/>
          <g id="Grupo_1217907" data-name="Grupo 1217907" transform="translate(4.829 7.12)">
            <path id="Trazado_1086627" data-name="Trazado 1086627" d="M208.438,75.9a2.455,2.455,0,0,1-1.737-.719l-4.967-4.967a2.456,2.456,0,1,1,3.473-3.473l3.23,3.23,6.251-6.251a2.456,2.456,0,0,1,3.473,3.473l-7.987,7.988A2.456,2.456,0,0,1,208.438,75.9Z" transform="translate(-201.016 -63)" fill="#fff"/>
          </g>
        </g>
        <g id="Grupo_1217913" data-name="Grupo 1217913" transform="translate(17.56 30.052)">
          <g id="Grupo_1217910" data-name="Grupo 1217910" transform="translate(29.201)">
            <path id="Trazado_1086628" data-name="Trazado 1086628" d="M306.049,286.5h-5.015a5.707,5.707,0,0,0-5.707,5.707v2.414a5.526,5.526,0,0,1,1.6,3.89v7.077h5.89v-2.046a6.345,6.345,0,0,1,1.871-4.516l7.063-7.063A5.706,5.706,0,0,0,306.049,286.5Z" transform="translate(-295.327 -273.124)" fill="#26a6fe"/>
            <g id="Grupo_1217909" data-name="Grupo 1217909" transform="translate(1.599 13.384)">
              <path id="Trazado_1086629" data-name="Trazado 1086629" d="M363.171,297.079,368.254,292a5.706,5.706,0,0,0-5.462-5.457,5.689,5.689,0,0,1,.379,2.045Z" transform="translate(-353.43 -286.539)" fill="#0593fc"/>
              <path id="Trazado_1086630" data-name="Trazado 1086630" d="M305.167,381.5v3.656h5.89v-2.046a6.419,6.419,0,0,1,.2-1.609Z" transform="translate(-305.167 -366.071)" fill="#0593fc"/>
            </g>
            <circle id="Elipse_11981" data-name="Elipse 11981" cx="4.661" cy="4.661" r="4.661" transform="translate(3.554 0)" fill="#ffb09e"/>
            <path id="Trazado_1086631" data-name="Trazado 1086631" d="M327.941,204.158c-.117,0-.234.006-.349.014a4.659,4.659,0,0,1-3.132,7.744,4.66,4.66,0,1,0,3.481-7.758Z" transform="translate(-319.727 -204.158)" fill="#f89580"/>
          </g>
          <g id="Grupo_1217911" data-name="Grupo 1217911" transform="translate(0 0)">
            <path id="Trazado_1086632" data-name="Trazado 1086632" d="M130.281,305.591v-7.077a5.528,5.528,0,0,1,1.727-4.016v-2.289A5.707,5.707,0,0,0,126.3,286.5h-5.015a5.706,5.706,0,0,0-5.7,5.463l7.063,7.063a6.345,6.345,0,0,1,1.871,4.516v2.046Z" transform="translate(-115.586 -273.124)" fill="#26a6fe"/>
            <path id="Trazado_1086633" data-name="Trazado 1086633" d="M175.285,305.617V298.54a5.528,5.528,0,0,1,1.727-4.016v-2.289a5.706,5.706,0,0,0-5.5-5.7,5.69,5.69,0,0,1,.379,2.046v11.757a1.625,1.625,0,0,1-1.625,1.625h-.943a6.428,6.428,0,0,1,.2,1.609v2.046Z" transform="translate(-160.59 -273.151)" fill="#0593fc"/>
            <circle id="Elipse_11982" data-name="Elipse 11982" cx="4.661" cy="4.661" r="4.661" transform="translate(3.548)" fill="#ffb09e"/>
          </g>
          <g id="Grupo_1217912" data-name="Grupo 1217912" transform="translate(14.533 6.305)">
            <path id="Trazado_1086634" data-name="Trazado 1086634" d="M221.471,338.093v-7.077a5.707,5.707,0,0,0-5.707-5.707h-5.015a5.707,5.707,0,0,0-5.707,5.707v7.077Z" transform="translate(-205.042 -311.932)" fill="#8ac9fe"/>
            <path id="Trazado_1086635" data-name="Trazado 1086635" d="M217.256,326.53a5.7,5.7,0,0,1,.309,1.853v5.453a1.625,1.625,0,0,1-1.625,1.625h-10.9v3.656h16.429v-7.077A5.708,5.708,0,0,0,217.256,326.53Z" transform="translate(-205.042 -312.954)" fill="#60b7ff"/>
            <circle id="Elipse_11983" data-name="Elipse 11983" cx="4.661" cy="4.661" r="4.661" transform="translate(3.554)" fill="#ffb09e"/>
          </g>
        </g>
        <g id="Grupo_1217923" data-name="Grupo 1217923" transform="translate(0 25.678)">
          <g id="Grupo_1217918" data-name="Grupo 1217918" transform="translate(0 0)">
            <g id="Grupo_1217917" data-name="Grupo 1217917">
              <g id="Grupo_1217916" data-name="Grupo 1217916">
                <g id="Grupo_1217915" data-name="Grupo 1217915">
                  <path id="Trazado_1086636" data-name="Trazado 1086636" d="M34.156,227.691V212.027a6.549,6.549,0,0,0-1.918-4.631L19.581,194.74a1.8,1.8,0,0,0-2.545-.011,5.527,5.527,0,0,0-.627.746V183.55a6.317,6.317,0,0,0-6.286-6.317,2.608,2.608,0,0,0-2.624,2.6v22.072a6.96,6.96,0,0,0,2.039,4.921l11.347,11.347a4.093,4.093,0,0,1,1.2,2.894v6.624a.812.812,0,0,0,.812.812H33.344A.813.813,0,0,0,34.156,227.691Z" transform="translate(-7.5 -177.233)" fill="#ffb09e"/>
                  <g id="Grupo_1217914" data-name="Grupo 1217914" transform="translate(14.584 27.601)">
                    <path id="Trazado_1086637" data-name="Trazado 1086637" d="M109.343,354.323a6.549,6.549,0,0,0-1.918-4.631l-2.562-2.562v17.037a2.437,2.437,0,0,1-2.437,2.437H97.271v3.383a.812.812,0,0,0,.812.812h10.447a.812.812,0,0,0,.812-.812Z" transform="translate(-97.271 -347.13)" fill="#f89580"/>
                  </g>
                </g>
              </g>
            </g>
          </g>
          <g id="Grupo_1217922" data-name="Grupo 1217922" transform="translate(54.086)">
            <g id="Grupo_1217921" data-name="Grupo 1217921">
              <g id="Grupo_1217920" data-name="Grupo 1217920">
                <g id="Grupo_1217919" data-name="Grupo 1217919">
                  <path id="Trazado_1086638" data-name="Trazado 1086638" d="M340.422,227.691V212.027a6.549,6.549,0,0,1,1.918-4.631L355,194.74a1.8,1.8,0,0,1,2.545-.011,5.528,5.528,0,0,1,.627.746V183.55a6.317,6.317,0,0,1,6.286-6.317,2.608,2.608,0,0,1,2.624,2.6v22.072a6.96,6.96,0,0,1-2.039,4.921l-11.347,11.347a4.093,4.093,0,0,0-1.2,2.894v6.624a.812.812,0,0,1-.812.812H341.234A.813.813,0,0,1,340.422,227.691Z" transform="translate(-340.422 -177.233)" fill="#ffb09e"/>
                  <path id="Trazado_1086639" data-name="Trazado 1086639" d="M367.078,179.833a2.6,2.6,0,0,0-2.574-2.6,6.325,6.325,0,0,0-1.569.193v20.285a6.96,6.96,0,0,1-2.039,4.921L349.55,213.977a4.093,4.093,0,0,0-1.2,2.894v5a2.437,2.437,0,0,1-2.437,2.437h-5.492v3.383a.812.812,0,0,0,.812.812h10.447a.812.812,0,0,0,.812-.812v-6.623a4.093,4.093,0,0,1,1.2-2.894l11.347-11.347a6.96,6.96,0,0,0,2.039-4.921Z" transform="translate(-340.422 -177.232)" fill="#f89580"/>
                </g>
              </g>
            </g>
          </g>
        </g>
        <g id="Grupo_1217924" data-name="Grupo 1217924" transform="translate(22.286 30.052)">
          <path id="Trazado_1086640" data-name="Trazado 1086640" d="M237.656,242.966c-.117,0-.234.006-.349.014a4.659,4.659,0,0,1-3.132,7.744,4.66,4.66,0,1,0,3.481-7.758Z" transform="translate(-219.636 -236.661)" fill="#f89580"/>
          <path id="Trazado_1086641" data-name="Trazado 1086641" d="M148.163,204.158c-.117,0-.234.006-.349.014a4.659,4.659,0,0,1-3.132,7.744,4.66,4.66,0,1,0,3.481-7.758Z" transform="translate(-144.682 -204.158)" fill="#f89580"/>
        </g>
      </g>
      <g id="Grupo_1217926" data-name="Grupo 1217926" transform="translate(0 11.676)">
        <path id="Trazado_1086642" data-name="Trazado 1086642" d="M167.64,37.143l9.459,6.872a2.835,2.835,0,0,0,3.342,0l9.459-6.872a9.369,9.369,0,0,0,3.851-7.557V16.956a5.286,5.286,0,0,0-5.28-5.28h-19.4a5.286,5.286,0,0,0-5.28,5.28v4.683a1.218,1.218,0,1,0,2.437,0V16.956a2.846,2.846,0,0,1,2.843-2.843h19.4a2.846,2.846,0,0,1,2.843,2.843v12.63a6.925,6.925,0,0,1-2.846,5.586l-9.459,6.872a.4.4,0,0,1-.477,0l-9.459-6.872a6.925,6.925,0,0,1-2.846-5.586V27.325a1.218,1.218,0,0,0-2.437,0v2.261A9.37,9.37,0,0,0,167.64,37.143Z" transform="translate(-137.18 -11.676)"/>
        <path id="Trazado_1086643" data-name="Trazado 1086643" d="M199.558,69.769a3.674,3.674,0,0,0,5.2,0l7.987-7.988a3.674,3.674,0,0,0-5.2-5.2l-5.389,5.389-2.368-2.368a3.674,3.674,0,1,0-5.2,5.2Zm-3.243-8.439a1.237,1.237,0,0,1,1.75,0l3.23,3.23a1.218,1.218,0,0,0,1.723,0l6.251-6.251a1.237,1.237,0,0,1,1.75,1.75l-7.987,7.988a1.237,1.237,0,0,1-1.75,0l-4.967-4.967a1.237,1.237,0,0,1,0-1.75Z" transform="translate(-162.077 -48.39)"/>
        <path id="Trazado_1086644" data-name="Trazado 1086644" d="M82.054,170.848a3.808,3.808,0,0,0-2.7-1.117h-.019a7.551,7.551,0,0,0-7.5,7.535v9.521a3.044,3.044,0,0,0-.675-.078,3.006,3.006,0,0,0-2.139.886l-4,4a6.966,6.966,0,0,0-6.32-4.109H53.685a6.932,6.932,0,0,0-6.924,6.866,6.885,6.885,0,0,0-2.729-.561H39.018a6.884,6.884,0,0,0-2.6.509,6.932,6.932,0,0,0-6.922-6.814H24.479a6.966,6.966,0,0,0-6.32,4.109l-4-4a3.009,3.009,0,0,0-2.814-.808v-9.521a7.551,7.551,0,0,0-7.5-7.535,3.829,3.829,0,0,0-2.723,1.117A3.788,3.788,0,0,0,0,173.551v22.071a8.125,8.125,0,0,0,2.4,5.783l2.421,2.421A1.218,1.218,0,1,0,6.54,202.1l-2.421-2.421a5.7,5.7,0,0,1-1.682-4.06V173.551a1.368,1.368,0,0,1,.407-.976,1.388,1.388,0,0,1,.986-.407h.007a5.109,5.109,0,0,1,5.074,5.1v11.563a6.719,6.719,0,0,0,.972,8.254l5.48,5.48a1.218,1.218,0,0,0,1.723-1.723l-5.48-5.48a4.272,4.272,0,0,1,0-6.041.588.588,0,0,1,.832,0l12.656,12.656a5.3,5.3,0,0,1,1.561,3.769V221H17.021v-6.217a5.277,5.277,0,0,0-1.556-3.756l-4.9-4.9a1.218,1.218,0,1,0-1.723,1.723l4.9,4.9a2.855,2.855,0,0,1,.842,2.033v6.624a2.033,2.033,0,0,0,2.031,2.031H27.062a2.033,2.033,0,0,0,2.031-2.031v-12.4H54.086v1.543a1.218,1.218,0,1,0,2.437,0v-4.808a5.3,5.3,0,0,1,1.561-3.769l12.657-12.657a.588.588,0,0,1,.832,0,4.272,4.272,0,0,1,0,6.041l-5.48,5.48a1.218,1.218,0,0,0,1.723,1.723l5.48-5.48a6.719,6.719,0,0,0,.972-8.254V177.266a5.109,5.109,0,0,1,5.074-5.1h.007a1.388,1.388,0,0,1,.986.407,1.368,1.368,0,0,1,.407.976v22.071a5.7,5.7,0,0,1-1.682,4.06L67.714,211.028a5.277,5.277,0,0,0-1.556,3.756V221H56.523v-4.763a1.218,1.218,0,1,0-2.437,0v5.17a2.033,2.033,0,0,0,2.031,2.031H66.564a2.033,2.033,0,0,0,2.031-2.031v-6.624a2.855,2.855,0,0,1,.842-2.033l11.347-11.347a8.125,8.125,0,0,0,2.4-5.783V173.551A3.788,3.788,0,0,0,82.054,170.848ZM33.982,195.966a6.9,6.9,0,0,0-1.89,4.747v5.859h-3v-.828a7.717,7.717,0,0,0-2.275-5.492l-6.735-6.735a4.512,4.512,0,0,1,4.4-3.6h5.015a4.494,4.494,0,0,1,4.488,4.488Zm14.539,10.605H34.529v-5.859a4.494,4.494,0,0,1,4.488-4.488h5.015a4.494,4.494,0,0,1,4.488,4.488Zm7.84-6.32a7.716,7.716,0,0,0-2.275,5.492v.828H50.958v-5.859a6.9,6.9,0,0,0-1.761-4.608v-1.7a4.493,4.493,0,0,1,4.488-4.488H58.7a4.512,4.512,0,0,1,4.4,3.6Z" transform="translate(0 -144.053)"/>
        <path id="Trazado_1086645" data-name="Trazado 1086645" d="M309.7,202.537a5.879,5.879,0,1,0,5.879-5.879A5.886,5.886,0,0,0,309.7,202.537Zm9.321,0a3.442,3.442,0,1,1-3.442-3.442A3.446,3.446,0,0,1,319.022,202.537Z" transform="translate(-259.387 -166.606)"/>
        <path id="Trazado_1086646" data-name="Trazado 1086646" d="M135.8,208.416a5.879,5.879,0,1,0-5.879-5.879A5.886,5.886,0,0,0,135.8,208.416Zm0-9.321a3.442,3.442,0,1,1-3.442,3.442A3.446,3.446,0,0,1,135.8,199.095Z" transform="translate(-108.816 -166.606)"/>
        <path id="Trazado_1086647" data-name="Trazado 1086647" d="M219.417,241.345a5.879,5.879,0,1,0,5.879-5.879A5.886,5.886,0,0,0,219.417,241.345Zm9.321,0A3.442,3.442,0,1,1,225.3,237.9,3.446,3.446,0,0,1,228.738,241.345Z" transform="translate(-183.771 -199.109)"/>
      </g>
    </g>
  </g>
</svg>
