<svg xmlns="http://www.w3.org/2000/svg" width="89.545" height="91.038" viewBox="0 0 89.545 91.038">
  <g id="levantar-la-mano" transform="translate(-16 -16)">
    <circle id="Elipse_11984" data-name="Elipse 11984" cx="37.124" cy="37.124" r="37.124" transform="translate(23.816 16)" fill="#1172b3"/>
    <path id="Trazado_1086648" data-name="Trazado 1086648" d="M173.073,84.317l-4.136-2.087a5.6,5.6,0,0,0-3.37-5.078l-5.042-2.187a5.165,5.165,0,0,0-10.018-1.977v-.313l-1.227-.593a5.6,5.6,0,0,0-7.875,3.713l-.767,10.142a7.461,7.461,0,0,0-9.443,5.936l-1.136,6.818a5.6,5.6,0,0,0,1.379,4.685l11.907,13.1a3.731,3.731,0,0,1,.929,3.063l-4.214,28.1v2.985h25.371v-2.985l-4.183-27.883a3.731,3.731,0,0,1,1.171-3.306l5.339-4.885a5.6,5.6,0,0,0,1.71-3.032l.72-3.6,1.133.916,4.58-14.887A5.6,5.6,0,0,0,173.073,84.317Z" transform="translate(-92.719 -43.58)" fill="#fbb8b0"/>
    <g id="Grupo_1217928" data-name="Grupo 1217928" transform="translate(47.357 42.238)">
      <path id="Trazado_1086649" data-name="Trazado 1086649" d="M184.188,156.648a5.171,5.171,0,0,0-.1,1.019c0,3.855,4.293,7,9.667,7.146a7.433,7.433,0,0,0,2.124-3.894l.132-.661L184.759,156.8C184.569,156.738,184.379,156.691,184.188,156.648Z" transform="translate(-184.085 -156.648)" fill="#d877ff"/>
      <path id="Trazado_1086650" data-name="Trazado 1086650" d="M254.249,204.073c-.066,0-.132-.007-.2-.007-3.292,0-5.961,3.839-5.961,8.575a11.9,11.9,0,0,0,.416,3.146c.123.084.247.166.376.244l3.668,2.2Z" transform="translate(-236.15 -195.22)" fill="#d877ff"/>
      <path id="Trazado_1086651" data-name="Trazado 1086651" d="M297.142,188.073c-.066,0-.132-.007-.2-.007-3.292,0-5.961,3.839-5.961,8.575a11.909,11.909,0,0,0,.416,3.146c.123.084.248.166.376.244l3.668,2.2Z" transform="translate(-271.041 -182.205)" fill="#d877ff"/>
      <path id="Trazado_1086652" data-name="Trazado 1086652" d="M339.891,190.111c-.065-.011-.131-.023-.2-.031-3.268-.4-6.382,3.09-6.955,7.791a11.911,11.911,0,0,0,.032,3.173c.112.1.226.195.344.287l3.375,2.629Z" transform="translate(-304.934 -183.818)" fill="#d877ff"/>
    </g>
    <path id="Trazado_1086653" data-name="Trazado 1086653" d="M195.6,376a5.206,5.206,0,0,0-3.731,1.569,5.22,5.22,0,0,0-7.462,0,5.22,5.22,0,0,0-7.462,0,5.223,5.223,0,1,0,0,7.308,5.22,5.22,0,0,0,7.462,0,5.22,5.22,0,0,0,7.462,0A5.223,5.223,0,1,0,195.6,376Z" transform="translate(-123.638 -292.84)" fill="#f553a3"/>
    <g id="Grupo_1217929" data-name="Grupo 1217929" transform="translate(16 16)">
      <path id="Trazado_1086654" data-name="Trazado 1086654" d="M248,16h2.985v5.97H248Z" transform="translate(-204.72 -16)"/>
      <path id="Trazado_1086655" data-name="Trazado 1086655" d="M0,0H2.985V8.341H0Z" transform="translate(24.017 5.077) rotate(-25.668)"/>
      <path id="Trazado_1086656" data-name="Trazado 1086656" d="M0,0H8.341V2.985H0Z" transform="translate(59.191 11.303) rotate(-64.332)"/>
      <path id="Trazado_1086657" data-name="Trazado 1086657" d="M0,0H2.985V5.692H0Z" transform="translate(3.155 28.228) rotate(-66.433)"/>
      <path id="Trazado_1086658" data-name="Trazado 1086658" d="M0,0H2.985V6.513H0Z" transform="translate(11.358 31.803) rotate(-66.433)"/>
      <path id="Trazado_1086659" data-name="Trazado 1086659" d="M0,0H2.985V16.284H0Z" transform="translate(63.602 54.572) rotate(-66.433)"/>
      <path id="Trazado_1086660" data-name="Trazado 1086660" d="M0,0H2.985V4.063H0Z" transform="translate(81.515 62.38) rotate(-66.433)"/>
      <path id="Trazado_1086661" data-name="Trazado 1086661" d="M0,0H5.692V2.985H0Z" transform="translate(80.034 27.786) rotate(-23.567)"/>
      <path id="Trazado_1086662" data-name="Trazado 1086662" d="M0,0H6.513V2.985H0Z" transform="translate(71.075 31.696) rotate(-23.567)"/>
      <path id="Trazado_1086663" data-name="Trazado 1086663" d="M0,0H16.284V2.985H0Z" transform="translate(9.856 58.414) rotate(-23.567)"/>
      <path id="Trazado_1086664" data-name="Trazado 1086664" d="M0,0H4.063V2.985H0Z" transform="translate(3.144 61.345) rotate(-23.567)"/>
      <path id="Trazado_1086665" data-name="Trazado 1086665" d="M0,0H10.553V2.985H0Z" transform="translate(79.526 7.907) rotate(-45)"/>
      <path id="Trazado_1086666" data-name="Trazado 1086666" d="M0,0H14.774V2.985H0Z" transform="translate(66.094 21.336) rotate(-45)"/>
      <path id="Trazado_1086667" data-name="Trazado 1086667" d="M0,0H21.106V2.985H0Z" transform="translate(13.86 73.56) rotate(-45)"/>
      <path id="Trazado_1086668" data-name="Trazado 1086668" d="M0,0H14.774V2.985H0Z" transform="translate(0.428 86.989) rotate(-45)"/>
      <path id="Trazado_1086669" data-name="Trazado 1086669" d="M0,0H2.985V10.553H0Z" transform="translate(0.436 2.548) rotate(-45)"/>
      <path id="Trazado_1086670" data-name="Trazado 1086670" d="M0,0H2.985V14.774H0Z" transform="translate(10.881 12.995) rotate(-45)"/>
      <path id="Trazado_1086671" data-name="Trazado 1086671" d="M0,0H2.985V21.106H0Z" transform="translate(58.628 60.753) rotate(-45)"/>
      <path id="Trazado_1086672" data-name="Trazado 1086672" d="M0,0H2.985V14.774H0Z" transform="translate(76.533 78.662) rotate(-45)"/>
      <path id="Trazado_1086673" data-name="Trazado 1086673" d="M384,248h20.894v2.985H384Z" transform="translate(-315.349 -204.72)"/>
      <path id="Trazado_1086674" data-name="Trazado 1086674" d="M16,248H32.417v2.985H16Z" transform="translate(-16 -204.72)"/>
      <path id="Trazado_1086675" data-name="Trazado 1086675" d="M122.068,91.959a7.049,7.049,0,0,0,1.747,5.934l4.958,5.454,2.209-2.008-4.958-5.454a4.081,4.081,0,0,1-1.011-3.436l1.136-6.818a5.97,5.97,0,0,1,7.644-4.724l9.923,3.053a6,6,0,0,1-6.425,4.1l-5.057-.632-.37,2.962,5.057.632a8.877,8.877,0,0,0,4.377-.558l-.117,2.919a8.951,8.951,0,0,0,4.34,8.037l3.668,2.2a1.492,1.492,0,0,0,2.25-1.1l.612-5.1a10.805,10.805,0,0,0,2.271,1.822l2.33,1.4a1.492,1.492,0,0,0,2.226-.962l.6-2.767a8.918,8.918,0,0,0,.7.633l1.846,1.492-.543,2.712a4.079,4.079,0,0,1-1.254,2.224l-5.339,4.885a5.215,5.215,0,0,0-1.64,4.629l.937,6.25a6.729,6.729,0,0,0-7.218.156,6.726,6.726,0,0,0-7.462,0,6.624,6.624,0,0,0-1.178-.629l.9-5.988a5.2,5.2,0,0,0-1.3-4.288l-4.778-5.256-2.208,2.008,4.778,5.256a2.231,2.231,0,0,1,.558,1.838l-.891,5.942a6.748,6.748,0,0,0-6.256,5.747l2.955.423a3.746,3.746,0,0,1,3.693-3.2,3.7,3.7,0,0,1,2.665,1.121,1.492,1.492,0,0,0,2.132,0,3.728,3.728,0,0,1,5.33,0,1.492,1.492,0,0,0,2.132,0,3.728,3.728,0,0,1,5.33,0,1.492,1.492,0,0,0,2.132,0,3.731,3.731,0,1,1,0,5.22,1.492,1.492,0,0,0-2.132,0,3.728,3.728,0,0,1-5.33,0,1.492,1.492,0,0,0-2.132,0,3.728,3.728,0,0,1-5.33,0,1.492,1.492,0,0,0-2.132,0,3.7,3.7,0,0,1-2.665,1.121,3.751,3.751,0,0,1-3.373-2.133l-2.7,1.281a6.749,6.749,0,0,0,3.728,3.411l-1.374,9.158a1.52,1.52,0,0,0-.016.221v2.985h2.985v-2.873l1.364-9.094a6.638,6.638,0,0,0,3.113-1.1,6.726,6.726,0,0,0,7.462,0,6.726,6.726,0,0,0,7.462,0,6.716,6.716,0,1,0,3.731-12.3,6.8,6.8,0,0,0-1.089.087l-.871-5.806a2.235,2.235,0,0,1,.7-1.984l5.339-4.885a7.043,7.043,0,0,0,2.166-3.84l.3-1.485.092,0a1.492,1.492,0,0,0,1.426-1.053l2.3-7.462-2.853-.878-1.647,5.354-1.965-1.589a5.987,5.987,0,0,1-1.72-2.26L163.6,78.009l2.287,1.154a4.094,4.094,0,0,1,2.074,4.871l-1.366,4.44,2.853.878,1.366-4.44a7.07,7.07,0,0,0-3.582-8.414l-3.391-1.711a7.108,7.108,0,0,0-4.2-5.492l-4.186-1.815A6.655,6.655,0,0,0,143.5,64.294l-.088-.043a7.089,7.089,0,0,0-9.975,4.7,1.491,1.491,0,0,0-.037.233l-.688,8.5a8.955,8.955,0,0,0-9.507,7.457Zm38.764-15.285L156.4,97.008l-.546-.328a7.873,7.873,0,0,1-3.257-3.842l2.662-22.188,3.19,1.383A4.113,4.113,0,0,1,160.832,76.674ZM146.888,65.152a3.623,3.623,0,0,1,3.405-.27,3.691,3.691,0,0,1,2.2,3.812L148.75,99.879l-1.693-1.016a5.968,5.968,0,0,1-2.894-5.358l.2-5.053a8.892,8.892,0,0,0,2.446-4.557l.132-.661a1.492,1.492,0,0,0-1.025-1.719l-1.261-.388.521-13.018A3.622,3.622,0,0,1,146.888,65.152Zm-8.315,1.769a4.086,4.086,0,0,1,3.538.018l.194.093a6.668,6.668,0,0,0-.108.958l-.489,12.23-6.056-1.864.712-8.8A4.086,4.086,0,0,1,138.573,66.92Z" transform="translate(-102.2 -53.094)"/>
      <path id="Trazado_1086676" data-name="Trazado 1086676" d="M311.153,463.989V461a1.524,1.524,0,0,0-.016-.221l-.9-5.97-2.952.443.879,5.86v2.873Z" transform="translate(-252.948 -372.951)"/>
    </g>
  </g>
</svg>
