<svg xmlns="http://www.w3.org/2000/svg" xmlns:xlink="http://www.w3.org/1999/xlink" width="110" height="110" viewBox="0 0 110 110">
  <defs>
    <filter id="Trazado_982547" x="0" y="0" width="110" height="110" filterUnits="userSpaceOnUse">
      <feOffset dy="3" input="SourceAlpha"/>
      <feGaussianBlur stdDeviation="3" result="blur"/>
      <feFlood flood-opacity="0.161"/>
      <feComposite operator="in" in2="blur"/>
      <feComposite in="SourceGraphic"/>
    </filter>
  </defs>
  <g id="Grupo_1217624" data-name="Grupo 1217624" transform="translate(-692 -3926.28)">
    <g id="Grupo_1211001" data-name="Grupo 1211001" transform="translate(0 -2148)">
      <g id="Grupo_1200151" data-name="Grupo 1200151" transform="translate(701 6080.28)">
        <g id="Grupo_1185952" data-name="Grupo 1185952" transform="translate(0 0)">
          <g id="Grupo_1184115" data-name="Grupo 1184115">
            <g id="Grupo_1183744" data-name="Grupo 1183744" transform="translate(0 0)">
              <g id="Grupo_1181546" data-name="Grupo 1181546">
                <g id="Grupo_1177563" data-name="Grupo 1177563">
                  <g id="Grupo_1173148" data-name="Grupo 1173148" transform="translate(0 0)">
                    <g id="Grupo_1163803" data-name="Grupo 1163803" transform="translate(0 0)">
                      <g id="Grupo_1163015" data-name="Grupo 1163015" transform="translate(0 0)">
                        <g id="Grupo_1157017" data-name="Grupo 1157017" transform="translate(0 0)">
                          <g id="Grupo_1155793" data-name="Grupo 1155793" transform="translate(0 0)">
                            <g id="Grupo_1154704" data-name="Grupo 1154704" transform="translate(0 0)">
                              <g id="Grupo_1150790" data-name="Grupo 1150790">
                                <g id="Grupo_1154214" data-name="Grupo 1154214">
                                  <g id="Grupo_1152583" data-name="Grupo 1152583">
                                    <g id="Grupo_1146973" data-name="Grupo 1146973">
                                      <g id="Grupo_1146954" data-name="Grupo 1146954">
                                        <g transform="matrix(1, 0, 0, 1, -9, -6)" filter="url(#Trazado_982547)">
                                          <g id="Trazado_982547-2" data-name="Trazado 982547" transform="translate(9 6)" fill="#f2d944">
                                            <path d="M 46.00000762939453 90.49988555908203 C 39.99188613891602 90.49988555908203 34.16427612304688 89.32352447509766 28.67906188964844 87.00347137451172 C 23.38020706176758 84.76226043701172 18.62104797363281 81.55342864990234 14.53375434875488 77.46615600585938 C 10.44647407531738 73.37887573242188 7.237647533416748 68.61971282958984 4.996420860290527 63.32085800170898 C 2.676367521286011 57.83565902709961 1.500007629394531 52.00806045532227 1.500007629394531 45.99993896484375 C 1.500007629394531 39.99181747436523 2.676367521286011 34.16421890258789 4.996420860290527 28.67901802062988 C 7.237647533416748 23.38017845153809 10.44647407531738 18.62101936340332 14.53375434875488 14.53373908996582 C 18.62104797363281 10.44645881652832 23.38020706176758 7.237632274627686 28.67906188964844 4.996418952941895 C 34.16427612304688 2.676365613937378 39.99188613891602 1.500005602836609 46.00000762939453 1.500005602836609 C 52.00812911987305 1.500005602836609 57.83573913574219 2.676365613937378 63.32095336914062 4.996418952941895 C 68.61980438232422 7.237632274627686 73.37896728515625 10.44645881652832 77.46626281738281 14.53373908996582 C 81.55354309082031 18.62101936340332 84.76236724853516 23.38017845153809 87.00359344482422 28.67901802062988 C 89.32364654541016 34.16421890258789 90.50000762939453 39.99181747436523 90.50000762939453 45.99993896484375 C 90.50000762939453 52.00806045532227 89.32364654541016 57.83565902709961 87.00359344482422 63.32085800170898 C 84.76236724853516 68.61971282958984 81.55354309082031 73.37887573242188 77.46626281738281 77.46615600585938 C 73.37896728515625 81.55342864990234 68.61980438232422 84.76226043701172 63.32095336914062 87.00347137451172 C 57.83573913574219 89.32352447509766 52.00812911987305 90.49988555908203 46.00000762939453 90.49988555908203 Z" stroke="none"/>
                                            <path d="M 46.00000762939453 2.999992370605469 C 40.19372177124023 2.999992370605469 34.56270599365234 4.136497497558594 29.26339340209961 6.377906799316406 C 24.14333343505859 8.543510437011719 19.54441833496094 11.64437866210938 15.59440612792969 15.59439849853516 C 11.6444091796875 19.54439544677734 8.543525695800781 24.14329528808594 6.377922058105469 29.26335144042969 C 4.136505126953125 34.56266784667969 3.000007629394531 40.19366836547852 3.000007629394531 45.99993896484375 C 3.000007629394531 51.80620956420898 4.136505126953125 57.43722534179688 6.377922058105469 62.73654174804688 C 8.543525695800781 67.85658264160156 11.6444091796875 72.45548248291016 15.59440612792969 76.40549468994141 C 19.54441833496094 80.35549926757812 24.14333343505859 83.45636749267578 29.26337814331055 85.62196350097656 C 34.56270599365234 87.86338043212891 40.19372177124023 88.9998779296875 46.00000762939453 88.9998779296875 C 51.80629348754883 88.9998779296875 57.43730926513672 87.86338043212891 62.73662185668945 85.62196350097656 C 67.85668182373047 83.45636749267578 72.45558166503906 80.35549926757812 76.40559387207031 76.40549468994141 C 80.35560607910156 72.45548248291016 83.45648193359375 67.85658264160156 85.62207794189453 62.73654174804688 C 87.86351013183594 57.43722534179688 89.00000762939453 51.80620956420898 89.00000762939453 45.99993896484375 C 89.00000762939453 40.19366836547852 87.86351013183594 34.56266784667969 85.62207794189453 29.26335144042969 C 83.45648193359375 24.14329528808594 80.35560607910156 19.54439544677734 76.40559387207031 15.59439849853516 C 72.45558166503906 11.64437866210938 67.85668182373047 8.543510437011719 62.73662185668945 6.377906799316406 C 57.43729400634766 4.136497497558594 51.80629348754883 2.999992370605469 46.00000762939453 2.999992370605469 M 46.00000762939453 -7.62939453125e-06 C 71.40509033203125 -7.62939453125e-06 92.00000762939453 20.59487915039062 92.00000762939453 45.99993896484375 C 92.00000762939453 71.40501403808594 71.40509033203125 91.99988555908203 46.00000762939453 91.99988555908203 C 20.59490966796875 91.99988555908203 7.62939453125e-06 71.40501403808594 7.62939453125e-06 45.99993896484375 C 7.62939453125e-06 20.59487915039062 20.59490966796875 -7.62939453125e-06 46.00000762939453 -7.62939453125e-06 Z" stroke="none" fill="#ba9c5a"/>
                                          </g>
                                        </g>
                                      </g>
                                    </g>
                                  </g>
                                </g>
                              </g>
                            </g>
                          </g>
                        </g>
                      </g>
                    </g>
                  </g>
                </g>
              </g>
            </g>
          </g>
        </g>
      </g>
    </g>
    <g id="investigacion_1_" data-name="investigacion (1)" transform="translate(716.001 3950.999)">
      <path id="Trazado_1086137" data-name="Trazado 1086137" d="M397.644,270.176a2.14,2.14,0,0,1-3.025,0l-14.014-14.014,3.025-3.025,14.014,14.014A2.14,2.14,0,0,1,397.644,270.176Zm0,0" transform="translate(-326.34 -217.045)" fill="#484b63"/>
      <path id="Trazado_1086138" data-name="Trazado 1086138" d="M7.5,62.5H52.412v63.019H7.5Zm0,0" transform="translate(-6.431 -53.588)" fill="#d8d5ed"/>
      <path id="Trazado_1086139" data-name="Trazado 1086139" d="M40,307.727h8.555v23.1H40Zm0,0" transform="translate(-34.298 -263.851)" fill="#ff2c5c"/>
      <path id="Trazado_1086140" data-name="Trazado 1086140" d="M134,247.727h8.555v31.652H134Zm0,0" transform="translate(-114.895 -212.406)" fill="#ffd659"/>
      <path id="Trazado_1086141" data-name="Trazado 1086141" d="M230,269.727h8.555v28.516H230Zm0,0" transform="translate(-197.208 -231.269)" fill="#4fc6f5"/>
      <path id="Trazado_1086142" data-name="Trazado 1086142" d="M70,307.727h4.277v23.1H70Zm0,0" transform="translate(-60.02 -263.851)" fill="#e62753"/>
      <path id="Trazado_1086143" data-name="Trazado 1086143" d="M164,247.727h4.277v31.652H164Zm0,0" transform="translate(-140.618 -212.406)" fill="#ffbd54"/>
      <path id="Trazado_1086144" data-name="Trazado 1086144" d="M260,269.727h4.277v28.516H260Zm0,0" transform="translate(-222.93 -231.269)" fill="#3bb3e3"/>
      <path id="Trazado_1086145" data-name="Trazado 1086145" d="M175.613,14.144a22.67,22.67,0,1,0,0,32.059A22.67,22.67,0,0,0,175.613,14.144Zm0,0" transform="translate(-117.393 -6.433)" fill="#50536e"/>
      <path id="Trazado_1086146" data-name="Trazado 1086146" d="M198.362,68.951a18.393,18.393,0,1,1,0-26.011A18.414,18.414,0,0,1,198.362,68.951Zm0,0" transform="translate(-143.166 -32.205)" fill="#b5fcff"/>
      <path id="Trazado_1086147" data-name="Trazado 1086147" d="M296.058,42.943a18.365,18.365,0,0,0-15.144-5.254,18.383,18.383,0,0,1,0,36.52,18.386,18.386,0,0,0,15.144-31.265Zm0,0" transform="translate(-240.862 -32.208)" fill="#71f6fc"/>
      <path id="Trazado_1086148" data-name="Trazado 1086148" d="M72.062,49.069,61.091,38.1A23.747,23.747,0,0,0,62.043,10.7a1.069,1.069,0,1,0-1.787,1.176,21.621,21.621,0,1,1-2.793-3.425l.058.059a1.069,1.069,0,0,0,1.518-1.507l-.061-.062a23.765,23.765,0,0,0-33.573,0q-.436.436-.844.889H1.069A1.07,1.07,0,0,0,0,8.9v4.73a1.069,1.069,0,1,0,2.139,0V9.972H22.845a23.556,23.556,0,0,0-2.109,3.6H7.413a1.069,1.069,0,0,0,0,2.139H19.851a23.69,23.69,0,0,0-.767,2.614H7.413a1.069,1.069,0,0,0,0,2.139H18.688a23.9,23.9,0,0,0-.216,2.614H7.413a1.07,1.07,0,0,0,0,2.139h11.1A23.763,23.763,0,0,0,20.9,34.246h-1.8a1.069,1.069,0,0,0-1.069,1.07V66.973a1.069,1.069,0,0,0,1.069,1.07H27.66a1.069,1.069,0,0,0,1.069-1.07V43.291a23.562,23.562,0,0,0,2.994,1.753V66.973a1.07,1.07,0,0,0,1.069,1.07h8.555a1.069,1.069,0,0,0,1.069-1.07V47.462a24.126,24.126,0,0,0,2.5-.154V63.826a1.069,1.069,0,1,0,2.139,0V46.964a23.579,23.579,0,0,0,9.5-4.328l10.968,10.97a3.209,3.209,0,0,0,4.539-4.537ZM26.591,65.9H20.175V36.385H22.1a23.753,23.753,0,0,0,3.3,4.136q.578.578,1.186,1.107Zm7.272,0V45.964a23.8,23.8,0,0,0,6.416,1.422V65.9ZM70.55,52.093a1.07,1.07,0,0,1-1.513,0L58.2,41.26c.262-.24.521-.485.774-.739s.5-.511.739-.774L70.549,50.581a1.07,1.07,0,0,1,0,1.512Zm0,0" transform="translate(0 0)"/>
      <path id="Trazado_1086149" data-name="Trazado 1086149" d="M45.983,170.78a1.069,1.069,0,0,0-1.069,1.069v2.424H2.139v-52.6a1.069,1.069,0,1,0-2.139,0v53.665a1.069,1.069,0,0,0,1.069,1.069H45.983a1.069,1.069,0,0,0,1.069-1.069V171.85A1.069,1.069,0,0,0,45.983,170.78Zm0,0" transform="translate(-0.001 -103.412)"/>
      <path id="Trazado_1086150" data-name="Trazado 1086150" d="M32.5,301.264v23.1a1.07,1.07,0,0,0,1.069,1.069h8.555a1.07,1.07,0,0,0,1.069-1.069v-23.1a1.07,1.07,0,0,0-1.069-1.069H33.569A1.07,1.07,0,0,0,32.5,301.264Zm2.139,1.07h6.417V323.3H34.639Zm0,0" transform="translate(-27.867 -257.393)"/>
      <path id="Trazado_1086151" data-name="Trazado 1086151" d="M53.565,197.319a1.07,1.07,0,0,0,0-2.139h-8a1.07,1.07,0,0,0,0,2.139Zm0,0" transform="translate(-38.156 -167.351)"/>
      <path id="Trazado_1086152" data-name="Trazado 1086152" d="M178.931,29.988a19.434,19.434,0,1,0,13.762,5.693A19.33,19.33,0,0,0,178.931,29.988ZM191.18,61.7a17.349,17.349,0,1,1,5.065-12.251A17.2,17.2,0,0,1,191.18,61.7Zm0,0" transform="translate(-136.739 -25.712)"/>
    </g>
  </g>
</svg>
