<svg xmlns="http://www.w3.org/2000/svg" xmlns:xlink="http://www.w3.org/1999/xlink" width="110" height="110" viewBox="0 0 110 110">
  <defs>
    <filter id="Trazado_982547" x="0" y="0" width="110" height="110" filterUnits="userSpaceOnUse">
      <feOffset dy="3" input="SourceAlpha"/>
      <feGaussianBlur stdDeviation="3" result="blur"/>
      <feFlood flood-opacity="0.161"/>
      <feComposite operator="in" in2="blur"/>
      <feComposite in="SourceGraphic"/>
    </filter>
  </defs>
  <g id="Grupo_1217626" data-name="Grupo 1217626" transform="translate(2190 -3925.28)">
    <g id="Grupo_1211417" data-name="Grupo 1211417" transform="translate(-2567 -2148)">
      <g id="Grupo_1200150" data-name="Grupo 1200150" transform="translate(386 6079.28)">
        <g id="Grupo_1185951" data-name="Grupo 1185951" transform="translate(0 0)">
          <g id="Grupo_1184083" data-name="Grupo 1184083" transform="translate(0 0)">
            <g id="Grupo_1183743" data-name="Grupo 1183743" transform="translate(0 0)">
              <g id="Grupo_1181545" data-name="Grupo 1181545">
                <g id="Grupo_1177562" data-name="Grupo 1177562">
                  <g id="Grupo_1173147" data-name="Grupo 1173147" transform="translate(0 0)">
                    <g id="Grupo_1163801" data-name="Grupo 1163801" transform="translate(0 0)">
                      <g id="Grupo_1163014" data-name="Grupo 1163014" transform="translate(0 0)">
                        <g id="Grupo_1157015" data-name="Grupo 1157015" transform="translate(0 0)">
                          <g id="Grupo_1155792" data-name="Grupo 1155792" transform="translate(0 0)">
                            <g id="Grupo_1154703" data-name="Grupo 1154703" transform="translate(0 0)">
                              <g id="Grupo_1150789" data-name="Grupo 1150789">
                                <g id="Grupo_1154212" data-name="Grupo 1154212">
                                  <g id="Grupo_1152583" data-name="Grupo 1152583">
                                    <g id="Grupo_1146973" data-name="Grupo 1146973">
                                      <g id="Grupo_1146954" data-name="Grupo 1146954">
                                        <g transform="matrix(1, 0, 0, 1, -9, -6)" filter="url(#Trazado_982547)">
                                          <g id="Trazado_982547-2" data-name="Trazado 982547" transform="translate(9 6)" fill="#f2d944">
                                            <path d="M 46.00000762939453 90.49988555908203 C 39.99188613891602 90.49988555908203 34.16427612304688 89.32352447509766 28.67906188964844 87.00347137451172 C 23.38020706176758 84.76226043701172 18.62104797363281 81.55342864990234 14.53375434875488 77.46615600585938 C 10.44647407531738 73.37887573242188 7.237647533416748 68.61971282958984 4.996420860290527 63.32085800170898 C 2.676367521286011 57.83565902709961 1.500007629394531 52.00806045532227 1.500007629394531 45.99993896484375 C 1.500007629394531 39.99181747436523 2.676367521286011 34.16421890258789 4.996420860290527 28.67901802062988 C 7.237647533416748 23.38017845153809 10.44647407531738 18.62101936340332 14.53375434875488 14.53373908996582 C 18.62104797363281 10.44645881652832 23.38020706176758 7.237632274627686 28.67906188964844 4.996418952941895 C 34.16427612304688 2.676365613937378 39.99188613891602 1.500005602836609 46.00000762939453 1.500005602836609 C 52.00812911987305 1.500005602836609 57.83573913574219 2.676365613937378 63.32095336914062 4.996418952941895 C 68.61980438232422 7.237632274627686 73.37896728515625 10.44645881652832 77.46626281738281 14.53373908996582 C 81.55354309082031 18.62101936340332 84.76236724853516 23.38017845153809 87.00359344482422 28.67901802062988 C 89.32364654541016 34.16421890258789 90.50000762939453 39.99181747436523 90.50000762939453 45.99993896484375 C 90.50000762939453 52.00806045532227 89.32364654541016 57.83565902709961 87.00359344482422 63.32085800170898 C 84.76236724853516 68.61971282958984 81.55354309082031 73.37887573242188 77.46626281738281 77.46615600585938 C 73.37896728515625 81.55342864990234 68.61980438232422 84.76226043701172 63.32095336914062 87.00347137451172 C 57.83573913574219 89.32352447509766 52.00812911987305 90.49988555908203 46.00000762939453 90.49988555908203 Z" stroke="none"/>
                                            <path d="M 46.00000762939453 2.999992370605469 C 40.19372177124023 2.999992370605469 34.56270599365234 4.136497497558594 29.26339340209961 6.377906799316406 C 24.14333343505859 8.543510437011719 19.54441833496094 11.64437866210938 15.59440612792969 15.59439849853516 C 11.6444091796875 19.54439544677734 8.543525695800781 24.14329528808594 6.377922058105469 29.26335144042969 C 4.136505126953125 34.56266784667969 3.000007629394531 40.19366836547852 3.000007629394531 45.99993896484375 C 3.000007629394531 51.80620956420898 4.136505126953125 57.43722534179688 6.377922058105469 62.73654174804688 C 8.543525695800781 67.85658264160156 11.6444091796875 72.45548248291016 15.59440612792969 76.40549468994141 C 19.54441833496094 80.35549926757812 24.14333343505859 83.45636749267578 29.26337814331055 85.62196350097656 C 34.56270599365234 87.86338043212891 40.19372177124023 88.9998779296875 46.00000762939453 88.9998779296875 C 51.80629348754883 88.9998779296875 57.43730926513672 87.86338043212891 62.73662185668945 85.62196350097656 C 67.85668182373047 83.45636749267578 72.45558166503906 80.35549926757812 76.40559387207031 76.40549468994141 C 80.35560607910156 72.45548248291016 83.45648193359375 67.85658264160156 85.62207794189453 62.73654174804688 C 87.86351013183594 57.43722534179688 89.00000762939453 51.80620956420898 89.00000762939453 45.99993896484375 C 89.00000762939453 40.19366836547852 87.86351013183594 34.56266784667969 85.62207794189453 29.26335144042969 C 83.45648193359375 24.14329528808594 80.35560607910156 19.54439544677734 76.40559387207031 15.59439849853516 C 72.45558166503906 11.64437866210938 67.85668182373047 8.543510437011719 62.73662185668945 6.377906799316406 C 57.43729400634766 4.136497497558594 51.80629348754883 2.999992370605469 46.00000762939453 2.999992370605469 M 46.00000762939453 -7.62939453125e-06 C 71.40509033203125 -7.62939453125e-06 92.00000762939453 20.59487915039062 92.00000762939453 45.99993896484375 C 92.00000762939453 71.40501403808594 71.40509033203125 91.99988555908203 46.00000762939453 91.99988555908203 C 20.59490966796875 91.99988555908203 7.62939453125e-06 71.40501403808594 7.62939453125e-06 45.99993896484375 C 7.62939453125e-06 20.59487915039062 20.59490966796875 -7.62939453125e-06 46.00000762939453 -7.62939453125e-06 Z" stroke="none" fill="#ba9c5a"/>
                                          </g>
                                        </g>
                                      </g>
                                    </g>
                                  </g>
                                </g>
                              </g>
                            </g>
                          </g>
                        </g>
                      </g>
                    </g>
                  </g>
                </g>
              </g>
            </g>
          </g>
        </g>
      </g>
    </g>
    <g id="XMLID_1020_" transform="translate(-2171.835 3949.611)">
      <g id="XMLID_1910_" transform="translate(1.366 1.365)">
        <circle id="XMLID_1515_" cx="35.504" cy="35.504" r="35.504" transform="translate(0 0)" fill="#80b6ff"/>
        <g id="Grupo_1217625" data-name="Grupo 1217625" transform="translate(0.073 7.962)">
          <path id="XMLID_1106_" d="M23.721,103.621H17.608A35.244,35.244,0,0,0,10,125.546a35.694,35.694,0,0,0,.34,4.9h.115A12.751,12.751,0,0,0,22.627,121.5a12.751,12.751,0,0,1,4.583-6.45l.225-.167a6.242,6.242,0,0,0-3.715-11.259Z" transform="translate(-10 -98.039)" fill="#89df8f"/>
          <path id="XMLID_1674_" d="M326.255,75.618a10.8,10.8,0,0,0,4.947,9.074l3.743,2.412a6.942,6.942,0,0,1,.371,11.413,7.005,7.005,0,0,0-2.836,5.629,5.164,5.164,0,0,0,5.164,5.164h9.563a35.409,35.409,0,0,0-8.789-44.489h-1.37A10.8,10.8,0,0,0,326.255,75.618Z" transform="translate(-280.75 -64.823)" fill="#89df8f"/>
        </g>
      </g>
      <path id="XMLID_1821_" d="M103.8,345.586h0a11.8,11.8,0,0,0-11.8,11.8v7.257h23.6v-7.257a11.8,11.8,0,0,0-11.8-11.8Z" transform="translate(-78.763 -295.861)" fill="#c5d3de"/>
      <path id="XMLID_1820_" d="M144.1,266.579h0a5.026,5.026,0,0,0-5.025,5.026v1.2a5.026,5.026,0,0,0,5.025,5.026h0a5.026,5.026,0,0,0,5.025-5.026v-1.2A5.026,5.026,0,0,0,144.1,266.579Z" transform="translate(-119.062 -228.222)" fill="#f2b394"/>
      <path id="XMLID_1824_" d="M267.8,345.586h0a11.8,11.8,0,0,1,11.8,11.8v7.257H256v-7.257A11.8,11.8,0,0,1,267.8,345.586Z" transform="translate(-219.167 -295.861)" fill="#ffcd69"/>
      <path id="XMLID_1823_" d="M308.1,266.579h0a5.026,5.026,0,0,1,5.026,5.026v1.2a5.026,5.026,0,0,1-5.026,5.026h0a5.026,5.026,0,0,1-5.026-5.026v-1.2A5.025,5.025,0,0,1,308.1,266.579Z" transform="translate(-259.467 -228.222)" fill="#f2b394"/>
      <path id="XMLID_1807_" d="M21.8,420h0A11.8,11.8,0,0,0,10,431.8H33.6A11.8,11.8,0,0,0,21.8,420Z" transform="translate(-8.561 -359.568)" fill="#ffcd69"/>
      <path id="XMLID_1806_" d="M62.1,340.993h0a5.026,5.026,0,0,0-5.025,5.026v1.2a5.025,5.025,0,0,0,5.025,5.025h0a5.025,5.025,0,0,0,5.025-5.025v-1.2A5.026,5.026,0,0,0,62.1,340.993Z" transform="translate(-48.86 -291.929)" fill="#f5c6af"/>
      <path id="XMLID_1812_" d="M185.8,420h0A11.8,11.8,0,0,0,174,431.8h23.6A11.8,11.8,0,0,0,185.8,420Z" transform="translate(-148.964 -359.568)" fill="#ff7d97"/>
      <path id="XMLID_1811_" d="M226.1,340.993h0a5.026,5.026,0,0,0-5.025,5.026v1.2a5.025,5.025,0,0,0,5.025,5.025h0a5.025,5.025,0,0,0,5.026-5.025v-1.2A5.026,5.026,0,0,0,226.1,340.993Z" transform="translate(-189.263 -291.929)" fill="#f2b394"/>
      <path id="XMLID_1816_" d="M349.8,420h0A11.8,11.8,0,0,0,338,431.8h23.6A11.8,11.8,0,0,0,349.8,420Z" transform="translate(-289.367 -359.568)" fill="#c5d3de"/>
      <path id="XMLID_1815_" d="M390.1,340.993h0a5.026,5.026,0,0,0-5.025,5.026v1.2a5.025,5.025,0,0,0,5.025,5.025h0a5.025,5.025,0,0,0,5.025-5.025v-1.2A5.026,5.026,0,0,0,390.1,340.993Z" transform="translate(-329.666 -291.929)" fill="#f5c6af"/>
      <path id="XMLID_1906_" d="M198.852,140.559a5.633,5.633,0,0,0,5.781,1.227,6.43,6.43,0,0,0,4.268-6.056v-2.746a4.984,4.984,0,0,0-9.354-2.4l-1.747,3.185A5.633,5.633,0,0,0,198.852,140.559Z" transform="translate(-168.744 -109.583)" fill="#89df8f"/>
      <g id="XMLID_4_" transform="translate(0 0)">
        <path id="XMLID_768_" d="M65.478,59.993a36.9,36.9,0,0,0,6.764-33.344,1.439,1.439,0,1,0-2.766.794,34.053,34.053,0,0,1-2.7,25.412,6.474,6.474,0,0,0-6.345-5.231h0a6.455,6.455,0,0,0-5.089,2.485c-.182-.108-.366-.212-.553-.311a3.715,3.715,0,0,1-.181-1.149,5.589,5.589,0,0,1,2.253-4.473A8.38,8.38,0,0,0,56.414,30.4L52.67,27.987a9.356,9.356,0,0,1,5.068-17.221h.876a34.478,34.478,0,0,1,5.3,5.578,1.439,1.439,0,1,0,2.293-1.738A37.17,37.17,0,0,0,53.5,3.976,36.842,36.842,0,0,0,0,36.835,36.741,36.741,0,0,0,8.192,59.993,13.258,13.258,0,0,0,0,72.23a1.439,1.439,0,0,0,1.439,1.439H72.231a1.439,1.439,0,0,0,1.439-1.439,13.257,13.257,0,0,0-8.191-12.237Zm-48.654-5.9v1.2a3.587,3.587,0,0,1-7.174,0v-1.2A3.591,3.591,0,0,1,13.237,50.5h0A3.591,3.591,0,0,1,16.824,54.089Zm2.878,1.2v-1.2a6.461,6.461,0,0,0-.145-1.359,10.365,10.365,0,0,1,10.958,0,6.46,6.46,0,0,0-.145,1.359v1.2A6.442,6.442,0,0,0,32.23,59.82a13.313,13.313,0,0,0-7.193,6.412,13.313,13.313,0,0,0-7.194-6.412A6.442,6.442,0,0,0,19.7,55.289Zm8.921-10.707a3.587,3.587,0,0,1-7.174,0v-1.2A3.591,3.591,0,0,1,25.036,39.8h0a3.591,3.591,0,0,1,3.587,3.587Zm11.8,9.508v1.2a3.587,3.587,0,0,1-7.174,0v-1.2A3.591,3.591,0,0,1,36.834,50.5h0A3.591,3.591,0,0,1,40.421,54.089Zm2.878,1.2v-1.2a6.467,6.467,0,0,0-.145-1.359,10.367,10.367,0,0,1,10.958,0,6.462,6.462,0,0,0-.145,1.36v1.2a6.442,6.442,0,0,0,1.859,4.531,13.313,13.313,0,0,0-7.193,6.412A13.313,13.313,0,0,0,41.44,59.82,6.442,6.442,0,0,0,43.3,55.289Zm8.921-10.707a3.587,3.587,0,0,1-7.174,0v-1.2A3.591,3.591,0,0,1,48.633,39.8h0a3.591,3.591,0,0,1,3.586,3.587v1.2ZM60.432,50.5h0a3.591,3.591,0,0,1,3.587,3.587v1.2a3.587,3.587,0,0,1-7.174,0v-1.2A3.591,3.591,0,0,1,60.432,50.5ZM36.835,2.878A33.757,33.757,0,0,1,55.1,8.179a12.233,12.233,0,0,0-3.985,22.227l3.743,2.413a5.5,5.5,0,0,1,.294,9.047c-.067.05-.131.1-.2.155a6.475,6.475,0,0,0-6.319-5.1h0a6.472,6.472,0,0,0-6.464,6.464v1.2a6.442,6.442,0,0,0,1.856,4.527,13.063,13.063,0,0,0-2.1,1,6.455,6.455,0,0,0-5.088-2.484h0a6.455,6.455,0,0,0-5.088,2.484,13.082,13.082,0,0,0-2.1-1A6.442,6.442,0,0,0,31.5,44.582v-1.2a6.472,6.472,0,0,0-6.464-6.464h0a6.472,6.472,0,0,0-6.464,6.464v1.2a6.442,6.442,0,0,0,1.856,4.527,13.07,13.07,0,0,0-2.1,1,6.455,6.455,0,0,0-5.088-2.484h0a6.474,6.474,0,0,0-6.345,5.233,33.828,33.828,0,0,1-3.436-9.766A14.08,14.08,0,0,0,10.3,40.419a14.1,14.1,0,0,0,5.138-7.205,11.241,11.241,0,0,1,4.067-5.722l.225-.167A7.681,7.681,0,0,0,15.16,13.471H12.216A33.865,33.865,0,0,1,36.835,2.878ZM9.772,16.348H15.16a4.8,4.8,0,0,1,2.859,8.664l-.225.167a14.1,14.1,0,0,0-5.1,7.178A11.255,11.255,0,0,1,3.05,40.241q-.169-1.69-.172-3.406A33.781,33.781,0,0,1,9.772,16.348Zm-6.8,54.443a10.376,10.376,0,0,1,10.26-8.921h0A10.375,10.375,0,0,1,23.5,70.792Zm23.6,0a10.376,10.376,0,0,1,10.26-8.921h0a10.375,10.375,0,0,1,10.26,8.921Zm23.6,0a10.376,10.376,0,0,1,10.26-8.921h0a10.375,10.375,0,0,1,10.26,8.921Z" transform="translate(0 0)"/>
        <path id="XMLID_1169_" d="M189.308,133.039a7.041,7.041,0,0,0,7.258,1.54,7.886,7.886,0,0,0,5.222-7.411v-2.746a6.423,6.423,0,0,0-12.054-3.089l-1.747,3.185a7.079,7.079,0,0,0,1.321,8.521Zm1.2-7.137,1.747-3.185a3.545,3.545,0,0,1,6.654,1.705v2.746a5,5,0,0,1-3.313,4.7,4.194,4.194,0,0,1-5.088-5.967Z" transform="translate(-160.193 -101.022)"/>
        <path id="XMLID_1178_" d="M467.559,138.928a1.439,1.439,0,1,0-1.017-.422A1.45,1.45,0,0,0,467.559,138.928Z" transform="translate(-399.052 -116.474)"/>
      </g>
    </g>
  </g>
</svg>
