<svg xmlns="http://www.w3.org/2000/svg" xmlns:xlink="http://www.w3.org/1999/xlink" width="110" height="110" viewBox="0 0 110 110">
  <defs>
    <filter id="Trazado_982547" x="0" y="0" width="110" height="110" filterUnits="userSpaceOnUse">
      <feOffset dy="3" input="SourceAlpha"/>
      <feGaussianBlur stdDeviation="3" result="blur"/>
      <feFlood flood-opacity="0.161"/>
      <feComposite operator="in" in2="blur"/>
      <feComposite in="SourceGraphic"/>
    </filter>
  </defs>
  <g id="Grupo_1217653" data-name="Grupo 1217653" transform="translate(1875 -3926.28)">
    <g id="Grupo_1211418" data-name="Grupo 1211418" transform="translate(-2567 -2148)">
      <g id="Grupo_1200151" data-name="Grupo 1200151" transform="translate(701 6080.28)">
        <g id="Grupo_1185952" data-name="Grupo 1185952" transform="translate(0 0)">
          <g id="Grupo_1184115" data-name="Grupo 1184115">
            <g id="Grupo_1183744" data-name="Grupo 1183744" transform="translate(0 0)">
              <g id="Grupo_1181546" data-name="Grupo 1181546">
                <g id="Grupo_1177563" data-name="Grupo 1177563">
                  <g id="Grupo_1173148" data-name="Grupo 1173148" transform="translate(0 0)">
                    <g id="Grupo_1163803" data-name="Grupo 1163803" transform="translate(0 0)">
                      <g id="Grupo_1163015" data-name="Grupo 1163015" transform="translate(0 0)">
                        <g id="Grupo_1157017" data-name="Grupo 1157017" transform="translate(0 0)">
                          <g id="Grupo_1155793" data-name="Grupo 1155793" transform="translate(0 0)">
                            <g id="Grupo_1154704" data-name="Grupo 1154704" transform="translate(0 0)">
                              <g id="Grupo_1150790" data-name="Grupo 1150790">
                                <g id="Grupo_1154214" data-name="Grupo 1154214">
                                  <g id="Grupo_1152583" data-name="Grupo 1152583">
                                    <g id="Grupo_1146973" data-name="Grupo 1146973">
                                      <g id="Grupo_1146954" data-name="Grupo 1146954">
                                        <g transform="matrix(1, 0, 0, 1, -9, -6)" filter="url(#Trazado_982547)">
                                          <g id="Trazado_982547-2" data-name="Trazado 982547" transform="translate(9 6)" fill="#f2d944">
                                            <path d="M 46.00000762939453 90.49988555908203 C 39.99188613891602 90.49988555908203 34.16427612304688 89.32352447509766 28.67906188964844 87.00347137451172 C 23.38020706176758 84.76226043701172 18.62104797363281 81.55342864990234 14.53375434875488 77.46615600585938 C 10.44647407531738 73.37887573242188 7.237647533416748 68.61971282958984 4.996420860290527 63.32085800170898 C 2.676367521286011 57.83565902709961 1.500007629394531 52.00806045532227 1.500007629394531 45.99993896484375 C 1.500007629394531 39.99181747436523 2.676367521286011 34.16421890258789 4.996420860290527 28.67901802062988 C 7.237647533416748 23.38017845153809 10.44647407531738 18.62101936340332 14.53375434875488 14.53373908996582 C 18.62104797363281 10.44645881652832 23.38020706176758 7.237632274627686 28.67906188964844 4.996418952941895 C 34.16427612304688 2.676365613937378 39.99188613891602 1.500005602836609 46.00000762939453 1.500005602836609 C 52.00812911987305 1.500005602836609 57.83573913574219 2.676365613937378 63.32095336914062 4.996418952941895 C 68.61980438232422 7.237632274627686 73.37896728515625 10.44645881652832 77.46626281738281 14.53373908996582 C 81.55354309082031 18.62101936340332 84.76236724853516 23.38017845153809 87.00359344482422 28.67901802062988 C 89.32364654541016 34.16421890258789 90.50000762939453 39.99181747436523 90.50000762939453 45.99993896484375 C 90.50000762939453 52.00806045532227 89.32364654541016 57.83565902709961 87.00359344482422 63.32085800170898 C 84.76236724853516 68.61971282958984 81.55354309082031 73.37887573242188 77.46626281738281 77.46615600585938 C 73.37896728515625 81.55342864990234 68.61980438232422 84.76226043701172 63.32095336914062 87.00347137451172 C 57.83573913574219 89.32352447509766 52.00812911987305 90.49988555908203 46.00000762939453 90.49988555908203 Z" stroke="none"/>
                                            <path d="M 46.00000762939453 2.999992370605469 C 40.19372177124023 2.999992370605469 34.56270599365234 4.136497497558594 29.26339340209961 6.377906799316406 C 24.14333343505859 8.543510437011719 19.54441833496094 11.64437866210938 15.59440612792969 15.59439849853516 C 11.6444091796875 19.54439544677734 8.543525695800781 24.14329528808594 6.377922058105469 29.26335144042969 C 4.136505126953125 34.56266784667969 3.000007629394531 40.19366836547852 3.000007629394531 45.99993896484375 C 3.000007629394531 51.80620956420898 4.136505126953125 57.43722534179688 6.377922058105469 62.73654174804688 C 8.543525695800781 67.85658264160156 11.6444091796875 72.45548248291016 15.59440612792969 76.40549468994141 C 19.54441833496094 80.35549926757812 24.14333343505859 83.45636749267578 29.26337814331055 85.62196350097656 C 34.56270599365234 87.86338043212891 40.19372177124023 88.9998779296875 46.00000762939453 88.9998779296875 C 51.80629348754883 88.9998779296875 57.43730926513672 87.86338043212891 62.73662185668945 85.62196350097656 C 67.85668182373047 83.45636749267578 72.45558166503906 80.35549926757812 76.40559387207031 76.40549468994141 C 80.35560607910156 72.45548248291016 83.45648193359375 67.85658264160156 85.62207794189453 62.73654174804688 C 87.86351013183594 57.43722534179688 89.00000762939453 51.80620956420898 89.00000762939453 45.99993896484375 C 89.00000762939453 40.19366836547852 87.86351013183594 34.56266784667969 85.62207794189453 29.26335144042969 C 83.45648193359375 24.14329528808594 80.35560607910156 19.54439544677734 76.40559387207031 15.59439849853516 C 72.45558166503906 11.64437866210938 67.85668182373047 8.543510437011719 62.73662185668945 6.377906799316406 C 57.43729400634766 4.136497497558594 51.80629348754883 2.999992370605469 46.00000762939453 2.999992370605469 M 46.00000762939453 -7.62939453125e-06 C 71.40509033203125 -7.62939453125e-06 92.00000762939453 20.59487915039062 92.00000762939453 45.99993896484375 C 92.00000762939453 71.40501403808594 71.40509033203125 91.99988555908203 46.00000762939453 91.99988555908203 C 20.59490966796875 91.99988555908203 7.62939453125e-06 71.40501403808594 7.62939453125e-06 45.99993896484375 C 7.62939453125e-06 20.59487915039062 20.59490966796875 -7.62939453125e-06 46.00000762939453 -7.62939453125e-06 Z" stroke="none" fill="#ba9c5a"/>
                                          </g>
                                        </g>
                                      </g>
                                    </g>
                                  </g>
                                </g>
                              </g>
                            </g>
                          </g>
                        </g>
                      </g>
                    </g>
                  </g>
                </g>
              </g>
            </g>
          </g>
        </g>
      </g>
    </g>
    <g id="contrato_2_" data-name="contrato (2)" transform="translate(-1876.589 3951.917)">
      <g id="Grupo_1217649" data-name="Grupo 1217649" transform="translate(29.817 1.087)">
        <g id="Grupo_1217648" data-name="Grupo 1217648" transform="translate(0)">
          <g id="Grupo_1217647" data-name="Grupo 1217647">
            <g id="Grupo_1217636" data-name="Grupo 1217636">
              <g id="Grupo_1217635" data-name="Grupo 1217635">
                <g id="Grupo_1217634" data-name="Grupo 1217634">
                  <g id="Grupo_1217633" data-name="Grupo 1217633">
                    <g id="Grupo_1217632" data-name="Grupo 1217632">
                      <g id="Grupo_1217631" data-name="Grupo 1217631">
                        <g id="Grupo_1217630" data-name="Grupo 1217630">
                          <g id="Grupo_1217629" data-name="Grupo 1217629">
                            <g id="Grupo_1217628" data-name="Grupo 1217628">
                              <g id="Grupo_1217627" data-name="Grupo 1217627">
                                <path id="Trazado_1086153" data-name="Trazado 1086153" d="M40.71,7.5a4.476,4.476,0,0,0-4.476,4.476V69.635a4.476,4.476,0,0,0,4.476,4.476H82.8a4.476,4.476,0,0,0,4.476-4.476V21.3a3.391,3.391,0,0,0-.993-2.4L75.866,8.493a3.391,3.391,0,0,0-2.4-.993Z" transform="translate(-36.234 -7.5)" fill="#f4f8f8"/>
                                <path id="Trazado_1086154" data-name="Trazado 1086154" d="M301.6,92.425a4.493,4.493,0,0,1-.981-.109v49.846a4.476,4.476,0,0,1-4.476,4.476h8.9a4.476,4.476,0,0,0,4.476-4.476V93.83a3.387,3.387,0,0,0-.306-1.4Z" transform="translate(-258.48 -80.027)" fill="#e7ecf1"/>
                                <path id="Trazado_1086155" data-name="Trazado 1086155" d="M314.312,20.708,303.9,10.3a3.388,3.388,0,0,0-.993-.688v7.617a4.476,4.476,0,0,0,4.476,4.476H315A3.394,3.394,0,0,0,314.312,20.708Z" transform="translate(-264.268 -9.303)" fill="#fc8086"/>
                              </g>
                            </g>
                          </g>
                        </g>
                      </g>
                    </g>
                  </g>
                </g>
              </g>
            </g>
            <g id="Grupo_1217646" data-name="Grupo 1217646" transform="translate(8.487 36.649)">
              <g id="Grupo_1217644" data-name="Grupo 1217644" transform="translate(2.482 2.914)">
                <g id="Grupo_1217643" data-name="Grupo 1217643">
                  <g id="Grupo_1217638" data-name="Grupo 1217638">
                    <g id="Grupo_1217637" data-name="Grupo 1217637">
                      <path id="Trazado_1086156" data-name="Trazado 1086156" d="M155.584,299.21,139.6,289.742a1.726,1.726,0,0,1-.6-2.364l.818-1.381-3.235-1.914c-2.134-1.224-3.132-1.451-5.057-.707l-2.1.811a4.466,4.466,0,0,1-3.887-.323l-5.616-3.311-7.976,13.463,7.191,4.244a4.467,4.467,0,0,1,1.261,1.115l2.423,3.142a27.883,27.883,0,0,0,5.872,4.645l9.248,5.479a2.569,2.569,0,0,0,2.619-4.421l2.889,1.712a2.569,2.569,0,0,0,2.619-4.421l1.926,1.141a2.569,2.569,0,1,0,2.619-4.421l2.357,1.4a2.569,2.569,0,1,0,2.618-4.42Z" transform="translate(-111.941 -280.553)" fill="#ffece3"/>
                    </g>
                    <path id="Trazado_1086157" data-name="Trazado 1086157" d="M267.186,390.058l-5.51-3.263a2.946,2.946,0,0,1-.737,1.324,3.061,3.061,0,0,1-3.758.462l-1.567-.928a.138.138,0,0,0-.182.2,2.991,2.991,0,0,1-3.971,4.295l-1.231-.735a.119.119,0,0,0-.155.174,2.989,2.989,0,0,1,.164,3.378,3.043,3.043,0,0,1-4.138.962l-1.011-.6a.591.591,0,0,0-.881.624,2.98,2.98,0,0,1-1.754,3.344l7.026,4.163a2.624,2.624,0,0,0,3.6-.909,2.569,2.569,0,0,0-.925-3.477l2.831,1.677a2.624,2.624,0,0,0,3.6-.909,2.569,2.569,0,0,0-.925-3.477l1.868,1.107a2.624,2.624,0,0,0,3.6-.909,2.569,2.569,0,0,0-.925-3.477l2.3,1.362a2.624,2.624,0,0,0,3.6-.909A2.569,2.569,0,0,0,267.186,390.058Z" transform="translate(-223.544 -371.401)" fill="#ffddce"/>
                  </g>
                  <g id="Grupo_1217639" data-name="Grupo 1217639" transform="translate(22.873 0.804)">
                    <path id="Trazado_1086158" data-name="Trazado 1086158" d="M289.19,286.1l-4.313,2.507a4.467,4.467,0,0,1-3.887.323l-2.366-.93a3.8,3.8,0,0,0-2.324-.147l-3.625.917a3.8,3.8,0,0,0-2.87,3.686V297.3a1.241,1.241,0,0,0,1.239,1.241,3.734,3.734,0,0,0,3.736-3.734v-.2l15.518,9.189a4.462,4.462,0,0,1,.98-.786l5.888-3.44Z" transform="translate(-269.805 -286.104)" fill="#fcd0a3"/>
                  </g>
                  <g id="Grupo_1217640" data-name="Grupo 1217640" transform="translate(34.439 4.688)">
                    <path id="Trazado_1086159" data-name="Trazado 1086159" d="M359.746,312.9l-.829,3.075-9.29,5.444,8.927,5.286a4.467,4.467,0,0,1,.98-.786l5.888-3.44Z" transform="translate(-349.627 -312.905)" fill="#ffb983"/>
                  </g>
                  <g id="Grupo_1217642" data-name="Grupo 1217642" transform="translate(4.232 16.492)">
                    <g id="Grupo_1217641" data-name="Grupo 1217641">
                      <path id="Trazado_1086160" data-name="Trazado 1086160" d="M147.261,398.441l-1.455,2.026a2.568,2.568,0,1,1-4.173-3l1.455-2.026a2.568,2.568,0,0,1,4.173,3Z" transform="translate(-141.152 -394.375)" fill="#fcd0a3"/>
                      <path id="Trazado_1086161" data-name="Trazado 1086161" d="M177.665,403.68l-3.06,4.263a2.568,2.568,0,1,1-4.173-3l3.06-4.263a2.568,2.568,0,0,1,4.173,3Z" transform="translate(-165.777 -398.854)" fill="#fcd0a3"/>
                      <path id="Trazado_1086162" data-name="Trazado 1086162" d="M206.463,424.355l-3.06,4.263a2.568,2.568,0,0,1-4.173-3l3.06-4.263a2.568,2.568,0,1,1,4.173,3Z" transform="translate(-190.402 -416.534)" fill="#fcd0a3"/>
                    </g>
                    <path id="Trazado_1086163" data-name="Trazado 1086163" d="M237.931,458.1l-1.018,1.418a2.568,2.568,0,1,1-4.173-3l1.018-1.418a2.568,2.568,0,0,1,4.173,3Z" transform="translate(-219.058 -445.391)" fill="#ffb983"/>
                  </g>
                </g>
              </g>
              <g id="Grupo_1217645" data-name="Grupo 1217645">
                <path id="Trazado_1086164" data-name="Trazado 1086164" d="M108.275,261.955l-2.249-1.333a1.3,1.3,0,0,0-1.784.457l-9.248,15.61a1.3,1.3,0,0,0,.457,1.784l2.249,1.333a3.175,3.175,0,0,0,4.35-1.114l7.339-12.387A3.175,3.175,0,0,0,108.275,261.955Z" transform="translate(-94.812 -260.441)" fill="#7c8b96"/>
                <path id="Trazado_1086165" data-name="Trazado 1086165" d="M375.9,260.623l-2.249,1.333a3.175,3.175,0,0,0-1.114,4.35l7.339,12.387a3.175,3.175,0,0,0,4.35,1.113l2.249-1.333a1.3,1.3,0,0,0,.457-1.784l-9.248-15.61A1.3,1.3,0,0,0,375.9,260.623Z" transform="translate(-331.918 -260.441)" fill="#7c8b96"/>
              </g>
            </g>
          </g>
        </g>
      </g>
      <g id="Grupo_1217652" data-name="Grupo 1217652" transform="translate(28.73 0)">
        <g id="Grupo_1217651" data-name="Grupo 1217651" transform="translate(0 0)">
          <g id="Grupo_1217650" data-name="Grupo 1217650">
            <path id="Trazado_1086166" data-name="Trazado 1086166" d="M118.85,137.8H83.324a1.091,1.091,0,0,0,0,2.183h35.526a1.091,1.091,0,1,0,0-2.183Z" transform="translate(-74.481 -117.837)"/>
            <path id="Trazado_1086167" data-name="Trazado 1086167" d="M83.324,87.74h17.763a1.091,1.091,0,1,0,0-2.183H83.324a1.091,1.091,0,0,0,0,2.183Z" transform="translate(-74.481 -73.16)"/>
            <path id="Trazado_1086168" data-name="Trazado 1086168" d="M118.85,184.1H83.324a1.091,1.091,0,0,0,0,2.183h35.526a1.091,1.091,0,1,0,0-2.183Z" transform="translate(-74.481 -157.422)"/>
            <path id="Trazado_1086169" data-name="Trazado 1086169" d="M45.666,66.6H34.3a3.388,3.388,0,0,1-3.384-3.384V5.567A3.388,3.388,0,0,1,34.3,2.183H67.051a2.335,2.335,0,0,1,.313.024V9.012a5.573,5.573,0,0,0,5.567,5.567h6.806a2.317,2.317,0,0,1,.024.313V33.476a1.091,1.091,0,1,0,2.183,0V14.893a4.453,4.453,0,0,0-1.313-3.169L70.22,1.313A4.452,4.452,0,0,0,67.051,0H34.3A5.573,5.573,0,0,0,28.73,5.567V63.218A5.573,5.573,0,0,0,34.3,68.785H45.666a1.091,1.091,0,1,0,0-2.183ZM78.217,12.4H72.931a3.388,3.388,0,0,1-3.384-3.384V3.726Z" transform="translate(-28.73 0)"/>
            <path id="Trazado_1086170" data-name="Trazado 1086170" d="M144.334,269.684l-9.247-15.608a2.392,2.392,0,0,0-3.279-.84l-2.249,1.333a4.273,4.273,0,0,0-1.884,4.982,3.346,3.346,0,0,1-2.354-.026c-1.776-.559-3.126-1.683-5.356-1.119-3.786.964-3.671.916-4.014,1.033-2.217-1.262-3.549-1.638-5.9-.727l-2.1.811a3.356,3.356,0,0,1-2.939-.245l-.572-.337a4.263,4.263,0,0,0-2.035-4.371h0l-2.249-1.332a2.4,2.4,0,0,0-3.279.839l-9.247,15.608a2.392,2.392,0,0,0,.839,3.279l2.249,1.332a4.24,4.24,0,0,0,2.167.595,4.3,4.3,0,0,0,2.331-.689l.469.277-.99,1.378a3.656,3.656,0,0,0,3.54,5.746,3.653,3.653,0,0,0,4.172,3,3.657,3.657,0,0,0,5.048,2.745,3.655,3.655,0,0,0,6.217,1.028l2.63,1.558a3.664,3.664,0,0,0,5.5-2.712l.006,0a3.66,3.66,0,0,0,5.515-2.879,3.66,3.66,0,0,0,4.534-3.165A3.661,3.661,0,0,0,136,275.415l1.45-.847a4.257,4.257,0,0,0,3.8-.272l2.249-1.332A2.392,2.392,0,0,0,144.334,269.684Zm-52.5,2.734-2.249-1.333a.211.211,0,0,1-.074-.289l9.247-15.608a.211.211,0,0,1,.289-.074l2.249,1.332a2.084,2.084,0,0,1,.731,2.855l-7.338,12.385A2.086,2.086,0,0,1,91.831,272.418Zm4.976,6.773a1.476,1.476,0,0,1-.338-2.061l1.455-2.026a1.477,1.477,0,0,1,2.4,1.722l-1.455,2.026A1.479,1.479,0,0,1,96.808,279.191Zm4.172,3a1.478,1.478,0,0,1-.338-2.061L102.1,278.1h0l1.605-2.236a1.466,1.466,0,0,1,.96-.6,1.476,1.476,0,0,1,1.7,1.218,1.467,1.467,0,0,1-.258,1.1l-3.06,4.262A1.475,1.475,0,0,1,100.98,282.186Zm4.172,3a1.478,1.478,0,0,1-.339-2.06h0l3.06-4.262a1.477,1.477,0,1,1,2.4,1.722l-1.36,1.894h0l-1.7,2.368A1.478,1.478,0,0,1,105.152,285.181Zm4.855,2.044a1.479,1.479,0,0,1-.339-2.06l1.018-1.418a1.477,1.477,0,1,1,2.4,1.722l-1.018,1.417A1.478,1.478,0,0,1,110.007,287.225Zm24.461-8.7a1.479,1.479,0,0,1-2.024.518l-9.66-5.723a1.091,1.091,0,1,0-1.113,1.878l7.3,4.327h0a1.477,1.477,0,0,1-1.506,2.542l-7.307-4.329a1.091,1.091,0,1,0-1.113,1.878l5.381,3.188h0a1.477,1.477,0,0,1-1.507,2.542l-2.888-1.711h0l-2.107-1.249a1.091,1.091,0,0,0-1.113,1.878l2.108,1.249h0a1.477,1.477,0,1,1-1.506,2.542l-2.459-1.457A3.657,3.657,0,0,0,112.5,281a3.656,3.656,0,0,0-3.993-4.9,3.659,3.659,0,0,0-6.207-1.956,3.656,3.656,0,0,0-5.088-1.305l-.5-.3,6.864-11.585.327.193a5.526,5.526,0,0,0,4.836.4l2.1-.811a3.221,3.221,0,0,1,3.05.066,4.885,4.885,0,0,0-1.238,3.254v4.839a2.334,2.334,0,0,0,2.329,2.332h0a4.834,4.834,0,0,0,4.569-3.267l14.4,8.528a1.477,1.477,0,0,1,.518,2.023Zm7.915-7.439-2.249,1.333a2.086,2.086,0,0,1-2.855-.731l-3.439-5.805a1.091,1.091,0,0,0-1.878,1.112L135.4,272.8c.065.109.135.213.208.314l-.956.559a5.543,5.543,0,0,0-.557.377l-14.826-8.78a1.092,1.092,0,0,0-1.647.939,2.787,2.787,0,0,1-.774,2.074,2.626,2.626,0,0,1-1.868.773h0a.149.149,0,0,1-.148-.15v-4.839a2.715,2.715,0,0,1,2.046-2.628l3.625-.917c1.315-.332,2.059.37,4.028,1.036a5.517,5.517,0,0,0,4.173-.067l.659,1.112a1.091,1.091,0,0,0,1.878-1.112l-1.3-2.19a2.083,2.083,0,0,1,.731-2.855l2.249-1.332a.211.211,0,0,1,.289.074l9.247,15.608a.21.21,0,0,1-.074.289Z" transform="translate(-78.81 -216.258)"/>
          </g>
        </g>
      </g>
    </g>
  </g>
</svg>
