<svg xmlns="http://www.w3.org/2000/svg" xmlns:xlink="http://www.w3.org/1999/xlink" width="110" height="110" viewBox="0 0 110 110">
  <defs>
    <filter id="Trazado_982547" x="0" y="0" width="110" height="110" filterUnits="userSpaceOnUse">
      <feOffset dy="3" input="SourceAlpha"/>
      <feGaussianBlur stdDeviation="3" result="blur"/>
      <feFlood flood-opacity="0.161"/>
      <feComposite operator="in" in2="blur"/>
      <feComposite in="SourceGraphic"/>
    </filter>
  </defs>
  <g id="Grupo_1217669" data-name="Grupo 1217669" transform="translate(1875 -4291.28)">
    <g id="Grupo_1211419" data-name="Grupo 1211419" transform="translate(-2252 -1782)">
      <g id="Grupo_1200150" data-name="Grupo 1200150" transform="translate(386 6079.28)">
        <g id="Grupo_1185951" data-name="Grupo 1185951" transform="translate(0 0)">
          <g id="Grupo_1184083" data-name="Grupo 1184083" transform="translate(0 0)">
            <g id="Grupo_1183743" data-name="Grupo 1183743" transform="translate(0 0)">
              <g id="Grupo_1181545" data-name="Grupo 1181545">
                <g id="Grupo_1177562" data-name="Grupo 1177562">
                  <g id="Grupo_1173147" data-name="Grupo 1173147" transform="translate(0 0)">
                    <g id="Grupo_1163801" data-name="Grupo 1163801" transform="translate(0 0)">
                      <g id="Grupo_1163014" data-name="Grupo 1163014" transform="translate(0 0)">
                        <g id="Grupo_1157015" data-name="Grupo 1157015" transform="translate(0 0)">
                          <g id="Grupo_1155792" data-name="Grupo 1155792" transform="translate(0 0)">
                            <g id="Grupo_1154703" data-name="Grupo 1154703" transform="translate(0 0)">
                              <g id="Grupo_1150789" data-name="Grupo 1150789">
                                <g id="Grupo_1154212" data-name="Grupo 1154212">
                                  <g id="Grupo_1152583" data-name="Grupo 1152583">
                                    <g id="Grupo_1146973" data-name="Grupo 1146973">
                                      <g id="Grupo_1146954" data-name="Grupo 1146954">
                                        <g transform="matrix(1, 0, 0, 1, -9, -6)" filter="url(#Trazado_982547)">
                                          <g id="Trazado_982547-2" data-name="Trazado 982547" transform="translate(9 6)" fill="#f2d944">
                                            <path d="M 46.00000762939453 90.49988555908203 C 39.99188613891602 90.49988555908203 34.16427612304688 89.32352447509766 28.67906188964844 87.00347137451172 C 23.38020706176758 84.76226043701172 18.62104797363281 81.55342864990234 14.53375434875488 77.46615600585938 C 10.44647407531738 73.37887573242188 7.237647533416748 68.61971282958984 4.996420860290527 63.32085800170898 C 2.676367521286011 57.83565902709961 1.500007629394531 52.00806045532227 1.500007629394531 45.99993896484375 C 1.500007629394531 39.99181747436523 2.676367521286011 34.16421890258789 4.996420860290527 28.67901802062988 C 7.237647533416748 23.38017845153809 10.44647407531738 18.62101936340332 14.53375434875488 14.53373908996582 C 18.62104797363281 10.44645881652832 23.38020706176758 7.237632274627686 28.67906188964844 4.996418952941895 C 34.16427612304688 2.676365613937378 39.99188613891602 1.500005602836609 46.00000762939453 1.500005602836609 C 52.00812911987305 1.500005602836609 57.83573913574219 2.676365613937378 63.32095336914062 4.996418952941895 C 68.61980438232422 7.237632274627686 73.37896728515625 10.44645881652832 77.46626281738281 14.53373908996582 C 81.55354309082031 18.62101936340332 84.76236724853516 23.38017845153809 87.00359344482422 28.67901802062988 C 89.32364654541016 34.16421890258789 90.50000762939453 39.99181747436523 90.50000762939453 45.99993896484375 C 90.50000762939453 52.00806045532227 89.32364654541016 57.83565902709961 87.00359344482422 63.32085800170898 C 84.76236724853516 68.61971282958984 81.55354309082031 73.37887573242188 77.46626281738281 77.46615600585938 C 73.37896728515625 81.55342864990234 68.61980438232422 84.76226043701172 63.32095336914062 87.00347137451172 C 57.83573913574219 89.32352447509766 52.00812911987305 90.49988555908203 46.00000762939453 90.49988555908203 Z" stroke="none"/>
                                            <path d="M 46.00000762939453 2.999992370605469 C 40.19372177124023 2.999992370605469 34.56270599365234 4.136497497558594 29.26339340209961 6.377906799316406 C 24.14333343505859 8.543510437011719 19.54441833496094 11.64437866210938 15.59440612792969 15.59439849853516 C 11.6444091796875 19.54439544677734 8.543525695800781 24.14329528808594 6.377922058105469 29.26335144042969 C 4.136505126953125 34.56266784667969 3.000007629394531 40.19366836547852 3.000007629394531 45.99993896484375 C 3.000007629394531 51.80620956420898 4.136505126953125 57.43722534179688 6.377922058105469 62.73654174804688 C 8.543525695800781 67.85658264160156 11.6444091796875 72.45548248291016 15.59440612792969 76.40549468994141 C 19.54441833496094 80.35549926757812 24.14333343505859 83.45636749267578 29.26337814331055 85.62196350097656 C 34.56270599365234 87.86338043212891 40.19372177124023 88.9998779296875 46.00000762939453 88.9998779296875 C 51.80629348754883 88.9998779296875 57.43730926513672 87.86338043212891 62.73662185668945 85.62196350097656 C 67.85668182373047 83.45636749267578 72.45558166503906 80.35549926757812 76.40559387207031 76.40549468994141 C 80.35560607910156 72.45548248291016 83.45648193359375 67.85658264160156 85.62207794189453 62.73654174804688 C 87.86351013183594 57.43722534179688 89.00000762939453 51.80620956420898 89.00000762939453 45.99993896484375 C 89.00000762939453 40.19366836547852 87.86351013183594 34.56266784667969 85.62207794189453 29.26335144042969 C 83.45648193359375 24.14329528808594 80.35560607910156 19.54439544677734 76.40559387207031 15.59439849853516 C 72.45558166503906 11.64437866210938 67.85668182373047 8.543510437011719 62.73662185668945 6.377906799316406 C 57.43729400634766 4.136497497558594 51.80629348754883 2.999992370605469 46.00000762939453 2.999992370605469 M 46.00000762939453 -7.62939453125e-06 C 71.40509033203125 -7.62939453125e-06 92.00000762939453 20.59487915039062 92.00000762939453 45.99993896484375 C 92.00000762939453 71.40501403808594 71.40509033203125 91.99988555908203 46.00000762939453 91.99988555908203 C 20.59490966796875 91.99988555908203 7.62939453125e-06 71.40501403808594 7.62939453125e-06 45.99993896484375 C 7.62939453125e-06 20.59487915039062 20.59490966796875 -7.62939453125e-06 46.00000762939453 -7.62939453125e-06 Z" stroke="none" fill="#ba9c5a"/>
                                          </g>
                                        </g>
                                      </g>
                                    </g>
                                  </g>
                                </g>
                              </g>
                            </g>
                          </g>
                        </g>
                      </g>
                    </g>
                  </g>
                </g>
              </g>
            </g>
          </g>
        </g>
      </g>
    </g>
    <g id="democracia" transform="translate(-1857.262 4315.802)">
      <g id="Grupo_1217667" data-name="Grupo 1217667" transform="translate(1.077 1.077)">
        <g id="Grupo_1217654" data-name="Grupo 1217654" transform="translate(25.441)">
          <path id="Trazado_1086171" data-name="Trazado 1086171" d="M235.36,104.612h5.9v7.357h-5.9Z" transform="translate(-228.079 -90.667)" fill="#ae6c6c"/>
          <path id="Trazado_1086172" data-name="Trazado 1086172" d="M206.836,133.264v4.528h-9.155L196.6,137.5l-1.077.287H186.66v-4.241a2.951,2.951,0,0,1,2.556-2.925l.157-.347,4.281-.579,1.874,1.506.121.528.943.327.913-.3.177-.572,1.874-1.492,4.725.639A2.951,2.951,0,0,1,206.836,133.264Z" transform="translate(-186.373 -112.152)" fill="#6a7682"/>
          <path id="Trazado_1086173" data-name="Trazado 1086173" d="M187.66,133.731v7.513h-3v-4.528a2.951,2.951,0,0,1,2.556-2.925Z" transform="translate(-184.66 -115.604)" fill="#5d6875"/>
          <path id="Trazado_1086174" data-name="Trazado 1086174" d="M228.138,33.537v3.413a3.936,3.936,0,0,1-1.36,2.975l-1.531,1.325a4.132,4.132,0,0,1-5.409,0l-1.531-1.325a3.935,3.935,0,0,1-1.36-2.975V33.537C220.684,28.872,224.414,28.858,228.138,33.537Z" transform="translate(-212.311 -26.797)" fill="#b98080"/>
          <path id="Trazado_1086175" data-name="Trazado 1086175" d="M227.285,11.682l-.6,2.587a4.322,4.322,0,0,0-2.375-.706,4.766,4.766,0,0,0-2.561.839,1.15,1.15,0,0,1-1.32,0,4.819,4.819,0,0,0-2.169-.818s-.313-.319-.444-.321a3.528,3.528,0,0,0-2.147.624l-.349-2.39a1.654,1.654,0,0,1,.3-1.544,4.788,4.788,0,0,1,2.559-1.766,6.1,6.1,0,0,0,.756-.435A8.933,8.933,0,0,1,221.1,7.5a7.137,7.137,0,0,1,5.807,2.516A1.95,1.95,0,0,1,227.285,11.682Z" transform="translate(-210.859 -7.5)" fill="#6a7682"/>
          <path id="Trazado_1086176" data-name="Trazado 1086176" d="M215.348,12.422l.491,2.69c-.129-.014-.258-.023-.389-.024a4.314,4.314,0,0,0-2.375.708l-.6-2.582a1.956,1.956,0,0,1,.381-1.674,6.765,6.765,0,0,1,3.655-2.259,7.549,7.549,0,0,0-.783,1.015,3.011,3.011,0,0,0-.381,2.127Z" transform="translate(-208.438 -9.024)" fill="#5d6875"/>
        </g>
        <g id="Grupo_1217655" data-name="Grupo 1217655" transform="translate(0.144 8.266)">
          <path id="Trazado_1086177" data-name="Trazado 1086177" d="M8.714,73.97a4.805,4.805,0,0,0,3.617.556.931.931,0,0,1,.349.072c2.1-.484,4.191-1.639,6.287-1.416a4.122,4.122,0,0,1,1.867.509V66.41a.436.436,0,0,0-.212-.372,4.837,4.837,0,0,0-1.516-.783c-.045-.009-.139-.165-.139-.165-2.091-.222-4.186.925-6.274,1.413a.946.946,0,0,1-.273.206,4.713,4.713,0,0,1-3.3-.322.43.43,0,0,0-.619.386V73.6a.435.435,0,0,0,.212.372Z" transform="translate(-8.502 -65.062)" fill="#c1e9af"/>
        </g>
        <g id="Grupo_1217656" data-name="Grupo 1217656" transform="translate(58.894 8.335)">
          <path id="Trazado_1086178" data-name="Trazado 1086178" d="M429.881,74.527c-3.466,2.1-6.932-1.3-10.4-.932a2.083,2.083,0,0,0-1.724.078l-.144-6.85a.436.436,0,0,1,.212-.372,9.708,9.708,0,0,1,1.553-.878h0c3.33-.354,6.763,2.7,10.093,1.083a.43.43,0,0,1,.619.386v7.112A.436.436,0,0,1,429.881,74.527Z" transform="translate(-417.616 -65.545)" fill="#c1e9af"/>
        </g>
        <g id="Grupo_1217657" data-name="Grupo 1217657" transform="translate(9.262 26.996)">
          <path id="Trazado_1086179" data-name="Trazado 1086179" d="M128.349,250.666l-.072-42.088-50.7-.308.334,42.4h4.914l.381.144H94.094l.437-.144,13.185-.006.552.149h10.885l.326-.144Z" transform="translate(-76.779 -206.435)" fill="#7e8b96"/>
          <path id="Trazado_1086180" data-name="Trazado 1086180" d="M72,195.489v44.055h4.864L76.8,206.349a2.214,2.214,0,0,1,2.214-2.214H93.943l.984,2.872,5.917.442,1.077-3.314h16.872l2.3,2.839,3.733-2.917v-8.568H72Z" transform="translate(-72 -195.489)" fill="#6a7682"/>
        </g>
        <path id="Trazado_1086181" data-name="Trazado 1086181" d="M106.808,179.462H54.519l-.791.162-5.51-.018a.718.718,0,0,0-.718.718v3.6a.718.718,0,0,0,.718.718l5.225-.025,1.076.168h52.288a.718.718,0,0,0,.718-.718V180.18A.718.718,0,0,0,106.808,179.462Z" transform="translate(-41.756 -154.768)" fill="#909ba6"/>
        <g id="Grupo_1217660" data-name="Grupo 1217660" transform="translate(0 33.016)">
          <path id="Trazado_1086182" data-name="Trazado 1086182" d="M28.439,252.36a2.784,2.784,0,0,0-2.7,1.838l-.285.759a22.4,22.4,0,0,0-.844,3.225V242.1a2.037,2.037,0,0,0-1.919-2.033s-.063.159-.1.159a1.94,1.94,0,0,0-1.977,1.843c0,.042-.074.031-.074.031v-2.629a2.032,2.032,0,0,0-1.909-2.028s-.118.091-.159.091a1.839,1.839,0,0,0-1.854,1.975l-.01,2.345-.13.016a2.033,2.033,0,0,0-1.911-2.029l-.121.14a1.8,1.8,0,0,0-1.889,1.889v3.058l-.144.019a1.922,1.922,0,0,0-1.69-1.908l-.24.083a1.687,1.687,0,0,0-1.736,1.82l.111,14.592A7.923,7.923,0,0,0,10.1,263.6a10.385,10.385,0,0,1,1.091,5.159v.431h11.99l.165-.431v-.177a5.064,5.064,0,0,1,2.593-4.421,5.064,5.064,0,0,0,2.594-4.421v-1.822a5.063,5.063,0,0,1,.391-1.951l.784-1.878a1.344,1.344,0,0,0-.983-1.836,1.007,1.007,0,0,1-.288.1Z" transform="translate(-8.562 -237.436)" fill="#ffdfd4"/>
          <path id="Trazado_1086183" data-name="Trazado 1086183" d="M10.524,296.187a11.527,11.527,0,0,1,1.436,5.537v.325l-.4.4-1.459-.016-.171-.383a9.587,9.587,0,0,0-.281-2.355,9.791,9.791,0,0,0-1-2.444A8.808,8.808,0,0,1,7.5,292.9V278.231a1.922,1.922,0,0,1,1.921-1.921,1.777,1.777,0,0,1,.233.014V292.9a6.685,6.685,0,0,0,.87,3.287Z" transform="translate(-7.5 -270.724)" fill="#feccbc"/>
          <path id="Trazado_1086184" data-name="Trazado 1086184" d="M38.8,460.713H26.779l.447-4.567,1.245-.591H38.8Z" transform="translate(-24.01 -424.228)" fill="#f2fbff"/>
          <path id="Trazado_1086185" data-name="Trazado 1086185" d="M24.4,455.554h2.034v5.159H24.4Z" transform="translate(-21.971 -424.228)" fill="#dfeef4"/>
          <path id="Trazado_1086186" data-name="Trazado 1086186" d="M15.079,486.839v-.783a.718.718,0,0,1,.718-.718l2.246-.1.408-.188H29.684a.718.718,0,0,1,.718.718v1.357a.718.718,0,0,1-.718.718H18.451l-.351-.182-2.3-.106a.718.718,0,0,1-.718-.718Z" transform="translate(-13.991 -449.489)" fill="#ade194"/>
          <path id="Trazado_1086187" data-name="Trazado 1086187" d="M16.739,485.05v2.793H13.8a.718.718,0,0,1-.718-.718v-1.357a.718.718,0,0,1,.718-.718Z" transform="translate(-12.279 -449.488)" fill="#97da7b"/>
          <g id="Grupo_1217658" data-name="Grupo 1217658" transform="translate(3.844)">
            <path id="Trazado_1086188" data-name="Trazado 1086188" d="M36.424,254.114v9.568a1.723,1.723,0,0,1-1.723,1.723.43.43,0,0,1-.431-.431v-8.831A2.035,2.035,0,0,1,36.3,254.11C36.344,254.11,36.384,254.111,36.424,254.114Z" transform="translate(-34.27 -251.712)" fill="#feccbc"/>
            <path id="Trazado_1086189" data-name="Trazado 1086189" d="M64.734,237.414v11.966a1.723,1.723,0,0,1-1.723,1.723.43.43,0,0,1-.431-.431V239.442a2.032,2.032,0,0,1,2.032-2.032c.042,0,.082,0,.122,0Z" transform="translate(-58.515 -237.41)" fill="#feccbc"/>
            <path id="Trazado_1086190" data-name="Trazado 1086190" d="M93.024,255.694v9.341a1.723,1.723,0,0,1-1.723,1.723.431.431,0,0,1-.431-.431v-8.6a2.035,2.035,0,0,1,2.036-2.036C92.946,255.69,92.985,255.691,93.024,255.694Z" transform="translate(-82.742 -253.065)" fill="#feccbc"/>
          </g>
          <g id="Grupo_1217659" data-name="Grupo 1217659" transform="translate(16.046 14.797)">
            <path id="Trazado_1086191" data-name="Trazado 1086191" d="M123.359,340.474l-.385.839-1.089,2.621a6.4,6.4,0,0,0-.491,2.466v1.249a2.156,2.156,0,0,1-1.623,2.088.43.43,0,0,1-.531-.419V346.4a8.569,8.569,0,0,1,.656-3.291l.3-.717a3.151,3.151,0,0,1,2.909-1.941A1.353,1.353,0,0,1,123.359,340.474Z" transform="translate(-119.24 -340.45)" fill="#feccbc"/>
          </g>
        </g>
        <g id="Grupo_1217663" data-name="Grupo 1217663" transform="translate(25.059 33.016)">
          <path id="Trazado_1086192" data-name="Trazado 1086192" d="M202.939,252.36a2.784,2.784,0,0,0-2.7,1.838l-.285.759a22.4,22.4,0,0,0-.844,3.225V242.1a2.036,2.036,0,0,0-1.919-2.033s-.08.1-.119.1a1.934,1.934,0,0,0-1.926,1.916c0,.037-.108.019-.108.019v-2.629a2.032,2.032,0,0,0-1.909-2.028s-.118.091-.159.091a1.839,1.839,0,0,0-1.854,1.975l-.01,2.345-.13.016a2.033,2.033,0,0,0-1.911-2.029l-.121.14a1.8,1.8,0,0,0-1.889,1.889v3.058l-.144.019a1.922,1.922,0,0,0-1.69-1.908l-.24.083a1.687,1.687,0,0,0-1.736,1.82l.111,14.592A7.923,7.923,0,0,0,184.6,263.6a10.385,10.385,0,0,1,1.091,5.159v.431h11.99l.165-.431v-.177a5.064,5.064,0,0,1,2.593-4.421,5.064,5.064,0,0,0,2.594-4.421v-1.822a5.063,5.063,0,0,1,.391-1.951l.784-1.878a1.343,1.343,0,0,0-.983-1.836A1.009,1.009,0,0,1,202.939,252.36Z" transform="translate(-183.062 -237.436)" fill="#c59191"/>
          <path id="Trazado_1086193" data-name="Trazado 1086193" d="M185.024,296.187a11.528,11.528,0,0,1,1.436,5.537v.325l-.262.424-1.63-.036-.142-.389a9.587,9.587,0,0,0-.281-2.355,9.791,9.791,0,0,0-1-2.444A8.808,8.808,0,0,1,182,292.9V278.231a1.922,1.922,0,0,1,1.921-1.921,1.778,1.778,0,0,1,.233.014V292.9A6.685,6.685,0,0,0,185.024,296.187Z" transform="translate(-182 -270.724)" fill="#b98080"/>
          <path id="Trazado_1086194" data-name="Trazado 1086194" d="M213.3,460.713H201.279l.447-4.567,1.245-.591H213.3Z" transform="translate(-198.511 -424.228)" fill="#f2fbff"/>
          <path id="Trazado_1086195" data-name="Trazado 1086195" d="M198.9,455.554h2.034v5.159H198.9Z" transform="translate(-196.471 -424.228)" fill="#dfeef4"/>
          <path id="Trazado_1086196" data-name="Trazado 1086196" d="M189.579,486.839v-.783a.718.718,0,0,1,.718-.718l2.245-.1.408-.188h11.233a.718.718,0,0,1,.718.718v1.357a.718.718,0,0,1-.718.718H192.951l-.351-.182-2.3-.106A.718.718,0,0,1,189.579,486.839Z" transform="translate(-188.491 -449.489)" fill="#94d8e6"/>
          <path id="Trazado_1086197" data-name="Trazado 1086197" d="M191.239,485.05v2.793H188.3a.718.718,0,0,1-.718-.718v-1.357a.718.718,0,0,1,.718-.718Z" transform="translate(-186.779 -449.488)" fill="#75c5d8"/>
          <g id="Grupo_1217661" data-name="Grupo 1217661" transform="translate(3.844)">
            <path id="Trazado_1086198" data-name="Trazado 1086198" d="M210.924,254.114v9.568a1.723,1.723,0,0,1-1.723,1.723.43.43,0,0,1-.431-.431v-8.831a2.035,2.035,0,0,1,2.032-2.033C210.844,254.11,210.884,254.111,210.924,254.114Z" transform="translate(-208.77 -251.712)" fill="#b98080"/>
            <path id="Trazado_1086199" data-name="Trazado 1086199" d="M239.234,237.414v11.966a1.723,1.723,0,0,1-1.723,1.723.43.43,0,0,1-.431-.431V239.442a2.032,2.032,0,0,1,2.032-2.032c.042,0,.082,0,.122,0Z" transform="translate(-233.015 -237.41)" fill="#b98080"/>
            <path id="Trazado_1086200" data-name="Trazado 1086200" d="M267.524,255.694v9.341a1.723,1.723,0,0,1-1.723,1.723.431.431,0,0,1-.431-.431v-8.6a2.035,2.035,0,0,1,2.036-2.036C267.446,255.69,267.485,255.691,267.524,255.694Z" transform="translate(-257.242 -253.065)" fill="#b98080"/>
          </g>
          <g id="Grupo_1217662" data-name="Grupo 1217662" transform="translate(16.046 14.797)">
            <path id="Trazado_1086201" data-name="Trazado 1086201" d="M297.859,340.474l-.385.839-1.089,2.621a6.4,6.4,0,0,0-.491,2.466v1.249a2.156,2.156,0,0,1-1.623,2.088.429.429,0,0,1-.531-.419V346.4a8.569,8.569,0,0,1,.656-3.291l.3-.717a3.151,3.151,0,0,1,2.909-1.941A1.353,1.353,0,0,1,297.859,340.474Z" transform="translate(-293.74 -340.45)" fill="#b98080"/>
          </g>
        </g>
        <g id="Grupo_1217666" data-name="Grupo 1217666" transform="translate(50.117 33.016)">
          <path id="Trazado_1086202" data-name="Trazado 1086202" d="M377.438,252.36a2.784,2.784,0,0,0-2.7,1.838l-.285.759a22.4,22.4,0,0,0-.844,3.225V242.1a2.037,2.037,0,0,0-1.919-2.033s-.088.147-.128.147a1.886,1.886,0,0,0-1.838,1.83l-.187.055v-2.629a2.032,2.032,0,0,0-1.909-2.028s-.118.091-.159.091a1.839,1.839,0,0,0-1.854,1.975l-.01,2.345-.13.016a2.033,2.033,0,0,0-1.911-2.029l-.121.14a1.8,1.8,0,0,0-1.889,1.889v3.058l-.144.019a1.922,1.922,0,0,0-1.69-1.908l-.24.083a1.687,1.687,0,0,0-1.736,1.82l.111,14.592A7.924,7.924,0,0,0,359.1,263.6a10.385,10.385,0,0,1,1.091,5.159v.431h11.99l.165-.431v-.177a5.064,5.064,0,0,1,2.593-4.421,5.064,5.064,0,0,0,2.594-4.421v-1.822a5.063,5.063,0,0,1,.391-1.951l.784-1.878a1.344,1.344,0,0,0-.983-1.836,1,1,0,0,1-.288.1Z" transform="translate(-357.561 -237.436)" fill="#ffdfd4"/>
          <path id="Trazado_1086203" data-name="Trazado 1086203" d="M359.524,296.187a11.528,11.528,0,0,1,1.436,5.537v.325l-.259.43-1.316-.04-.458-.391a9.587,9.587,0,0,0-.281-2.355,9.79,9.79,0,0,0-1-2.444,8.808,8.808,0,0,1-1.15-4.35V278.231a1.922,1.922,0,0,1,1.921-1.921,1.777,1.777,0,0,1,.233.014V292.9A6.685,6.685,0,0,0,359.524,296.187Z" transform="translate(-356.5 -270.724)" fill="#feccbc"/>
          <path id="Trazado_1086204" data-name="Trazado 1086204" d="M387.8,460.713H375.779l.447-4.567,1.245-.591H387.8Z" transform="translate(-373.01 -424.228)" fill="#f2fbff"/>
          <path id="Trazado_1086205" data-name="Trazado 1086205" d="M373.4,455.554h2.034v5.159H373.4Z" transform="translate(-370.971 -424.228)" fill="#dfeef4"/>
          <path id="Trazado_1086206" data-name="Trazado 1086206" d="M364.079,486.839v-.783a.718.718,0,0,1,.718-.718l2.246-.1.408-.188h11.233a.718.718,0,0,1,.718.718v1.357a.718.718,0,0,1-.718.718H367.451l-.351-.182-2.3-.106A.718.718,0,0,1,364.079,486.839Z" transform="translate(-362.991 -449.489)" fill="#ffd15b"/>
          <path id="Trazado_1086207" data-name="Trazado 1086207" d="M365.739,485.05v2.793H362.8a.718.718,0,0,1-.718-.718v-1.357a.718.718,0,0,1,.718-.718Z" transform="translate(-361.279 -449.488)" fill="#ffc344"/>
          <g id="Grupo_1217664" data-name="Grupo 1217664" transform="translate(3.844)">
            <path id="Trazado_1086208" data-name="Trazado 1086208" d="M385.424,254.114v9.568a1.723,1.723,0,0,1-1.723,1.723.43.43,0,0,1-.431-.431v-8.831a2.035,2.035,0,0,1,2.032-2.033C385.344,254.11,385.384,254.111,385.424,254.114Z" transform="translate(-383.27 -251.712)" fill="#feccbc"/>
            <path id="Trazado_1086209" data-name="Trazado 1086209" d="M413.734,237.414v11.966a1.723,1.723,0,0,1-1.723,1.723.43.43,0,0,1-.431-.431V239.442a2.032,2.032,0,0,1,2.032-2.032c.042,0,.082,0,.122,0Z" transform="translate(-407.515 -237.41)" fill="#feccbc"/>
            <path id="Trazado_1086210" data-name="Trazado 1086210" d="M442.024,255.694v9.341a1.723,1.723,0,0,1-1.723,1.723.431.431,0,0,1-.431-.431v-8.6a2.035,2.035,0,0,1,2.036-2.036C441.946,255.69,441.985,255.691,442.024,255.694Z" transform="translate(-431.742 -253.065)" fill="#feccbc"/>
          </g>
          <g id="Grupo_1217665" data-name="Grupo 1217665" transform="translate(16.046 14.797)">
            <path id="Trazado_1086211" data-name="Trazado 1086211" d="M472.359,340.474l-.385.839-1.089,2.621a6.4,6.4,0,0,0-.491,2.466v1.249a2.156,2.156,0,0,1-1.623,2.088.43.43,0,0,1-.531-.419V346.4a8.569,8.569,0,0,1,.656-3.291l.3-.717a3.151,3.151,0,0,1,2.909-1.941A1.352,1.352,0,0,1,472.359,340.474Z" transform="translate(-468.24 -340.45)" fill="#feccbc"/>
          </g>
        </g>
        <path id="Trazado_1086212" data-name="Trazado 1086212" d="M53.663,179.46v5.322H47.218a.718.718,0,0,1-.718-.718v-3.886a.718.718,0,0,1,.718-.718Z" transform="translate(-40.899 -154.766)" fill="#7e8b96"/>
        <path id="Trazado_1086213" data-name="Trazado 1086213" d="M11.834,73.286l-.013,8.095a5.227,5.227,0,0,1-4.11-.485.435.435,0,0,1-.213-.372V73.413a.43.43,0,0,1,.619-.386A5.407,5.407,0,0,0,11.834,73.286Z" transform="translate(-7.499 -63.579)" fill="#ade194"/>
      </g>
      <g id="Grupo_1217668" data-name="Grupo 1217668" transform="translate(0 0)">
        <path id="Trazado_1086214" data-name="Trazado 1086214" d="M195.487,244.71a4.216,4.216,0,0,0-2.787,1.048V235.652a3.114,3.114,0,0,0-4.09-2.957,3.109,3.109,0,0,0-6.152-.217,3.111,3.111,0,0,0-4.113,2.944v.2A3,3,0,0,0,174.5,238.5v14.669a9.918,9.918,0,0,0,1.29,4.88,8.336,8.336,0,0,1,1.136,4.269v3.159h-.548a1.077,1.077,0,0,0-1.077,1.077v2.793a1.077,1.077,0,1,0,2.154,0v-1.716h13.456v1.716a1.077,1.077,0,1,0,2.154,0v-2.793a1.077,1.077,0,0,0-1.077-1.077h-.548v-3.336a4.05,4.05,0,0,1,2.042-3.481,6.147,6.147,0,0,0,3.145-5.361v-1.822a3.969,3.969,0,0,1,.308-1.536l.784-1.878a2.42,2.42,0,0,0-2.233-3.352Zm-16.406,20.765v-2.082h10.206v2.082Zm16.651-18.243-.784,1.878a6.11,6.11,0,0,0-.474,2.366V253.3a3.991,3.991,0,0,1-2.042,3.48,6.147,6.147,0,0,0-3.077,4.461H179.03a10.556,10.556,0,0,0-1.365-4.254,7.758,7.758,0,0,1-1.01-3.818V238.5a.845.845,0,0,1,1.69,0v5.761a1.077,1.077,0,1,0,2.154,0v-8.838a.956.956,0,0,1,1.912,0v8.838a1.077,1.077,0,1,0,2.154,0V233.023a.954.954,0,0,1,1.909,0V244.26a1.077,1.077,0,1,0,2.154,0v-8.608a.959.959,0,1,1,1.919,0v17.334a1.077,1.077,0,1,0,2.154,0v-1.249a7.469,7.469,0,0,1,.574-2.879l.3-.716a2.068,2.068,0,0,1,1.915-1.279.266.266,0,0,1,.245.368Z" transform="translate(-149.442 -196.898)"/>
        <path id="Trazado_1086215" data-name="Trazado 1086215" d="M65.722,19.28a12.851,12.851,0,0,0,4.041.883,5.724,5.724,0,0,0,3.285-1.01,1.077,1.077,0,0,0,.476-.894V10.167a1.077,1.077,0,0,0-1.678-.894c-1.687,1.133-3.425.549-5.438-.127-2.23-.749-4.758-1.6-7.326.127a1.077,1.077,0,0,0-.476.894V24.694H53.749V20.321a2.521,2.521,0,0,0-.8-1.84l-3.407-3.169a1.077,1.077,0,1,0-1.467,1.577l3.407,3.169a.36.36,0,0,1,.114.263v4.374H48.071V23.051a4.043,4.043,0,0,0-3.489-3.992l-3.791-.512V15.823c0-.008,0-.017,0-.025l.9-.779a5.009,5.009,0,0,0,1.732-3.79V7.97L43.993,5.5a3.007,3.007,0,0,0-.586-2.586A8.221,8.221,0,0,0,36.762,0,8.279,8.279,0,0,0,30.1,2.911a3.046,3.046,0,0,0-.6,2.6l.57,2.463v3.258a5.01,5.01,0,0,0,1.732,3.79l.925.8s0,0,0,0v2.723l-3.791.512a4.043,4.043,0,0,0-3.489,3.992v1.644H21.929V20.321a.361.361,0,0,1,.114-.263l3.407-3.169a1.077,1.077,0,1,0-1.467-1.577L20.577,18.48a2.521,2.521,0,0,0-.8,1.84v4.374H14.918V10.167a1.077,1.077,0,0,0-.476-.894,5.872,5.872,0,0,0-4.081-.964A1.077,1.077,0,1,0,10.6,10.45a3.767,3.767,0,0,1,2.168.333v5.79c-1.982-.568-3.906.079-5.648.664-1.824.613-3.423,1.15-4.962.4V11.845a7.086,7.086,0,0,0,3.688-.057,1.077,1.077,0,1,0-.52-2.09,4.148,4.148,0,0,1-3.644-.425A1.077,1.077,0,0,0,0,10.167v8.092a1.077,1.077,0,0,0,.476.894,5.723,5.723,0,0,0,3.285,1.01A12.856,12.856,0,0,0,7.8,19.28c1.824-.613,3.423-1.15,4.962-.4v5.816H6.677A1.077,1.077,0,0,0,5.6,25.771v4.6a1.077,1.077,0,0,0,1.077,1.077H9.262v2.112a3.113,3.113,0,0,0-1.3,2.017,3.11,3.11,0,0,0-4.113,2.944v.2A3,3,0,0,0,0,41.6V56.269a9.917,9.917,0,0,0,1.29,4.88,8.336,8.336,0,0,1,1.136,4.269v3.159H1.878A1.077,1.077,0,0,0,.8,69.654v2.793a1.077,1.077,0,0,0,2.154,0V70.731H16.411v1.716a1.077,1.077,0,0,0,2.154,0V69.654a1.077,1.077,0,0,0-1.077-1.077H16.94V65.241a3.991,3.991,0,0,1,2.042-3.481A6.147,6.147,0,0,0,22.127,56.4V54.578a3.969,3.969,0,0,1,.308-1.536l.784-1.878a2.42,2.42,0,0,0-2.233-3.352A4.216,4.216,0,0,0,18.2,48.86V45.423a1.077,1.077,0,1,0-2.154,0V56.088a1.077,1.077,0,1,0,2.154,0V54.839a7.469,7.469,0,0,1,.574-2.879l.3-.716a2.068,2.068,0,0,1,1.916-1.279.266.266,0,0,1,.245.368l-.784,1.878a6.111,6.111,0,0,0-.474,2.366V56.4a3.99,3.99,0,0,1-2.042,3.48,6.147,6.147,0,0,0-3.077,4.461H4.529a10.556,10.556,0,0,0-1.365-4.254,7.758,7.758,0,0,1-1.011-3.818V41.6a.845.845,0,0,1,1.69,0v5.761a1.077,1.077,0,1,0,2.154,0V38.524a.956.956,0,1,1,1.912,0v8.838a1.077,1.077,0,1,0,2.154,0V36.125a.954.954,0,1,1,1.909,0V47.362a1.077,1.077,0,1,0,2.154,0V38.754a.959.959,0,1,1,1.919,0V40.4a1.077,1.077,0,0,0,2.154,0V38.754a3.114,3.114,0,0,0-4.09-2.957,3.112,3.112,0,0,0-2.693-2.753V31.451H62.108v1.724a3.1,3.1,0,0,0-4.033,2.4,3.11,3.11,0,0,0-4.113,2.944v.2A3,3,0,0,0,50.117,41.6v8.625a1.077,1.077,0,0,0,2.154,0V41.6a.845.845,0,0,1,1.69,0v5.761a1.077,1.077,0,1,0,2.154,0V38.524a.956.956,0,1,1,1.912,0v8.838a1.077,1.077,0,1,0,2.154,0V36.124a.954.954,0,1,1,1.909,0V47.362a1.077,1.077,0,1,0,2.154,0V38.754a.959.959,0,1,1,1.919,0V56.088a1.077,1.077,0,0,0,2.154,0V54.839a7.469,7.469,0,0,1,.574-2.879l.3-.716A2.068,2.068,0,0,1,71.1,49.966a.266.266,0,0,1,.245.368l-.784,1.878a6.11,6.11,0,0,0-.474,2.366V56.4a3.99,3.99,0,0,1-2.042,3.48,6.147,6.147,0,0,0-3.077,4.461H54.646a10.556,10.556,0,0,0-1.365-4.254,7.758,7.758,0,0,1-1.01-3.818V55.252a1.077,1.077,0,0,0-2.154,0v1.017a9.917,9.917,0,0,0,1.29,4.88,8.336,8.336,0,0,1,1.136,4.269v3.159H52a1.077,1.077,0,0,0-1.077,1.077v2.793a1.077,1.077,0,0,0,2.154,0V70.731H66.528v1.716a1.077,1.077,0,0,0,2.154,0V69.654a1.077,1.077,0,0,0-1.077-1.077h-.548V65.241A3.991,3.991,0,0,1,69.1,61.761,6.147,6.147,0,0,0,72.244,56.4V54.578a3.969,3.969,0,0,1,.308-1.536l.784-1.878A2.42,2.42,0,0,0,71.1,47.812a4.216,4.216,0,0,0-2.787,1.048V38.754a3.111,3.111,0,0,0-4.055-2.967V31.451h2.585a1.077,1.077,0,0,0,1.077-1.077v-4.6a1.077,1.077,0,0,0-1.077-1.077H60.76V18.878c1.539-.748,3.138-.211,4.962.4Zm-50.936,49.3H4.58V66.5H14.786v2.082Zm39.911,0V66.5H64.9v2.082ZM36.752,20.469l-1.865-1.5V17.265a5.258,5.258,0,0,0,3.749-.01v1.713Zm-4.981-16.2a6.1,6.1,0,0,1,4.991-2.119,6.047,6.047,0,0,1,4.969,2.115.878.878,0,0,1,.163.746h0l-.3,1.295a5.422,5.422,0,0,0-1.625-.248A6.152,6.152,0,0,0,36.781,7.1.076.076,0,0,1,36.7,7.1a5.824,5.824,0,0,0-3.159-1.035,6.14,6.14,0,0,0-1.64.248l-.3-1.289a.877.877,0,0,1,.166-.749Zm.46,4.215a3.248,3.248,0,0,1,1.291-.271,3.673,3.673,0,0,1,1.952.65,2.233,2.233,0,0,0,1.275.4,2.206,2.206,0,0,0,1.288-.413,3.717,3.717,0,0,1,1.958-.637,3.255,3.255,0,0,1,1.273.27v2.742a2.856,2.856,0,0,1-.988,2.161l-1.531,1.325a3.071,3.071,0,0,1-4,0L33.219,13.39a2.857,2.857,0,0,1-.988-2.161ZM27.607,23.05a1.881,1.881,0,0,1,1.624-1.858l4.266-.576,2.189,1.759v2.319H27.607V23.05ZM65.77,29.3H7.754V26.848H39.413a1.077,1.077,0,1,0,0-2.154H37.839V22.357l2.186-1.741,4.268.577a1.881,1.881,0,0,1,1.624,1.858v1.644H44.439a1.077,1.077,0,1,0,0,2.154H65.77ZM60.76,10.786c1.539-.748,3.138-.211,4.962.4,1.742.585,3.665,1.231,5.648.664V17.64c-1.54.748-3.138.211-4.962-.4a12.85,12.85,0,0,0-4.041-.883,5.8,5.8,0,0,0-1.607.219Z" transform="translate(0 0)"/>
      </g>
    </g>
  </g>
</svg>
