<svg xmlns="http://www.w3.org/2000/svg" xmlns:xlink="http://www.w3.org/1999/xlink" width="108" height="108" viewBox="0 0 108 108">
  <defs>
    <filter id="Trazado_978624" x="0" y="0" width="108" height="108" filterUnits="userSpaceOnUse">
      <feOffset dy="3" input="SourceAlpha"/>
      <feGaussianBlur stdDeviation="3" result="blur"/>
      <feFlood flood-opacity="0.161"/>
      <feComposite operator="in" in2="blur"/>
      <feComposite in="SourceGraphic"/>
    </filter>
    <filter id="Trazado_1076716" x="0" y="0" width="108" height="108" filterUnits="userSpaceOnUse">
      <feOffset dy="3" input="SourceAlpha"/>
      <feGaussianBlur stdDeviation="3" result="blur-2"/>
      <feFlood flood-opacity="0.161"/>
      <feComposite operator="in" in2="blur-2"/>
      <feComposite in="SourceGraphic"/>
    </filter>
  </defs>
  <g id="Grupo_1216472" data-name="Grupo 1216472" transform="translate(-196 -486)">
    <g id="Grupo_1200660" data-name="Grupo 1200660" transform="translate(205 492)">
      <g id="Grupo_1181203" data-name="Grupo 1181203">
        <g id="Grupo_1172348" data-name="Grupo 1172348">
          <g id="Grupo_1171897" data-name="Grupo 1171897">
            <g id="Grupo_1171052" data-name="Grupo 1171052">
              <g id="Grupo_1164581" data-name="Grupo 1164581">
                <g id="Grupo_1144123" data-name="Grupo 1144123">
                  <g transform="matrix(1, 0, 0, 1, -9, -6)" filter="url(#Trazado_978624)">
                    <g id="Trazado_978624-2" data-name="Trazado 978624" transform="translate(9 6)" fill="#f7f4ed">
                      <path d="M 45 88.5 C 39.12687683105469 88.5 33.43022537231445 87.35007476806641 28.06830024719238 85.08217620849609 C 22.88852500915527 82.89131164550781 18.23629951477051 79.75458526611328 14.2408504486084 75.75914764404297 C 10.24541282653809 71.76370239257812 7.108687400817871 67.11147308349609 4.917825222015381 61.93170166015625 C 2.649924993515015 56.56977462768555 1.5 50.87312316894531 1.5 45 C 1.5 39.12687683105469 2.649924993515015 33.43022537231445 4.917825222015381 28.06830024719238 C 7.108687400817871 22.88852500915527 10.24541282653809 18.23629951477051 14.2408504486084 14.2408504486084 C 18.23629951477051 10.24541282653809 22.88852500915527 7.108687400817871 28.06830024719238 4.917825222015381 C 33.43022537231445 2.649924993515015 39.12687683105469 1.5 45 1.5 C 50.87312316894531 1.5 56.56977462768555 2.649924993515015 61.93170166015625 4.917825222015381 C 67.11147308349609 7.108687400817871 71.76370239257812 10.24541282653809 75.75914764404297 14.2408504486084 C 79.75458526611328 18.23629951477051 82.89131164550781 22.88852500915527 85.08217620849609 28.06830024719238 C 87.35007476806641 33.43022537231445 88.5 39.12687683105469 88.5 45 C 88.5 50.87312316894531 87.35007476806641 56.56977462768555 85.08217620849609 61.93170166015625 C 82.89131164550781 67.11147308349609 79.75458526611328 71.76370239257812 75.75914764404297 75.75914764404297 C 71.76370239257812 79.75458526611328 67.11147308349609 82.89131164550781 61.93170166015625 85.08217620849609 C 56.56977462768555 87.35007476806641 50.87312316894531 88.5 45 88.5 Z" stroke="none"/>
                      <path d="M 45 3 C 39.32871246337891 3 33.82865524291992 4.110054016113281 28.65262985229492 6.299339294433594 C 23.65165710449219 8.414573669433594 19.15968322753906 11.44334411621094 15.301513671875 15.301513671875 C 11.44334411621094 19.15968322753906 8.414573669433594 23.65165710449219 6.299339294433594 28.65262985229492 C 4.110054016113281 33.82865524291992 3 39.32871246337891 3 45 C 3 50.67128753662109 4.110054016113281 56.17134475708008 6.299339294433594 61.34737396240234 C 8.414573669433594 66.34834289550781 11.44334411621094 70.84031677246094 15.301513671875 74.698486328125 C 19.15968322753906 78.55665588378906 23.65165710449219 81.58542633056641 28.65262985229492 83.70066070556641 C 33.82865524291992 85.88994598388672 39.32871246337891 87 45 87 C 50.67128753662109 87 56.17134475708008 85.88994598388672 61.34737396240234 83.70066070556641 C 66.34834289550781 81.58542633056641 70.84031677246094 78.55665588378906 74.698486328125 74.698486328125 C 78.55665588378906 70.84031677246094 81.58542633056641 66.34834289550781 83.70066070556641 61.34737396240234 C 85.88994598388672 56.17134475708008 87 50.67128753662109 87 45 C 87 39.32871246337891 85.88994598388672 33.82865524291992 83.70066070556641 28.65262985229492 C 81.58542633056641 23.65165710449219 78.55665588378906 19.15968322753906 74.698486328125 15.301513671875 C 70.84031677246094 11.44334411621094 66.34834289550781 8.414573669433594 61.34737396240234 6.299339294433594 C 56.17134475708008 4.110054016113281 50.67128753662109 3 45 3 M 45 0 C 69.85281372070312 0 90 20.14718627929688 90 45 C 90 69.85281372070312 69.85281372070312 90 45 90 C 20.14718627929688 90 0 69.85281372070312 0 45 C 0 20.14718627929688 20.14718627929688 0 45 0 Z" stroke="none" fill="#ba9c5a"/>
                    </g>
                  </g>
                  <g transform="matrix(1, 0, 0, 1, -9, -6)" filter="url(#Trazado_1076716)">
                    <g id="Trazado_1076716-2" data-name="Trazado 1076716" transform="translate(9 6)" fill="#f7f4ed">
                      <path d="M 45 88.5 C 39.12687683105469 88.5 33.43022537231445 87.35007476806641 28.06830024719238 85.08217620849609 C 22.88852500915527 82.89131164550781 18.23629951477051 79.75458526611328 14.2408504486084 75.75914764404297 C 10.24541282653809 71.76370239257812 7.108687400817871 67.11147308349609 4.917825222015381 61.93170166015625 C 2.649924993515015 56.56977462768555 1.5 50.87312316894531 1.5 45 C 1.5 39.12687683105469 2.649924993515015 33.43022537231445 4.917825222015381 28.06830024719238 C 7.108687400817871 22.88852500915527 10.24541282653809 18.23629951477051 14.2408504486084 14.2408504486084 C 18.23629951477051 10.24541282653809 22.88852500915527 7.108687400817871 28.06830024719238 4.917825222015381 C 33.43022537231445 2.649924993515015 39.12687683105469 1.5 45 1.5 C 50.87312316894531 1.5 56.56977462768555 2.649924993515015 61.93170166015625 4.917825222015381 C 67.11147308349609 7.108687400817871 71.76370239257812 10.24541282653809 75.75914764404297 14.2408504486084 C 79.75458526611328 18.23629951477051 82.89131164550781 22.88852500915527 85.08217620849609 28.06830024719238 C 87.35007476806641 33.43022537231445 88.5 39.12687683105469 88.5 45 C 88.5 50.87312316894531 87.35007476806641 56.56977462768555 85.08217620849609 61.93170166015625 C 82.89131164550781 67.11147308349609 79.75458526611328 71.76370239257812 75.75914764404297 75.75914764404297 C 71.76370239257812 79.75458526611328 67.11147308349609 82.89131164550781 61.93170166015625 85.08217620849609 C 56.56977462768555 87.35007476806641 50.87312316894531 88.5 45 88.5 Z" stroke="none"/>
                      <path d="M 45 3 C 39.32871246337891 3 33.82865524291992 4.110054016113281 28.65262985229492 6.299339294433594 C 23.65165710449219 8.414573669433594 19.15968322753906 11.44334411621094 15.301513671875 15.301513671875 C 11.44334411621094 19.15968322753906 8.414573669433594 23.65165710449219 6.299339294433594 28.65262985229492 C 4.110054016113281 33.82865524291992 3 39.32871246337891 3 45 C 3 50.67128753662109 4.110054016113281 56.17134475708008 6.299339294433594 61.34737396240234 C 8.414573669433594 66.34834289550781 11.44334411621094 70.84031677246094 15.301513671875 74.698486328125 C 19.15968322753906 78.55665588378906 23.65165710449219 81.58542633056641 28.65262985229492 83.70066070556641 C 33.82865524291992 85.88994598388672 39.32871246337891 87 45 87 C 50.67128753662109 87 56.17134475708008 85.88994598388672 61.34737396240234 83.70066070556641 C 66.34834289550781 81.58542633056641 70.84031677246094 78.55665588378906 74.698486328125 74.698486328125 C 78.55665588378906 70.84031677246094 81.58542633056641 66.34834289550781 83.70066070556641 61.34737396240234 C 85.88994598388672 56.17134475708008 87 50.67128753662109 87 45 C 87 39.32871246337891 85.88994598388672 33.82865524291992 83.70066070556641 28.65262985229492 C 81.58542633056641 23.65165710449219 78.55665588378906 19.15968322753906 74.698486328125 15.301513671875 C 70.84031677246094 11.44334411621094 66.34834289550781 8.414573669433594 61.34737396240234 6.299339294433594 C 56.17134475708008 4.110054016113281 50.67128753662109 3 45 3 M 45 0 C 69.85281372070312 0 90 20.14718627929688 90 45 C 90 69.85281372070312 69.85281372070312 90 45 90 C 20.14718627929688 90 0 69.85281372070312 0 45 C 0 20.14718627929688 20.14718627929688 0 45 0 Z" stroke="none" fill="#ba9c5a"/>
                    </g>
                  </g>
                </g>
              </g>
            </g>
          </g>
        </g>
      </g>
    </g>
    <g id="abogado_2_" data-name="abogado (2)" transform="translate(217.651 499.651)">
      <g id="Grupo_1216469" data-name="Grupo 1216469" transform="translate(1.206 1.206)">
        <g id="Grupo_1216466" data-name="Grupo 1216466">
          <path id="Trazado_1084421" data-name="Trazado 1084421" d="M24.441,280.955H37.308L38.917,257.5h-19.3v18.63A4.825,4.825,0,0,0,24.441,280.955Z" transform="translate(-17.667 -217.29)" fill="#ffb25a"/>
          <path id="Trazado_1084422" data-name="Trazado 1084422" d="M258.924,280.955H241.231L239.623,257.5h19.3Z" transform="translate(-202.289 -217.29)" fill="#ffbe73"/>
          <g id="Grupo_1216460" data-name="Grupo 1216460" transform="translate(0 50.182)">
            <path id="Trazado_1084423" data-name="Trazado 1084423" d="M144.272,321.5a118.362,118.362,0,0,1-2.358,14.886,21.452,21.452,0,0,1-16.693,0,96.078,96.078,0,0,1-2.453-14.886,29.868,29.868,0,0,1,21.5,0Z" transform="translate(-104.228 -319.5)" fill="#ffddcf"/>
            <path id="Trazado_1084424" data-name="Trazado 1084424" d="M271.667,379.742H258.281a40.871,40.871,0,0,1,6.635-23.91v0A29.76,29.76,0,0,1,276.4,374,4.823,4.823,0,0,1,271.667,379.742Z" transform="translate(-217.912 -349.987)" fill="#8697a6"/>
            <g id="Grupo_1216458" data-name="Grupo 1216458" transform="translate(20.446 16.888)">
              <path id="Trazado_1084425" data-name="Trazado 1084425" d="M152.31,424.5l-4.5,12.867h-.156c-4.576-.907-8.36-2.876-10.723-6.269l0,0-2.308-6.6Z" transform="translate(-134.618 -424.5)" fill="#fff8e6"/>
              <path id="Trazado_1084426" data-name="Trazado 1084426" d="M159.693,471.781h-8.529l-2.2-6.271a24.885,24.885,0,0,0,10.725,6.271Z" transform="translate(-146.66 -458.914)" fill="#fff1cf"/>
            </g>
            <path id="Trazado_1084427" data-name="Trazado 1084427" d="M227.4,347.686l1.892,2.291a1.608,1.608,0,0,1,.032,2.008l-5.97,7.717h-6.734l6.409-27.753a29.736,29.736,0,0,1,6.959,3.841v0l.105,7.533a1.609,1.609,0,0,1-1.142,1.562l-.779.236a1.608,1.608,0,0,0-.773,2.563Z" transform="translate(-182.984 -329.948)" fill="#a5b0bd"/>
            <path id="Trazado_1084428" data-name="Trazado 1084428" d="M12.328,379.742H25.714a40.871,40.871,0,0,0-6.635-23.91v0A29.76,29.76,0,0,0,7.591,374,4.823,4.823,0,0,0,12.328,379.742Z" transform="translate(-7.5 -349.987)" fill="#77899b"/>
            <g id="Grupo_1216459" data-name="Grupo 1216459" transform="translate(11.475 2.002)">
              <path id="Trazado_1084429" data-name="Trazado 1084429" d="M108.822,354.339c-6.3-4.4-10.262-11.228-8.352-20.933a29.6,29.6,0,0,1,3.181-1.456Z" transform="translate(-96.586 -331.95)" fill="#a5b0bd"/>
              <path id="Trazado_1084430" data-name="Trazado 1084430" d="M92.32,367.3H85.586l-5.97-7.717a1.606,1.606,0,0,1,.032-2.007l1.893-2.292a1.609,1.609,0,0,0-.774-2.564l-.78-.236a1.606,1.606,0,0,1-1.14-1.562l.1-7.532v0A29.836,29.836,0,0,1,82.73,341c-.045,8.951,3.014,16.143,8.352,20.933Z" transform="translate(-78.847 -339.544)" fill="#97a4b2"/>
            </g>
          </g>
          <g id="Grupo_1216461" data-name="Grupo 1216461" transform="translate(1.147)">
            <path id="Trazado_1084431" data-name="Trazado 1084431" d="M147.787,42.214H115.115c-7.864-7.348-11.678-17.6-6.559-32.394A27.472,27.472,0,0,1,119.638,7.5h0a27.585,27.585,0,0,1,27.518,25.671Z" transform="translate(-91.493 -7.5)" fill="#ffbe73"/>
            <path id="Trazado_1084432" data-name="Trazado 1084432" d="M38.25,54.314H14.628l.627-9.042A27.586,27.586,0,0,1,31.691,21.92C30.395,34.615,32.817,45.631,38.25,54.314Z" transform="translate(-14.628 -19.601)" fill="#ffb25a"/>
          </g>
          <ellipse id="Elipse_11875" data-name="Elipse 11875" cx="5.992" cy="7.602" rx="5.992" ry="7.602" transform="translate(46.014 28.354)" fill="#ffddcf"/>
          <ellipse id="Elipse_11876" data-name="Elipse 11876" cx="5.992" cy="7.602" rx="5.992" ry="7.602" transform="translate(0.585 28.354)" fill="#ffcbbe"/>
          <g id="Grupo_1216462" data-name="Grupo 1216462" transform="translate(6.823 12.024)">
            <path id="Trazado_1084433" data-name="Trazado 1084433" d="M151.889,105.63a23.793,23.793,0,0,1-6.361,16.293c-19.436-3.691-29.989-16.233-27.207-36.616a21.689,21.689,0,0,1,11.1-3.046C141.828,82.26,151.889,92.724,151.889,105.63Z" transform="translate(-106.949 -82.26)" fill="#ffddcf"/>
            <path id="Trazado_1084434" data-name="Trazado 1084434" d="M88.5,137.816a22,22,0,0,1-16.108,7.075c-12.41,0-22.471-10.463-22.471-23.368A23.533,23.533,0,0,1,61.289,101.2C63.163,118.583,73.058,131.55,88.5,137.816Z" transform="translate(-49.918 -98.154)" fill="#ffcbbe"/>
          </g>
          <g id="Grupo_1216464" data-name="Grupo 1216464" transform="translate(11.775 38.024)">
            <g id="Grupo_1216463" data-name="Grupo 1216463">
              <ellipse id="Elipse_11877" data-name="Elipse 11877" cx="4.721" cy="3.76" rx="4.721" ry="3.76" fill="#ffa1ac"/>
              <ellipse id="Elipse_11878" data-name="Elipse 11878" cx="4.721" cy="3.76" rx="4.721" ry="3.76" transform="translate(25.591)" fill="#ffa1ac"/>
            </g>
          </g>
          <g id="Grupo_1216465" data-name="Grupo 1216465" transform="translate(2.755 9.684)">
            <path id="Trazado_1084435" data-name="Trazado 1084435" d="M141.789,84.968l-2.437,7.042a1.608,1.608,0,0,1-3.128-.526V87.339a.8.8,0,0,0-.91-.8c-7.243,1.015-17.157-1.036-22.667-7.046a1.6,1.6,0,0,0-2.467.1,18.356,18.356,0,0,1-3.849,3.727c-4.885-4.087-7.827-8.79-2.49-14.966.423-.071.852-.127,1.285-.169a106.914,106.914,0,0,1,20.317.013,17.67,17.67,0,0,1,15.392,13.126Z" transform="translate(-88.712 -67.712)" fill="#ffbe73"/>
            <path id="Trazado_1084436" data-name="Trazado 1084436" d="M42.246,86.7A25.581,25.581,0,0,1,30.9,91.388a.8.8,0,0,0-.711.8v2.67a1.608,1.608,0,0,1-3.128.526L24.628,88.34l.954-3.646A17.7,17.7,0,0,1,39.756,71.73,51.6,51.6,0,0,0,42.246,86.7Z" transform="translate(-24.628 -71.084)" fill="#ffb25a"/>
          </g>
        </g>
        <g id="Grupo_1216468" data-name="Grupo 1216468" transform="translate(51.951 47.769)">
          <g id="Grupo_1216467" data-name="Grupo 1216467">
            <path id="Trazado_1084437" data-name="Trazado 1084437" d="M417.711,309.325v22.517c0,.145-.006.29-.019.431-12.3-3.931-19.325-13.267-15.63-27.774h10.824A4.825,4.825,0,0,1,417.711,309.325Z" transform="translate(-389.725 -304.5)" fill="#fff8e6"/>
            <path id="Trazado_1084438" data-name="Trazado 1084438" d="M358.467,332.274a4.825,4.825,0,0,1-4.806,4.394H335.325a4.825,4.825,0,0,1-4.825-4.825V309.325a4.825,4.825,0,0,1,4.825-4.825h7.511C342.4,317.444,348.282,327.328,358.467,332.274Z" transform="translate(-330.5 -304.5)" fill="#fff1cf"/>
          </g>
          <path id="Trazado_1084439" data-name="Trazado 1084439" d="M387.7,449.325h-8.042a2.413,2.413,0,1,1,0-4.825H387.7a2.413,2.413,0,1,1,0,4.825Z" transform="translate(-369.731 -421.983)" fill="#ffbe73"/>
        </g>
      </g>
      <g id="Grupo_1216471" data-name="Grupo 1216471" transform="translate(0 0)">
        <g id="Grupo_1216470" data-name="Grupo 1216470" transform="translate(19.249 36.234)">
          <path id="Trazado_1084440" data-name="Trazado 1084440" d="M120.882,229.628a1.206,1.206,0,0,1-1.206-1.206v-1.93a1.206,1.206,0,1,1,2.413,0v1.93A1.206,1.206,0,0,1,120.882,229.628Z" transform="translate(-119.676 -225.285)"/>
          <path id="Trazado_1084441" data-name="Trazado 1084441" d="M245.78,229.628a1.206,1.206,0,0,1-1.206-1.206v-1.93a1.206,1.206,0,0,1,2.413,0v1.93A1.207,1.207,0,0,1,245.78,229.628Z" transform="translate(-224.486 -225.285)"/>
          <path id="Trazado_1084442" data-name="Trazado 1084442" d="M169.515,240.546a4.718,4.718,0,0,1-3.558-1.62,1.206,1.206,0,1,1,1.819-1.585,2.3,2.3,0,0,0,3.477,0,1.206,1.206,0,1,1,1.819,1.585A4.718,4.718,0,0,1,169.515,240.546Z" transform="translate(-158.264 -235.055)"/>
        </g>
        <path id="Trazado_1084443" data-name="Trazado 1084443" d="M373.9,340.023h-.691V334.2l.205.08a1.206,1.206,0,0,0,.882-2.246,25.479,25.479,0,0,0-8.037-1.78v-2.048a1.206,1.206,0,0,0-2.413,0v2.045a25.47,25.47,0,0,0-8.081,1.783,1.206,1.206,0,0,0,.883,2.245l.249-.1v5.84H356.2a1.206,1.206,0,0,0,0,2.413h3.53a1.206,1.206,0,0,0,0-2.413h-.426V333.4a22.3,22.3,0,0,1,4.537-.729v12.019h-2.855a3.619,3.619,0,0,0,0,7.238h8.042a3.619,3.619,0,1,0,0-7.238h-2.774V332.675a22.33,22.33,0,0,1,4.537.738v6.61h-.426a1.206,1.206,0,0,0,0,2.413h3.53a1.206,1.206,0,0,0,0-2.413Zm-3.659,8.288a1.208,1.208,0,0,1-1.206,1.206h-8.042a1.206,1.206,0,1,1,0-2.413h8.042A1.208,1.208,0,0,1,370.237,348.311Z" transform="translate(-297.9 -274.406)"/>
        <path id="Trazado_1084444" data-name="Trazado 1084444" d="M76.318,47.769H59.049V42.313a10.141,10.141,0,0,0,1.362-5.152,10.477,10.477,0,0,0-.739-3.88l-.451-6.487a28.8,28.8,0,0,0-8.15-18.146,1.206,1.206,0,0,0-1.723,1.688,26.387,26.387,0,0,1,7.467,16.624l.188,2.7-.067-.05a1.207,1.207,0,0,0-1.875.562l-1.6,4.618a.4.4,0,0,1-.782-.131V30.517A2.012,2.012,0,0,0,50.4,28.525,28.864,28.864,0,0,1,38.9,27.669a21.4,21.4,0,0,1-10.12-5.812,2.834,2.834,0,0,0-2.233-.917,2.777,2.777,0,0,0-2.089,1.115c-2.7,3.625-8.2,6.826-13.361,7.784-.34.063-.681.116-1.012.158a2.015,2.015,0,0,0-1.77,2v2.67a.4.4,0,0,1-.782.132l-1.6-4.619a1.207,1.207,0,0,0-1.879-.56L4,29.663l.187-2.7A26.382,26.382,0,0,1,45.209,6.892a1.206,1.206,0,0,0,1.347-2,28.793,28.793,0,0,0-44.779,21.9l-.45,6.479a10.474,10.474,0,0,0-.742,3.889,10.139,10.139,0,0,0,1.364,5.154v17.73a6.069,6.069,0,0,0,2.273,4.715,31.023,31.023,0,0,0-4.109,10.4,6.03,6.03,0,0,0,5.92,7.184H54.961a6.052,6.052,0,0,0,1.513-.191,6.023,6.023,0,0,0,1.509.191H76.318a6.038,6.038,0,0,0,6.031-6.031V53.8a6.038,6.038,0,0,0-6.031-6.031ZM3,37.162a7.657,7.657,0,0,1,1.3-4.361l.962,2.782a2.815,2.815,0,0,0,5.474-.92V32.345c.268-.039.539-.083.809-.133,5.8-1.077,11.771-4.579,14.855-8.714a.362.362,0,0,1,.279-.149.42.42,0,0,1,.333.139c5.006,5.46,13.144,7.682,19.893,7.682a28.162,28.162,0,0,0,3.367-.2v3.688a2.773,2.773,0,0,0,2.348,2.776,2.971,2.971,0,0,0,.492.041,2.765,2.765,0,0,0,2.635-1.9L56.7,32.8A7.661,7.661,0,0,1,58,37.162c0,3.527-2.147,6.4-4.785,6.4a3.619,3.619,0,0,1-1.173-.2,1.206,1.206,0,0,0-1.531.748A21.383,21.383,0,0,1,30.5,58.762,21.384,21.384,0,0,1,10.489,44.109a1.207,1.207,0,0,0-1.531-.748,3.619,3.619,0,0,1-1.173.2c-2.64,0-4.787-2.87-4.787-6.4Zm53.638,7.748v3.011a6.042,6.042,0,0,0-4.685,5.88v5.017a30.814,30.814,0,0,0-5.4-4.158,24.527,24.527,0,0,0,5.867-8.743,5.976,5.976,0,0,0,.8.054,6.151,6.151,0,0,0,3.422-1.061ZM38.554,59.7l-1.7,7.367H24.143l-1.7-7.368a22.774,22.774,0,0,0,16.112,0Zm-24.1-5.044a31.321,31.321,0,0,0-8.776,7.975l-.09.122a3.64,3.64,0,0,1-1.223-2.71V44.91a6.153,6.153,0,0,0,3.423,1.061,5.974,5.974,0,0,0,.8-.054A24.523,24.523,0,0,0,14.452,54.659ZM6.034,79.937a3.617,3.617,0,0,1-3.553-4.307A28.495,28.495,0,0,1,11.544,59.8l-.069,4.948a2.823,2.823,0,0,0,2,2.735l.78.237a.4.4,0,0,1,.193.641l-1.892,2.291a2.8,2.8,0,0,0-.057,3.515l4.466,5.773Zm27.847,0H27.114l-.612-2.65a1.206,1.206,0,1,0-2.351.543l.487,2.107H20.012L14.4,72.687a.4.4,0,0,1,.009-.5l1.894-2.293a2.816,2.816,0,0,0-1.355-4.485l-.78-.237a.4.4,0,0,1-.284-.391l.1-6.927a28.491,28.491,0,0,1,2.4-1.535,23.717,23.717,0,0,0,3.29,2.127l3.21,13.9a1.206,1.206,0,0,0,2.351-.543L24.7,69.482H36.3Zm2.476,0,4.963-21.488a23.72,23.72,0,0,0,3.291-2.128q1.242.707,2.4,1.529l.1,6.934a.4.4,0,0,1-.284.388l-.78.236A2.816,2.816,0,0,0,44.689,69.9l1.894,2.293a.4.4,0,0,1,.008.5l-5.608,7.249Zm43.58-3.619a3.623,3.623,0,0,1-3.619,3.619H57.982a3.623,3.623,0,0,1-3.619-3.619V73.783a1.206,1.206,0,1,0-2.413,0v2.535a6,6,0,0,0,1.209,3.619H44.033L48.5,74.165a2.8,2.8,0,0,0-.056-3.514L46.55,68.36a.4.4,0,0,1,.193-.642l.78-.236a2.823,2.823,0,0,0,2-2.733l-.069-4.957a28.745,28.745,0,0,1,2.5,2.518v5.846a1.206,1.206,0,1,0,2.413,0V53.8a3.623,3.623,0,0,1,3.619-3.619H76.318A3.623,3.623,0,0,1,79.936,53.8V76.318Z" transform="translate(0 0)"/>
      </g>
    </g>
  </g>
</svg>
