<svg xmlns="http://www.w3.org/2000/svg" xmlns:xlink="http://www.w3.org/1999/xlink" width="108" height="108" viewBox="0 0 108 108">
  <defs>
    <filter id="Trazado_904820" x="0" y="0" width="108" height="108" filterUnits="userSpaceOnUse">
      <feOffset dy="3" input="SourceAlpha"/>
      <feGaussianBlur stdDeviation="3" result="blur"/>
      <feFlood flood-opacity="0.161"/>
      <feComposite operator="in" in2="blur"/>
      <feComposite in="SourceGraphic"/>
    </filter>
  </defs>
  <g id="Grupo_1217696" data-name="Grupo 1217696" transform="translate(-197 -337.5)">
    <g id="Grupo_1211578" data-name="Grupo 1211578" transform="translate(0 -2328.555)">
      <g id="Grupo_1207774" data-name="Grupo 1207774" transform="translate(206 2670.713)">
        <g id="Grupo_1206630" data-name="Grupo 1206630" transform="translate(0 1.342)">
          <g id="Grupo_1185091" data-name="Grupo 1185091" transform="translate(0 0)">
            <g id="Grupo_1179560" data-name="Grupo 1179560">
              <g id="Grupo_1173787" data-name="Grupo 1173787" transform="translate(0)">
                <g id="Grupo_1171910" data-name="Grupo 1171910">
                  <g id="Grupo_1167341" data-name="Grupo 1167341">
                    <g id="Grupo_1166792" data-name="Grupo 1166792">
                      <g transform="matrix(1, 0, 0, 1, -9, -6)" filter="url(#Trazado_904820)">
                        <g id="Trazado_904820-2" data-name="Trazado 904820" transform="translate(9 6)" fill="#f7f4ed">
                          <path d="M 44.99999618530273 88.50006866455078 C 39.12687301635742 88.50006866455078 33.43022155761719 87.35014343261719 28.06829643249512 85.08222961425781 C 22.88852119445801 82.89136505126953 18.23629570007324 79.75465393066406 14.24084663391113 75.75919342041016 C 10.24540901184082 71.76374053955078 7.108683586120605 67.11151885986328 4.917821407318115 61.93174362182617 C 2.649921178817749 56.56980514526367 1.499996185302734 50.87315368652344 1.499996185302734 45.00003051757812 C 1.499996185302734 39.12690734863281 2.649921178817749 33.43025588989258 4.917821407318115 28.06831741333008 C 7.108683586120605 22.88854217529297 10.24540901184082 18.23631858825684 14.24084663391113 14.24086761474609 C 18.23629570007324 10.24541759490967 22.88852119445801 7.10869312286377 28.06829643249512 4.917842864990234 C 33.43022155761719 2.649930477142334 39.12687301635742 1.500005483627319 44.99999618530273 1.500005483627319 C 50.87311935424805 1.500005483627319 56.56977081298828 2.649930477142334 61.93169784545898 4.917842864990234 C 67.11147308349609 7.10869312286377 71.76369476318359 10.24541759490967 75.75914764404297 14.24086761474609 C 79.75458526611328 18.23631858825684 82.89131164550781 22.88854217529297 85.08216857910156 28.06831741333008 C 87.35007476806641 33.43025588989258 88.5 39.12690734863281 88.5 45.00003051757812 C 88.5 50.87315368652344 87.35007476806641 56.56980514526367 85.08216857910156 61.93174362182617 C 82.89131164550781 67.11151885986328 79.75458526611328 71.76374053955078 75.75914764404297 75.75919342041016 C 71.76369476318359 79.75465393066406 67.11147308349609 82.89136505126953 61.93169784545898 85.08222961425781 C 56.56977081298828 87.35014343261719 50.87311935424805 88.50006866455078 44.99999618530273 88.50006866455078 Z" stroke="none"/>
                          <path d="M 44.99999618530273 3 C 39.32870864868164 3 33.82865142822266 4.110061645507812 28.65262603759766 6.299346923828125 C 23.65165710449219 8.414573669433594 19.15968322753906 11.44334411621094 15.301513671875 15.30152893066406 C 11.44333648681641 19.15969848632812 8.414566040039062 23.65167236328125 6.299339294433594 28.65264511108398 C 4.110054016113281 33.82868576049805 2.999992370605469 39.32874298095703 2.999992370605469 45.00003051757812 C 2.999992370605469 50.67131805419922 4.110054016113281 56.1713752746582 6.299339294433594 61.34741592407227 C 8.414566040039062 66.348388671875 11.44333648681641 70.84036254882812 15.301513671875 74.69853210449219 C 19.15968322753906 78.55671691894531 23.65165710449219 81.58548736572266 28.65262603759766 83.70071411132812 C 33.82865142822266 85.88999938964844 39.32870864868164 87.00006103515625 44.99999618530273 87.00006103515625 C 50.67128372192383 87.00006103515625 56.17134094238281 85.88999938964844 61.34736633300781 83.70071411132812 C 66.34834289550781 81.58548736572266 70.84030914306641 78.55671691894531 74.69847869873047 74.69853210449219 C 78.55665588378906 70.84036254882812 81.58542633056641 66.348388671875 83.70065307617188 61.34741592407227 C 85.88993835449219 56.1713752746582 87 50.67131805419922 87 45.00003051757812 C 87 39.32874298095703 85.88993835449219 33.82868576049805 83.70065307617188 28.65264511108398 C 81.58542633056641 23.65167236328125 78.55665588378906 19.15969848632812 74.69847869873047 15.30152893066406 C 70.84030914306641 11.44334411621094 66.34834289550781 8.414573669433594 61.34736633300781 6.299346923828125 C 56.17134094238281 4.110061645507812 50.67128372192383 3 44.99999618530273 3 M 44.99999618530273 0 C 69.85281372070312 0 90 20.14720153808594 90 45.00003051757812 C 90 69.85285949707031 69.85281372070312 90.00006103515625 44.99999618530273 90.00006103515625 C 20.14717864990234 90.00006103515625 -7.62939453125e-06 69.85285949707031 -7.62939453125e-06 45.00003051757812 C -7.62939453125e-06 20.14720153808594 20.14717864990234 0 44.99999618530273 0 Z" stroke="none" fill="#ba9c5a"/>
                        </g>
                      </g>
                    </g>
                  </g>
                </g>
              </g>
            </g>
          </g>
        </g>
      </g>
    </g>
    <g id="banco" transform="translate(214.904 360.38)">
      <g id="Grupo_1217670" data-name="Grupo 1217670" transform="translate(5.813 5.438)">
        <path id="Trazado_1086216" data-name="Trazado 1086216" d="M41.227,48.163V65.321h60.568V48.164L71.509,30.678Z" transform="translate(-41.227 -30.678)" fill="#eceaec" fill-rule="evenodd"/>
      </g>
      <g id="Grupo_1217671" data-name="Grupo 1217671" transform="translate(1.06 2.352)">
        <path id="Trazado_1086217" data-name="Trazado 1086217" d="M7.882,31.512a2.779,2.779,0,0,0,3.789,1.015l.6-.344L42.548,14.7,72.834,32.183l.6.344a2.773,2.773,0,0,0,2.77-4.8L44.071,9.175a3.243,3.243,0,0,0-3.045,0L8.9,27.723a2.784,2.784,0,0,0-1.015,3.789Z" transform="translate(-7.513 -8.795)" fill="#9fd4fe" fill-rule="evenodd"/>
      </g>
      <g id="Grupo_1217672" data-name="Grupo 1217672" transform="translate(1.062 40.081)">
        <path id="Trazado_1086218" data-name="Trazado 1086218" d="M11.446,281.545h65.5a.65.65,0,0,0,.647-.647v-3.869a.65.65,0,0,0-.647-.647H8.172a.65.65,0,0,0-.647.647V280.9a.65.65,0,0,0,.647.647Z" transform="translate(-7.525 -276.381)" fill="#9fd4fe" fill-rule="evenodd"/>
      </g>
      <g id="Grupo_1217673" data-name="Grupo 1217673" transform="translate(4.982 45.245)">
        <path id="Trazado_1086219" data-name="Trazado 1086219" d="M38.288,317.616H49.926a.631.631,0,0,0,.627-.627V313H35.331v3.985a.631.631,0,0,0,.627.627Z" transform="translate(-35.331 -313.004)" fill="#eceaec" fill-rule="evenodd"/>
      </g>
      <g id="Grupo_1217674" data-name="Grupo 1217674" transform="translate(28.482 45.245)">
        <path id="Trazado_1086220" data-name="Trazado 1086220" d="M204.962,317.616H216.6a.632.632,0,0,0,.632-.627V313H202v3.985a.632.632,0,0,0,.632.627Z" transform="translate(-202.001 -313.004)" fill="#eceaec" fill-rule="evenodd"/>
      </g>
      <g id="Grupo_1217675" data-name="Grupo 1217675" transform="translate(51.986 45.245)">
        <path id="Trazado_1086221" data-name="Trazado 1086221" d="M369.33,317.616h13.964a.632.632,0,0,0,.632-.627V313H368.7v3.985A.632.632,0,0,0,369.33,317.616Z" transform="translate(-368.698 -313.004)" fill="#eceaec" fill-rule="evenodd"/>
      </g>
      <g id="Grupo_1217676" data-name="Grupo 1217676" transform="translate(54.947 49.857)">
        <path id="Trazado_1086222" data-name="Trazado 1086222" d="M389.7,345.715h9.3v12.43h-9.3Z" transform="translate(-389.702 -345.715)" fill="#ffe07d" fill-rule="evenodd"/>
      </g>
      <g id="Grupo_1217677" data-name="Grupo 1217677" transform="translate(31.443 49.857)">
        <path id="Trazado_1086223" data-name="Trazado 1086223" d="M223,345.715h9.3v12.43H223Z" transform="translate(-223.004 -345.715)" fill="#ffe07d" fill-rule="evenodd"/>
      </g>
      <g id="Grupo_1217678" data-name="Grupo 1217678" transform="translate(7.94 49.857)">
        <path id="Trazado_1086224" data-name="Trazado 1086224" d="M56.306,345.715h9.308v12.43H56.306Z" transform="translate(-56.306 -345.715)" fill="#ffe07d" fill-rule="evenodd"/>
      </g>
      <g id="Grupo_1217679" data-name="Grupo 1217679" transform="translate(4.982 62.286)">
        <path id="Trazado_1086225" data-name="Trazado 1086225" d="M35.331,438.482H50.554V434.5a.632.632,0,0,0-.627-.632H35.958a.632.632,0,0,0-.627.632Z" transform="translate(-35.331 -433.87)" fill="#eceaec" fill-rule="evenodd"/>
      </g>
      <g id="Grupo_1217680" data-name="Grupo 1217680" transform="translate(51.986 62.286)">
        <path id="Trazado_1086226" data-name="Trazado 1086226" d="M368.7,438.482h15.227V434.5a.633.633,0,0,0-.632-.632H369.33a.633.633,0,0,0-.632.632Z" transform="translate(-368.698 -433.87)" fill="#eceaec" fill-rule="evenodd"/>
      </g>
      <g id="Grupo_1217681" data-name="Grupo 1217681" transform="translate(28.482 62.286)">
        <path id="Trazado_1086227" data-name="Trazado 1086227" d="M202,438.482h15.227V434.5a.633.633,0,0,0-.632-.632H202.632a.633.633,0,0,0-.632.632v3.981Z" transform="translate(-202 -433.87)" fill="#eceaec" fill-rule="evenodd"/>
      </g>
      <g id="Grupo_1217682" data-name="Grupo 1217682" transform="translate(1.061 66.899)">
        <path id="Trazado_1086228" data-name="Trazado 1086228" d="M8.171,471.746H76.948a.65.65,0,0,0,.647-.647v-3.869a.65.65,0,0,0-.647-.647H8.171a.65.65,0,0,0-.647.647V471.1a.65.65,0,0,0,.647.647Z" transform="translate(-7.524 -466.582)" fill="#9fd4fe" fill-rule="evenodd"/>
      </g>
      <g id="Grupo_1217683" data-name="Grupo 1217683" transform="translate(32.866 14.506)">
        <path id="Trazado_1086229" data-name="Trazado 1086229" d="M233.1,98.38a3.385,3.385,0,1,0,3.385-3.385A3.384,3.384,0,0,0,233.1,98.38Z" transform="translate(-233.095 -94.995)" fill="#ffe07d" fill-rule="evenodd"/>
      </g>
      <g id="Grupo_1217684" data-name="Grupo 1217684" transform="translate(17.248 45.245)">
        <path id="Trazado_1086230" data-name="Trazado 1086230" d="M122.322,317.616v12.43h2.33a.632.632,0,0,1,.627.632v3.981h8.277v-3.981a.633.633,0,0,1,.632-.632h2.33v-12.43h-2.33a.632.632,0,0,1-.632-.627V313h-8.277v3.985a.631.631,0,0,1-.627.627Z" transform="translate(-122.322 -313.004)" fill="#b6b1b7" fill-rule="evenodd"/>
      </g>
      <g id="Grupo_1217685" data-name="Grupo 1217685" transform="translate(40.747 45.245)">
        <path id="Trazado_1086231" data-name="Trazado 1086231" d="M288.992,317.616v12.43h2.33a.633.633,0,0,1,.632.632v3.981h8.277v-3.981a.633.633,0,0,1,.632-.632h2.33v-12.43h-2.33a.632.632,0,0,1-.632-.627V313h-8.277v3.985a.632.632,0,0,1-.632.627Z" transform="translate(-288.992 -313.004)" fill="#b6b1b7" fill-rule="evenodd"/>
      </g>
      <g id="Grupo_1217686" data-name="Grupo 1217686" transform="translate(5.813 8.256)">
        <path id="Trazado_1086232" data-name="Trazado 1086232" d="M71.509,50.662,41.227,68.147V72.08L71.509,54.595,101.795,72.08V68.147Z" transform="translate(-41.227 -50.662)" fill="#dad8db" fill-rule="evenodd"/>
      </g>
      <g id="Grupo_1217687" data-name="Grupo 1217687" transform="translate(32.866 14.506)">
        <path id="Trazado_1086233" data-name="Trazado 1086233" d="M236.481,95a3.387,3.387,0,0,0-3.2,4.488,3.384,3.384,0,0,1,6.338.164,3.345,3.345,0,0,0,.248-1.267A3.387,3.387,0,0,0,236.481,95Z" transform="translate(-233.096 -94.995)" fill="#ffc269" fill-rule="evenodd"/>
      </g>
      <g id="Grupo_1217688" data-name="Grupo 1217688" transform="translate(7.94 49.857)">
        <path id="Trazado_1086234" data-name="Trazado 1086234" d="M56.306,345.715h9.308V349.1H56.306Z" transform="translate(-56.306 -345.715)" fill="#ffc269" fill-rule="evenodd"/>
      </g>
      <g id="Grupo_1217689" data-name="Grupo 1217689" transform="translate(31.443 49.857)">
        <path id="Trazado_1086235" data-name="Trazado 1086235" d="M223,345.715h9.3V349.1H223Z" transform="translate(-223.004 -345.715)" fill="#ffc269" fill-rule="evenodd"/>
      </g>
      <g id="Grupo_1217690" data-name="Grupo 1217690" transform="translate(54.947 49.857)">
        <path id="Trazado_1086236" data-name="Trazado 1086236" d="M389.7,345.715h9.3V349.1h-9.3Z" transform="translate(-389.702 -345.715)" fill="#ffc269" fill-rule="evenodd"/>
      </g>
      <g id="Grupo_1217691" data-name="Grupo 1217691" transform="translate(4.982 45.245)">
        <path id="Trazado_1086237" data-name="Trazado 1086237" d="M35.331,313H50.554v2.474H35.331Z" transform="translate(-35.331 -313.004)" fill="#dad8db" fill-rule="evenodd"/>
      </g>
      <g id="Grupo_1217692" data-name="Grupo 1217692" transform="translate(28.482 45.245)">
        <path id="Trazado_1086238" data-name="Trazado 1086238" d="M202,313h15.227v2.474H202Z" transform="translate(-202.001 -313.004)" fill="#dad8db" fill-rule="evenodd"/>
      </g>
      <g id="Grupo_1217693" data-name="Grupo 1217693" transform="translate(51.986 45.245)">
        <path id="Trazado_1086239" data-name="Trazado 1086239" d="M368.7,313h15.227v2.474H368.7Z" transform="translate(-368.698 -313.004)" fill="#dad8db" fill-rule="evenodd"/>
      </g>
      <g id="Grupo_1217695" data-name="Grupo 1217695" transform="translate(0.001 1.295)">
        <path id="Trazado_1086240" data-name="Trazado 1086240" d="M66.581,50.914a1.689,1.689,0,0,0,1.689-1.685V46.3h2.216a1.707,1.707,0,0,0,1.7-1.7V40.728a1.707,1.707,0,0,0-1.7-1.7H67.439V27.4a3.773,3.773,0,0,0,.912.114,3.866,3.866,0,0,0,1-.134,3.832,3.832,0,0,0,.919-7.015L38.15,1.818a4.3,4.3,0,0,0-4.106,0L1.915,20.365A3.832,3.832,0,0,0,4.756,27.4V39.023H1.709a1.707,1.707,0,0,0-1.7,1.7V44.6a1.707,1.707,0,0,0,1.7,1.7H3.925v2.927A1.687,1.687,0,0,0,5.61,50.914H6.882V61.229H5.61a1.689,1.689,0,0,0-1.685,1.689v2.923H1.709a1.707,1.707,0,0,0-1.7,1.7v3.869a1.707,1.707,0,0,0,1.7,1.7h32.18a1.057,1.057,0,1,0,0-2.115H2.119V67.956H70.076V71H38.769a1.057,1.057,0,1,0,0,2.115H70.486a1.707,1.707,0,0,0,1.7-1.7V67.546a1.707,1.707,0,0,0-1.7-1.7H68.27V62.918a1.691,1.691,0,0,0-1.689-1.689H65.309V50.914h1.272ZM4.69,25.169a1.722,1.722,0,0,1-2.344-.628h0A1.718,1.718,0,0,1,2.973,22.2L35.1,3.646A2.032,2.032,0,0,1,36.1,3.41a2.006,2.006,0,0,1,.994.238L69.218,22.2a1.715,1.715,0,0,1-1.712,2.972L36.624,7.34a1.057,1.057,0,0,0-1.057,0ZM2.119,41.138h31.77a1.057,1.057,0,0,0,0-2.115H6.871V26.351L36.1,9.477,65.324,26.351V39.024H38.593a1.057,1.057,0,1,0,0,2.115H70.076v3.049H2.119ZM29.539,48.8V46.3H42.651v2.5ZM39.69,50.914V61.229H32.5V50.914ZM6.04,48.8V46.3H19.148v2.5ZM16.19,50.914V61.229H9V50.914Zm2.957,14.927H6.04v-2.5H19.148Zm8.277-2.923v2.923H21.262V62.918a1.689,1.689,0,0,0-1.685-1.689H18.3V50.914h1.272a1.687,1.687,0,0,0,1.685-1.685V46.3h6.162v2.927a1.689,1.689,0,0,0,1.689,1.685h1.273V61.229H29.113A1.691,1.691,0,0,0,27.424,62.918Zm15.227,2.923H29.539v-2.5H42.651Zm8.277-2.923v2.923H44.766V62.918a1.691,1.691,0,0,0-1.689-1.689H41.8V50.914h1.272a1.689,1.689,0,0,0,1.689-1.685V46.3h6.162v2.927a1.689,1.689,0,0,0,1.689,1.685H53.89V61.229H52.617A1.691,1.691,0,0,0,50.928,62.918Zm15.227.426v2.5H53.043v-2.5ZM56,61.229V50.914h7.189V61.229ZM53.043,48.8V46.3H66.155v2.5Z" transform="translate(-0.001 -1.295)"/>
        <path id="Trazado_1086241" data-name="Trazado 1086241" d="M234.48,91.938a4.443,4.443,0,1,0-4.443,4.443A4.448,4.448,0,0,0,234.48,91.938Zm-6.77,0a2.328,2.328,0,1,1,2.328,2.328A2.33,2.33,0,0,1,227.71,91.938Z" transform="translate(-193.787 -75.341)"/>
        <g id="Grupo_1217694" data-name="Grupo 1217694" transform="translate(17.411 24.132)">
          <path id="Trazado_1086242" data-name="Trazado 1086242" d="M129.412,177.7a2.942,2.942,0,0,0-2.486-4.523H124.54a1.057,1.057,0,0,0-1.057,1.057v8.212a1.058,1.058,0,0,0,1.057,1.057h0s2.193-.01,2.8-.01a3.266,3.266,0,0,0,2.07-5.795Zm-2.486-2.408a.832.832,0,0,1,0,1.664l-1.328,0v-1.666h1.328Zm.417,6.087-1.745.005v-2.31l1.745,0a1.153,1.153,0,0,1,0,2.306Z" transform="translate(-123.483 -173.075)"/>
          <path id="Trazado_1086243" data-name="Trazado 1086243" d="M192.722,173.978l-.011-.028a1.239,1.239,0,0,0-1.15-.771h0a1.239,1.239,0,0,0-1.15.773l-.009.024-3.084,8.1a1.057,1.057,0,0,0,1.976.753l.509-1.335H193.3l.5,1.332a1.057,1.057,0,1,0,1.979-.747Zm-2.115,5.4.95-2.494.941,2.494Z" transform="translate(-178.256 -173.076)"/>
          <path id="Trazado_1086244" data-name="Trazado 1086244" d="M270.571,173.179h-.01a1.057,1.057,0,0,0-1.047,1.068l.048,4.9-3.8-5.5a1.058,1.058,0,0,0-1.928.6v8.2a1.057,1.057,0,1,0,2.115,0v-4.8l3.615,5.234a1.165,1.165,0,0,0,1.316.484,1.207,1.207,0,0,0,.823-1.2l-.077-7.935A1.057,1.057,0,0,0,270.571,173.179Z" transform="translate(-244.046 -173.076)"/>
          <path id="Trazado_1086245" data-name="Trazado 1086245" d="M347.995,181.061,344.3,177.5l3.38-3.107a1.057,1.057,0,1,0-1.431-1.557l-2.7,2.482v-1.808a1.057,1.057,0,0,0-2.115,0v8.315a1.057,1.057,0,1,0,2.115,0v-2.11l2.976,2.872a1.057,1.057,0,1,0,1.468-1.522Z" transform="translate(-310.705 -172.45)"/>
        </g>
      </g>
    </g>
  </g>
</svg>
