<svg xmlns="http://www.w3.org/2000/svg" xmlns:xlink="http://www.w3.org/1999/xlink" width="93.934" height="93.934" viewBox="0 0 93.934 93.934">
  <defs>
    <filter id="Trazado_982547" x="0" y="0" width="93.934" height="93.934" filterUnits="userSpaceOnUse">
      <feOffset dy="3" input="SourceAlpha"/>
      <feGaussianBlur stdDeviation="3" result="blur"/>
      <feFlood flood-opacity="0.161"/>
      <feComposite operator="in" in2="blur"/>
      <feComposite in="SourceGraphic"/>
    </filter>
  </defs>
  <g id="Grupo_1217804" data-name="Grupo 1217804" transform="translate(-1031.066 -7237.035)">
    <g id="Grupo_1216282" data-name="Grupo 1216282" transform="translate(0 6194.186)">
      <g id="Grupo_1215983" data-name="Grupo 1215983" transform="translate(-0.229 -2679.151)">
        <g id="Grupo_1214661" data-name="Grupo 1214661" transform="translate(0 -1406)">
          <g id="Grupo_1214434" data-name="Grupo 1214434" transform="translate(-0.771 -2738.522)">
            <g id="Grupo_1183184" data-name="Grupo 1183184" transform="translate(1 1016.523)">
              <g id="Grupo_1179612" data-name="Grupo 1179612" transform="translate(848 4723.467)">
                <g id="Grupo_1175227" data-name="Grupo 1175227" transform="translate(-5.967 140.533)">
                  <g id="Grupo_1167337" data-name="Grupo 1167337" transform="translate(198.033 1992)">
                    <g id="Grupo_1166720" data-name="Grupo 1166720">
                      <g id="Grupo_1164305" data-name="Grupo 1164305">
                        <g id="Grupo_1163948" data-name="Grupo 1163948">
                          <g id="Grupo_1158168" data-name="Grupo 1158168">
                            <g id="Grupo_1152576" data-name="Grupo 1152576">
                              <g id="Grupo_1148633" data-name="Grupo 1148633">
                                <g id="Grupo_1148525" data-name="Grupo 1148525">
                                  <g transform="matrix(1, 0, 0, 1, -9, -6)" filter="url(#Trazado_982547)">
                                    <g id="Trazado_982547-2" data-name="Trazado 982547" transform="translate(9 6)" fill="#f7f4ed">
                                      <path d="M 37.966796875 74.43359375 C 33.04315185546875 74.43359375 28.26757431030273 73.46962738037109 23.77274131774902 71.56847381591797 C 19.43047523498535 69.73184967041016 15.53040790557861 67.10224914550781 12.18087482452393 63.75271987915039 C 8.831341743469238 60.4031867980957 6.201741218566895 56.50312042236328 4.365118980407715 52.16086196899414 C 2.463963508605957 47.66601943969727 1.499996900558472 42.89044189453125 1.499996900558472 37.966796875 C 1.499996900558472 33.04315185546875 2.463963508605957 28.26757431030273 4.365118980407715 23.77274131774902 C 6.201741218566895 19.43047523498535 8.831341743469238 15.53040790557861 12.18087482452393 12.18087482452393 C 15.53040790557861 8.831341743469238 19.43047523498535 6.201741218566895 23.77274131774902 4.365118980407715 C 28.26757431030273 2.463963508605957 33.04315185546875 1.499996900558472 37.966796875 1.499996900558472 C 42.89044189453125 1.499996900558472 47.66601943969727 2.463963508605957 52.16086196899414 4.365118980407715 C 56.50312042236328 6.201741218566895 60.4031867980957 8.831341743469238 63.75271987915039 12.18087482452393 C 67.10224914550781 15.53040790557861 69.73184967041016 19.43047523498535 71.56847381591797 23.77274131774902 C 73.46962738037109 28.26757431030273 74.43359375 33.04315185546875 74.43359375 37.966796875 C 74.43359375 42.89044189453125 73.46962738037109 47.66601943969727 71.56847381591797 52.16086196899414 C 69.73184967041016 56.50313186645508 67.10224914550781 60.4031867980957 63.75271987915039 63.75271987915039 C 60.4031867980957 67.10224914550781 56.50313186645508 69.73184967041016 52.16086196899414 71.56847381591797 C 47.66601943969727 73.46962738037109 42.89044189453125 74.43359375 37.966796875 74.43359375 Z" stroke="none"/>
                                      <path d="M 37.966796875 3 C 33.2449836730957 3 28.66600799560547 3.924095153808594 24.35705947875977 5.746635437011719 C 20.19359588623047 7.507637023925781 16.45379638671875 10.02928161621094 13.24153518676758 13.24153518676758 C 10.02927398681641 16.45379638671875 7.507621765136719 20.19359588623047 5.746635437011719 24.35705947875977 C 3.924095153808594 28.66600799560547 3 33.2449836730957 3 37.966796875 C 3 42.6886100769043 3.924095153808594 47.26758575439453 5.746635437011719 51.57653427124023 C 7.507621765136719 55.73999786376953 10.02927398681641 59.47979736328125 13.24153518676758 62.69205856323242 C 16.45379638671875 65.90431976318359 20.19359588623047 68.42597198486328 24.35705947875977 70.18695831298828 C 28.66600799560547 72.00949859619141 33.2449836730957 72.93359375 37.966796875 72.93359375 C 42.6886100769043 72.93359375 47.26758575439453 72.00949859619141 51.57653427124023 70.18695831298828 C 55.73999786376953 68.42597198486328 59.47979736328125 65.90431976318359 62.69205856323242 62.69205856323242 C 65.90431976318359 59.47979736328125 68.42597198486328 55.73999786376953 70.18695831298828 51.57653427124023 C 72.00949859619141 47.26758575439453 72.93359375 42.6886100769043 72.93359375 37.966796875 C 72.93359375 33.2449836730957 72.00949859619141 28.66600799560547 70.18695831298828 24.35705947875977 C 68.42597198486328 20.19359588623047 65.90431976318359 16.45379638671875 62.69205856323242 13.24153518676758 C 59.47979736328125 10.02928161621094 55.73999786376953 7.507637023925781 51.57653427124023 5.746635437011719 C 47.26758575439453 3.924095153808594 42.6886100769043 3 37.966796875 3 M 37.966796875 0 C 58.93528366088867 0 75.93359375 16.99832153320312 75.93359375 37.966796875 C 75.93359375 58.93528366088867 58.93528366088867 75.93359375 37.966796875 75.93359375 C 16.99831008911133 75.93359375 0 58.93528366088867 0 37.966796875 C 0 16.99832153320312 16.99831008911133 0 37.966796875 0 Z" stroke="none" fill="#847625"/>
                                    </g>
                                  </g>
                                </g>
                              </g>
                            </g>
                          </g>
                        </g>
                      </g>
                    </g>
                  </g>
                </g>
              </g>
            </g>
          </g>
        </g>
      </g>
    </g>
    <g id="copyright_1712945" transform="translate(1055.16 7254.013)">
      <path id="Trazado_1086427" data-name="Trazado 1086427" d="M8,70.925H54.69V8H20.183L8,20.179Zm0,0" transform="translate(-6.985 -6.985)" fill="#f6f6f6"/>
      <path id="Trazado_1086428" data-name="Trazado 1086428" d="M20.183,8V20.179H8Zm0,0" transform="translate(-6.985 -6.985)" fill="#999"/>
      <path id="Trazado_1086429" data-name="Trazado 1086429" d="M69.221,104.04c-2.558.148-6.113.957-7.557,3.238-1.832,2.89-4.342,3.073-7.5,3.257a15.222,15.222,0,0,0-8.393,2.645c-2.384,1.807-3.958,4.955-3.282,7.905.456,2,1.874,3.886,1.431,5.886-.352,1.59-1.771,2.656-2.692,3.989a7.052,7.052,0,0,0-1.062,5.458,6.93,6.93,0,0,0,3.259,4.466,4.9,4.9,0,0,0,3.089.689,10.865,10.865,0,0,0,3.02-1.229,10.733,10.733,0,0,1,7.076-.9c2.233.543,4.193,1.928,6.386,2.639a11.266,11.266,0,0,0,10.585-2.126c2.006-1.708,3.439-4.406,2.889-7.012-.476-2.258-2.342-4.143-2.32-6.452a9.638,9.638,0,0,1,1.624-4.307,27.657,27.657,0,0,0,2.03-4.77,14.209,14.209,0,0,0,.769-4.138,9.424,9.424,0,0,0-2.717-6.691,8.815,8.815,0,0,0-6.638-2.543Zm0,0" transform="translate(-34.93 -90.831)" fill="#cdcdcd"/>
      <path id="Trazado_1086430" data-name="Trazado 1086430" d="M114.392,111.078v-3.769l-4.031-.288a9.36,9.36,0,0,0-1.145-2.768l2.649-3.056L109.2,98.531l-3.06,2.645a9.36,9.36,0,0,0-2.768-1.149L103.083,96h-3.77l-.288,4.031a9.349,9.349,0,0,0-2.768,1.145L93.2,98.527l-2.666,2.666,2.649,3.056a9.359,9.359,0,0,0-1.149,2.768L88,107.309v3.769l4.031.288a9.36,9.36,0,0,0,1.145,2.768l-2.649,3.056,2.666,2.666,3.056-2.649a9.345,9.345,0,0,0,2.768,1.149l.292,4.031h3.77l.288-4.031a9.349,9.349,0,0,0,2.768-1.145l3.056,2.649,2.666-2.666-2.645-3.06a9.359,9.359,0,0,0,1.149-2.768ZM101.2,113.906a4.712,4.712,0,1,1,4.712-4.712A4.712,4.712,0,0,1,101.2,113.906Zm0,0" transform="translate(-76.836 -83.821)" fill="#69d3ff"/>
      <path id="Trazado_1086431" data-name="Trazado 1086431" d="M294.213,343.1a7.1,7.1,0,1,1-7.1-7.1A7.1,7.1,0,0,1,294.213,343.1Zm0,0" transform="translate(-244.478 -293.373)" fill="#ffb05e"/>
      <path id="Trazado_1086432" data-name="Trazado 1086432" d="M245.2,259.164a7.1,7.1,0,1,0,5.025,2.079A7.1,7.1,0,0,0,245.2,259.164ZM258.392,248v19.284s-3.3,8.069-13.194,13.194a31.932,31.932,0,0,1-3.41-2.04A28.055,28.055,0,0,1,232,267.284V248c0,1.888,2.953,3.42,6.6,3.42s6.6-1.533,6.6-3.42c0,1.563,2.03,2.882,4.79,3.289a11.543,11.543,0,0,0,1.807.132c3.643,0,6.6-1.533,6.6-3.42Zm0,0" transform="translate(-202.567 -216.537)" fill="#a2e2de"/>
      <path id="Trazado_1086433" data-name="Trazado 1086433" d="M258.392,248c0,1.888-2.954,3.42-6.6,3.42a11.544,11.544,0,0,1-1.807-.132c-2.76-.406-4.79-1.726-4.79-3.289,0,1.888-2.954,3.42-6.6,3.42S232,249.888,232,248v8.119h26.388Zm0,0" transform="translate(-202.567 -216.537)" fill="#53a09b"/>
      <path id="Trazado_1086434" data-name="Trazado 1086434" d="M232,312v11.164a28.055,28.055,0,0,0,9.784,11.154,31.941,31.941,0,0,0,3.41,2.04c9.9-5.125,13.194-13.194,13.194-13.194V312ZM245.2,329.254a7.1,7.1,0,1,1,5.025-2.079A7.1,7.1,0,0,1,245.2,329.254Zm0,0" transform="translate(-202.567 -272.418)" fill="#a2e2de"/>
      <path id="Trazado_1086435" data-name="Trazado 1086435" d="M298.988,364.979a29.12,29.12,0,0,1-8.792,4.809,7.1,7.1,0,0,0,11.8-7.9,20.072,20.072,0,0,1-3.007,3.092Zm0,0" transform="translate(-253.376 -315.976)" fill="#fd9b3a"/>
      <path id="Trazado_1086436" data-name="Trazado 1086436" d="M273.136,312a16.8,16.8,0,0,1-3.146,6.329,7.1,7.1,0,0,1-11.8,7.9c-1.257.453-2.537.854-3.817,1.2-.274.075-.552.141-.828.211a30.6,30.6,0,0,0,7.05,6.674,31.942,31.942,0,0,0,3.411,2.04c9.9-5.125,13.194-13.194,13.194-13.194V312Zm0,0" transform="translate(-221.377 -272.418)" fill="#66c5bf"/>
      <g id="Grupo_1217803" data-name="Grupo 1217803" transform="translate(0.004)">
        <path id="Trazado_1086437" data-name="Trazado 1086437" d="M2.034,14.209H13.2a1.015,1.015,0,0,0,1.015-1.015V2.03H46.69V32.478h2.03V1.015A1.015,1.015,0,0,0,47.705,0H13.2a1.014,1.014,0,0,0-.718.3L.3,12.476a1.015,1.015,0,0,0-.3.718V63.94a1.015,1.015,0,0,0,1.015,1.015H37.556v-2.03H2.034Zm1.435-2.03,8.715-8.714v8.714Zm0,0" transform="translate(-0.004)" fill="#252340"/>
        <path id="Trazado_1086438" data-name="Trazado 1086438" d="M251.407,240a1.015,1.015,0,0,0-1.015,1.015c0,1.005-2.124,2.405-5.582,2.405a10.364,10.364,0,0,1-1.648-.12h-.01c-2.456-.357-3.923-1.446-3.923-2.286a1.015,1.015,0,1,0-2.03,0c0,1.005-2.124,2.405-5.582,2.405s-5.582-1.4-5.582-2.405a1.015,1.015,0,1,0-2.03,0V260.3a1.009,1.009,0,0,0,.075.384,28.872,28.872,0,0,0,10.149,11.608,33.192,33.192,0,0,0,3.52,2.105,1.017,1.017,0,0,0,.932,0c10.111-5.236,13.525-13.368,13.667-13.712a1.023,1.023,0,0,0,.075-.385V241.015A1.015,1.015,0,0,0,251.407,240Zm-1.015,20.084a28.423,28.423,0,0,1-12.179,12.26,30.9,30.9,0,0,1-2.836-1.726,27.824,27.824,0,0,1-9.343-10.536v-9.934h22.328v-2.03H226.034v-4.028a10.788,10.788,0,0,0,5.582,1.359c2.9,0,5.317-.849,6.607-2.166a8.227,8.227,0,0,0,4.627,2.023,12.535,12.535,0,0,0,1.96.143,10.79,10.79,0,0,0,5.582-1.359Zm0,0" transform="translate(-195.586 -209.552)" fill="#252340"/>
        <path id="Trazado_1086439" data-name="Trazado 1086439" d="M280.123,328a8.119,8.119,0,1,0,8.119,8.119A8.119,8.119,0,0,0,280.123,328Zm0,14.209a6.09,6.09,0,1,1,6.09-6.09A6.09,6.09,0,0,1,280.123,342.209Zm0,0" transform="translate(-237.497 -286.388)" fill="#252340"/>
        <path id="Trazado_1086440" data-name="Trazado 1086440" d="M307.049,362.03h2.03a1.015,1.015,0,0,1,1.015,1.015h2.03A3.045,3.045,0,0,0,309.079,360h-2.03A3.045,3.045,0,0,0,304,363.045v2.03a3.045,3.045,0,0,0,3.045,3.045h2.03a3.045,3.045,0,0,0,3.045-3.045h-2.03a1.015,1.015,0,0,1-1.015,1.015h-2.03a1.015,1.015,0,0,1-1.015-1.015v-2.03A1.015,1.015,0,0,1,307.049,362.03Zm0,0" transform="translate(-265.437 -314.328)" fill="#252340"/>
        <path id="Trazado_1086441" data-name="Trazado 1086441" d="M103.282,103.349a1.015,1.015,0,0,0-.914.781,8.367,8.367,0,0,1-1.023,2.471l1.726,1.063a10.4,10.4,0,0,0,1.069-2.341l3.313-.234a1.015,1.015,0,0,0,.944-1.015V100.3a1.015,1.015,0,0,0-.944-1.015l-3.313-.234a10.364,10.364,0,0,0-.7-1.686l2.179-2.513a1.015,1.015,0,0,0-.049-1.382L102.9,90.8a1.015,1.015,0,0,0-1.383-.049l-2.513,2.179a10.4,10.4,0,0,0-1.685-.7l-.234-3.313a1.015,1.015,0,0,0-1.015-.944H92.3a1.015,1.015,0,0,0-1.015.944l-.234,3.313a10.426,10.426,0,0,0-1.686.7l-2.513-2.179a1.015,1.015,0,0,0-1.383.049L82.8,93.471a1.015,1.015,0,0,0-.049,1.382l2.179,2.513a10.363,10.363,0,0,0-.7,1.686l-3.313.234a1.015,1.015,0,0,0-.944,1.015v3.775a1.015,1.015,0,0,0,.944,1.015l3.313.234a10.363,10.363,0,0,0,.7,1.686l-2.179,2.513a1.015,1.015,0,0,0,.049,1.382l2.669,2.67a1.015,1.015,0,0,0,1.383.049l2.513-2.179a10.427,10.427,0,0,0,1.686.7l.234,3.313a1.015,1.015,0,0,0,1.015.944h3.776a1.015,1.015,0,0,0,1.015-.944l.285-4.029-2.024-.143-.222,3.083H93.247l-.218-3.086a1.015,1.015,0,0,0-.781-.913,8.355,8.355,0,0,1-2.471-1.023,1.016,1.016,0,0,0-1.2.1l-2.341,2.03-1.332-1.332,2.03-2.341a1.015,1.015,0,0,0,.1-1.2,8.367,8.367,0,0,1-1.023-2.471,1.015,1.015,0,0,0-.913-.781l-3.093-.225v-1.884l3.086-.218a1.015,1.015,0,0,0,.913-.781,8.367,8.367,0,0,1,1.023-2.471,1.014,1.014,0,0,0-.1-1.2L84.9,94.24l1.332-1.332,2.342,2.03a1.016,1.016,0,0,0,1.2.1,8.358,8.358,0,0,1,2.471-1.023,1.015,1.015,0,0,0,.781-.914l.225-3.093h1.884l.218,3.086a1.015,1.015,0,0,0,.781.913A8.35,8.35,0,0,1,98.6,95.033a1.016,1.016,0,0,0,1.2-.1l2.342-2.03,1.331,1.332-2.03,2.341a1.015,1.015,0,0,0-.1,1.2,8.367,8.367,0,0,1,1.023,2.471,1.015,1.015,0,0,0,.913.781l3.094.225v1.884Zm0,0" transform="translate(-69.831 -76.816)" fill="#252340"/>
        <path id="Trazado_1086442" data-name="Trazado 1086442" d="M152.607,154.879a5.724,5.724,0,1,0,5.724,5.724A5.724,5.724,0,0,0,152.607,154.879Zm0,9.419A3.694,3.694,0,1,1,156.3,160.6,3.694,3.694,0,0,1,152.607,164.3Zm0,0" transform="translate(-128.249 -135.23)" fill="#252340"/>
        <path id="Trazado_1086443" data-name="Trazado 1086443" d="M128,328h10.149v2.03H128Zm0,0" transform="translate(-111.765 -286.388)" fill="#252340"/>
        <path id="Trazado_1086444" data-name="Trazado 1086444" d="M64,360H82.273v2.03H64Zm0,0" transform="translate(-55.885 -314.328)" fill="#252340"/>
        <path id="Trazado_1086445" data-name="Trazado 1086445" d="M64,392H82.273v2.03H64Zm0,0" transform="translate(-55.885 -342.269)" fill="#252340"/>
        <path id="Trazado_1086446" data-name="Trazado 1086446" d="M64,328h2.03v2.03H64Zm0,0" transform="translate(-55.885 -286.388)" fill="#252340"/>
        <path id="Trazado_1086447" data-name="Trazado 1086447" d="M96,328h2.03v2.03H96Zm0,0" transform="translate(-83.825 -286.388)" fill="#252340"/>
      </g>
    </g>
  </g>
</svg>
