<svg xmlns="http://www.w3.org/2000/svg" xmlns:xlink="http://www.w3.org/1999/xlink" width="93.934" height="93.934" viewBox="0 0 93.934 93.934">
  <defs>
    <filter id="Trazado_982547" x="0" y="0" width="93.934" height="93.934" filterUnits="userSpaceOnUse">
      <feOffset dy="3" input="SourceAlpha"/>
      <feGaussianBlur stdDeviation="3" result="blur"/>
      <feFlood flood-opacity="0.161"/>
      <feComposite operator="in" in2="blur"/>
      <feComposite in="SourceGraphic"/>
    </filter>
  </defs>
  <g id="Grupo_1217822" data-name="Grupo 1217822" transform="translate(-191.066 -7402.144)">
    <g id="Grupo_1216286" data-name="Grupo 1216286" transform="translate(0 6207.446)">
      <g id="Grupo_1215984" data-name="Grupo 1215984" transform="translate(-0.229 -2679.151)">
        <g id="Grupo_1214662" data-name="Grupo 1214662" transform="translate(0 -1254.151)">
          <g id="Grupo_1214432" data-name="Grupo 1214432" transform="translate(-0.771 -2738.674)">
            <g id="Grupo_1183196" data-name="Grupo 1183196" transform="translate(1 1016.674)">
              <g id="Grupo_1179610" data-name="Grupo 1179610" transform="translate(8 4723.467)">
                <g id="Grupo_1175227" data-name="Grupo 1175227" transform="translate(-5.967 140.533)">
                  <g id="Grupo_1167337" data-name="Grupo 1167337" transform="translate(198.033 1992)">
                    <g id="Grupo_1166720" data-name="Grupo 1166720">
                      <g id="Grupo_1164305" data-name="Grupo 1164305">
                        <g id="Grupo_1163948" data-name="Grupo 1163948">
                          <g id="Grupo_1158168" data-name="Grupo 1158168">
                            <g id="Grupo_1152576" data-name="Grupo 1152576">
                              <g id="Grupo_1148633" data-name="Grupo 1148633">
                                <g id="Grupo_1148525" data-name="Grupo 1148525">
                                  <g transform="matrix(1, 0, 0, 1, -9, -6)" filter="url(#Trazado_982547)">
                                    <g id="Trazado_982547-2" data-name="Trazado 982547" transform="translate(9 6)" fill="#f7f4ed">
                                      <path d="M 37.966796875 74.43359375 C 33.04315185546875 74.43359375 28.26757431030273 73.46962738037109 23.77274131774902 71.56847381591797 C 19.43047523498535 69.73184967041016 15.53040790557861 67.10224914550781 12.18087482452393 63.75271987915039 C 8.831341743469238 60.4031867980957 6.201741218566895 56.50312042236328 4.365118980407715 52.16086196899414 C 2.463963508605957 47.66601943969727 1.499996900558472 42.89044189453125 1.499996900558472 37.966796875 C 1.499996900558472 33.04315185546875 2.463963508605957 28.26757431030273 4.365118980407715 23.77274131774902 C 6.201741218566895 19.43047523498535 8.831341743469238 15.53040790557861 12.18087482452393 12.18087482452393 C 15.53040790557861 8.831341743469238 19.43047523498535 6.201741218566895 23.77274131774902 4.365118980407715 C 28.26757431030273 2.463963508605957 33.04315185546875 1.499996900558472 37.966796875 1.499996900558472 C 42.89044189453125 1.499996900558472 47.66601943969727 2.463963508605957 52.16086196899414 4.365118980407715 C 56.50312042236328 6.201741218566895 60.4031867980957 8.831341743469238 63.75271987915039 12.18087482452393 C 67.10224914550781 15.53040790557861 69.73184967041016 19.43047523498535 71.56847381591797 23.77274131774902 C 73.46962738037109 28.26757431030273 74.43359375 33.04315185546875 74.43359375 37.966796875 C 74.43359375 42.89044189453125 73.46962738037109 47.66601943969727 71.56847381591797 52.16086196899414 C 69.73184967041016 56.50313186645508 67.10224914550781 60.4031867980957 63.75271987915039 63.75271987915039 C 60.4031867980957 67.10224914550781 56.50313186645508 69.73184967041016 52.16086196899414 71.56847381591797 C 47.66601943969727 73.46962738037109 42.89044189453125 74.43359375 37.966796875 74.43359375 Z" stroke="none"/>
                                      <path d="M 37.966796875 3 C 33.2449836730957 3 28.66600799560547 3.924095153808594 24.35705947875977 5.746635437011719 C 20.19359588623047 7.507637023925781 16.45379638671875 10.02928161621094 13.24153518676758 13.24153518676758 C 10.02927398681641 16.45379638671875 7.507621765136719 20.19359588623047 5.746635437011719 24.35705947875977 C 3.924095153808594 28.66600799560547 3 33.2449836730957 3 37.966796875 C 3 42.6886100769043 3.924095153808594 47.26758575439453 5.746635437011719 51.57653427124023 C 7.507621765136719 55.73999786376953 10.02927398681641 59.47979736328125 13.24153518676758 62.69205856323242 C 16.45379638671875 65.90431976318359 20.19359588623047 68.42597198486328 24.35705947875977 70.18695831298828 C 28.66600799560547 72.00949859619141 33.2449836730957 72.93359375 37.966796875 72.93359375 C 42.6886100769043 72.93359375 47.26758575439453 72.00949859619141 51.57653427124023 70.18695831298828 C 55.73999786376953 68.42597198486328 59.47979736328125 65.90431976318359 62.69205856323242 62.69205856323242 C 65.90431976318359 59.47979736328125 68.42597198486328 55.73999786376953 70.18695831298828 51.57653427124023 C 72.00949859619141 47.26758575439453 72.93359375 42.6886100769043 72.93359375 37.966796875 C 72.93359375 33.2449836730957 72.00949859619141 28.66600799560547 70.18695831298828 24.35705947875977 C 68.42597198486328 20.19359588623047 65.90431976318359 16.45379638671875 62.69205856323242 13.24153518676758 C 59.47979736328125 10.02928161621094 55.73999786376953 7.507637023925781 51.57653427124023 5.746635437011719 C 47.26758575439453 3.924095153808594 42.6886100769043 3 37.966796875 3 M 37.966796875 0 C 58.93528366088867 0 75.93359375 16.99832153320312 75.93359375 37.966796875 C 75.93359375 58.93528366088867 58.93528366088867 75.93359375 37.966796875 75.93359375 C 16.99831008911133 75.93359375 0 58.93528366088867 0 37.966796875 C 0 16.99832153320312 16.99831008911133 0 37.966796875 0 Z" stroke="none" fill="#847625"/>
                                    </g>
                                  </g>
                                </g>
                              </g>
                            </g>
                          </g>
                        </g>
                      </g>
                    </g>
                  </g>
                </g>
              </g>
            </g>
          </g>
        </g>
      </g>
    </g>
    <g id="_x32_1_x2C__Digitalization_x2C__global_x2C__modernization_x2C__world_x2C__technology_x2C__connection" transform="translate(209.862 7417.939)">
      <g id="Grupo_1217821" data-name="Grupo 1217821" transform="translate(1 1)">
        <g id="Grupo_1217805" data-name="Grupo 1217805" transform="translate(34.364 11.987)">
          <circle id="Elipse_11969" data-name="Elipse 11969" cx="2.397" cy="2.397" r="2.397" fill="#ffd438"/>
          <circle id="Elipse_11970" data-name="Elipse 11970" cx="2.397" cy="2.397" r="2.397" transform="translate(5.594 12.786)" fill="#ffd438"/>
          <circle id="Elipse_11971" data-name="Elipse 11971" cx="2.397" cy="2.397" r="2.397" transform="translate(0 25.573)" fill="#ffd438"/>
        </g>
        <path id="Trazado_1086448" data-name="Trazado 1086448" d="M34.872,13.295a21.577,21.577,0,0,0,0,43.154Zm9.59,31.966a2.4,2.4,0,1,0,2.4,2.4A2.4,2.4,0,0,0,44.462,45.261Zm0-20.778a2.4,2.4,0,1,0-2.4-2.4A2.4,2.4,0,0,0,44.462,24.483Zm3.2,10.389a2.4,2.4,0,1,0,2.4-2.4A2.4,2.4,0,0,0,47.658,34.872ZM34.872,8.5A26.372,26.372,0,1,1,8.5,34.872,26.372,26.372,0,0,1,34.872,8.5Z" transform="translate(-7.701 -7.701)" fill="#efebf7"/>
        <path id="Trazado_1086449" data-name="Trazado 1086449" d="M60.217,109.19A21.51,21.51,0,0,0,53.5,124.833l4.756.906,6.432-.906,1.825-11.476Z" transform="translate(-47.906 -97.662)" fill="#4d41f2"/>
        <path id="Trazado_1086450" data-name="Trazado 1086450" d="M64.688,256H53.5a21.51,21.51,0,0,0,6.717,15.643l6.3-4.167Z" transform="translate(-47.906 -228.829)" fill="#42a1ff"/>
        <path id="Trazado_1086451" data-name="Trazado 1086451" d="M116.54,59.434a21.6,21.6,0,0,0,6.3,4.167L131.4,53.5A21.5,21.5,0,0,0,116.54,59.434Z" transform="translate(-104.229 -47.906)" fill="#83ffff"/>
        <path id="Trazado_1086452" data-name="Trazado 1086452" d="M122.836,363.7c2.047,6.069,5.483,10.1,8.564,10.1a21.5,21.5,0,0,1-14.86-5.934A21.6,21.6,0,0,1,122.836,363.7Z" transform="translate(-104.229 -325.053)" fill="#83ffff"/>
        <path id="Trazado_1086453" data-name="Trazado 1086453" d="M184.194,53.5V65.368A21.5,21.5,0,0,1,175.63,63.6C177.677,57.532,181.113,53.5,184.194,53.5Z" transform="translate(-157.023 -47.906)" fill="#3333e5"/>
        <path id="Trazado_1086454" data-name="Trazado 1086454" d="M160.325,148.3a36.24,36.24,0,0,0-1.825,11.476l5.194,1.247,5.194-1.247v-9.709Z" transform="translate(-141.718 -132.605)" fill="#42a1ff"/>
        <path id="Trazado_1086455" data-name="Trazado 1086455" d="M158.5,256a36.24,36.24,0,0,0,1.825,11.476l8.564-1.767V256Z" transform="translate(-141.718 -228.829)" fill="#3333e5"/>
        <path id="Trazado_1086456" data-name="Trazado 1086456" d="M184.194,347.12v11.868c-3.08,0-6.517-4.032-8.564-10.1A21.5,21.5,0,0,1,184.194,347.12Z" transform="translate(-157.023 -310.24)" fill="#4d41f2"/>
        <g id="Grupo_1217820" data-name="Grupo 1217820" transform="translate(0 0)">
          <g id="Grupo_1217806" data-name="Grupo 1217806" transform="translate(4.788 4.795)">
            <path id="Trazado_1086457" data-name="Trazado 1086457" d="M68.322,90.752A22.39,22.39,0,0,1,48.684,79.112a.8.8,0,1,1,1.4-.768A20.794,20.794,0,0,0,67.523,89.139V47.614A20.806,20.806,0,0,0,47.967,72.568a.8.8,0,1,1-1.566.321A22.4,22.4,0,0,1,68.322,46a.8.8,0,0,1,.8.8V89.953A.8.8,0,0,1,68.322,90.752Z" transform="translate(-45.939 -46)"/>
          </g>
          <g id="Grupo_1217807" data-name="Grupo 1217807" transform="translate(11.512 36.081)">
            <path id="Trazado_1086458" data-name="Trazado 1086458" d="M109.26,346.9a.8.8,0,0,1,.029-1.13,22.277,22.277,0,0,1,15.41-6.154.8.8,0,1,1,0,1.6,20.685,20.685,0,0,0-14.309,5.714A.8.8,0,0,1,109.26,346.9Z" transform="translate(-109.041 -339.62)"/>
          </g>
          <g id="Grupo_1217808" data-name="Grupo 1217808" transform="translate(11.512 10.729)">
            <path id="Trazado_1086459" data-name="Trazado 1086459" d="M124.7,109.222a22.278,22.278,0,0,1-15.411-6.154.8.8,0,0,1,1.1-1.159,20.685,20.685,0,0,0,14.309,5.714.8.8,0,1,1,0,1.6Z" transform="translate(-109.04 -101.69)"/>
          </g>
          <g id="Grupo_1217809" data-name="Grupo 1217809" transform="translate(15.985 4.795)">
            <path id="Trazado_1086460" data-name="Trazado 1086460" d="M162.207,90.752c-2.689,0-5.493-2.462-7.693-6.754-4.65-9.073-4.664-22.145,0-31.244,2.2-4.293,5-6.754,7.693-6.754a.8.8,0,1,1,0,1.6c-2.007,0-4.41,2.255-6.271,5.885-4.425,8.634-4.42,21.162,0,29.786,1.861,3.63,4.264,5.885,6.271,5.885a.8.8,0,1,1,0,1.6Z" transform="translate(-151.021 -46)"/>
          </g>
          <g id="Grupo_1217810" data-name="Grupo 1217810" transform="translate(4.795 26.372)">
            <path id="Trazado_1086461" data-name="Trazado 1086461" d="M68.376,250.1H46.8a.8.8,0,1,1,0-1.6H68.376a.8.8,0,1,1,0,1.6Z" transform="translate(-46 -248.5)"/>
          </g>
          <g id="Grupo_1217811" data-name="Grupo 1217811">
            <path id="Trazado_1086462" data-name="Trazado 1086462" d="M28.171,55.342A27.171,27.171,0,1,1,44.653,6.569a.8.8,0,0,1-.97,1.27A25.336,25.336,0,0,0,28.171,2.6a25.571,25.571,0,1,0,19.943,9.564.8.8,0,0,1,1.246-1A27.172,27.172,0,0,1,28.171,55.342Z" transform="translate(-1 -1)"/>
          </g>
          <g id="Grupo_1217812" data-name="Grupo 1217812" transform="translate(39.158 23.975)">
            <path id="Trazado_1086463" data-name="Trazado 1086463" d="M371.7,232.393a3.2,3.2,0,1,1,3.2-3.2A3.2,3.2,0,0,1,371.7,232.393Zm0-4.795a1.6,1.6,0,1,0,1.6,1.6A1.6,1.6,0,0,0,371.7,227.6Z" transform="translate(-368.5 -226)"/>
          </g>
          <g id="Grupo_1217813" data-name="Grupo 1217813" transform="translate(26.372 26.372)">
            <path id="Trazado_1086464" data-name="Trazado 1086464" d="M262.086,250.1H249.3a.8.8,0,0,1,0-1.6h12.786a.8.8,0,0,1,0,1.6Z" transform="translate(-248.5 -248.5)"/>
          </g>
          <g id="Grupo_1217814" data-name="Grupo 1217814" transform="translate(33.564 11.188)">
            <path id="Trazado_1086465" data-name="Trazado 1086465" d="M319.2,112.393a3.2,3.2,0,1,1,3.2-3.2A3.2,3.2,0,0,1,319.2,112.393Zm0-4.795a1.6,1.6,0,1,0,1.6,1.6A1.6,1.6,0,0,0,319.2,107.6Z" transform="translate(-316 -106)"/>
          </g>
          <g id="Grupo_1217815" data-name="Grupo 1217815" transform="translate(26.372 15.983)">
            <path id="Trazado_1086466" data-name="Trazado 1086466" d="M258.889,156.594H249.3a.8.8,0,0,1,0-1.6h8.791v-3.2a.8.8,0,0,1,1.6,0v4A.8.8,0,0,1,258.889,156.594Z" transform="translate(-248.5 -151)"/>
          </g>
          <g id="Grupo_1217816" data-name="Grupo 1217816" transform="translate(33.564 36.761)">
            <path id="Trazado_1086467" data-name="Trazado 1086467" d="M319.2,352.393a3.2,3.2,0,1,1,3.2-3.2A3.2,3.2,0,0,1,319.2,352.393Zm0-4.795a1.6,1.6,0,1,0,1.6,1.6A1.6,1.6,0,0,0,319.2,347.6Z" transform="translate(-316 -346)"/>
          </g>
          <g id="Grupo_1217817" data-name="Grupo 1217817" transform="translate(26.372 32.765)">
            <path id="Trazado_1086468" data-name="Trazado 1086468" d="M258.889,314.094a.8.8,0,0,1-.8-.8v-3.2H249.3a.8.8,0,0,1,0-1.6h9.59a.8.8,0,0,1,.8.8v4A.8.8,0,0,1,258.889,314.094Z" transform="translate(-248.5 -308.5)"/>
          </g>
          <g id="Grupo_1217818" data-name="Grupo 1217818" transform="translate(44.752 7.532)">
            <circle id="Elipse_11972" data-name="Elipse 11972" cx="0.799" cy="0.799" r="0.799"/>
          </g>
          <g id="Grupo_1217819" data-name="Grupo 1217819" transform="translate(6.393 33.701)">
            <circle id="Elipse_11973" data-name="Elipse 11973" cx="0.799" cy="0.799" r="0.799"/>
          </g>
        </g>
      </g>
    </g>
  </g>
</svg>
