<svg xmlns="http://www.w3.org/2000/svg" xmlns:xlink="http://www.w3.org/1999/xlink" width="93.934" height="93.934" viewBox="0 0 93.934 93.934">
  <defs>
    <filter id="Trazado_982547" x="0" y="0" width="93.934" height="93.934" filterUnits="userSpaceOnUse">
      <feOffset dy="3" input="SourceAlpha"/>
      <feGaussianBlur stdDeviation="3" result="blur"/>
      <feFlood flood-opacity="0.161"/>
      <feComposite operator="in" in2="blur"/>
      <feComposite in="SourceGraphic"/>
    </filter>
  </defs>
  <g id="Grupo_1217838" data-name="Grupo 1217838" transform="translate(-611.066 -7402.144)">
    <g id="Grupo_1216301" data-name="Grupo 1216301" transform="translate(0 6207.446)">
      <g id="Grupo_1215985" data-name="Grupo 1215985" transform="translate(-0.229 -2679.151)">
        <g id="Grupo_1214663" data-name="Grupo 1214663" transform="translate(0 -1254.151)">
          <g id="Grupo_1214433" data-name="Grupo 1214433" transform="translate(-0.771 -2738.674)">
            <g id="Grupo_1183190" data-name="Grupo 1183190" transform="translate(1 1016.674)">
              <g id="Grupo_1179611" data-name="Grupo 1179611" transform="translate(428 4723.467)">
                <g id="Grupo_1175227" data-name="Grupo 1175227" transform="translate(-5.967 140.533)">
                  <g id="Grupo_1167337" data-name="Grupo 1167337" transform="translate(198.033 1992)">
                    <g id="Grupo_1166720" data-name="Grupo 1166720">
                      <g id="Grupo_1164305" data-name="Grupo 1164305">
                        <g id="Grupo_1163948" data-name="Grupo 1163948">
                          <g id="Grupo_1158168" data-name="Grupo 1158168">
                            <g id="Grupo_1152576" data-name="Grupo 1152576">
                              <g id="Grupo_1148633" data-name="Grupo 1148633">
                                <g id="Grupo_1148525" data-name="Grupo 1148525">
                                  <g transform="matrix(1, 0, 0, 1, -9, -6)" filter="url(#Trazado_982547)">
                                    <g id="Trazado_982547-2" data-name="Trazado 982547" transform="translate(9 6)" fill="#f7f4ed">
                                      <path d="M 37.966796875 74.43359375 C 33.04315185546875 74.43359375 28.26757431030273 73.46962738037109 23.77274131774902 71.56847381591797 C 19.43047523498535 69.73184967041016 15.53040790557861 67.10224914550781 12.18087482452393 63.75271987915039 C 8.831341743469238 60.4031867980957 6.201741218566895 56.50312042236328 4.365118980407715 52.16086196899414 C 2.463963508605957 47.66601943969727 1.499996900558472 42.89044189453125 1.499996900558472 37.966796875 C 1.499996900558472 33.04315185546875 2.463963508605957 28.26757431030273 4.365118980407715 23.77274131774902 C 6.201741218566895 19.43047523498535 8.831341743469238 15.53040790557861 12.18087482452393 12.18087482452393 C 15.53040790557861 8.831341743469238 19.43047523498535 6.201741218566895 23.77274131774902 4.365118980407715 C 28.26757431030273 2.463963508605957 33.04315185546875 1.499996900558472 37.966796875 1.499996900558472 C 42.89044189453125 1.499996900558472 47.66601943969727 2.463963508605957 52.16086196899414 4.365118980407715 C 56.50312042236328 6.201741218566895 60.4031867980957 8.831341743469238 63.75271987915039 12.18087482452393 C 67.10224914550781 15.53040790557861 69.73184967041016 19.43047523498535 71.56847381591797 23.77274131774902 C 73.46962738037109 28.26757431030273 74.43359375 33.04315185546875 74.43359375 37.966796875 C 74.43359375 42.89044189453125 73.46962738037109 47.66601943969727 71.56847381591797 52.16086196899414 C 69.73184967041016 56.50313186645508 67.10224914550781 60.4031867980957 63.75271987915039 63.75271987915039 C 60.4031867980957 67.10224914550781 56.50313186645508 69.73184967041016 52.16086196899414 71.56847381591797 C 47.66601943969727 73.46962738037109 42.89044189453125 74.43359375 37.966796875 74.43359375 Z" stroke="none"/>
                                      <path d="M 37.966796875 3 C 33.2449836730957 3 28.66600799560547 3.924095153808594 24.35705947875977 5.746635437011719 C 20.19359588623047 7.507637023925781 16.45379638671875 10.02928161621094 13.24153518676758 13.24153518676758 C 10.02927398681641 16.45379638671875 7.507621765136719 20.19359588623047 5.746635437011719 24.35705947875977 C 3.924095153808594 28.66600799560547 3 33.2449836730957 3 37.966796875 C 3 42.6886100769043 3.924095153808594 47.26758575439453 5.746635437011719 51.57653427124023 C 7.507621765136719 55.73999786376953 10.02927398681641 59.47979736328125 13.24153518676758 62.69205856323242 C 16.45379638671875 65.90431976318359 20.19359588623047 68.42597198486328 24.35705947875977 70.18695831298828 C 28.66600799560547 72.00949859619141 33.2449836730957 72.93359375 37.966796875 72.93359375 C 42.6886100769043 72.93359375 47.26758575439453 72.00949859619141 51.57653427124023 70.18695831298828 C 55.73999786376953 68.42597198486328 59.47979736328125 65.90431976318359 62.69205856323242 62.69205856323242 C 65.90431976318359 59.47979736328125 68.42597198486328 55.73999786376953 70.18695831298828 51.57653427124023 C 72.00949859619141 47.26758575439453 72.93359375 42.6886100769043 72.93359375 37.966796875 C 72.93359375 33.2449836730957 72.00949859619141 28.66600799560547 70.18695831298828 24.35705947875977 C 68.42597198486328 20.19359588623047 65.90431976318359 16.45379638671875 62.69205856323242 13.24153518676758 C 59.47979736328125 10.02928161621094 55.73999786376953 7.507637023925781 51.57653427124023 5.746635437011719 C 47.26758575439453 3.924095153808594 42.6886100769043 3 37.966796875 3 M 37.966796875 0 C 58.93528366088867 0 75.93359375 16.99832153320312 75.93359375 37.966796875 C 75.93359375 58.93528366088867 58.93528366088867 75.93359375 37.966796875 75.93359375 C 16.99831008911133 75.93359375 0 58.93528366088867 0 37.966796875 C 0 16.99832153320312 16.99831008911133 0 37.966796875 0 Z" stroke="none" fill="#847625"/>
                                    </g>
                                  </g>
                                </g>
                              </g>
                            </g>
                          </g>
                        </g>
                      </g>
                    </g>
                  </g>
                </g>
              </g>
            </g>
          </g>
        </g>
      </g>
    </g>
    <g id="grupo_3_" data-name="grupo (3)" transform="translate(627 7415)">
      <g id="Grupo_1217836" data-name="Grupo 1217836">
        <g id="Grupo_1217823" data-name="Grupo 1217823">
          <path id="Trazado_1086469" data-name="Trazado 1086469" d="M45,45a4,4,0,0,0-4,4H40a2.993,2.993,0,0,0-2.12.88A9,9,0,0,1,46,37h3.39a11.872,11.872,0,0,0,6.25-1.78c.12-.07.24-.14.36-.22l1.82,1.82a10.865,10.865,0,0,1,1.93,12.74A3.016,3.016,0,0,0,58,49H57a2.006,2.006,0,0,0-2-2H47A2.006,2.006,0,0,1,45,45Z" fill="#b27946"/>
        </g>
        <g id="Grupo_1217824" data-name="Grupo 1217824">
          <path id="Trazado_1086470" data-name="Trazado 1086470" d="M11.93,10.59l-3.17.18a4.007,4.007,0,0,0-3.76,4V15H4a2.994,2.994,0,0,0-1.67.51A9.628,9.628,0,0,1,10.62,1h2.91A7.241,7.241,0,0,1,20,5l.12.02A6.077,6.077,0,0,1,25,10.98a10.071,10.071,0,0,1-1.15,4.66A2.984,2.984,0,0,0,22,15H21V13a4.479,4.479,0,0,1-2.48-.76,4.382,4.382,0,0,1-1.51-1.76H17v.28A3.613,3.613,0,0,1,15,14l-.33-1a3.633,3.633,0,0,0-2.74-2.41Z" fill="#b27946"/>
        </g>
        <g id="Grupo_1217825" data-name="Grupo 1217825">
          <path id="Trazado_1086471" data-name="Trazado 1086471" d="M47.98,10.96l-.05.04H45a4,4,0,0,0-4,4v5a6.844,6.844,0,0,0,.68,3l-1.52-.32A4.013,4.013,0,0,1,37,18.76V13a12,12,0,1,1,24,0v5.76a4.013,4.013,0,0,1-3.16,3.92L56.32,23A6.844,6.844,0,0,0,57,20V16a3,3,0,0,0-3-3H52a4.957,4.957,0,0,1-4.02-2.04Z" fill="#656d78"/>
        </g>
        <g id="Grupo_1217826" data-name="Grupo 1217826">
          <path id="Trazado_1086472" data-name="Trazado 1086472" d="M7.01,38.04A12.006,12.006,0,0,1,27,47v1.29a15.731,15.731,0,0,0,1.66,7.03A3.332,3.332,0,0,1,29,56.76,3.239,3.239,0,0,1,25.76,60H19.61A6.98,6.98,0,0,0,23,54V49a2.006,2.006,0,0,0-2-2H16l-2-3-2,3H9a2.006,2.006,0,0,0-2,2v5a6.98,6.98,0,0,0,3.39,6H4.24A3.244,3.244,0,0,1,1,56.76a3.277,3.277,0,0,1,.34-1.44A15.731,15.731,0,0,0,3,48.29V47a11.962,11.962,0,0,1,3.51-8.49C6.67,38.35,6.84,38.19,7.01,38.04Z" fill="#fcd770"/>
        </g>
        <g id="Grupo_1217827" data-name="Grupo 1217827">
          <path id="Trazado_1086473" data-name="Trazado 1086473" d="M23,49v5a6.994,6.994,0,0,1-7,7H14a6.994,6.994,0,0,1-7-7V49a2.006,2.006,0,0,1,2-2h3l2-3,2,3h5A2.006,2.006,0,0,1,23,49Z" fill="#f0d0b4"/>
        </g>
        <g id="Grupo_1217828" data-name="Grupo 1217828">
          <path id="Trazado_1086474" data-name="Trazado 1086474" d="M60.12,54.12A2.993,2.993,0,0,1,58,55H57l-.08-.01A5.365,5.365,0,0,0,57,54V49h1a3,3,0,0,1,2.12,5.12Z" fill="#f0d0b4"/>
        </g>
        <g id="Grupo_1217829" data-name="Grupo 1217829">
          <path id="Trazado_1086475" data-name="Trazado 1086475" d="M41,54a5.365,5.365,0,0,0,.08.99L41,55H40a2.949,2.949,0,0,1-1.19-.25,2.835,2.835,0,0,1-.93-.63A3,3,0,0,1,40,49h1Z" fill="#f0d0b4"/>
        </g>
        <g id="Grupo_1217830" data-name="Grupo 1217830">
          <path id="Trazado_1086476" data-name="Trazado 1086476" d="M57,49v5a5.365,5.365,0,0,1-.08.99A6.98,6.98,0,0,1,50,61H48a6.98,6.98,0,0,1-6.92-6.01A5.365,5.365,0,0,1,41,54V49a4,4,0,0,1,4-4,2.006,2.006,0,0,0,2,2h8a2.006,2.006,0,0,1,2,2Z" fill="#f0d0b4"/>
        </g>
        <g id="Grupo_1217831" data-name="Grupo 1217831">
          <path id="Trazado_1086477" data-name="Trazado 1086477" d="M57,16v4a6.844,6.844,0,0,1-.68,3,6.279,6.279,0,0,1-1.13,1.68A6.889,6.889,0,0,1,50,27H48a6.97,6.97,0,0,1-6.32-4A6.844,6.844,0,0,1,41,20V15a4,4,0,0,1,4-4h2.93l.05-.04A4.957,4.957,0,0,0,52,13h2A3,3,0,0,1,57,16Z" fill="#f0d0b4"/>
        </g>
        <g id="Grupo_1217832" data-name="Grupo 1217832">
          <path id="Trazado_1086478" data-name="Trazado 1086478" d="M24.12,20.12A2.993,2.993,0,0,1,22,21H21l-.08-.01A5.365,5.365,0,0,0,21,20V15h1a3,3,0,0,1,2.12,5.12Z" fill="#f0d0b4"/>
        </g>
        <g id="Grupo_1217833" data-name="Grupo 1217833">
          <path id="Trazado_1086479" data-name="Trazado 1086479" d="M18.52,12.24A4.479,4.479,0,0,0,21,13v7a5.365,5.365,0,0,1-.08.99A6.98,6.98,0,0,1,14,27H12a6.889,6.889,0,0,1-5.19-2.32,6.749,6.749,0,0,1-1.73-3.69A5.365,5.365,0,0,1,5,20V14.77a4.007,4.007,0,0,1,3.76-4l3.17-.18A3.633,3.633,0,0,1,14.67,13L15,14a3.613,3.613,0,0,0,2-3.24v-.28h.01a4.382,4.382,0,0,0,1.51,1.76Z" fill="#f0d0b4"/>
        </g>
        <g id="Grupo_1217834" data-name="Grupo 1217834">
          <path id="Trazado_1086480" data-name="Trazado 1086480" d="M5,20a5.365,5.365,0,0,0,.08.99L5,21H4a3,3,0,0,1,0-6H5Z" fill="#f0d0b4"/>
        </g>
        <g id="Grupo_1217835" data-name="Grupo 1217835">
          <path id="Trazado_1086481" data-name="Trazado 1086481" d="M21.56,32.81l-.51-2.54a3.287,3.287,0,0,1-.05-.54A2.727,2.727,0,0,1,23.73,27H38.27A2.727,2.727,0,0,1,41,29.73a3.072,3.072,0,0,1-.05.53l-.51,2.55a2.739,2.739,0,0,1-2.68,2.2H33.88L31.4,38.45a1.325,1.325,0,0,1-2.4-.77V35H24.24a2.74,2.74,0,0,1-2.68-2.19Z" fill="#e6e9ed"/>
        </g>
      </g>
      <g id="Grupo_1217837" data-name="Grupo 1217837">
        <path id="Trazado_1086482" data-name="Trazado 1086482" d="M17.33,21.5l-1.73-1a3,3,0,0,1-5.2,0l-1.73,1a5,5,0,0,0,8.66,0Z"/>
        <path id="Trazado_1086483" data-name="Trazado 1086483" d="M49,56a3.016,3.016,0,0,1-2.6-1.5l-1.73,1a5,5,0,0,0,8.66,0l-1.73-1A3.016,3.016,0,0,1,49,56Z"/>
        <path id="Trazado_1086484" data-name="Trazado 1086484" d="M49,22a3.015,3.015,0,0,1-2.6-1.5l-1.73,1a5,5,0,0,0,8.66,0l-1.73-1A3.015,3.015,0,0,1,49,22Z"/>
        <path id="Trazado_1086485" data-name="Trazado 1086485" d="M15,56a3.016,3.016,0,0,1-2.6-1.5l-1.73,1a5,5,0,0,0,8.66,0l-1.73-1A3.016,3.016,0,0,1,15,56Z"/>
        <path id="Trazado_1086486" data-name="Trazado 1086486" d="M41.419,33.01l.509-2.549A3.732,3.732,0,0,0,38.271,26H23.729a3.732,3.732,0,0,0-3.657,4.461L20.581,33a3.739,3.739,0,0,0,3.657,3H28v1.677a2.324,2.324,0,0,0,4.208,1.359l2.181-3.026h3.373A3.74,3.74,0,0,0,41.419,33.01Zm-8.054,1-2.779,3.855A.335.335,0,0,1,30,37.677V34H24.238a1.734,1.734,0,0,1-1.7-1.391l-.509-2.54a1.75,1.75,0,0,1-.033-.34A1.731,1.731,0,0,1,23.729,28H38.27A1.731,1.731,0,0,1,40,29.73a1.755,1.755,0,0,1-.033.339l-.509,2.549a1.734,1.734,0,0,1-1.7,1.392Z"/>
        <path id="Trazado_1086487" data-name="Trazado 1086487" d="M32,30h2v2H32Z"/>
        <path id="Trazado_1086488" data-name="Trazado 1086488" d="M36,30h2v2H36Z"/>
        <path id="Trazado_1086489" data-name="Trazado 1086489" d="M24,30h2v2H24Z"/>
        <path id="Trazado_1086490" data-name="Trazado 1086490" d="M28,30h2v2H28Z"/>
        <path id="Trazado_1086491" data-name="Trazado 1086491" d="M58.045,23.654A5.025,5.025,0,0,0,62,18.764V13A12.989,12.989,0,0,0,38.067,5.994,26.242,26.242,0,0,0,23.915,6a7.044,7.044,0,0,0-3.251-1.874A8.188,8.188,0,0,0,13.528,0h-2.9a10.582,10.582,0,0,0-9.53,15.268A3.988,3.988,0,0,0,4,22h.263a7.979,7.979,0,0,0,1.459,2.943A25.657,25.657,0,0,0,5.9,37.73,12.954,12.954,0,0,0,2,47v1.292A14.771,14.771,0,0,1,.447,54.869,4.237,4.237,0,0,0,4.236,61h5.9A7.942,7.942,0,0,0,14,62h2a7.939,7.939,0,0,0,3.864-1h5.9a4.231,4.231,0,0,0,4.215-4.024c.351.015.691.024,1.023.024a25.939,25.939,0,0,0,7.792-1.207A3.936,3.936,0,0,0,40,56h.263A8.007,8.007,0,0,0,48,62h2a8.008,8.008,0,0,0,7.737-6H58a3.983,3.983,0,0,0,2.951-6.677,11.777,11.777,0,0,0-2.426-13.212l-1.768-1.768a24.743,24.743,0,0,0-.48-9.4,8.059,8.059,0,0,0,.713-1.064ZM50,26H48a6.006,6.006,0,0,1-6-6V15a3,3,0,0,1,3-3h2.531A5.987,5.987,0,0,0,52,14h2a2,2,0,0,1,2,2v4A6.006,6.006,0,0,1,50,26ZM49,2A11.013,11.013,0,0,1,60,13v5.765a3.009,3.009,0,0,1-2.169,2.871A8.021,8.021,0,0,0,58,20V16a4,4,0,0,0-4-4H52a4,4,0,0,1-4-4H46a5.972,5.972,0,0,0,.343,2H45a5.006,5.006,0,0,0-5,5v5a8.021,8.021,0,0,0,.169,1.636A3.011,3.011,0,0,1,38,18.765V13A11.013,11.013,0,0,1,49,2ZM22,16a2,2,0,0,1,0,4ZM2,18a2,2,0,0,1,2-2v4A2,2,0,0,1,2,18Zm2.075-4H4a3.952,3.952,0,0,0-1.206.206A8.6,8.6,0,0,1,10.624,2h2.9A6.2,6.2,0,0,1,19.1,5.447l.219.438.6.118A5.089,5.089,0,0,1,24,10.979a9.026,9.026,0,0,1-.626,3.28A3.95,3.95,0,0,0,22,14V12H21a3.416,3.416,0,0,1-3.186-2.157l-.886-2.214-1.857.743.886,2.214c.013.031.03.059.043.09v.088a2.612,2.612,0,0,1-.519,1.568,4.656,4.656,0,0,0-3.357-2.727A2.649,2.649,0,0,1,10,7.015V5H8V7.015a4.613,4.613,0,0,0,.923,2.749L8.7,9.777A5,5,0,0,0,4.075,14ZM6,20V14.768a3,3,0,0,1,2.82-2.995l2.993-.179a2.644,2.644,0,0,1,1.907,1.727l.7,2.089,1.031-.516a4.6,4.6,0,0,0,2.1-2.133A5.384,5.384,0,0,0,20,13.908V20a6.006,6.006,0,0,1-6,6H12A6.006,6.006,0,0,1,6,20Zm8,40a6.006,6.006,0,0,1-6-6V49a1,1,0,0,1,1-1h3a1,1,0,0,0,.832-.445L14,45.8l1.168,1.752A1,1,0,0,0,16,48h5a1,1,0,0,1,1,1v5a6.006,6.006,0,0,1-6,6Zm11.764-1H22.235A7.956,7.956,0,0,0,24,54V49a3,3,0,0,0-3-3H16.535l-1.7-2.555a1.037,1.037,0,0,0-1.664,0L11.465,46H9a3,3,0,0,0-3,3v5a7.956,7.956,0,0,0,1.765,5H4.236a2.236,2.236,0,0,1-2-3.236A16.787,16.787,0,0,0,4,48.292V47a11,11,0,0,1,22,0v1.292a16.787,16.787,0,0,0,1.764,7.472,2.236,2.236,0,0,1-2,3.236Zm3.823-4.051c-.012-.026-.021-.054-.034-.08A14.771,14.771,0,0,1,28,48.292V47A12.985,12.985,0,0,0,7.605,36.322a23.834,23.834,0,0,1-.188-9.775A7.946,7.946,0,0,0,12,28h2a8.008,8.008,0,0,0,7.737-6H22a4,4,0,0,0,4-4,3.961,3.961,0,0,0-.963-2.573A11.01,11.01,0,0,0,26,10.979a7.023,7.023,0,0,0-.81-3.255,24.248,24.248,0,0,1,11.9.076A12.91,12.91,0,0,0,36,13v5.765a5.026,5.026,0,0,0,3.955,4.89l1.054.225A8,8,0,0,0,48,28h2a7.946,7.946,0,0,0,4.583-1.453,23.319,23.319,0,0,1,.125,8.07A10.873,10.873,0,0,1,49.4,36H46a9.965,9.965,0,0,0-9.27,13.709,3.958,3.958,0,0,0,.008,4.592A23.914,23.914,0,0,1,31,55c-.448,0-.921-.021-1.413-.051ZM38,52a2,2,0,0,1,2-2v4A2,2,0,0,1,38,52Zm18,2a6.006,6.006,0,0,1-6,6H48a6.006,6.006,0,0,1-6-6V49a3.005,3.005,0,0,1,2.211-2.9A3,3,0,0,0,47,48h8a1,1,0,0,1,1,1Zm2,0V50a2,2,0,0,1,0,4Zm2-9.5a9.9,9.9,0,0,1-.742,3.722A3.949,3.949,0,0,0,58,48h-.184A3,3,0,0,0,55,46H47a1,1,0,0,1,0-2h1V42H47a3.006,3.006,0,0,0-2.854,2.073A5.011,5.011,0,0,0,40.108,48H40a3.965,3.965,0,0,0-1.633.357A7.967,7.967,0,0,1,46,38h3.4a12.868,12.868,0,0,0,6.459-1.732l1.258,1.258A9.8,9.8,0,0,1,60,44.5Z"/>
      </g>
    </g>
  </g>
</svg>
