<svg xmlns="http://www.w3.org/2000/svg" xmlns:xlink="http://www.w3.org/1999/xlink" width="113" height="113" viewBox="0 0 113 113">
  <defs>
    <filter id="Trazado_982547" x="0" y="0" width="113" height="113" filterUnits="userSpaceOnUse">
      <feOffset dy="3" input="SourceAlpha"/>
      <feGaussianBlur stdDeviation="3" result="blur"/>
      <feFlood flood-opacity="0.161"/>
      <feComposite operator="in" in2="blur"/>
      <feComposite in="SourceGraphic"/>
    </filter>
  </defs>
  <g id="Grupo_1217866" data-name="Grupo 1217866" transform="translate(-272.234 -9696.844)">
    <g id="Grupo_1216305" data-name="Grupo 1216305" transform="translate(281.234 9702.844)">
      <g id="Grupo_1208705" data-name="Grupo 1208705">
        <g id="Grupo_1148633" data-name="Grupo 1148633">
          <g id="Grupo_1148525" data-name="Grupo 1148525">
            <g transform="matrix(1, 0, 0, 1, -9, -6)" filter="url(#Trazado_982547)">
              <g id="Trazado_982547-2" data-name="Trazado 982547" transform="translate(9 6)" fill="#e6d567">
                <path d="M 47.5 93.5 C 41.28937149047852 93.5 35.26533508300781 92.28397369384766 29.59518623352051 89.88570404052734 C 24.11771965026855 87.56893157958984 19.19813346862793 84.25196075439453 14.97309303283691 80.02691650390625 C 10.74804019927979 75.80186462402344 7.431066513061523 70.88229370117188 5.114293098449707 65.40481567382812 C 2.716026782989502 59.73468017578125 1.5 53.71062850952148 1.5 47.5 C 1.5 41.28937149047852 2.716026782989502 35.26533508300781 5.114293098449707 29.59518623352051 C 7.431066513061523 24.11771965026855 10.74804019927979 19.19813346862793 14.97309303283691 14.97309303283691 C 19.19813346862793 10.74804019927979 24.11771965026855 7.431066513061523 29.59518623352051 5.114293098449707 C 35.26533508300781 2.716026782989502 41.28937149047852 1.5 47.5 1.5 C 53.71062850952148 1.5 59.73468017578125 2.716026782989502 65.40481567382812 5.114293098449707 C 70.88229370117188 7.431066513061523 75.80186462402344 10.74804019927979 80.02691650390625 14.97309303283691 C 84.25196075439453 19.19813346862793 87.56893157958984 24.11771965026855 89.88570404052734 29.59518623352051 C 92.28397369384766 35.26533508300781 93.5 41.28937149047852 93.5 47.5 C 93.5 53.71062850952148 92.28397369384766 59.73468017578125 89.88570404052734 65.40481567382812 C 87.56893157958984 70.88229370117188 84.25196075439453 75.80186462402344 80.02691650390625 80.02691650390625 C 75.80186462402344 84.25196075439453 70.88229370117188 87.56893157958984 65.40481567382812 89.88570404052734 C 59.73468017578125 92.28397369384766 53.71062850952148 93.5 47.5 93.5 Z" stroke="none"/>
                <path d="M 47.5 3 C 41.49121475219727 3 35.66376876831055 4.176155090332031 30.17950439453125 6.495796203613281 C 24.88084411621094 8.736953735351562 20.12152099609375 11.94598388671875 16.03375244140625 16.03375244140625 C 11.94598388671875 20.12152099609375 8.736953735351562 24.88084411621094 6.495796203613281 30.17950439453125 C 4.176155090332031 35.66376876831055 3 41.49121475219727 3 47.5 C 3 53.50878524780273 4.176155090332031 59.33623123168945 6.495796203613281 64.82049560546875 C 8.736953735351562 70.11915588378906 11.94598388671875 74.87847900390625 16.03375244140625 78.96624755859375 C 20.12152099609375 83.05401611328125 24.88084411621094 86.26304626464844 30.17950439453125 88.50419616699219 C 35.66376876831055 90.82384490966797 41.49121475219727 92 47.5 92 C 53.50878524780273 92 59.33623123168945 90.82384490966797 64.82049560546875 88.50419616699219 C 70.11915588378906 86.26304626464844 74.87847900390625 83.05401611328125 78.96624755859375 78.96624755859375 C 83.05401611328125 74.87847900390625 86.26304626464844 70.11915588378906 88.50419616699219 64.82049560546875 C 90.82384490966797 59.33623123168945 92 53.50878524780273 92 47.5 C 92 41.49121475219727 90.82384490966797 35.66376876831055 88.50419616699219 30.17950439453125 C 86.26304626464844 24.88084411621094 83.05401611328125 20.12152099609375 78.96624755859375 16.03375244140625 C 74.87847900390625 11.94598388671875 70.11915588378906 8.736953735351562 64.82049560546875 6.495796203613281 C 59.33623123168945 4.176155090332031 53.50878524780273 3 47.5 3 M 47.5 0 C 73.7335205078125 0 95 21.2664794921875 95 47.5 C 95 73.7335205078125 73.7335205078125 95 47.5 95 C 21.2664794921875 95 0 73.7335205078125 0 47.5 C 0 21.2664794921875 21.2664794921875 0 47.5 0 Z" stroke="none" fill="#ba9c5a"/>
              </g>
            </g>
          </g>
        </g>
      </g>
    </g>
    <g id="collaboration_3212093" transform="translate(277.033 9714.635)">
      <g id="Grupo_1217864" data-name="Grupo 1217864" transform="translate(2.361 1.983)">
        <g id="Grupo_1217843" data-name="Grupo 1217843" transform="translate(57.583 27.455)">
          <circle id="Elipse_11974" data-name="Elipse 11974" cx="12" cy="12" r="12" transform="translate(0.023 -0.072)" fill="#e6e9ed"/>
        </g>
        <g id="Grupo_1217844" data-name="Grupo 1217844" transform="translate(38.263 57.961)">
          <circle id="Elipse_11975" data-name="Elipse 11975" cx="12" cy="12" r="12" transform="translate(0.343 0.422)" fill="#e6e9ed"/>
        </g>
        <g id="Grupo_1217845" data-name="Grupo 1217845" transform="translate(38.263 0)">
          <circle id="Elipse_11976" data-name="Elipse 11976" cx="12" cy="12" r="12" transform="translate(0.343 0.383)" fill="#e6e9ed"/>
        </g>
        <g id="Grupo_1217848" data-name="Grupo 1217848" transform="translate(30.113 11.726)">
          <g id="Grupo_1217846" data-name="Grupo 1217846">
            <path id="Trazado_1086529" data-name="Trazado 1086529" d="M33.3,16.5a12.2,12.2,0,0,1-1.184-5.266q0-.449.041-.9h-.014A30.814,30.814,0,0,0,24.13,12.9c.408.34.8.68,1.184,1.061a13.955,13.955,0,0,1,4.069,9.09,37.252,37.252,0,0,1,2.15-3.8Z" transform="translate(-24.13 -10.34)" fill="#69d6f4"/>
          </g>
          <g id="Grupo_1217847" data-name="Grupo 1217847" transform="translate(5.266 5.394)">
            <path id="Trazado_1086530" data-name="Trazado 1086530" d="M66.169,48.542a11.988,11.988,0,0,1-4.149.735,12.228,12.228,0,0,1-7.685-21.75,11.167,11.167,0,0,1,2.407-1.538l.014-.014a12.189,12.189,0,0,1,5.265-1.184,11.778,11.778,0,0,1,1.7.122V24.9a31.378,31.378,0,0,0-9.346-10.6h-.014a11.94,11.94,0,0,1-1.985,3.36,12.173,12.173,0,0,1-7.862,4.312,11.521,11.521,0,0,1-1.538.1,12.331,12.331,0,0,1-11.06-6.978l-1.768,2.747A36.965,36.965,0,0,0,28,21.636c0,.259.014.5.014.762v3.292a10.617,10.617,0,0,0,1.769,5.836,5.625,5.625,0,0,1,.953,3.156,5.682,5.682,0,0,1-1.674,4.026l-.082.082a3.282,3.282,0,0,0,0,4.651l.789.789a3.282,3.282,0,0,1,0,4.651l-.395.395-.64.64a14.763,14.763,0,0,1,2,7.427v9.618A12.235,12.235,0,0,1,37.7,55.914l.014-.014a12.189,12.189,0,0,1,5.265-1.184,11.7,11.7,0,0,1,2.081.177A12.587,12.587,0,0,1,48.24,55.9l.014.014a12.279,12.279,0,0,1,6.76,8.788l.068-.014A31.4,31.4,0,0,0,66.195,48.61Z" transform="translate(-28 -14.304)" fill="#69d6f4"/>
          </g>
        </g>
        <g id="Grupo_1217849" data-name="Grupo 1217849" transform="translate(40.945 70.769)">
          <path id="Trazado_1086531" data-name="Trazado 1086531" d="M50.9,60.575a12.231,12.231,0,0,1-18.805,0,5.961,5.961,0,0,1,5.538-3.756h.163a1.379,1.379,0,0,0,1.293-.925l.721-2.164a4.058,4.058,0,0,0,3.375,0l.721,2.164a1.379,1.379,0,0,0,1.293.925h.163A5.961,5.961,0,0,1,50.9,60.575Z" transform="translate(-32.09 -53.73)" fill="#b4dd7f"/>
        </g>
        <g id="Grupo_1217850" data-name="Grupo 1217850" transform="translate(59.995 40.833)">
          <path id="Trazado_1086532" data-name="Trazado 1086532" d="M64.9,38.575a12.318,12.318,0,0,1-9.4,4.409,12.2,12.2,0,0,1-9.4-4.409,5.961,5.961,0,0,1,5.538-3.756h.163a1.379,1.379,0,0,0,1.293-.925l.721-2.164a4.058,4.058,0,0,0,3.375,0l.721,2.164a1.379,1.379,0,0,0,1.293.925h.163A5.961,5.961,0,0,1,64.9,38.575Z" transform="translate(-46.09 -31.73)" fill="#ff826e"/>
        </g>
        <g id="Grupo_1217851" data-name="Grupo 1217851" transform="translate(62.594 27.593)">
          <path id="Trazado_1086533" data-name="Trazado 1086533" d="M60.165,23.279a4.928,4.928,0,0,1,0,6.967l-1.279,1.279V29.538a1.378,1.378,0,0,0-.612-1.143L54.8,26.082,51.334,28.4a1.378,1.378,0,0,0-.612,1.143v1.987l-1.279-1.279a4.928,4.928,0,0,1,0-6.967l.082-.082.014-.014A12.2,12.2,0,0,1,54.8,22a11.778,11.778,0,0,1,1.7.122,12.445,12.445,0,0,1,3.565,1.061l.014.014Z" transform="translate(-48 -22)" fill="#b27946"/>
        </g>
        <g id="Grupo_1217852" data-name="Grupo 1217852" transform="translate(65.315 31.675)">
          <path id="Trazado_1086534" data-name="Trazado 1086534" d="M58.164,28.456v1.987a4.063,4.063,0,0,1-2.395,3.715,4.078,4.078,0,0,1-4.572-.83A4.072,4.072,0,0,1,50,30.443V28.456a1.378,1.378,0,0,1,.612-1.143L54.082,25l3.47,2.313a1.378,1.378,0,0,1,.612,1.143Z" transform="translate(-50 -25)" fill="#f0d0b4"/>
        </g>
        <g id="Grupo_1217853" data-name="Grupo 1217853" transform="translate(40.945 13.618)">
          <path id="Trazado_1086535" data-name="Trazado 1086535" d="M50.9,18.575a12.175,12.175,0,0,1-7.865,4.314,11.521,11.521,0,0,1-1.538.1,12.2,12.2,0,0,1-9.4-4.409,5.961,5.961,0,0,1,5.538-3.756h.163a1.379,1.379,0,0,0,1.293-.925l.721-2.164a4.058,4.058,0,0,0,3.375,0l.721,2.164a1.379,1.379,0,0,0,1.293.925h.163A5.961,5.961,0,0,1,50.9,18.575Z" transform="translate(-32.09 -11.73)" fill="#b4dd7f"/>
        </g>
        <g id="Grupo_1217854" data-name="Grupo 1217854" transform="translate(43.544 0.378)">
          <path id="Trazado_1086536" data-name="Trazado 1086536" d="M46.165,3.279a4.928,4.928,0,0,1,0,6.967l-1.279,1.279V9.538A1.378,1.378,0,0,0,44.274,8.4L40.8,6.082,37.334,8.4a1.378,1.378,0,0,0-.612,1.143v1.987l-1.279-1.279a4.928,4.928,0,0,1,0-6.967l-.014-.027A12.233,12.233,0,0,1,46.07,3.184l.014.014Z" transform="translate(-34 -2)" fill="#b27946"/>
        </g>
        <g id="Grupo_1217855" data-name="Grupo 1217855" transform="translate(43.544 57.529)">
          <path id="Trazado_1086537" data-name="Trazado 1086537" d="M46.165,45.279a4.928,4.928,0,0,1,0,6.967l-1.279,1.279V51.538a1.378,1.378,0,0,0-.612-1.143L40.8,48.082,37.334,50.4a1.378,1.378,0,0,0-.612,1.143v1.987l-1.279-1.279a4.928,4.928,0,0,1,0-6.967l.082-.082.014-.014A12.2,12.2,0,0,1,40.8,44a11.727,11.727,0,0,1,2.082.177,12.6,12.6,0,0,1,3.184,1.007l.014.014Z" transform="translate(-34 -44)" fill="#656d78"/>
        </g>
        <g id="Grupo_1217856" data-name="Grupo 1217856" transform="translate(46.265 61.611)">
          <path id="Trazado_1086538" data-name="Trazado 1086538" d="M44.164,50.456v1.987a4.063,4.063,0,0,1-2.395,3.715,4.078,4.078,0,0,1-4.572-.83A4.072,4.072,0,0,1,36,52.443V50.456a1.378,1.378,0,0,1,.612-1.143L40.082,47l3.47,2.313A1.378,1.378,0,0,1,44.164,50.456Z" transform="translate(-36 -47)" fill="#f0d0b4"/>
        </g>
        <g id="Grupo_1217857" data-name="Grupo 1217857" transform="translate(46.265 4.46)">
          <path id="Trazado_1086539" data-name="Trazado 1086539" d="M44.164,8.456v1.987a4.063,4.063,0,0,1-2.395,3.715,4.078,4.078,0,0,1-4.572-.83A4.072,4.072,0,0,1,36,10.443V8.456a1.378,1.378,0,0,1,.612-1.143L40.082,5l3.47,2.313A1.378,1.378,0,0,1,44.164,8.456Z" transform="translate(-36 -5)" fill="#f0d0b4"/>
        </g>
        <g id="Grupo_1217858" data-name="Grupo 1217858" transform="translate(16.329 45.867)">
          <path id="Trazado_1086540" data-name="Trazado 1086540" d="M27.607,63.42H14V53.378a1.365,1.365,0,0,1,.748-1.225l1.973-.98a14.724,14.724,0,0,0,7.688-9.525,14.422,14.422,0,0,0,.476-3.688V35.43a14.715,14.715,0,0,1,7.525,4.9,15.223,15.223,0,0,1,1.361,1.959,14.774,14.774,0,0,1,2,7.43v13.7Z" transform="translate(-14 -35.43)" fill="#ff826e"/>
        </g>
        <g id="Grupo_1217859" data-name="Grupo 1217859" transform="translate(0 11.264)">
          <path id="Trazado_1086541" data-name="Trazado 1086541" d="M19.69,19.525,13.117,21.4a4.078,4.078,0,0,0-2.953,3.905l-.027,3.7v.054a10.859,10.859,0,0,0,6.695,10.029v.014l-.8,3.239a2.728,2.728,0,0,1-2.109,2.014c-.354.068-.694.15-1.034.245a14.715,14.715,0,0,0-7.525,4.9A15.223,15.223,0,0,0,4,51.462L2.966,50.428a3.285,3.285,0,0,1,0-4.654l.789-.789a3.285,3.285,0,0,0,0-4.654l-.082-.082a5.694,5.694,0,0,1-.721-7.185,10.481,10.481,0,0,0,1.769-5.838V23.934A13.938,13.938,0,0,1,18.655,10h4.79a13.962,13.962,0,0,1,8.668,3.021c.408.34.8.68,1.184,1.061a13.955,13.955,0,0,1,4.069,9.09c0,.259.014.5.014.762v3.293a10.623,10.623,0,0,0,1.769,5.838,5.694,5.694,0,0,1-.721,7.185l-.082.082a3.285,3.285,0,0,0,0,4.654l.789.789a3.285,3.285,0,0,1,0,4.654l-.395.395-.64.64A15.222,15.222,0,0,0,36.74,49.5a14.715,14.715,0,0,0-7.525-4.9c-.34-.1-.68-.177-1.034-.245a2.728,2.728,0,0,1-2.109-2.014l-.816-3.252a10.919,10.919,0,0,0,6.654-10l.027-4.654a4.114,4.114,0,0,0-1.823-3.415l-2.259-1.5Z" transform="translate(-2 -10)" fill="#fcd770"/>
        </g>
        <g id="Grupo_1217860" data-name="Grupo 1217860" transform="translate(8.137 20.789)">
          <path id="Trazado_1086542" data-name="Trazado 1086542" d="M17.532,17H25.7l2.259,1.5a4.114,4.114,0,0,1,1.823,3.415l-.027,4.654A10.849,10.849,0,0,1,18.866,37.411a10.721,10.721,0,0,1-4.191-.844A10.859,10.859,0,0,1,7.98,26.539v-.054l.027-3.7a4.078,4.078,0,0,1,2.953-3.905Z" transform="translate(-7.98 -17)" fill="#f0d0b4"/>
        </g>
        <g id="Grupo_1217861" data-name="Grupo 1217861" transform="translate(10.886 40.356)">
          <path id="Trazado_1086543" data-name="Trazado 1086543" d="M26.329,36.891v2.531a14.422,14.422,0,0,1-.476,3.688H10.476A14.422,14.422,0,0,1,10,39.422V36.891c.34-.1.68-.177,1.034-.245a2.728,2.728,0,0,0,2.109-2.014l.8-3.239V31.38a10.721,10.721,0,0,0,4.191.844,10.975,10.975,0,0,0,4.232-.844l.816,3.252a2.728,2.728,0,0,0,2.109,2.014C25.648,36.714,25.989,36.8,26.329,36.891Z" transform="translate(-10 -31.38)" fill="#f0d0b4"/>
        </g>
        <g id="Grupo_1217862" data-name="Grupo 1217862" transform="translate(11.362 52.086)">
          <path id="Trazado_1086544" data-name="Trazado 1086544" d="M10.35,40H25.726a14.724,14.724,0,0,1-7.688,9.525A14.724,14.724,0,0,1,10.35,40Z" transform="translate(-10.35 -40)" fill="#e6e9ed"/>
        </g>
        <g id="Grupo_1217863" data-name="Grupo 1217863" transform="translate(0 45.867)">
          <path id="Trazado_1086545" data-name="Trazado 1086545" d="M13.362,41.649a14.724,14.724,0,0,0,7.688,9.525l-1.973.98a1.365,1.365,0,0,0-.748,1.225V63.42H2v-13.7a14.774,14.774,0,0,1,2-7.43,15.223,15.223,0,0,1,1.361-1.959,14.715,14.715,0,0,1,7.525-4.9v2.531a14.422,14.422,0,0,0,.476,3.688Z" transform="translate(-2 -35.43)" fill="#ff826e"/>
        </g>
      </g>
      <g id="Grupo_1217865" data-name="Grupo 1217865" transform="translate(1 1)">
        <ellipse id="Elipse_11977" data-name="Elipse 11977" cx="1.5" cy="1" rx="1.5" ry="1" transform="translate(12.967 27.365)"/>
        <ellipse id="Elipse_11978" data-name="Elipse 11978" cx="1.5" cy="1" rx="1.5" ry="1" transform="translate(23.967 27.365)"/>
        <path id="Trazado_1086546" data-name="Trazado 1086546" d="M17.353,27.522a3.027,3.027,0,0,1-2.721-1.682l-.143-.287-2.434,1.218.143.287a5.765,5.765,0,0,0,10.312,0l.143-.287-2.434-1.218-.143.287A3.025,3.025,0,0,1,17.353,27.522Z" transform="translate(2.988 7.857)"/>
        <path id="Trazado_1086547" data-name="Trazado 1086547" d="M17,49h2.721v2.721H17Z" transform="translate(4.772 16.315)"/>
        <path id="Trazado_1086548" data-name="Trazado 1086548" d="M85.366,41.822A13.624,13.624,0,0,0,74.321,28.465a32.993,32.993,0,0,0-8.6-9.868A13.6,13.6,0,1,0,39.269,12.58a32.413,32.413,0,0,0-6.628,2.132A15.175,15.175,0,0,0,23.8,11.886H19.019a15.3,15.3,0,0,0-15.3,15.3v3.29a9.118,9.118,0,0,1-1.536,5.074,7.058,7.058,0,0,0,.973,8.994,1.925,1.925,0,0,1,0,2.721l-.8.8a4.648,4.648,0,0,0,0,6.572l.337.337A16.078,16.078,0,0,0,1,62.141V77.2H40.245A13.587,13.587,0,0,0,66.2,70.1,32.883,32.883,0,0,0,77.039,54.363a13.627,13.627,0,0,0,8.326-12.541Zm-2.721,0a10.808,10.808,0,0,1-1.411,5.341,7.289,7.289,0,0,0-5.613-2.619h-.159l-.386-1.158a5.412,5.412,0,0,0,2.064-3.659l.943-.943A6.232,6.232,0,0,0,79.9,34.616a10.838,10.838,0,0,1,2.747,7.206ZM57.183,61.847a3.512,3.512,0,0,1,.64,3.9,2.715,2.715,0,0,0-.883-.97l-4.232-2.821-4.231,2.821a2.7,2.7,0,0,0-.883.97,3.51,3.51,0,0,1,.637-3.9,10.769,10.769,0,0,1,8.952,0Zm-7.2,7.19V67.043l2.721-1.814,2.721,1.814v1.993a2.721,2.721,0,0,1-5.443,0Zm2.721-10.886a13.58,13.58,0,0,0-10.886,5.478V62.142a16.1,16.1,0,0,0-1.468-6.711H54.963c-.3.939-.659,1.864-1.037,2.783-.4-.037-.807-.063-1.218-.063ZM41.6,52.708a4.529,4.529,0,0,0-1.136-4.646l-.8-.8A1.906,1.906,0,0,1,39.1,45.9a2,2,0,0,1,.655-1.452,7.053,7.053,0,0,0,.882-8.9,9.091,9.091,0,0,1-.94-1.893H55.389A37.957,37.957,0,0,1,56.79,43.8a37.681,37.681,0,0,1-1.071,8.9ZM55.429,11.886a2.721,2.721,0,1,1-5.443,0V9.892l2.721-1.814,2.721,1.814Zm-3.843,6.3.314-.943a4.028,4.028,0,0,0,1.614,0l.314.942a2.716,2.716,0,0,0,2.581,1.861h.159a4.578,4.578,0,0,1,3.905,2.17,10.853,10.853,0,0,1-15.533,0,4.576,4.576,0,0,1,3.905-2.172h.159a2.716,2.716,0,0,0,2.58-1.86ZM39.1,30.475v-3.29c0-.139-.016-.276-.02-.415a37.9,37.9,0,0,1,1.944-3.417l.581-.9a13.592,13.592,0,0,0,11.1,5.767c.231,0,.457-.023.687-.035.41.9.789,1.822,1.127,2.757H39.135c-.008-.154-.034-.306-.034-.461Zm1.012-10.736-1.377,2.142c-.129.2-.248.414-.374.619a15.2,15.2,0,0,0-3.451-5.81,29.713,29.713,0,0,1,4.228-1.3,13.55,13.55,0,0,0,.974,4.353ZM76.234,31.911a3.512,3.512,0,0,1,.64,3.9,2.715,2.715,0,0,0-.883-.97l-4.232-2.821-4.231,2.821a2.7,2.7,0,0,0-.883.97,3.507,3.507,0,0,1,.638-3.9,10.766,10.766,0,0,1,8.951,0ZM58.965,37.234c-.2-1.2-.461-2.395-.766-3.576h2.7A13.578,13.578,0,0,0,58.965,37.234Zm.381,10.135a13.681,13.681,0,0,0,4.284,5.34H58.518A40.381,40.381,0,0,0,59.346,47.368Zm2.938-.205a10.818,10.818,0,0,1,1.338-12.547,6.232,6.232,0,0,0,1.815,4.168l.943.943a5.414,5.414,0,0,0,2.063,3.659l-.386,1.158H67.9a7.289,7.289,0,0,0-5.613,2.619ZM69.037,39.1V37.107l2.721-1.814,2.721,1.814V39.1a2.721,2.721,0,0,1-5.443,0Zm1.97-10.848a13.512,13.512,0,0,0-7.379,2.683H57.4q-.541-1.621-1.215-3.188a13.654,13.654,0,0,0,8.434-6.571A30.315,30.315,0,0,1,71.007,28.253ZM63.594,14.607a10.808,10.808,0,0,1-1.411,5.341,7.289,7.289,0,0,0-5.613-2.619h-.159l-.386-1.158a5.412,5.412,0,0,0,2.064-3.659l.943-.943A6.232,6.232,0,0,0,60.847,7.4,10.838,10.838,0,0,1,63.594,14.607ZM57.183,4.7a3.512,3.512,0,0,1,.64,3.9,2.715,2.715,0,0,0-.883-.97L52.708,4.807,48.477,7.628a2.7,2.7,0,0,0-.883.97,3.507,3.507,0,0,1,.638-3.9,10.766,10.766,0,0,1,8.951,0ZM44.571,7.4a6.232,6.232,0,0,0,1.815,4.168l.943.943a5.41,5.41,0,0,0,2.064,3.659l-.388,1.158h-.159a7.286,7.286,0,0,0-5.613,2.621A10.82,10.82,0,0,1,44.571,7.4ZM3.721,51.347a1.906,1.906,0,0,1,.563-1.361l.8-.8A4.615,4.615,0,0,0,6.443,45.9a4.7,4.7,0,0,0-1.452-3.377,4.332,4.332,0,0,1-.542-5.467,11.833,11.833,0,0,0,1.993-6.585v-3.29A12.576,12.576,0,0,1,19.019,14.607H23.8A12.576,12.576,0,0,1,36.379,27.185v3.29a11.84,11.84,0,0,0,1.993,6.586,4.313,4.313,0,0,1,.728,2.4,4.381,4.381,0,0,1-1.361,3.154,4.647,4.647,0,0,0,0,6.571l.8.8a1.871,1.871,0,0,1,.106,2.564,16.163,16.163,0,0,0-9.833-6.283,1.365,1.365,0,0,1-1.053-1l-.55-2.2a12.268,12.268,0,0,0,6.428-10.717l.02-4.654a5.433,5.433,0,0,0-2.425-4.553l-6.342-4.225L23.38,21.181l6.342,4.225a2.717,2.717,0,0,1,1.214,2.277l-.02,4.654a9.525,9.525,0,0,1-19.05-.083l.016-3.692a2.736,2.736,0,0,1,1.974-2.6l5.8-1.659,2.155,2.155,1.924-1.924-5.443-5.443L16.37,21.011,17.457,22.1l-4.348,1.244a5.469,5.469,0,0,0-3.947,5.209l-.016,3.692a12.164,12.164,0,0,0,3.568,8.694,12.3,12.3,0,0,0,2.9,2.162l-.542,2.165a1.367,1.367,0,0,1-1.053,1,16.161,16.161,0,0,0-9.833,6.281,1.873,1.873,0,0,1-.461-1.2Zm17.69,10.671A13.293,13.293,0,0,1,15.6,55.429H27.216a13.284,13.284,0,0,1-5.8,6.589ZM17.7,45.925,18.16,44.1a12.331,12.331,0,0,0,3.228.44,12.17,12.17,0,0,0,3.268-.457l.46,1.838a4.093,4.093,0,0,0,3.1,2.995v1.464a13.547,13.547,0,0,1-.223,2.324H14.829a13.684,13.684,0,0,1-.222-2.324V48.92a4.093,4.093,0,0,0,3.1-2.995ZM3.721,62.141a13.5,13.5,0,0,1,8.164-12.364v.607A16.023,16.023,0,0,0,18.632,63.5a2.69,2.69,0,0,0-1.3,2.3V74.48H11.886V60.872H9.164V74.48H3.721ZM39.1,74.48H33.658V60.872H30.936V74.48H20.05V65.8l1.969-.985a16.04,16.04,0,0,0,8.917-14.427v-.607A13.5,13.5,0,0,1,39.1,62.141Zm5.47-9.928a6.232,6.232,0,0,0,1.815,4.168l.943.943a5.41,5.41,0,0,0,2.064,3.659l-.388,1.158h-.159A7.283,7.283,0,0,0,43.233,77.1a10.818,10.818,0,0,1,1.338-12.547Zm8.137,18.092a10.851,10.851,0,0,1-7.766-3.271,4.574,4.574,0,0,1,3.9-2.172h.159a2.715,2.715,0,0,0,2.58-1.86L51.9,74.4a4.035,4.035,0,0,0,1.615,0l.314.942A2.716,2.716,0,0,0,56.411,77.2h.159a4.578,4.578,0,0,1,3.905,2.17,10.849,10.849,0,0,1-7.767,3.273ZM62.183,77.1A7.289,7.289,0,0,0,56.57,74.48h-.159l-.386-1.158a5.412,5.412,0,0,0,2.064-3.659l.943-.943a6.232,6.232,0,0,0,1.815-4.168A10.82,10.82,0,0,1,62.183,77.1ZM65.5,67.158a13.657,13.657,0,0,0-8.846-8.419Q57.3,57.1,57.8,55.429H71.758a13.461,13.461,0,0,0,2.109-.181A30.257,30.257,0,0,1,65.5,67.158Zm6.261-14.45a10.849,10.849,0,0,1-7.767-3.273,4.575,4.575,0,0,1,3.905-2.17h.159a2.715,2.715,0,0,0,2.58-1.86l.314-.943a4.035,4.035,0,0,0,1.615,0l.314.942a2.716,2.716,0,0,0,2.581,1.861h.159a4.578,4.578,0,0,1,3.905,2.17A10.849,10.849,0,0,1,71.758,52.708Z" transform="translate(-1 -1)"/>
      </g>
    </g>
  </g>
</svg>
