<svg xmlns="http://www.w3.org/2000/svg" xmlns:xlink="http://www.w3.org/1999/xlink" width="103" height="103" viewBox="0 0 103 103">
  <defs>
    <filter id="Trazado_978624" x="0" y="0" width="103" height="103" filterUnits="userSpaceOnUse">
      <feOffset dy="3" input="SourceAlpha"/>
      <feGaussianBlur stdDeviation="3" result="blur"/>
      <feFlood flood-opacity="0.161"/>
      <feComposite operator="in" in2="blur"/>
      <feComposite in="SourceGraphic"/>
    </filter>
  </defs>
  <g id="Grupo_1217945" data-name="Grupo 1217945" transform="translate(-192 -10792.186)">
    <g id="Grupo_1216310" data-name="Grupo 1216310" transform="translate(0 10478.186)">
      <g id="Grupo_1180764" data-name="Grupo 1180764" transform="translate(1 -4144)">
        <g id="Grupo_1179463" data-name="Grupo 1179463" transform="translate(200 4464)">
          <g id="Grupo_1144531" data-name="Grupo 1144531">
            <g transform="matrix(1, 0, 0, 1, -9, -6)" filter="url(#Trazado_978624)">
              <g id="Trazado_978624-2" data-name="Trazado 978624" transform="translate(9 6)" fill="#f7f4ed">
                <path d="M 42.5 83.5 C 36.96437835693359 83.5 31.59512901306152 82.41617584228516 26.54141235351562 80.27863311767578 C 21.65934181213379 78.21369171142578 17.27447128295898 75.25723266601562 13.50862312316895 71.49137878417969 C 9.742764472961426 67.72553253173828 6.786305904388428 63.34066009521484 4.721364498138428 58.45858764648438 C 2.583823442459106 53.40486907958984 1.5 48.03562164306641 1.5 42.5 C 1.5 36.96437835693359 2.583823442459106 31.59512901306152 4.721364498138428 26.54141235351562 C 6.786305904388428 21.65934181213379 9.742764472961426 17.27447128295898 13.50862312316895 13.50862312316895 C 17.27447128295898 9.742764472961426 21.65934181213379 6.786305904388428 26.54141235351562 4.721364498138428 C 31.59512901306152 2.583823442459106 36.96437835693359 1.5 42.5 1.5 C 48.03562164306641 1.5 53.40486907958984 2.583823442459106 58.45858764648438 4.721364498138428 C 63.34066009521484 6.786305904388428 67.72553253173828 9.742764472961426 71.49137878417969 13.50862312316895 C 75.25723266601562 17.27447128295898 78.21369171142578 21.65934181213379 80.27863311767578 26.54141235351562 C 82.41617584228516 31.59512901306152 83.5 36.96437835693359 83.5 42.5 C 83.5 48.03562164306641 82.41617584228516 53.40486907958984 80.27863311767578 58.45858764648438 C 78.21369171142578 63.34066009521484 75.25723266601562 67.72553253173828 71.49137878417969 71.49137878417969 C 67.72553253173828 75.25723266601562 63.34066009521484 78.21369171142578 58.45858764648438 80.27863311767578 C 53.40486907958984 82.41617584228516 48.03562164306641 83.5 42.5 83.5 Z" stroke="none"/>
                <path d="M 42.5 3 C 37.16621398925781 3 31.99356079101562 4.043960571289062 27.125732421875 6.102882385253906 C 22.42246627807617 8.092185974121094 18.19785308837891 10.94070434570312 14.56928253173828 14.56928253173828 C 10.94070434570312 18.19785308837891 8.092185974121094 22.42246627807617 6.102882385253906 27.125732421875 C 4.043960571289062 31.99356079101562 3 37.16621398925781 3 42.5 C 3 47.83378601074219 4.043960571289062 53.00643920898438 6.102882385253906 57.87425231933594 C 8.092185974121094 62.57753372192383 10.94070434570312 66.80213165283203 14.56928253173828 70.43071746826172 C 18.19786834716797 74.05929565429688 22.42246627807617 76.90781402587891 27.125732421875 78.89711761474609 C 31.99356079101562 80.95603942871094 37.16621398925781 82 42.5 82 C 47.83378601074219 82 53.00642395019531 80.95603942871094 57.87425231933594 78.89711761474609 C 62.57753372192383 76.90781402587891 66.80213165283203 74.05929565429688 70.43071746826172 70.43071746826172 C 74.05929565429688 66.80213165283203 76.90781402587891 62.57753372192383 78.89711761474609 57.87425231933594 C 80.95603942871094 53.00642395019531 82 47.83378601074219 82 42.5 C 82 37.16621398925781 80.95603942871094 31.99356079101562 78.89711761474609 27.125732421875 C 76.90781402587891 22.42246627807617 74.05929565429688 18.19786834716797 70.43071746826172 14.56928253173828 C 66.80213165283203 10.94070434570312 62.57753372192383 8.092185974121094 57.87425231933594 6.102882385253906 C 53.00643920898438 4.043960571289062 47.83378601074219 3 42.5 3 M 42.5 0 C 65.97209167480469 0 85 19.02789306640625 85 42.5 C 85 65.97209167480469 65.97209167480469 85 42.5 85 C 19.02789306640625 85 0 65.97209167480469 0 42.5 C 0 19.02789306640625 19.02789306640625 0 42.5 0 Z" stroke="none" fill="#ba9c5a"/>
              </g>
            </g>
          </g>
        </g>
      </g>
    </g>
    <g id="ley_9_" data-name="ley (9)" transform="translate(192.204 10780.527)">
      <g id="Grupo_1217936" data-name="Grupo 1217936" transform="translate(20.635 69.916)">
        <g id="Grupo_1217931" data-name="Grupo 1217931" transform="translate(0 5.059)">
          <path id="Trazado_1086677" data-name="Trazado 1086677" d="M169.926,361.191a16.105,16.105,0,0,0,3.866,10.606H115.514a1.844,1.844,0,0,1-1.5-.77,18.775,18.775,0,0,1,0-19.672,1.844,1.844,0,0,1,1.5-.77h58.279A16.107,16.107,0,0,0,169.926,361.191Z" transform="translate(-111.226 -350.585)" fill="#fb3a82"/>
          <path id="Trazado_1086678" data-name="Trazado 1086678" d="M129.009,350.587l-16.434,17.8a18.623,18.623,0,0,1-1.345-7.195,16.832,16.832,0,0,1,2.783-9.837,1.841,1.841,0,0,1,1.5-.77Z" transform="translate(-111.229 -350.587)" fill="#fb1466"/>
          <path id="Trazado_1086679" data-name="Trazado 1086679" d="M204.491,361.191a16.105,16.105,0,0,0,3.866,10.606H149.192s-3.4-3.444-3.4-10.606,3.4-10.606,3.4-10.606h59.166A16.107,16.107,0,0,0,204.491,361.191Z" transform="translate(-139.378 -350.585)" fill="#e0d3ce"/>
          <g id="Grupo_1217930" data-name="Grupo 1217930" transform="translate(6.413 0)">
            <path id="Trazado_1086680" data-name="Trazado 1086680" d="M157.157,350.587l-11.306,12.247c-.039-.523-.061-1.071-.061-1.64,0-7.163,3.4-10.607,3.4-10.607Z" transform="translate(-145.79 -350.587)" fill="#cdbfbb"/>
            <path id="Trazado_1086681" data-name="Trazado 1086681" d="M431.41,361.2a16.1,16.1,0,0,0,3.866,10.606h-7.011a16.479,16.479,0,0,1,0-21.211h7.011A16.1,16.1,0,0,0,431.41,361.2Z" transform="translate(-372.709 -350.591)" fill="#cdbfbb"/>
          </g>
        </g>
        <g id="Grupo_1217935" data-name="Grupo 1217935" transform="translate(7.984)">
          <g id="Grupo_1217933" data-name="Grupo 1217933" transform="translate(0.001)">
            <path id="Trazado_1086682" data-name="Trazado 1086682" d="M219.238,326.4a3.078,3.078,0,0,1-3.078,3.078H157.338a3.079,3.079,0,0,1,0-6.158H216.16A3.079,3.079,0,0,1,219.238,326.4Z" transform="translate(-154.26 -323.317)" fill="#fb3a82"/>
            <g id="Grupo_1217932" data-name="Grupo 1217932">
              <path id="Trazado_1086683" data-name="Trazado 1086683" d="M168.726,323.317l-5.683,6.158h-5.705a3.079,3.079,0,0,1,0-6.158Z" transform="translate(-154.26 -323.317)" fill="#fb1466"/>
              <path id="Trazado_1086684" data-name="Trazado 1086684" d="M464.764,326.4a3.082,3.082,0,0,1-3.08,3.08h-5.971a3.079,3.079,0,0,0,0-6.158h5.971A3.08,3.08,0,0,1,464.764,326.4Z" transform="translate(-399.784 -323.32)" fill="#fb1466"/>
            </g>
          </g>
          <g id="Grupo_1217934" data-name="Grupo 1217934" transform="translate(0 25.173)">
            <path id="Trazado_1086685" data-name="Trazado 1086685" d="M216.158,465.153H157.336a3.079,3.079,0,1,1,0-6.157h58.822a3.079,3.079,0,1,1,0,6.157Z" transform="translate(-154.257 -458.996)" fill="#fb3a82"/>
            <path id="Trazado_1086686" data-name="Trazado 1086686" d="M464.764,462.078a3.077,3.077,0,0,1-3.08,3.078h-5.971a3.078,3.078,0,1,0,0-6.156h5.971A3.08,3.08,0,0,1,464.764,462.078Z" transform="translate(-399.784 -458.999)" fill="#fb1466"/>
          </g>
        </g>
      </g>
      <g id="Grupo_1217944" data-name="Grupo 1217944" transform="translate(-0.001 12.193)">
        <g id="Grupo_1217939" data-name="Grupo 1217939" transform="translate(1.392 36.77)">
          <g id="Grupo_1217937" data-name="Grupo 1217937" transform="translate(0 11.777)">
            <path id="Trazado_1086687" data-name="Trazado 1086687" d="M48.028,278.827l-4.97-4.97L9.224,305.09a5.358,5.358,0,1,0,7.571,7.571Z" transform="translate(-7.5 -273.857)" fill="#873f30"/>
            <path id="Trazado_1086688" data-name="Trazado 1086688" d="M17.8,319.528a5.36,5.36,0,0,1-7.575,0,5.305,5.305,0,0,1-1.307-2.135,5.35,5.35,0,0,0,5.437-1.3c.051-.051.1-.106.153-.159L45.741,282.1l3.442,3.442L17.949,319.372C17.9,319.425,17.849,319.478,17.8,319.528Z" transform="translate(-8.655 -280.567)" fill="#6c3328"/>
          </g>
          <path id="Trazado_1086689" data-name="Trazado 1086689" d="M202.081,210.382l-11.445,13.652,4.675,4.675,13.652-11.445Z" transform="translate(-156.659 -210.382)" fill="#873f30"/>
          <path id="Trazado_1086690" data-name="Trazado 1086690" d="M210.165,210.382l-3.7,4.411,1.11,1.11a2.092,2.092,0,0,1,0,2.958l-7.015,7.015,2.834,2.834,13.652-11.445Z" transform="translate(-164.743 -210.382)" fill="#6c3328"/>
          <g id="Grupo_1217938" data-name="Grupo 1217938" transform="translate(30.19 10.857)">
            <path id="Trazado_1086691" data-name="Trazado 1086691" d="M175.744,279.173l-4.538-4.538a3.36,3.36,0,0,1,4.751-4.751l4.538,4.538a3.36,3.36,0,1,1-4.751,4.751Z" transform="translate(-170.222 -268.899)" fill="#ba5d4f"/>
            <path id="Trazado_1086692" data-name="Trazado 1086692" d="M189.632,288.314a3.359,3.359,0,0,1-4.751,0l-3.44-3.44a3.36,3.36,0,0,0,4.751-4.751l3.44,3.44A3.358,3.358,0,0,1,189.632,288.314Z" transform="translate(-179.36 -278.041)" fill="#a34f41"/>
          </g>
        </g>
        <g id="Grupo_1217940" data-name="Grupo 1217940" transform="translate(36.923 5.567)">
          <path id="Trazado_1086693" data-name="Trazado 1086693" d="M0,0H14.253V22.377H0Z" transform="translate(15.821 0) rotate(45)" fill="#ba5d4f"/>
          <path id="Trazado_1086694" data-name="Trazado 1086694" d="M0,0H14.253V22.377H0Z" transform="translate(32.151 47.985) rotate(-135)" fill="#a34f41"/>
        </g>
        <g id="Grupo_1217943" data-name="Grupo 1217943" transform="translate(0 0)">
          <path id="Trazado_1086695" data-name="Trazado 1086695" d="M177.825,43.163l-.35-.35a3.4,3.4,0,0,1,0-4.807l17.317-17.317a3.4,3.4,0,0,1,4.807,0l.35.35a3.4,3.4,0,0,1,0,4.807L182.632,43.163a3.4,3.4,0,0,1-4.807,0Z" transform="translate(-143.737 -18.302)" fill="#873f30"/>
          <path id="Trazado_1086696" data-name="Trazado 1086696" d="M349.239,214.576l.35.35a3.4,3.4,0,0,0,4.807,0l17.317-17.317a3.4,3.4,0,0,0,0-4.807l-.35-.35a3.4,3.4,0,0,0-4.807,0l-17.317,17.317A3.4,3.4,0,0,0,349.239,214.576Z" transform="translate(-283.634 -158.198)" fill="#6c3328"/>
          <g id="Grupo_1217942" data-name="Grupo 1217942">
            <path id="Trazado_1086697" data-name="Trazado 1086697" d="M0,0H16.006V33.8H0Z" transform="translate(67.194 11.943) rotate(45)" fill="#fcc16d"/>
            <path id="Trazado_1086698" data-name="Trazado 1086698" d="M0,0H33.8V8.1H0Z" transform="translate(48.882 41.439) rotate(-45)" fill="#fca62f"/>
            <path id="Trazado_1086699" data-name="Trazado 1086699" d="M249.407,68.189l-2.773-1.133a2.549,2.549,0,0,0-2.767.557L224.4,87.081a2.55,2.55,0,0,0-.557,2.767l1.133,2.773a1.7,1.7,0,0,0,2.775.559l22.216-22.216a1.7,1.7,0,0,0-.559-2.775Z" transform="translate(-182.158 -56.722)" fill="#873f30"/>
            <path id="Trazado_1086700" data-name="Trazado 1086700" d="M313.909,132.692l1.133,2.773a2.549,2.549,0,0,1-.557,2.767L295.017,157.7a2.55,2.55,0,0,1-2.767.557l-2.773-1.133a1.7,1.7,0,0,1-.559-2.775l22.216-22.216A1.7,1.7,0,0,1,313.909,132.692Z" transform="translate(-234.91 -109.475)" fill="#6c3328"/>
            <g id="Grupo_1217941" data-name="Grupo 1217941">
              <path id="Trazado_1086701" data-name="Trazado 1086701" d="M90.52,93.7H89.484a14.39,14.39,0,0,1-1.2-2.285,1.392,1.392,0,1,0-2.571,1.065c.172.416.364.821.567,1.22H31.7a4.452,4.452,0,0,0-1.213.169,16.175,16.175,0,0,1-2.045-8.284c0-.607.027-1.2.079-1.791h26.66a1.391,1.391,0,1,0,0-2.783H29.691l3.27-3.542H86.274a17.371,17.371,0,0,0-1.34,3.542H66.644a1.391,1.391,0,0,0,0,2.783h17.8c-.055.565-.086,1.136-.088,1.712a1.392,1.392,0,0,0,1.386,1.4h.006a1.392,1.392,0,0,0,1.391-1.386,14.889,14.889,0,0,1,2.34-8.049H90.52a4.47,4.47,0,0,0,0-8.94H73.125L89.062,52.588a4.79,4.79,0,0,0,0-6.774l-.35-.35a4.788,4.788,0,0,0-6.528-.228L79.72,42.772l.839-.839a3.932,3.932,0,0,0,.861-4.278l-1.133-2.773a3.084,3.084,0,0,0-2.239-1.858L76.113,31.09a1.391,1.391,0,1,0-1.968,1.968l.952.952L53.168,55.94l-6.449-6.449,21.93-21.93.854.854a1.391,1.391,0,1,0,1.968-1.968L69.633,24.61a3.085,3.085,0,0,0-1.858-2.239h0L65,21.238a3.932,3.932,0,0,0-4.278.861l-.839.839-2.463-2.463a4.788,4.788,0,0,0-.228-6.528l-.35-.35a4.79,4.79,0,0,0-6.775,0L32.753,30.913a4.79,4.79,0,0,0,0,6.775l.35.35a4.788,4.788,0,0,0,6.529.228L42.1,40.729l-.839.839a3.932,3.932,0,0,0-.861,4.278l1.133,2.772a3.083,3.083,0,0,0,2.207,1.85l-6.977,8.323a4.754,4.754,0,0,0-6.28,6.027l-3.164,2.921A1.392,1.392,0,0,0,29.2,69.784l2.924-2.7,3.447,3.447L9.663,98.6a3.966,3.966,0,1,1-5.6-5.6L24.383,74.233A1.391,1.391,0,0,0,22.5,72.188L2.171,90.95a6.749,6.749,0,0,0,4.573,11.708h.14a6.692,6.692,0,0,0,4.824-2.17l8.34-9.034a16.037,16.037,0,0,0,2.237,4.77,3.24,3.24,0,0,0,2.639,1.355h2.344a4.463,4.463,0,0,0,4.43,5.058H90.52a4.47,4.47,0,0,0,0-8.94ZM92.207,73a1.689,1.689,0,0,1-1.687,1.687H35.529l2.313-2.506a4.756,4.756,0,0,0,4.746-.869H90.52A1.689,1.689,0,0,1,92.207,73ZM50.228,56.936l-8.057,6.755-3.2-3.2,6.755-8.057Zm-6.07,11.589a4.778,4.778,0,0,0-.29-2.625l8.323-6.977a3.084,3.084,0,0,0,1.85,2.207l2.773,1.133a3.933,3.933,0,0,0,4.278-.861l.839-.839,2.463,2.463a4.8,4.8,0,0,0-.554,5.5H44.158ZM85.325,46.843a1.994,1.994,0,0,1,1.419.588l.35.35a2.007,2.007,0,0,1,0,2.839L69.777,67.937a2.007,2.007,0,0,1-2.839,0l-.35-.35a2.01,2.01,0,0,1,0-2.839L83.905,47.431a1.993,1.993,0,0,1,1.419-.588Zm-5.118.351L66.351,61.049,63.9,58.6,77.752,44.74ZM54.992,58.051,77.208,35.835a.293.293,0,0,1,.213-.091.339.339,0,0,1,.066.007.3.3,0,0,1,.224.186l1.133,2.773a1.154,1.154,0,0,1-.253,1.257L59.123,59.434a1.155,1.155,0,0,1-1.257.253l-2.772-1.133a.308.308,0,0,1-.1-.5Zm-18.5-21.393a1.993,1.993,0,0,1-1.419-.588l-.35-.35a2.007,2.007,0,0,1,0-2.839L52.038,15.564a2.007,2.007,0,0,1,2.839,0l.35.35a2.007,2.007,0,0,1,0,2.839L37.911,36.07a2,2,0,0,1-1.419.588Zm5.118-.351L55.464,22.452l2.454,2.454L44.063,38.761Zm1.615,7.228L62.693,24.067a1.155,1.155,0,0,1,1.257-.253l2.772,1.133a.308.308,0,0,1,.1.5L44.608,47.666a.308.308,0,0,1-.5-.1l-1.134-2.773A1.155,1.155,0,0,1,43.224,43.535ZM32.972,63.179a1.968,1.968,0,0,1,3.36-1.392l4.538,4.538a1.968,1.968,0,0,1-2.784,2.783l-4.538-4.538a1.956,1.956,0,0,1-.577-1.392Zm-8.42,31.431a14.038,14.038,0,0,1-2.229-5.623l3.335-3.613c0,.069,0,.137,0,.206A19.306,19.306,0,0,0,27.815,94.8H24.923A.453.453,0,0,1,24.552,94.611ZM90.52,99.854H31.7a1.687,1.687,0,0,1,0-3.374H90.52a1.687,1.687,0,0,1,0,3.374Z" transform="translate(0.001 -12.193)"/>
              <path id="Trazado_1086702" data-name="Trazado 1086702" d="M203.718,417.166a1.391,1.391,0,0,0,0,2.783h32.417a1.391,1.391,0,0,0,0-2.783Z" transform="translate(-164.789 -342.031)"/>
            </g>
          </g>
        </g>
      </g>
    </g>
  </g>
</svg>
