<svg xmlns="http://www.w3.org/2000/svg" xmlns:xlink="http://www.w3.org/1999/xlink" width="246" height="227" viewBox="0 0 246 227">
  <defs>
    <clipPath id="clip-path">
      <rect id="Rectángulo_420501" data-name="Rectángulo 420501" width="246" height="227" transform="translate(180 11277)" fill="#fff" stroke="#707070" stroke-width="1"/>
    </clipPath>
  </defs>
  <g id="Enmascarar_grupo_1098926" data-name="Enmascarar grupo 1098926" transform="translate(-180 -11277)" clip-path="url(#clip-path)">
    <g id="Grupo_1218000" data-name="Grupo 1218000">
      <rect id="Rectángulo_420500" data-name="Rectángulo 420500" width="190" height="189" transform="translate(215 11315)" fill="#f2d944"/>
      <g id="OBJECTS" transform="translate(135.944 11162.396)">
        <g id="Grupo_1217999" data-name="Grupo 1217999" transform="translate(66.789 119.646)">
          <g id="Grupo_1217979" data-name="Grupo 1217979">
            <rect id="Rectángulo_420498" data-name="Rectángulo 420498" width="4.749" height="61.246" transform="translate(105.833 1.042)" fill="#91a5e4"/>
            <g id="Grupo_1217978" data-name="Grupo 1217978" transform="translate(0 10.368)">
              <g id="Grupo_1217962" data-name="Grupo 1217962" transform="translate(27.877)">
                <path id="Trazado_1086715" data-name="Trazado 1086715" d="M114.677,160.256a40.769,40.769,0,0,1-.09-6.156,22.554,22.554,0,0,1,1.258-6.243,15.338,15.338,0,0,1,3.564-5.642,7.441,7.441,0,0,1,.631-.575c.217-.184.43-.376.654-.551l.7-.491.35-.244c.118-.078.243-.143.365-.215l.735-.419c.243-.147.5-.244.755-.367s.508-.237.764-.345l.779-.284a23.9,23.9,0,0,1,6.327-1.247,40.843,40.843,0,0,1,6.237.085c1.028.079,2.04.21,3.055.338,1.005.155,2.017.3,3.01.492,2,.358,3.966.805,5.918,1.294l1.461.374,1.451.4c.986.28,1.883.5,2.815.742l1.387.359c.463.115.921.252,1.392.339l2.8.582a89.962,89.962,0,0,0,11.34,1.478,91.369,91.369,0,0,0,11.4.058c.946-.065,1.893-.112,2.833-.216l1.411-.136,1.4-.175c.469-.054.933-.122,1.4-.2s.929-.135,1.383-.222.918-.158,1.361-.254c.221-.046.453-.088.664-.138s.452-.1.6-.138a3.387,3.387,0,1,1,1.755,6.543c-.047.012-.093.024-.14.034l-.041.009c-.335.074-.571.112-.848.165s-.523.088-.785.133c-.523.091-1.034.155-1.549.228s-1.025.127-1.537.188-1.023.116-1.533.156l-1.531.133-1.529.09c-1.019.072-2.038.086-3.055.117a97.554,97.554,0,0,1-12.165-.519,95.538,95.538,0,0,1-11.973-2.022l-2.945-.729c-.493-.111-.973-.274-1.459-.414L154,146.22c-.96-.29-1.962-.579-2.857-.87l-1.378-.435-1.382-.41c-1.844-.536-3.7-1.031-5.556-1.437-.929-.218-1.86-.385-2.792-.566-.931-.152-1.864-.311-2.794-.417a36.5,36.5,0,0,0-5.54-.289,19.724,19.724,0,0,0-5.248.816l-.615.2c-.2.076-.391.162-.588.242a6.236,6.236,0,0,0-.581.254l-.557.291c-.092.05-.189.093-.277.147l-.26.17-.524.336c-.168.121-.323.256-.487.382a4.538,4.538,0,0,0-.474.4,11.55,11.55,0,0,0-2.826,4.148,19.04,19.04,0,0,0-1.249,5.235,37.427,37.427,0,0,0-.127,5.618v.028a1.609,1.609,0,0,1-3.211.2Z" transform="translate(-114.509 -137.393)" fill="#adbcf3"/>
                <path id="Trazado_1086716" data-name="Trazado 1086716" d="M325.005,186.455a40.778,40.778,0,0,0,1.848-5.873,22.568,22.568,0,0,0,.582-6.341,15.338,15.338,0,0,0-1.8-6.425,7.5,7.5,0,0,0-.44-.732c-.156-.238-.3-.483-.47-.714l-.526-.669-.266-.334c-.091-.109-.192-.207-.287-.31l-.585-.612c-.191-.21-.412-.377-.619-.567s-.418-.372-.633-.549l-.664-.5a23.884,23.884,0,0,0-5.706-3,40.824,40.824,0,0,0-6-1.7c-1.007-.218-2.015-.381-3.024-.549-1.008-.138-2.018-.29-3.025-.388-2.017-.228-4.031-.362-6.04-.452l-1.507-.06-1.5-.033c-1.025-.013-1.947-.06-2.91-.093l-1.432-.053c-.477-.022-.955-.021-1.43-.073l-2.854-.244a90.035,90.035,0,0,1-11.289-1.824,91.289,91.289,0,0,1-10.943-3.2c-.888-.332-1.782-.648-2.653-1.016l-1.314-.533-1.293-.569c-.434-.185-.859-.383-1.281-.585s-.852-.395-1.262-.608-.834-.414-1.231-.631c-.2-.107-.409-.214-.6-.322s-.4-.225-.531-.3a3.388,3.388,0,1,0-3.555,5.768c.041.025.082.05.124.073l.037.02c.3.167.515.271.765.4s.476.234.714.352c.475.237.946.444,1.418.661s.946.415,1.42.619.947.4,1.424.587l1.429.564,1.439.523c.956.36,1.928.665,2.894.985a97.5,97.5,0,0,0,11.806,2.979,95.6,95.6,0,0,0,12.052,1.484l3.031.143c.5.034,1.011.016,1.517.02h1.517c1,0,2.046.006,2.988-.018l1.445-.023,1.441,0c1.92.013,3.837.068,5.735.211.953.056,1.893.163,2.837.255.936.12,1.875.235,2.8.4a36.473,36.473,0,0,1,5.392,1.306,19.706,19.706,0,0,1,4.795,2.282l.533.364c.169.13.329.268.495.4a6.328,6.328,0,0,1,.484.409l.45.438c.074.074.155.143.224.22l.2.237.405.472c.126.164.236.338.357.505a4.643,4.643,0,0,1,.341.516,11.55,11.55,0,0,1,1.521,4.782,19.059,19.059,0,0,1-.3,5.373A37.487,37.487,0,0,1,322,185.319l-.009.026a1.607,1.607,0,0,0,3.017,1.11Z" transform="translate(-170.078 -141.008)" fill="#adbcf3"/>
              </g>
              <g id="Grupo_1217971" data-name="Grupo 1217971" transform="translate(0 20.085)">
                <g id="Grupo_1217964" data-name="Grupo 1217964">
                  <g id="Grupo_1217963" data-name="Grupo 1217963" transform="translate(0 3.63)">
                    <path id="Trazado_1086717" data-name="Trazado 1086717" d="M125.48,219.656l-24.82.57-24.82-.57,24.82-41.668Z" transform="translate(-70.553 -177.988)" fill="none" stroke="#adbcf3" stroke-linecap="round" stroke-linejoin="round" stroke-miterlimit="10" stroke-width="1"/>
                    <path id="Trazado_1086718" data-name="Trazado 1086718" d="M120.4,252.991H73.392a6.6,6.6,0,0,1-6.6-6.6H127A6.6,6.6,0,0,1,120.4,252.991Z" transform="translate(-66.789 -206.43)" fill="#4e5fab"/>
                  </g>
                  <ellipse id="Elipse_11986" data-name="Elipse 11986" cx="3.633" cy="3.63" rx="3.633" ry="3.63" transform="translate(26.475)" fill="#4e5fab"/>
                </g>
                <g id="Grupo_1217970" data-name="Grupo 1217970" transform="translate(9.403 16.193)">
                  <g id="Grupo_1217967" data-name="Grupo 1217967">
                    <g id="Grupo_1217965" data-name="Grupo 1217965">
                      <path id="Trazado_1086719" data-name="Trazado 1086719" d="M97.424,204.553l-1.88-3.32a1.163,1.163,0,0,1,1.444-1.651l1.016.406a1.162,1.162,0,0,0,.864,0l1.016-.406a1.162,1.162,0,0,1,1.444,1.651l-1.88,3.32A1.163,1.163,0,0,1,97.424,204.553Z" transform="translate(-88.085 -199.494)" fill="#dda197"/>
                      <path id="Trazado_1086720" data-name="Trazado 1086720" d="M93.237,207.806h0a8.331,8.331,0,0,0-8.13,6.5l-2.084,9.267a5.555,5.555,0,0,0,5.424,6.772h9.582a5.556,5.556,0,0,0,5.424-6.772l-2.084-9.267A8.331,8.331,0,0,0,93.237,207.806Z" transform="translate(-82.885 -202.95)" fill="#e1c2bd"/>
                    </g>
                    <g id="Grupo_1217966" data-name="Grupo 1217966" transform="translate(7.689 13.766)">
                      <path id="Trazado_1086721" data-name="Trazado 1086721" d="M98.034,232.333v-.019a.592.592,0,0,0-.514-.585,5.3,5.3,0,0,1-1.032-.244.6.6,0,0,1-.388-.711l.064-.252a.586.586,0,0,1,.761-.415,4.116,4.116,0,0,0,1.423.265c.689,0,1.161-.266,1.161-.75,0-.459-.387-.749-1.282-1.052-1.3-.435-2.178-1.04-2.178-2.213a2.141,2.141,0,0,1,1.658-2.054.575.575,0,0,0,.386-.554v-.1a.593.593,0,0,1,.593-.592h.594v1.064a4.994,4.994,0,0,1,1.215.191.594.594,0,0,1,.408.718l-.053.208a.586.586,0,0,1-.742.42,3.714,3.714,0,0,0-1.167-.183c-.787,0-1.041.339-1.041.677,0,.4.424.653,1.452,1.039,1.44.508,2.021,1.173,2.021,2.261a2.231,2.231,0,0,1-1.755,2.145.584.584,0,0,0-.4.567v.166a.593.593,0,0,1-.593.592h0A.59.59,0,0,1,98.034,232.333Z" transform="translate(-96.048 -223.059)" fill="#d9786e"/>
                    </g>
                  </g>
                  <g id="Grupo_1217969" data-name="Grupo 1217969" transform="translate(16.259 13.083)">
                    <path id="Trazado_1086722" data-name="Trazado 1086722" d="M123.636,222.3v2.029a.418.418,0,0,1-.418.418H111.133a.417.417,0,0,1-.415-.418V222.3a.414.414,0,0,1,.415-.415h12.086A.415.415,0,0,1,123.636,222.3Z" transform="translate(-110.718 -221.89)" fill="#f29b69"/>
                    <path id="Trazado_1086723" data-name="Trazado 1086723" d="M125.6,227.2v2.029a.418.418,0,0,1-.418.418H113.094a.417.417,0,0,1-.415-.418V227.2a.416.416,0,0,1,.415-.415h12.086A.417.417,0,0,1,125.6,227.2Z" transform="translate(-111.533 -223.927)" fill="#f7c982"/>
                    <path id="Trazado_1086724" data-name="Trazado 1086724" d="M123.636,232.106v2.029a.417.417,0,0,1-.418.415H111.133a.416.416,0,0,1-.415-.415v-2.029a.417.417,0,0,1,.415-.418h12.086A.418.418,0,0,1,123.636,232.106Z" transform="translate(-110.718 -225.964)" fill="#f29b69"/>
                    <path id="Trazado_1086725" data-name="Trazado 1086725" d="M124.347,237v2.029a.414.414,0,0,1-.415.415H111.847a.415.415,0,0,1-.418-.415V237a.418.418,0,0,1,.418-.418h12.086A.417.417,0,0,1,124.347,237Z" transform="translate(-111.014 -228.001)" fill="#f7c982"/>
                    <path id="Trazado_1086726" data-name="Trazado 1086726" d="M124.347,241.9v2.029a.412.412,0,0,1-.318.4.276.276,0,0,1-.1.015H111.847a.418.418,0,0,1-.418-.418V241.9a.418.418,0,0,1,.418-.418h12.086A.417.417,0,0,1,124.347,241.9Z" transform="translate(-111.014 -230.038)" fill="#f29b69"/>
                    <path id="Trazado_1086727" data-name="Trazado 1086727" d="M129.675,226.069V228.1a.418.418,0,0,1-.418.418h-1.146a.418.418,0,0,1,.418.418v2.029a.417.417,0,0,1-.418.415h.418a.417.417,0,0,1,.415.418v2.029a.416.416,0,0,0,0,.832v2.029a.412.412,0,0,1-.318.4,6.522,6.522,0,0,1-5.012-2.85,6.425,6.425,0,0,1-1.075-2.862,6.127,6.127,0,0,1-.053-.806,6.534,6.534,0,0,1,6.044-6.512v1.177a.418.418,0,0,1-.418.418h1.146A.416.416,0,0,1,129.675,226.069Z" transform="translate(-115.611 -222.792)" fill="#ef8066"/>
                    <ellipse id="Elipse_11987" data-name="Elipse 11987" cx="6.537" cy="6.532" rx="6.537" ry="6.532" transform="translate(9.938 1.257) rotate(-0.08)" fill="#f7c982"/>
                    <path id="Trazado_1086728" data-name="Trazado 1086728" d="M140.076,232.4a3.953,3.953,0,1,1-3.953-3.95A3.952,3.952,0,0,1,140.076,232.4Z" transform="translate(-119.638 -224.616)" fill="#f29b69"/>
                    <g id="Grupo_1217968" data-name="Grupo 1217968" transform="translate(15.491 5.913)">
                      <path id="Trazado_1086729" data-name="Trazado 1086729" d="M137.986,235.522v-.007a.224.224,0,0,0-.195-.221,2.009,2.009,0,0,1-.391-.092.226.226,0,0,1-.147-.269l.025-.1a.222.222,0,0,1,.288-.157,1.564,1.564,0,0,0,.539.1c.261,0,.44-.1.44-.284s-.147-.284-.485-.4c-.49-.165-.825-.394-.825-.838a.81.81,0,0,1,.628-.778.217.217,0,0,0,.146-.21v-.037a.224.224,0,0,1,.224-.224h.225v.4a1.877,1.877,0,0,1,.46.072.226.226,0,0,1,.155.272l-.02.079a.222.222,0,0,1-.281.159,1.4,1.4,0,0,0-.442-.07c-.3,0-.394.128-.394.256,0,.151.161.247.55.394.545.192.765.444.765.856a.845.845,0,0,1-.665.812.221.221,0,0,0-.151.214v.063a.224.224,0,0,1-.224.224h0A.224.224,0,0,1,137.986,235.522Z" transform="translate(-137.235 -232.011)" fill="#f7c982"/>
                    </g>
                  </g>
                </g>
              </g>
              <g id="Grupo_1217977" data-name="Grupo 1217977" transform="translate(151.847 42.663)">
                <g id="Grupo_1217973" data-name="Grupo 1217973">
                  <g id="Grupo_1217972" data-name="Grupo 1217972" transform="translate(0 3.63)">
                    <path id="Trazado_1086730" data-name="Trazado 1086730" d="M385.411,258.306l-24.82.57-24.82-.57,24.82-41.668Z" transform="translate(-330.484 -216.638)" fill="none" stroke="#adbcf3" stroke-linecap="round" stroke-linejoin="round" stroke-miterlimit="10" stroke-width="1"/>
                    <path id="Trazado_1086731" data-name="Trazado 1086731" d="M380.331,291.641H333.323a6.6,6.6,0,0,1-6.6-6.6h60.214A6.6,6.6,0,0,1,380.331,291.641Z" transform="translate(-326.72 -245.08)" fill="#4e5fab"/>
                  </g>
                  <path id="Trazado_1086732" data-name="Trazado 1086732" d="M379.3,214.054a3.633,3.633,0,1,1-3.633-3.63A3.631,3.631,0,0,1,379.3,214.054Z" transform="translate(-345.564 -210.424)" fill="#4e5fab"/>
                </g>
                <g id="Grupo_1217976" data-name="Grupo 1217976" transform="translate(9.031 20.193)">
                  <g id="Grupo_1217974" data-name="Grupo 1217974" transform="translate(0 1.418)">
                    <path id="Trazado_1086733" data-name="Trazado 1086733" d="M357.4,256.767c-9.126.6-8.953-9.35-8.953-9.35S356.688,247.359,357.4,256.767Z" transform="translate(-344.787 -247.417)" fill="#479eac"/>
                    <path id="Trazado_1086734" data-name="Trazado 1086734" d="M354.925,260.674c-7.022,5.855-12.746-2.293-12.746-2.293S348.8,253.49,354.925,260.674Z" transform="translate(-342.179 -251.3)" fill="#55bcbf"/>
                  </g>
                  <g id="Grupo_1217975" data-name="Grupo 1217975" transform="translate(29.874 3.334)">
                    <path id="Trazado_1086735" data-name="Trazado 1086735" d="M393.495,262.616c5.175-7.535,12.891-1.238,12.891-1.238S401.332,267.879,393.495,262.616Z" transform="translate(-393.391 -254.114)" fill="#479eac"/>
                    <path id="Trazado_1086736" data-name="Trazado 1086736" d="M393.323,259.286c-.255-9.135,9.693-8.582,9.693-8.582S402.758,258.93,393.323,259.286Z" transform="translate(-393.318 -250.697)" fill="#55bcbf"/>
                  </g>
                  <path id="Trazado_1086737" data-name="Trazado 1086737" d="M365.7,266.011l-.05.009-.032-.04c-5.849-7.192-9.582-19.139-2.606-20.79,6.557-1.558,7.507,6.472,7.6,7.5.74-.713,6.709-6.172,10.658-.71C385.474,257.777,374.836,264.384,365.7,266.011Z" transform="translate(-349.27 -244.99)" fill="#ed6788"/>
                </g>
              </g>
            </g>
            <path id="Trazado_1086738" data-name="Trazado 1086738" d="M403.789,254.444v.053l-.044-.026Z" transform="translate(-206.901 -175.697)" fill="#4e5fab"/>
            <path id="Trazado_1086739" data-name="Trazado 1086739" d="M403.714,254.47l-.044.026v-.053Z" transform="translate(-206.87 -175.697)" fill="#4e5fab"/>
            <path id="Trazado_1086740" data-name="Trazado 1086740" d="M251.6,125.059H241.127a2.706,2.706,0,0,1-2.707-2.707h0a2.706,2.706,0,0,1,2.707-2.707H251.6a2.706,2.706,0,0,1,2.707,2.707h0A2.706,2.706,0,0,1,251.6,125.059Z" transform="translate(-138.156 -119.646)" fill="#4e5fab"/>
            <ellipse id="Elipse_11988" data-name="Elipse 11988" cx="6.146" cy="6.142" rx="6.146" ry="6.142" transform="translate(102.061 12.7)" fill="#4e5fab"/>
          </g>
          <g id="Grupo_1217998" data-name="Grupo 1217998" transform="translate(6.661 36.162)">
            <g id="Grupo_1217997" data-name="Grupo 1217997">
              <g id="Grupo_1217987" data-name="Grupo 1217987" transform="translate(0 71.709)">
                <rect id="Rectángulo_420499" data-name="Rectángulo 420499" width="48.626" height="74.956" transform="translate(78.523 39.316)" fill="#acd5f3"/>
                <path id="Trazado_1086741" data-name="Trazado 1086741" d="M252.864,459.689h-20.12l4.641-50.642.5-5.429h9.841l1.7,18.586Z" transform="translate(-142.457 -345.598)" fill="#ed6788"/>
                <path id="Trazado_1086742" data-name="Trazado 1086742" d="M252.731,422.2l-12.042-13.156.5-5.429h9.841Z" transform="translate(-145.761 -345.598)" fill="#af4484"/>
                <path id="Trazado_1086743" data-name="Trazado 1086743" d="M248.925,397.359h-8.77a3.5,3.5,0,0,1-3.5-3.5V387.4a3.5,3.5,0,0,1,3.5-3.5h8.77a3.5,3.5,0,0,1,3.5,3.5v6.46A3.5,3.5,0,0,1,248.925,397.359Z" transform="translate(-144.083 -337.398)" fill="#ed6788"/>
                <path id="Trazado_1086744" data-name="Trazado 1086744" d="M248.925,388.093h-8.77a3.5,3.5,0,0,1-3.5-3.5v-6.46a3.5,3.5,0,0,1,3.5-3.5h8.77a3.5,3.5,0,0,1,3.5,3.5v6.46A3.5,3.5,0,0,1,248.925,388.093Z" transform="translate(-144.083 -333.545)" fill="#af4484"/>
                <g id="Grupo_1217982" data-name="Grupo 1217982" transform="translate(28.337 36.09)">
                  <g id="Grupo_1217980" data-name="Grupo 1217980">
                    <path id="Trazado_1086745" data-name="Trazado 1086745" d="M183.923,444.261H126.7l.832-63.609,19.3-5.508,23.285-6.65,8.464-2.415Z" transform="translate(-126.699 -366.079)" fill="#2c3569"/>
                    <path id="Trazado_1086746" data-name="Trazado 1086746" d="M162.844,450.713H126.7l.675-51.641.158-11.968,11.647-3.326,1.672-.476,5.977-1.706Z" transform="translate(-126.699 -372.531)" fill="#1b2658"/>
                    <path id="Trazado_1086747" data-name="Trazado 1086747" d="M209.374,444.261h-.38l-18.792-26.7a12.6,12.6,0,0,1,3.114-17.593,57.635,57.635,0,0,1,5.328-3.5c-.469-.263-3.261-2.882-6.29-5.782a12.593,12.593,0,0,1-.982-17.141l4.192-5.052,8.464-2.415Z" transform="translate(-152.15 -366.079)" fill="#4e5fab"/>
                  </g>
                  <g id="Grupo_1217981" data-name="Grupo 1217981" transform="translate(85.618)">
                    <path id="Trazado_1086748" data-name="Trazado 1086748" d="M273.259,444.261h57.224l-.833-63.609-19.3-5.508-23.285-6.65-8.464-2.415Z" transform="translate(-273.259 -366.079)" fill="#2c3569"/>
                    <path id="Trazado_1086749" data-name="Trazado 1086749" d="M309.341,450.713h36.145l-.833-63.609-19.3-5.508Z" transform="translate(-288.263 -372.531)" fill="#1b2658"/>
                    <path id="Trazado_1086750" data-name="Trazado 1086750" d="M273.259,444.261h.38l18.792-26.7a12.6,12.6,0,0,0-3.114-17.593,57.64,57.64,0,0,0-5.328-3.5c.469-.263,3.261-2.882,6.29-5.782a12.593,12.593,0,0,0,.982-17.141l-4.192-5.052-8.464-2.415Z" transform="translate(-273.259 -366.079)" fill="#4e5fab"/>
                  </g>
                </g>
                <g id="Grupo_1217984" data-name="Grupo 1217984">
                  <g id="Grupo_1217983" data-name="Grupo 1217983">
                    <path id="Trazado_1086751" data-name="Trazado 1086751" d="M103.316,315.469s-1.146-8.952,1.2-9.707,2.4,5.721,2.552,6.882.677,4.361.677,4.361" transform="translate(-88.522 -304.883)" fill="#f29d9b"/>
                    <path id="Trazado_1086752" data-name="Trazado 1086752" d="M110.068,321.219s1.229-8.941,3.689-9.06.821,6.148.669,7.308-.484,4.386-.484,4.386" transform="translate(-91.447 -307.568)" fill="#f29d9b"/>
                    <path id="Trazado_1086753" data-name="Trazado 1086753" d="M135.38,330.925c-.59-4.51-3.09-10.965-.8-12.977s5.07,4.785,7.57,10.2a32.6,32.6,0,0,1,2.778,10.689" transform="translate(-101.245 -309.825)" fill="#f29d9b"/>
                    <path id="Trazado_1086754" data-name="Trazado 1086754" d="M106.618,334.231c-1.91-3.141-8.3-3.627-13.994-13.62s-3.056-16.169-1.042-16.308,2.847,4.095,3.75,5.691,21.808,11.235,27.5,16.929,7.709,7.914,6.112,14.022" transform="translate(-82.762 -304.3)" fill="#f5bdbb"/>
                    <path id="Trazado_1086755" data-name="Trazado 1086755" d="M140.375,358.926l-.292,2.7L138.71,374.33l-24.378-9.436.982-4.334,1.172-5.175Z" transform="translate(-93.219 -325.543)" fill="#dbeefc"/>
                    <path id="Trazado_1086756" data-name="Trazado 1086756" d="M140.083,365.307l-1.373,12.707-24.379-9.436.982-4.334C121.1,364.489,131.613,364.942,140.083,365.307Z" transform="translate(-93.219 -329.226)" fill="#acd5f3"/>
                    <path id="Trazado_1086757" data-name="Trazado 1086757" d="M117.571,444.26H78.192L98.4,366.078l27.5,4.371" transform="translate(-78.192 -329.989)" fill="#2c3569"/>
                  </g>
                  <path id="Trazado_1086758" data-name="Trazado 1086758" d="M149.61,379.6a2.361,2.361,0,1,1-2.361-2.36A2.36,2.36,0,0,1,149.61,379.6Z" transform="translate(-105.925 -334.632)" fill="#4e5fab"/>
                </g>
                <g id="Grupo_1217986" data-name="Grupo 1217986" transform="translate(154.8)">
                  <g id="Grupo_1217985" data-name="Grupo 1217985">
                    <path id="Trazado_1086759" data-name="Trazado 1086759" d="M396.379,315.469s1.146-8.952-1.2-9.707-2.4,5.721-2.552,6.882-.677,4.361-.677,4.361" transform="translate(-363.459 -304.883)" fill="#f29d9b"/>
                    <path id="Trazado_1086760" data-name="Trazado 1086760" d="M389.394,321.219s-1.229-8.941-3.689-9.06-.821,6.148-.669,7.308.484,4.386.484,4.386" transform="translate(-360.303 -307.568)" fill="#f29d9b"/>
                    <path id="Trazado_1086761" data-name="Trazado 1086761" d="M359.623,330.925c.591-4.51,3.09-10.965.8-12.977s-5.07,4.785-7.57,10.2a32.6,32.6,0,0,0-2.778,10.689" transform="translate(-346.045 -309.825)" fill="#f29d9b"/>
                    <path id="Trazado_1086762" data-name="Trazado 1086762" d="M367.745,334.231c1.91-3.141,8.3-3.627,13.995-13.62s3.056-16.169,1.042-16.308-2.847,4.095-3.75,5.691-21.808,11.235-27.5,16.929-7.709,7.914-6.112,14.022" transform="translate(-343.889 -304.3)" fill="#f5bdbb"/>
                    <path id="Trazado_1086763" data-name="Trazado 1086763" d="M344.131,358.926l.292,2.7L345.8,374.33l24.379-9.436-.982-4.334-1.172-5.175Z" transform="translate(-343.574 -325.543)" fill="#dbeefc"/>
                    <path id="Trazado_1086764" data-name="Trazado 1086764" d="M344.631,365.307l1.374,12.707,24.378-9.436-.982-4.334C363.617,364.489,353.1,364.942,344.631,365.307Z" transform="translate(-343.782 -329.226)" fill="#acd5f3"/>
                    <path id="Trazado_1086765" data-name="Trazado 1086765" d="M390.891,444.26l-20.21-78.182-27.5,4.371,8.334,73.811Z" transform="translate(-343.178 -329.989)" fill="#2c3569"/>
                  </g>
                  <path id="Trazado_1086766" data-name="Trazado 1086766" d="M350.073,379.6a2.361,2.361,0,1,0,2.361-2.36A2.36,2.36,0,0,0,350.073,379.6Z" transform="translate(-346.045 -334.632)" fill="#4e5fab"/>
                </g>
              </g>
              <g id="Grupo_1217996" data-name="Grupo 1217996" transform="translate(60.7)">
                <path id="Trazado_1086767" data-name="Trazado 1086767" d="M256.962,366.269c-.833,2.079-11.875,13.323-15.73,14.675s-8.26-10.826-8.26-10.826-4.408,12.181-8.263,10.826-14.9-12.6-15.73-14.675,1.979-7.6,5.521-11.281,5.626-2.462,5.626-2.462l12.846,2.462,12.846-2.462s2.081-1.221,5.623,2.462S257.8,364.187,256.962,366.269Z" transform="translate(-193.214 -252.563)" fill="#dbeefc"/>
                <g id="Grupo_1217995" data-name="Grupo 1217995">
                  <path id="Trazado_1086768" data-name="Trazado 1086768" d="M254.656,325.758v16.448c0,.277-.009.552-.023.824a15,15,0,0,1-29.978-.823V325.759h30Z" transform="translate(-199.794 -241.513)" fill="#f29d9b"/>
                  <path id="Trazado_1086769" data-name="Trazado 1086769" d="M254.656,325.758v16.448c0,.277-.009.552-.023.824-11.989,3.726-24.285-4.909-29.978-9.769v-7.5Z" transform="translate(-199.794 -241.513)" fill="#db6d69"/>
                  <g id="Grupo_1217994" data-name="Grupo 1217994">
                    <g id="Grupo_1217993" data-name="Grupo 1217993">
                      <g id="Grupo_1217991" data-name="Grupo 1217991">
                        <g id="Grupo_1217990" data-name="Grupo 1217990">
                          <g id="Grupo_1217988" data-name="Grupo 1217988">
                            <path id="Trazado_1086770" data-name="Trazado 1086770" d="M260.515,205.965s3.3,2.7,2.964,8.527a18.247,18.247,0,0,1-1.09,5.11c-3.332,9.369-8.02,17.312-8.125,25.258s-42.92,5.551-43.233,5.657l-18.767-6.264-1.929-.643c-1.295-7.377-8.406-13.045-7.57-23.106.038-.467.093-.92.166-1.352a12.7,12.7,0,0,1,9.347-10.516s-5.208-3.919-2.6-11.518,18.545-17.073,31.358-13.951,18.854,5.934,26.354,4.165,14.588-8.951,18.963-4.165c4.317,4.728-6.383,11.684-6.664,11.865.248-.07,8.441-2.415,8.745,2.812C268.743,203.156,260.515,205.965,260.515,205.965Z" transform="translate(-182.347 -181.548)" fill="#2c3569"/>
                            <path id="Trazado_1086771" data-name="Trazado 1086771" d="M191.045,270.615l-.71-.237c-1.295-7.377-8.406-13.045-7.57-23.106.038-.467.093-.92.166-1.352a12.967,12.967,0,0,0,4.186.429C187.286,251.256,188.011,261.431,191.045,270.615Z" transform="translate(-182.347 -208.315)" fill="#1b2658"/>
                            <path id="Trazado_1086772" data-name="Trazado 1086772" d="M313.113,235.5a18.247,18.247,0,0,1-1.09,5.11c-3.332,9.369,1.09,23.316-9.961,26.336,0,0,4.51-13.5,5.9-25.991a13.856,13.856,0,0,0-1.7-8.881A35.88,35.88,0,0,1,313.113,235.5Z" transform="translate(-231.981 -202.56)" fill="#1b2658"/>
                            <ellipse id="Elipse_11989" data-name="Elipse 11989" cx="8.912" cy="8.904" rx="8.912" ry="8.904" transform="translate(0 54.409)" fill="#f29d9b"/>
                            <line id="Línea_677" data-name="Línea 677" x2="0.973" y2="5.69" transform="translate(5.417 60.607)" fill="none" stroke="#db6d69" stroke-linecap="round" stroke-linejoin="round" stroke-miterlimit="10" stroke-width="2"/>
                          </g>
                          <g id="Grupo_1217989" data-name="Grupo 1217989" transform="translate(61.693 54.409)">
                            <ellipse id="Elipse_11990" data-name="Elipse 11990" cx="8.912" cy="8.904" rx="8.912" ry="8.904" fill="#f29d9b"/>
                            <line id="Línea_678" data-name="Línea 678" x1="0.972" y2="5.69" transform="translate(11.434 6.198)" fill="none" stroke="#db6d69" stroke-linecap="round" stroke-linejoin="round" stroke-miterlimit="10" stroke-width="2"/>
                          </g>
                          <path id="Trazado_1086773" data-name="Trazado 1086773" d="M257.535,272.359c-1.944,9.3-14.926,26.508-29.757,26.508s-27.813-17.21-29.756-26.508-1.666-29.286-1.666-29.286l3.472-6.244h55.9l3.472,6.244S259.482,263.061,257.535,272.359Z" transform="translate(-188.021 -204.536)" fill="#f5bdbb"/>
                        </g>
                        <path id="Trazado_1086774" data-name="Trazado 1086774" d="M261.438,236.315c-1.388,12.493-5.9,25.991-5.9,25.991s-3.893-18.635-.632-28.961c-11.39-4.775-19.308,2.833-36.391,4.5s-21.114-3.192-21.114-3.192a76.923,76.923,0,0,1-2.028,25.971c-.152.561-.313,1.125-.483,1.685q-.39-1.034-.737-2.091c-3.034-9.185-3.759-19.359-3.928-24.266-.061-1.863-.047-2.964-.047-2.964l3.6-4.024,57.1-8.052a15.616,15.616,0,0,1,8.859,6.524A13.861,13.861,0,0,1,261.438,236.315Z" transform="translate(-185.459 -197.916)" fill="#2c3569"/>
                        <path id="Trazado_1086775" data-name="Trazado 1086775" d="M261.472,239.616c-1.388,12.493-5.9,25.991-5.9,25.991s-3.893-18.635-.632-28.961c-11.39-4.775-19.308,2.833-36.391,4.5s-21.113-3.192-21.113-3.192a76.923,76.923,0,0,1-2.028,25.971c-.152.561-.313,1.125-.483,1.685q-.39-1.034-.737-2.091c-3.034-9.185-3.759-19.359-3.928-24.266a9.424,9.424,0,0,0,6.848-3.42s5.4,2.608,19.149.631,27.628-11.139,42.359-6.142c.391.134.778.272,1.154.415A13.855,13.855,0,0,1,261.472,239.616Z" transform="translate(-185.493 -201.217)" fill="#1b2658"/>
                      </g>
                      <path id="Trazado_1086776" data-name="Trazado 1086776" d="M248.483,274.686l4.014,9.841a4.006,4.006,0,0,1-3.712,5.518h-1.4" transform="translate(-209.246 -220.277)" fill="none" stroke="#db6d69" stroke-linecap="round" stroke-linejoin="round" stroke-miterlimit="10" stroke-width="2"/>
                      <g id="Grupo_1217992" data-name="Grupo 1217992" transform="translate(22.592 55.611)">
                        <ellipse id="Elipse_11991" data-name="Elipse 11991" cx="2.743" cy="3.539" rx="2.743" ry="3.539" transform="translate(0 0)"/>
                        <path id="Trazado_1086777" data-name="Trazado 1086777" d="M277.854,280.282c0,1.955-1.228,3.539-2.743,3.539s-2.743-1.584-2.743-3.539,1.228-3.539,2.743-3.539S277.854,278.327,277.854,280.282Z" transform="translate(-242.226 -276.743)"/>
                      </g>
                      <path id="Trazado_1086778" data-name="Trazado 1086778" d="M217.353,264.4a8.746,8.746,0,0,1,9.48-.833" transform="translate(-196.758 -215.212)" fill="none" stroke="#2c3569" stroke-linecap="round" stroke-linejoin="round" stroke-miterlimit="10" stroke-width="2.501"/>
                      <path id="Trazado_1086779" data-name="Trazado 1086779" d="M275.011,264.4a8.745,8.745,0,0,0-9.48-.833" transform="translate(-216.791 -215.212)" fill="none" stroke="#2c3569" stroke-linecap="round" stroke-linejoin="round" stroke-miterlimit="10" stroke-width="2.501"/>
                      <ellipse id="Elipse_11992" data-name="Elipse 11992" cx="10.856" cy="10.847" rx="10.856" ry="10.847" transform="translate(15.223 50.523)" fill="none" stroke="#fff" stroke-miterlimit="10" stroke-width="2"/>
                      <ellipse id="Elipse_11993" data-name="Elipse 11993" cx="10.856" cy="10.847" rx="10.856" ry="10.847" transform="translate(44.621 50.523)" fill="none" stroke="#fff" stroke-miterlimit="10" stroke-width="2"/>
                      <line id="Línea_679" data-name="Línea 679" x2="7.914" transform="translate(36.706 59.15)" fill="none" stroke="#fff" stroke-miterlimit="10" stroke-width="2"/>
                      <line id="Línea_680" data-name="Línea 680" x1="8.468" transform="translate(7.383 57.73)" fill="none" stroke="#fff" stroke-miterlimit="10" stroke-width="2"/>
                      <line id="Línea_681" data-name="Línea 681" x1="6.32" transform="translate(65.631 57.73)" fill="none" stroke="#fff" stroke-miterlimit="10" stroke-width="2"/>
                    </g>
                    <path id="Trazado_1086780" data-name="Trazado 1086780" d="M250.789,315.587c.87,0,1.522.565,1.32,1.155-.746,2.164-3.541,3.772-6.875,3.772s-6.129-1.608-6.875-3.772c-.2-.589.45-1.155,1.319-1.155Z" transform="translate(-205.477 -237.284)" fill="#fff"/>
                  </g>
                </g>
              </g>
            </g>
          </g>
        </g>
      </g>
    </g>
  </g>
</svg>
