<svg xmlns="http://www.w3.org/2000/svg" xmlns:xlink="http://www.w3.org/1999/xlink" width="103" height="103" viewBox="0 0 103 103">
  <defs>
    <filter id="Trazado_978624" x="0" y="0" width="103" height="103" filterUnits="userSpaceOnUse">
      <feOffset dy="3" input="SourceAlpha"/>
      <feGaussianBlur stdDeviation="3" result="blur"/>
      <feFlood flood-opacity="0.161"/>
      <feComposite operator="in" in2="blur"/>
      <feComposite in="SourceGraphic"/>
    </filter>
  </defs>
  <g id="Grupo_1217706" data-name="Grupo 1217706" transform="translate(-193 -2319.686)">
    <g id="Grupo_1211580" data-name="Grupo 1211580" transform="translate(1 2005.686)">
      <g id="Grupo_1180764" data-name="Grupo 1180764" transform="translate(1 -4144)">
        <g id="Grupo_1179463" data-name="Grupo 1179463" transform="translate(200 4464)">
          <g id="Grupo_1144531" data-name="Grupo 1144531">
            <g transform="matrix(1, 0, 0, 1, -9, -6)" filter="url(#Trazado_978624)">
              <g id="Trazado_978624-2" data-name="Trazado 978624" transform="translate(9 6)" fill="#edeef2">
                <path d="M 42.5 83.5 C 36.96437835693359 83.5 31.59512901306152 82.41617584228516 26.54141235351562 80.27863311767578 C 21.65934181213379 78.21369171142578 17.27447128295898 75.25723266601562 13.50862312316895 71.49137878417969 C 9.742764472961426 67.72553253173828 6.786305904388428 63.34066009521484 4.721364498138428 58.45858764648438 C 2.583823442459106 53.40486907958984 1.5 48.03562164306641 1.5 42.5 C 1.5 36.96437835693359 2.583823442459106 31.59512901306152 4.721364498138428 26.54141235351562 C 6.786305904388428 21.65934181213379 9.742764472961426 17.27447128295898 13.50862312316895 13.50862312316895 C 17.27447128295898 9.742764472961426 21.65934181213379 6.786305904388428 26.54141235351562 4.721364498138428 C 31.59512901306152 2.583823442459106 36.96437835693359 1.5 42.5 1.5 C 48.03562164306641 1.5 53.40486907958984 2.583823442459106 58.45858764648438 4.721364498138428 C 63.34066009521484 6.786305904388428 67.72553253173828 9.742764472961426 71.49137878417969 13.50862312316895 C 75.25723266601562 17.27447128295898 78.21369171142578 21.65934181213379 80.27863311767578 26.54141235351562 C 82.41617584228516 31.59512901306152 83.5 36.96437835693359 83.5 42.5 C 83.5 48.03562164306641 82.41617584228516 53.40486907958984 80.27863311767578 58.45858764648438 C 78.21369171142578 63.34066009521484 75.25723266601562 67.72553253173828 71.49137878417969 71.49137878417969 C 67.72553253173828 75.25723266601562 63.34066009521484 78.21369171142578 58.45858764648438 80.27863311767578 C 53.40486907958984 82.41617584228516 48.03562164306641 83.5 42.5 83.5 Z" stroke="none"/>
                <path d="M 42.5 3 C 37.16621398925781 3 31.99356079101562 4.043960571289062 27.125732421875 6.102882385253906 C 22.42246627807617 8.092185974121094 18.19785308837891 10.94070434570312 14.56928253173828 14.56928253173828 C 10.94070434570312 18.19785308837891 8.092185974121094 22.42246627807617 6.102882385253906 27.125732421875 C 4.043960571289062 31.99356079101562 3 37.16621398925781 3 42.5 C 3 47.83378601074219 4.043960571289062 53.00643920898438 6.102882385253906 57.87425231933594 C 8.092185974121094 62.57753372192383 10.94070434570312 66.80213165283203 14.56928253173828 70.43071746826172 C 18.19786834716797 74.05929565429688 22.42246627807617 76.90781402587891 27.125732421875 78.89711761474609 C 31.99356079101562 80.95603942871094 37.16621398925781 82 42.5 82 C 47.83378601074219 82 53.00642395019531 80.95603942871094 57.87425231933594 78.89711761474609 C 62.57753372192383 76.90781402587891 66.80213165283203 74.05929565429688 70.43071746826172 70.43071746826172 C 74.05929565429688 66.80213165283203 76.90781402587891 62.57753372192383 78.89711761474609 57.87425231933594 C 80.95603942871094 53.00642395019531 82 47.83378601074219 82 42.5 C 82 37.16621398925781 80.95603942871094 31.99356079101562 78.89711761474609 27.125732421875 C 76.90781402587891 22.42246627807617 74.05929565429688 18.19786834716797 70.43071746826172 14.56928253173828 C 66.80213165283203 10.94070434570312 62.57753372192383 8.092185974121094 57.87425231933594 6.102882385253906 C 53.00643920898438 4.043960571289062 47.83378601074219 3 42.5 3 M 42.5 0 C 65.97209167480469 0 85 19.02789306640625 85 42.5 C 85 65.97209167480469 65.97209167480469 85 42.5 85 C 19.02789306640625 85 0 65.97209167480469 0 42.5 C 0 19.02789306640625 19.02789306640625 0 42.5 0 Z" stroke="none" fill="#56678d"/>
              </g>
            </g>
          </g>
        </g>
      </g>
    </g>
    <g id="apreton-de-manos" transform="translate(197.123 2245.094)">
      <g id="Grupo_1217704" data-name="Grupo 1217704" transform="translate(1.376 99.434)">
        <g id="Grupo_1217699" data-name="Grupo 1217699" transform="translate(21.672 1.262)">
          <path id="Trazado_1086249" data-name="Trazado 1086249" d="M179.3,136.824l-2.387-19.389-4.473.551,0,0-8.671-4.88a5.225,5.225,0,0,0-3.043-.649l-13.691,1.266a5.224,5.224,0,0,0-4.036,2.577l-9.65,16.609a2.3,2.3,0,0,0,1.174,3.3l.395.149a8.56,8.56,0,0,0,2.32.518l-1.223,1.065-2.446,2.131L126.618,146a2.972,2.972,0,0,0-.288,4.195l.706.808a3.82,3.82,0,0,0,5.389.368l2.659,3.05a3.813,3.813,0,0,0,5.389.368l2.656,3.05a3.822,3.822,0,0,0,5.392.37l1.443,1.248a3.822,3.822,0,0,0,5.392.37l1.962-1.712,16.5-12.848.018-.016,6.509-.006Z" transform="translate(-125.598 -112.431)" fill="#f29f5c"/>
          <path id="Trazado_1086250" data-name="Trazado 1086250" d="M172.244,260.251l-.018.016-16.5,12.848-1.962,1.712a3.822,3.822,0,0,1-5.392-.37l-1.443-1.247a3.822,3.822,0,0,1-5.392-.371l-2.656-3.05a3.813,3.813,0,0,1-5.389-.368l-2.659-3.05a3.82,3.82,0,0,1-4.731.225,2.971,2.971,0,0,0,.235,3.594l.706.808a3.82,3.82,0,0,0,5.389.368l2.659,3.05a3.813,3.813,0,0,0,5.389.368l2.656,3.05a3.822,3.822,0,0,0,5.392.371l1.443,1.248a3.822,3.822,0,0,0,5.392.37l1.962-1.712,16.5-12.848.018-.016,6.509-.006-.72-5.85Z" transform="translate(-125.607 -232.421)" fill="#d37d42"/>
        </g>
        <g id="Grupo_1217700" data-name="Grupo 1217700" transform="translate(12.704 2.028)">
          <path id="Trazado_1086251" data-name="Trazado 1086251" d="M135.336,152.059l-8.839-7.621-2.458-2.118-1.759-1.515-7.562-6.518.873-7.434a5.13,5.13,0,0,0-3.727-5.543L95.38,116.748a3.815,3.815,0,0,0-4.413,1.937l-2.073,4.046-8.9-.6-2.279,19.4-.991,8.431,8.661.576.018.016,18.095,15.6,1.972,1.7a3.822,3.822,0,0,0,5.39-.4l2.639-3.062a3.822,3.822,0,0,0,5.39-.4l2.639-3.065a3.814,3.814,0,0,0,5.387-.4l2.642-3.065a3.82,3.82,0,0,0,5.387-.4l.7-.812A2.972,2.972,0,0,0,135.336,152.059Z" transform="translate(-76.727 -116.61)" fill="#f9c295"/>
          <path id="Trazado_1086252" data-name="Trazado 1086252" d="M257.927,299.452l-2.692-2.321a3.155,3.155,0,0,1-.13,3.957l-.745.862a4.056,4.056,0,0,1-5.718.422l-2.8,3.253a4.048,4.048,0,0,1-5.718.422l-2.8,3.254a4.057,4.057,0,0,1-5.722.425l-2.8,3.251a4.028,4.028,0,0,1-1.922,1.239l1.193,1.029a3.822,3.822,0,0,0,5.39-.4l2.639-3.062a3.822,3.822,0,0,0,5.39-.4l2.639-3.065a3.814,3.814,0,0,0,5.387-.4l2.642-3.065a3.82,3.82,0,0,0,5.387-.4l.7-.812A2.973,2.973,0,0,0,257.927,299.452Z" transform="translate(-199.319 -264.003)" fill="#e59f6a"/>
        </g>
        <g id="Grupo_1217702" data-name="Grupo 1217702" transform="translate(20.074 34.579)">
          <g id="Grupo_1217701" data-name="Grupo 1217701">
            <path id="Trazado_1086253" data-name="Trazado 1086253" d="M118.63,295.345l-1.048,1.384a3.424,3.424,0,0,0,.662,4.8h0a3.424,3.424,0,0,0,4.8-.662l1.048-1.384a3.424,3.424,0,0,0-.662-4.8h0A3.424,3.424,0,0,0,118.63,295.345Z" transform="translate(-116.887 -293.988)" fill="#f29f5c"/>
            <path id="Trazado_1086254" data-name="Trazado 1086254" d="M149.306,311.211l-1.974,2.607a3.424,3.424,0,0,0,.662,4.8h0a3.424,3.424,0,0,0,4.8-.662l1.974-2.607a3.424,3.424,0,0,0-.662-4.8h0A3.424,3.424,0,0,0,149.306,311.211Z" transform="translate(-141.178 -306.942)" fill="#f29f5c"/>
            <path id="Trazado_1086255" data-name="Trazado 1086255" d="M179.771,328.586l-2.691,3.553a3.424,3.424,0,0,0,.662,4.8h0a3.424,3.424,0,0,0,4.8-.663l2.691-3.553a3.424,3.424,0,0,0-.662-4.8h0A3.424,3.424,0,0,0,179.771,328.586Z" transform="translate(-165.467 -321.129)" fill="#f29f5c"/>
            <path id="Trazado_1086256" data-name="Trazado 1086256" d="M209.678,349.993l-2.847,3.759a3.424,3.424,0,0,0,.663,4.8h0a3.424,3.424,0,0,0,4.8-.663l2.847-3.759a3.424,3.424,0,0,0-.663-4.8h0A3.424,3.424,0,0,0,209.678,349.993Z" transform="translate(-189.758 -338.607)" fill="#f29f5c"/>
          </g>
        </g>
        <path id="Trazado_1086257" data-name="Trazado 1086257" d="M205.579,117.982l-8.671-4.88a5.225,5.225,0,0,0-3.043-.649l-13.691,1.266a5.224,5.224,0,0,0-4.036,2.577l-9.65,16.609a2.3,2.3,0,0,0,1.174,3.3l.395.149a8.58,8.58,0,0,0,9.836-2.8l3.7-4.812s8.887,10.29,18.672-1.727" transform="translate(-137.058 -111.17)" fill="#f29f5c"/>
        <path id="Trazado_1086258" data-name="Trazado 1086258" d="M418.323,105.557l4.535,36.84-10.6,1.306a3.657,3.657,0,0,1-4.076-3.182l-3.642-29.582a3.656,3.656,0,0,1,3.182-4.076Z" transform="translate(-331.652 -105.557)" fill="#5c9cee"/>
        <path id="Trazado_1086259" data-name="Trazado 1086259" d="M426.174,277.01a4.009,4.009,0,0,1-4.4-3.092l.5,4.067a3.656,3.656,0,0,0,4.076,3.182l10.6-1.306-.507-4.117Z" transform="translate(-345.751 -243.022)" fill="#3580d3"/>
        <path id="Trazado_1086260" data-name="Trazado 1086260" d="M12.036,105.557,7.5,142.4l10.6,1.306a3.656,3.656,0,0,0,4.076-3.182l3.642-29.582a3.656,3.656,0,0,0-3.182-4.076Z" transform="translate(-7.501 -105.557)" fill="#ed5575"/>
        <path id="Trazado_1086261" data-name="Trazado 1086261" d="M18.355,281.112,8.02,279.84,7.5,284.056l10.6,1.306a3.656,3.656,0,0,0,4.076-3.182l.385-3.125A4.3,4.3,0,0,1,18.355,281.112Z" transform="translate(-7.501 -247.215)" fill="#cc3a60"/>
        <g id="Grupo_1217703" data-name="Grupo 1217703" transform="translate(4.623 28.113)">
          <circle id="Elipse_11956" data-name="Elipse 11956" cx="2.661" cy="2.661" r="2.661" transform="translate(76.49)" fill="#ebeef2"/>
          <circle id="Elipse_11957" data-name="Elipse 11957" cx="2.661" cy="2.661" r="2.661" fill="#ebeef2"/>
        </g>
      </g>
      <g id="Grupo_1217705" data-name="Grupo 1217705" transform="translate(-0.001 98.057)">
        <path id="Trazado_1086262" data-name="Trazado 1086262" d="M47,143.639a4.789,4.789,0,0,0-3.78-.89,4.8,4.8,0,0,0-5.391-3.967,4.85,4.85,0,0,0-.914.218,4.794,4.794,0,0,0-6.437-3.086,4.8,4.8,0,0,0-7.9-1.916l-5.038-.335,3.088-25.083,5.533.376q.047,0,.094,0a1.376,1.376,0,0,0,1.224-.749l2.073-4.046a2.448,2.448,0,0,1,2.82-1.238l3.079.851a1.376,1.376,0,0,0,.734-2.653l-3.079-.851a5.212,5.212,0,0,0-6,2.635l-1.66,3.24-4.478-.3.106-.862a5.038,5.038,0,0,0-4.38-5.61l-10.6-1.3a1.376,1.376,0,1,0-.336,2.732l10.6,1.306a2.28,2.28,0,0,1,1.984,2.542L14.69,134.229a2.284,2.284,0,0,1-2.542,1.985l-10.6-1.306a1.376,1.376,0,1,0-.336,2.732l10.6,1.305a5.027,5.027,0,0,0,5.023-2.569l3.769.251a4.8,4.8,0,0,0,4.259,7,4.9,4.9,0,0,0,.667-.046l.042-.007c0,.014,0,.028,0,.043a4.8,4.8,0,0,0,4.75,4.142,4.843,4.843,0,0,0,.707-.054,4.791,4.791,0,0,0,4.753,4.188,4.838,4.838,0,0,0,.7-.053c0,.015,0,.031.005.046a4.8,4.8,0,0,0,4.745,4.145,4.892,4.892,0,0,0,.667-.046,4.769,4.769,0,0,0,3.17-1.857l2.847-3.759A4.805,4.805,0,0,0,47,143.639ZM25.154,140.85a2.048,2.048,0,0,1-1.912-3.265L24.29,136.2a2.048,2.048,0,0,1,3.265,2.473l-1.049,1.384A2.035,2.035,0,0,1,25.154,140.85Zm3.943,3.738a2.048,2.048,0,0,1-.4-2.869l1.048-1.384h0l.926-1.223a2.048,2.048,0,0,1,3.265,2.473l-1.974,2.607A2.05,2.05,0,0,1,29.1,144.589Zm5.459,4.135a2.048,2.048,0,0,1-.4-2.868h0l1.974-2.607h0l.716-.946a2.048,2.048,0,0,1,3.266,2.472l-2.692,3.554h0A2.05,2.05,0,0,1,34.556,148.723Zm11.175-.021-2.847,3.759a2.048,2.048,0,1,1-3.265-2.473l2.691-3.553v0l.155-.2a2.048,2.048,0,1,1,3.265,2.473Z" transform="translate(0.001 -98.057)"/>
        <path id="Trazado_1086263" data-name="Trazado 1086263" d="M223.507,136.106a1.377,1.377,0,0,0-1.534-1.2l-10.6,1.306a2.282,2.282,0,0,1-2.542-1.985l-.109-.883h0l-.025-.2-3.508-28.495a2.28,2.28,0,0,1,1.984-2.542l10.6-1.306a1.376,1.376,0,1,0-.336-2.732l-10.6,1.306a5.039,5.039,0,0,0-4.416,5.125l-2.674.329-8.281-4.66a6.572,6.572,0,0,0-3.844-.821h-.008l-2.493.23a1.376,1.376,0,1,0,.254,2.741l2.5-.231a3.831,3.831,0,0,1,2.241.478L198.7,107.4a1.377,1.377,0,0,0,.926.218l3.106-.382,2.278,18.506.788,6.4-4.954,0a1.375,1.375,0,0,0-.9.335l-.383.3-12.438-10.72c2.842-.817,5.552-2.794,8.085-5.9a1.376,1.376,0,1,0-2.135-1.738c-2.832,3.478-5.809,5.268-8.849,5.32-4.429.083-7.684-3.589-7.714-3.624a1.376,1.376,0,0,0-2.133.061l-3.7,4.812a7.162,7.162,0,0,1-8.258,2.35l-.395-.149a.919.919,0,0,1-.47-1.321l9.65-16.609a3.855,3.855,0,0,1,2.973-1.9l5.713-.528a1.376,1.376,0,0,0-.254-2.741l-5.713.528a6.613,6.613,0,0,0-5.1,3.257l-9.65,16.609a3.672,3.672,0,0,0,1.878,5.279l.395.149a10.027,10.027,0,0,0,3.547.652,9.9,9.9,0,0,0,7.866-3.9l2.758-3.59a13.592,13.592,0,0,0,7.756,3.393l17.974,15.491a1.6,1.6,0,0,1,.168,2.252l-.7.812a2.449,2.449,0,0,1-3.448.253,1.377,1.377,0,0,0-.18-.13l-4.666-4.023a1.376,1.376,0,1,0-1.8,2.085l3.792,3.269-1.73,2.007a2.438,2.438,0,0,1-3.447.255l-.02-.016-4.335-3.738a1.376,1.376,0,0,0-1.8,2.085l3.313,2.857-1.74,2.021a2.447,2.447,0,0,1-2.141.833,1.376,1.376,0,0,0-.321,2.734,5.2,5.2,0,0,0,4.547-1.77l1.86-2.16a5.194,5.194,0,0,0,6.166-1.3l1.863-2.162a5.209,5.209,0,0,0,6.165-1.3l.7-.814a4.349,4.349,0,0,0-.456-6.134l-1.13-.974,4.129,0a5.029,5.029,0,0,0,5.558,4.054l10.6-1.306A1.377,1.377,0,0,0,223.507,136.106Z" transform="translate(-129.558 -98.058)"/>
        <path id="Trazado_1086264" data-name="Trazado 1086264" d="M446.041,251.249a4.037,4.037,0,1,0,4.037,4.037A4.042,4.042,0,0,0,446.041,251.249Zm0,5.321a1.284,1.284,0,1,1,1.284-1.284A1.286,1.286,0,0,1,446.041,256.57Z" transform="translate(-360.891 -223.137)"/>
        <path id="Trazado_1086265" data-name="Trazado 1086265" d="M33.267,255.286a4.037,4.037,0,1,0-4.037,4.037A4.041,4.041,0,0,0,33.267,255.286Zm-5.321,0a1.284,1.284,0,1,1,1.284,1.284A1.286,1.286,0,0,1,27.946,255.286Z" transform="translate(-20.57 -223.137)"/>
      </g>
    </g>
  </g>
</svg>
